<svg width="48" height="72" viewBox="0 0 48 72" fill="none" xmlns="http://www.w3.org/2000/svg">
<rect width="48" height="72" fill="#FF3D3D"/>
<path fill-rule="evenodd" clip-rule="evenodd" d="M34 36C34 41.5228 29.5228 46 24 46H14.9937C14.1102 46 13.6677 44.9229 14.2925 44.2929L16.2495 42.3195C14.8433 40.597 14 38.397 14 36C14 30.4772 18.4772 26 24 26C29.5228 26 34 30.4772 34 36ZM27.2071 32.7929C27.5976 33.1834 27.5976 33.8166 27.2071 34.2071L25.4142 36L27.2071 37.7929C27.5976 38.1834 27.5976 38.8166 27.2071 39.2071C26.8166 39.5976 26.1834 39.5976 25.7929 39.2071L24 37.4142L22.2071 39.2071C21.8166 39.5976 21.1834 39.5976 20.7929 39.2071C20.4024 38.8166 20.4024 38.1834 20.7929 37.7929L22.5858 36L20.7929 34.2071C20.4024 33.8166 20.4024 33.1834 20.7929 32.7929C21.1834 32.4024 21.8166 32.4024 22.2071 32.7929L24 34.5858L25.7929 32.7929C26.1834 32.4024 26.8166 32.4024 27.2071 32.7929Z" fill="#FFF5F5"/>
</svg>
