<svg width="40" height="40" viewBox="0 0 40 40" fill="none" xmlns="http://www.w3.org/2000/svg">
<mask id="mask0_2183_68724" style="mask-type:alpha" maskUnits="userSpaceOnUse" x="0" y="0" width="40" height="40">
<circle cx="20" cy="20" r="20" fill="white"/>
</mask>
<g mask="url(#mask0_2183_68724)">
<circle cx="20" cy="20" r="20" fill="white"/>
<circle cx="20" cy="20" r="19.5" fill="#F5F8FF" stroke="#7FA7FA"/>
<path d="M27.7194 6.72001C27.7194 6.72001 28.4128 7.51127 27.3958 7.74783L26.9798 7.69345L26.6399 7.50583L26.8167 7.01095L27.4067 6.65747L27.7194 6.72001Z" fill="#145CF6"/>
<path d="M27.3956 7.84836C27.4037 7.84836 27.4119 7.84836 27.4173 7.84564C27.7518 7.76678 27.9584 7.62267 28.0264 7.41058C28.1406 7.0571 27.8089 6.67099 27.7953 6.65467C27.7817 6.63836 27.7599 6.62748 27.7409 6.62205L27.4255 6.55951C27.401 6.55407 27.3765 6.55951 27.3548 6.57038L26.7648 6.92386C26.7457 6.93474 26.7294 6.95378 26.7212 6.97553L26.5445 7.47312C26.5282 7.51935 26.5472 7.57101 26.5907 7.59276L26.9306 7.78038C26.9415 7.78582 26.9551 7.79126 26.966 7.79126L27.382 7.84564C27.3874 7.84836 27.3929 7.84836 27.3956 7.84836ZM27.6648 6.81238C27.7491 6.91843 27.8959 7.16043 27.8361 7.34804C27.7926 7.484 27.643 7.5846 27.3901 7.64442L27.0095 7.59548L26.762 7.45681L26.898 7.07342L27.4228 6.76344L27.6648 6.81238Z" fill="#145CF6"/>
<path d="M27.3981 15.4212L27.2812 13.8359C27.0936 13.477 27.3764 13.2133 28.1866 11.8755C28.9969 10.5377 27.3954 7.90015 27.3954 7.90015C27.3845 7.98988 27.2649 8.04426 27.1072 8.07417C26.9141 8.11224 26.6667 8.11767 26.4899 8.11495C26.3567 8.11224 26.2643 8.1068 26.2643 8.1068C26.2643 8.1068 26.3975 8.99322 26.8108 10.1978C27.2241 11.4051 25.1521 12.1963 25.1521 12.1963C25.3207 12.7238 24.9074 13.0637 24.9074 13.0637C24.002 13.2133 23.2488 12.8 23.2488 12.8C23.2488 12.8 22.8518 13.5341 22.569 14.1948C22.0741 15.3532 22.7593 16.2423 22.9714 17.814C23.053 18.4203 23.121 19.3503 22.9741 20.5358C23.5316 20.5521 24.2276 20.5222 25.0053 20.3672C26.2126 20.1252 27.1507 19.6793 27.7788 19.3122C27.9392 18.7276 27.4715 18.1674 27.4878 18.0233C27.5069 17.8683 27.4171 15.8399 27.3981 15.4212Z" fill="#145CF6"/>
<path d="M23.249 20.639C23.8472 20.639 24.4426 20.5792 25.0273 20.4623C26.0116 20.2665 26.9551 19.9076 27.8306 19.3964C27.8524 19.3828 27.8687 19.3611 27.8769 19.3366C27.9992 18.8961 27.7926 18.4692 27.6702 18.2163C27.6349 18.1456 27.5941 18.0586 27.5914 18.0287C27.6077 17.8465 27.5179 15.8235 27.5016 15.4157C27.5016 15.4129 27.5016 15.4129 27.5016 15.4102L27.3847 13.8277C27.3847 13.8141 27.3793 13.8005 27.3738 13.7896C27.2569 13.5694 27.3602 13.3899 27.817 12.6667C27.9421 12.4682 28.0971 12.2207 28.2766 11.9271C29.1086 10.5539 27.5506 7.95719 27.4853 7.84571C27.4636 7.81036 27.4201 7.79132 27.3793 7.79948C27.3385 7.80764 27.3059 7.84299 27.3004 7.88377C27.2977 7.89737 27.2569 7.94087 27.091 7.9735C26.9061 8.01157 26.6641 8.01429 26.4928 8.01157C26.365 8.00885 26.2753 8.00341 26.2726 8.00341C26.2427 8.00069 26.2128 8.01429 26.191 8.03604C26.1693 8.0578 26.1611 8.08771 26.1666 8.11762C26.1666 8.12577 26.3052 9.02579 26.7185 10.2276C27.0965 11.3289 25.1387 12.0929 25.1197 12.0984C25.0708 12.1174 25.0436 12.1718 25.0599 12.2234C25.1877 12.6204 24.9375 12.8978 24.8641 12.9658C24.0185 13.0963 23.3061 12.7129 23.2979 12.7074C23.2734 12.6938 23.2462 12.6911 23.2218 12.6993C23.1973 12.7074 23.1756 12.7238 23.162 12.7482C23.1592 12.7564 22.7595 13.496 22.4795 14.1513C22.1423 14.9398 22.3326 15.6223 22.5556 16.4109C22.6725 16.8214 22.803 17.2864 22.8737 17.8221C22.9907 18.6867 22.9907 19.5949 22.8765 20.5167C22.8737 20.5439 22.8819 20.5738 22.9009 20.5955C22.92 20.6173 22.9444 20.6309 22.9743 20.6309C23.0641 20.6363 23.1565 20.639 23.249 20.639ZM27.6947 19.2441C26.849 19.7336 25.9381 20.0762 24.9892 20.2665C24.3665 20.3916 23.7275 20.4487 23.0885 20.4378C23.1919 19.5351 23.1864 18.6487 23.0722 17.8003C22.9988 17.2483 22.8656 16.7779 22.7459 16.3592C22.5257 15.5761 22.3517 14.9589 22.6616 14.2329C22.8846 13.7162 23.1783 13.1425 23.2898 12.9304C23.5209 13.0365 24.168 13.2866 24.9212 13.1615C24.9375 13.1588 24.9538 13.1507 24.9674 13.1398C24.9865 13.1262 25.3862 12.789 25.2693 12.2534C25.4378 12.1827 25.8294 12.0005 26.1937 11.7286C26.8463 11.2446 27.091 10.7035 26.9061 10.1651C26.588 9.23516 26.4357 8.49285 26.3841 8.21278C26.414 8.21278 26.4493 8.2155 26.4874 8.2155C26.6669 8.21822 26.9252 8.21278 27.1264 8.172C27.1781 8.16112 27.295 8.13937 27.382 8.07955C27.6838 8.61521 28.7714 10.7171 28.1025 11.8237C27.9258 12.1174 27.7708 12.3621 27.6457 12.5606C27.1889 13.2866 27.0285 13.5422 27.1862 13.8631L27.3004 15.4265C27.3521 16.5957 27.4037 17.9036 27.3929 18.0097C27.3847 18.0831 27.4255 18.1647 27.4908 18.3033C27.6022 18.5372 27.7735 18.8879 27.6947 19.2441Z" fill="#145CF6"/>
<path d="M26.3677 22.7519C26.3677 22.7519 26.3106 23.7144 27.3846 24.6172C27.3846 24.6172 26.2807 27.2194 26.3677 27.5864C26.3677 27.5864 26.6804 28.6877 27.3846 28.462C27.3846 28.462 30.0983 25.0414 29.704 23.9102C29.307 22.7791 28.6572 21.6207 28.7143 21.4223C28.7714 21.2238 29.3641 20.631 28.5158 20.3482C28.5158 20.3482 28.0644 19.2742 27.6402 19.2742C27.6402 19.2742 24.9266 20.8621 22.9743 20.5331C22.9743 20.5331 22.9172 22.9477 23.3712 24.1631C23.8226 25.3785 23.7383 26.1698 23.5969 26.7925C23.4555 27.4151 22.89 31.7684 23.5697 32.2198C24.2495 32.6711 25.0408 32.2198 25.0408 32.2198L25.6634 27.5837L26.3677 22.7519Z" fill="#145CF6"/>
<path d="M24.2523 32.5243C24.7037 32.5243 25.0653 32.3204 25.0871 32.3095C25.1143 32.2932 25.1333 32.266 25.136 32.2361L25.7587 27.6001L26.3759 23.3773C26.4956 23.7335 26.7457 24.193 27.2624 24.6444C27.0258 25.2073 26.1829 27.2439 26.2672 27.6082C26.2672 27.6109 26.2672 27.6109 26.2672 27.6137C26.2753 27.6408 26.4602 28.2853 26.8844 28.5137C27.0503 28.6034 27.227 28.617 27.4119 28.5572C27.431 28.5517 27.4473 28.5409 27.4609 28.5245C27.469 28.5164 28.1488 27.6544 28.7742 26.6647C29.6307 25.3133 29.9733 24.3752 29.7993 23.8776C29.6117 23.3447 29.3669 22.8009 29.1712 22.3631C28.9972 21.977 28.7987 21.5392 28.8123 21.4467C28.8204 21.4223 28.8503 21.3679 28.8802 21.3162C28.9808 21.1449 29.1331 20.8839 29.0407 20.6365C28.9808 20.4787 28.8313 20.3537 28.592 20.2667C28.4941 20.0437 28.0808 19.1736 27.6403 19.1736C27.6213 19.1736 27.605 19.179 27.5887 19.1872C27.5615 19.2035 24.8832 20.7534 22.9907 20.4352C22.9608 20.4298 22.9336 20.438 22.9091 20.457C22.8874 20.476 22.8738 20.5032 22.8738 20.5331C22.871 20.6337 22.8221 22.9803 23.2762 24.2012C23.7167 25.3867 23.6351 26.1671 23.4991 26.7735C23.4257 27.097 23.249 28.3424 23.1756 29.566C23.1321 30.262 23.1293 30.8385 23.1674 31.279C23.2136 31.8473 23.3278 32.1817 23.5127 32.3068C23.7602 32.47 24.0185 32.5243 24.2523 32.5243ZM24.9484 32.1573C24.7826 32.2361 24.1572 32.4944 23.6269 32.1382C23.51 32.0594 23.2517 31.6542 23.3768 29.5768C23.4502 28.3804 23.6269 27.1242 23.6949 26.8142C23.839 26.178 23.926 25.365 23.4638 24.1278C23.0777 23.0918 23.0695 21.1368 23.0722 20.6473C23.8798 20.7534 24.8886 20.5739 26.0741 20.1171C26.8926 19.8017 27.5261 19.4509 27.6621 19.3721C27.9204 19.4074 28.263 20.0029 28.4234 20.3836C28.4343 20.4108 28.4561 20.4298 28.4832 20.4407C28.6872 20.5087 28.8095 20.5984 28.8503 20.7072C28.9101 20.8649 28.7905 21.0661 28.7062 21.2156C28.6654 21.2863 28.6301 21.3434 28.6165 21.3951C28.5784 21.531 28.7008 21.8138 28.9863 22.4447C29.1821 22.877 29.4241 23.4181 29.6089 23.9429C29.9162 24.8211 28.0863 27.4152 27.3276 28.375C27.2053 28.4076 27.0938 28.394 26.985 28.3369C26.6479 28.1547 26.4766 27.6028 26.4657 27.562C26.4548 27.5103 26.463 27.2493 26.9388 26.0012C27.1998 25.316 27.4745 24.6634 27.4772 24.658C27.4935 24.6172 27.4826 24.571 27.45 24.5411C26.4303 23.6818 26.4684 22.7655 26.4684 22.7573C26.4711 22.703 26.4303 22.6567 26.3787 22.6513C26.3243 22.6459 26.2781 22.6839 26.2699 22.7356L25.5629 27.5701L24.9484 32.1573Z" fill="#145CF6"/>
<path d="M23.5726 32.2224C23.5399 32.3203 23.5209 32.4291 23.5318 32.5514C23.5698 33.0028 23.3605 33.7206 23.6895 33.8511C24.0212 33.9844 25.1904 34.0388 25.2448 33.8511C25.3019 33.6635 25.359 33.5113 25.0001 33.3427L24.7934 32.3257C24.7961 32.3257 24.2279 32.6303 23.5726 32.2224Z" fill="#145CF6"/>
<path d="M24.6602 34.0714C24.9022 34.0714 25.1198 34.0497 25.2312 33.9953C25.2911 33.9681 25.3264 33.9273 25.3427 33.8784L25.3482 33.8648C25.4025 33.6881 25.4678 33.4705 25.0926 33.2748L24.8968 32.3068C24.8914 32.2768 24.8696 32.2497 24.8424 32.2361C24.8125 32.2225 24.7799 32.2225 24.7527 32.2388C24.7309 32.2497 24.2252 32.508 23.6297 32.1382C23.5998 32.1191 23.559 32.1191 23.5291 32.1355C23.5073 32.149 23.4883 32.1708 23.4829 32.1953C23.4421 32.3149 23.4285 32.4373 23.4394 32.5596C23.4502 32.6929 23.4366 32.8614 23.4258 33.0219C23.3959 33.4189 23.3659 33.8267 23.6596 33.9436C23.8364 34.0171 24.2796 34.0714 24.6602 34.0714ZM25.1551 33.8131C25.0246 33.9083 24.062 33.892 23.7276 33.7615C23.5699 33.6989 23.5944 33.3482 23.6188 33.0409C23.6324 32.8723 23.646 32.6956 23.6324 32.546C23.627 32.4889 23.6297 32.4346 23.6379 32.3775C24.111 32.6195 24.5243 32.5352 24.7228 32.4672L24.905 33.3645C24.9104 33.3944 24.9321 33.4216 24.9593 33.4352C25.2312 33.563 25.2095 33.6364 25.1551 33.8104V33.8131Z" fill="#145CF6"/>
<path d="M26.3761 27.4204C26.3544 27.2708 26.1042 27.5727 25.9846 27.6515C25.5876 27.9125 25.6637 28.557 25.8514 28.7827C26.039 29.0083 26.3408 29.3863 26.2293 29.8948C26.1151 30.4032 26.6263 31.4582 27.3605 31.1755C28.0946 30.8927 27.4855 28.8941 27.4855 28.8941C27.4855 28.8941 27.5481 28.7799 27.6052 28.6114C27.6324 28.5298 27.578 28.4074 27.5127 28.2987C27.5127 28.2987 27.4284 28.5053 27.2435 28.489C27.0586 28.4727 26.4876 28.2144 26.3761 27.4204Z" fill="#145CF6"/>
<path d="M27.1156 31.3223C27.208 31.3223 27.3005 31.306 27.3929 31.2679C27.7464 31.132 27.8796 30.6779 27.7953 29.9165C27.7437 29.4597 27.6268 29.0328 27.5914 28.905C27.6159 28.8561 27.6594 28.7636 27.6975 28.644C27.7301 28.5461 27.6975 28.4183 27.5969 28.2497C27.5778 28.2171 27.5425 28.1981 27.5044 28.2008C27.4663 28.2035 27.4337 28.228 27.4201 28.2633C27.4201 28.2633 27.3603 28.402 27.2542 28.3911C27.1264 28.3802 26.5826 28.1654 26.4766 27.4068C26.4657 27.3225 26.4113 27.2953 26.3869 27.2872C26.2862 27.2518 26.1829 27.3443 26.0524 27.4639C26.0062 27.5047 25.96 27.5482 25.93 27.5672C25.756 27.6814 25.6445 27.8663 25.6092 28.1029C25.5684 28.3748 25.6364 28.6821 25.7751 28.8479C25.9355 29.041 26.2373 29.3999 26.1313 29.873C26.0551 30.2156 26.2237 30.7948 26.5962 31.1156C26.7539 31.2516 26.9334 31.3223 27.1156 31.3223ZM27.4962 28.4944C27.5153 28.5515 27.5098 28.576 27.5098 28.5787C27.4582 28.7364 27.3984 28.8452 27.3984 28.8452C27.3848 28.8697 27.382 28.8969 27.3902 28.9213C27.5506 29.4516 27.8552 30.8736 27.3249 31.0803C27.1129 31.1619 26.9144 31.1211 26.7295 30.9634C26.4249 30.6996 26.2672 30.1939 26.327 29.9138C26.4521 29.3455 26.0986 28.9213 25.93 28.7147C25.843 28.6114 25.7723 28.3721 25.8077 28.1274C25.8267 28.0023 25.8811 27.8337 26.0388 27.7304C26.0823 27.7032 26.134 27.6542 26.1856 27.6053C26.2156 27.5781 26.2563 27.54 26.289 27.5128C26.4304 28.266 26.9796 28.5597 27.2325 28.5842C27.344 28.6005 27.431 28.5543 27.4962 28.4944ZM26.376 27.4204L26.2781 27.434L26.376 27.4204Z" fill="#145CF6"/>
<path d="M24.2303 14.2328C24.2303 14.2328 25.1167 14.6842 25.7203 14.8555C26.324 15.0241 27.8168 13.4796 27.8168 13.4796C28.3959 13.4252 28.6787 14.347 28.5482 14.4231C28.415 14.4993 26.5877 16.1579 26.2478 16.4597C25.908 16.7616 25.2119 16.6283 24.4587 16.5739C23.7055 16.5168 23.3275 16.8187 23.3275 16.8187C23.3275 16.8187 22.781 13.9201 24.2303 14.2328Z" fill="#145CF6"/>
<path d="M23.3248 16.9138C23.3466 16.9138 23.3683 16.9056 23.3874 16.892C23.3901 16.8893 23.749 16.6174 24.4478 16.6691C24.5729 16.6772 24.698 16.6908 24.8203 16.7017C25.4539 16.7615 25.9977 16.8105 26.3131 16.5304C26.392 16.4624 26.547 16.321 26.7427 16.1443C27.3083 15.6331 28.4884 14.5727 28.5944 14.5074C28.7222 14.434 28.6733 14.2137 28.6325 14.0859C28.5129 13.7053 28.2083 13.3382 27.8032 13.3763C27.7787 13.379 27.757 13.3899 27.7406 13.4062C27.2131 13.9527 26.2615 14.7657 25.821 14.7657C25.7938 14.7657 25.7693 14.763 25.7448 14.7548C25.1575 14.589 24.282 14.1458 24.2738 14.1403C24.2656 14.1376 24.2575 14.1322 24.2493 14.1322C23.9448 14.0669 23.6946 14.1267 23.507 14.3089C22.8762 14.9234 23.2106 16.7534 23.227 16.8295C23.2324 16.8649 23.2569 16.892 23.2895 16.9056C23.3004 16.9111 23.314 16.9138 23.3248 16.9138ZM24.2684 16.4624C23.8442 16.4624 23.556 16.5712 23.3983 16.6528C23.333 16.215 23.1834 14.9044 23.6457 14.4557C23.7816 14.3225 23.9611 14.2817 24.1949 14.3279C24.3064 14.385 25.1167 14.7902 25.6904 14.9506C26.305 15.1246 27.6074 13.8303 27.8576 13.5775H27.8603C28.0452 13.5775 28.1811 13.7026 28.2654 13.8113C28.4259 14.018 28.4857 14.2736 28.4721 14.347C28.328 14.4503 27.6699 15.0376 26.6041 15.9975C26.4083 16.1742 26.2533 16.3129 26.1744 16.3836C25.9243 16.6065 25.4185 16.5576 24.8339 16.5032C24.7116 16.4923 24.5865 16.4815 24.4587 16.4706C24.3962 16.4651 24.3309 16.4624 24.2684 16.4624Z" fill="#145CF6"/>
<path d="M29.2909 13.6375C29.2909 13.6402 29.2909 13.6402 29.2909 13.6375C29.2909 13.6402 29.2909 13.6402 29.2909 13.6402C29.2909 13.6402 29.2909 13.6402 29.2909 13.6429C29.2691 13.8169 29.4431 14.2031 29.5084 14.1541C29.5736 14.1079 29.5465 13.6919 29.5465 13.6919C29.6471 13.8088 30.0169 13.855 29.8646 13.6484C29.715 13.4417 29.1848 12.9686 28.7334 12.9876C28.4561 12.9985 28.176 13.2786 27.9966 13.4934C27.9966 13.4934 28.4452 13.6728 28.4914 13.991C28.5132 14.1432 28.6763 13.7517 28.6845 13.7653C28.8232 14.0046 28.9809 13.8441 29.1032 13.9665C29.2174 14.0807 29.2827 13.6973 29.2909 13.6429V13.6402C29.2909 13.6402 29.2909 13.6402 29.2909 13.6375Z" fill="#145CF6"/>
<path d="M29.4946 14.2602C29.519 14.2602 29.5435 14.252 29.5653 14.2384C29.5925 14.2194 29.655 14.1732 29.6523 13.8659C29.7583 13.8985 29.878 13.904 29.9459 13.8469C29.965 13.8306 30.0574 13.7435 29.9459 13.5886C29.7665 13.3411 29.2091 12.868 28.7305 12.887C28.4205 12.9006 28.1187 13.1889 27.9202 13.4281C27.9012 13.4526 27.893 13.4852 27.9012 13.5179C27.9093 13.5478 27.9311 13.575 27.961 13.5858C28.0698 13.6293 28.3634 13.7925 28.3933 14.0046C28.4069 14.0997 28.4695 14.1215 28.4939 14.1242C28.5837 14.1405 28.6408 14.0562 28.7033 13.9393C28.7849 14.0046 28.8719 14.0073 28.9344 14.01C28.9915 14.0127 29.0106 14.0155 29.0323 14.0345C29.0786 14.0807 29.1357 14.0943 29.1873 14.078C29.2036 14.0726 29.2363 14.0617 29.2716 14.0127C29.3151 14.1161 29.3722 14.2031 29.4266 14.2357C29.4484 14.2547 29.4728 14.2602 29.4946 14.2602ZM29.5435 13.594C29.5299 13.594 29.5163 13.5967 29.5027 13.6022C29.4647 13.6185 29.4402 13.6593 29.4429 13.7C29.4484 13.7789 29.4511 13.8577 29.4484 13.9257C29.4103 13.836 29.3777 13.7245 29.3858 13.6593C29.3858 13.6565 29.3858 13.6565 29.3858 13.6538C29.3858 13.6511 29.3858 13.6484 29.3858 13.6457C29.3858 13.6429 29.3858 13.6402 29.3858 13.6375C29.3858 13.5831 29.3423 13.5369 29.2852 13.5369C29.2335 13.5369 29.1928 13.575 29.1846 13.6239V13.6266C29.1846 13.6266 29.1846 13.6266 29.1846 13.6293C29.1683 13.73 29.1438 13.8142 29.1248 13.8632C29.0568 13.817 28.9861 13.8142 28.9344 13.8142C28.861 13.8115 28.8202 13.8115 28.7659 13.7164C28.7468 13.6837 28.7115 13.6647 28.6761 13.6674C28.6136 13.6701 28.5918 13.7109 28.5538 13.7843C28.5483 13.7925 28.5429 13.8061 28.5347 13.8224C28.445 13.6511 28.2737 13.5287 28.1541 13.4635C28.3689 13.2296 28.5701 13.0964 28.7332 13.091C29.1275 13.0746 29.6169 13.4988 29.7665 13.6919C29.7148 13.6837 29.6414 13.6593 29.6142 13.6293C29.5979 13.6049 29.5707 13.594 29.5435 13.594Z" fill="#145CF6"/>
<path d="M27.1075 8.07419C27.1075 8.07419 27.4447 7.60651 27.4719 7.53037C27.51 7.41617 26.7269 7.53037 26.7568 7.39714C26.7867 7.2639 27.5371 7.08988 27.4529 7.05181C27.3686 7.01375 27.064 6.82613 27.064 6.82613C27.064 6.82613 27.8308 6.85332 27.7085 6.6657C27.5861 6.47808 27.0015 6.38292 26.6072 6.88323C26.3407 7.21768 26.4142 7.78053 26.493 8.1177L27.1075 8.07419Z" fill="#145CF6"/>
<path d="M26.4901 8.21553C26.4928 8.21553 26.4955 8.21553 26.4955 8.21553L27.1128 8.17474C27.1427 8.17202 27.1699 8.15843 27.1862 8.13396C27.2895 7.98984 27.5369 7.64452 27.5641 7.56295C27.5777 7.52488 27.5696 7.48681 27.5478 7.45418C27.4961 7.38077 27.3847 7.37533 27.1372 7.37261C27.0883 7.37261 27.023 7.36989 26.9632 7.36717C27.0557 7.32639 27.1807 7.28288 27.2541 7.25569C27.4826 7.17412 27.5532 7.14964 27.556 7.05991C27.5587 7.01641 27.5315 6.97562 27.4907 6.95659C27.4744 6.94843 27.4472 6.93484 27.4146 6.9158C27.594 6.89949 27.749 6.8587 27.798 6.77169C27.8279 6.72003 27.8224 6.66021 27.7871 6.60583C27.7137 6.49434 27.5478 6.41821 27.352 6.41005C27.2052 6.40189 26.8273 6.42908 26.5227 6.8152C26.2426 7.16868 26.2943 7.72609 26.3895 8.13396C26.4031 8.1829 26.4439 8.21553 26.4901 8.21553ZM27.0557 7.97625L26.5717 8.00888C26.5091 7.70162 26.4629 7.22306 26.6859 6.94299C26.9306 6.6303 27.2297 6.60855 27.3466 6.61398C27.4554 6.61942 27.5451 6.65205 27.5913 6.6874C27.4961 6.71459 27.2786 6.7309 27.0665 6.72547C27.0203 6.72275 26.9795 6.75266 26.9659 6.79616C26.9523 6.83967 26.9714 6.88589 27.0094 6.91036C27.0285 6.92124 27.1372 6.98922 27.2406 7.04904C27.2242 7.05448 27.2052 7.06263 27.1889 7.06807C26.8463 7.19043 26.6831 7.26113 26.6559 7.37805C26.6478 7.41612 26.6559 7.45418 26.6804 7.48681C26.743 7.56567 26.8789 7.5711 27.1345 7.57382C27.1916 7.57382 27.2705 7.57654 27.3276 7.57926C27.2677 7.67443 27.159 7.83214 27.0557 7.97625Z" fill="#145CF6"/>
<path d="M22.7024 12.169C22.7024 12.169 22.2592 11.5654 22.164 11.3125C22.0688 11.0569 22.232 10.7198 22.5039 10.3337C22.7758 9.94755 23.6513 9.81432 23.6704 9.63757C23.6894 9.45811 23.4719 9.25146 23.4447 9.2705C23.4175 9.28953 23.9069 9.27865 23.964 9.43092C24.0211 9.58047 24.2006 9.03394 24.2006 9.03394C24.2006 9.03394 24.3991 9.57232 24.3501 9.61854C24.3039 9.66477 24.7471 10.1569 24.8396 10.1923C24.9347 10.2303 24.4154 10.1732 24.1598 10.0128C23.9042 9.85238 23.7275 10.5593 23.4338 10.4261C23.1429 10.2929 22.9145 10.8775 22.9824 11.0107C23.0477 11.144 23.0776 11.9733 23.0015 12.0086C22.9253 12.0467 22.7187 12.0005 22.7187 12.0005L22.7024 12.169Z" fill="#145CF6"/>
<path d="M22.7024 12.2671C22.7106 12.2671 22.7188 12.2671 22.7296 12.2643C22.7704 12.2535 22.7976 12.2208 22.803 12.1773L22.8112 12.1148C22.8928 12.1257 22.9879 12.1284 23.0505 12.0958C23.0967 12.0713 23.162 12.0387 23.1484 11.5383C23.1456 11.4622 23.1348 11.0788 23.075 10.9619C23.0586 10.9075 23.1266 10.6628 23.2544 10.5486C23.3197 10.4888 23.3659 10.4996 23.3958 10.5132C23.6133 10.6111 23.7765 10.4099 23.8961 10.2631C24.0103 10.1217 24.0674 10.0646 24.1109 10.0918C24.3149 10.2196 24.8097 10.3365 24.9049 10.2794C24.9375 10.2604 24.9566 10.2223 24.9538 10.1842C24.9511 10.1598 24.9402 10.1163 24.8804 10.0918C24.8097 10.0537 24.5161 9.73558 24.4563 9.6241C24.4698 9.55612 24.4481 9.40385 24.2958 8.99055C24.2822 8.94976 24.2442 8.92529 24.2007 8.92529C24.1572 8.92529 24.1218 8.95248 24.1082 8.99327C24.0701 9.10475 24.0266 9.21896 23.9913 9.29237C23.8907 9.21352 23.7139 9.19176 23.5372 9.17273C23.529 9.17273 23.5182 9.17001 23.51 9.17001C23.4556 9.14554 23.4176 9.16185 23.3958 9.17545C23.3605 9.19992 23.3414 9.24343 23.3523 9.28421C23.3632 9.33316 23.3958 9.35219 23.4393 9.36035C23.4883 9.39842 23.5807 9.51534 23.578 9.60507C23.5426 9.64585 23.3686 9.71655 23.2408 9.76549C22.9526 9.87969 22.5964 10.0238 22.4278 10.2631C22.1994 10.5867 21.952 11.0027 22.0743 11.3344C22.1722 11.5982 22.6073 12.1909 22.6236 12.2154C22.6426 12.2535 22.6725 12.2671 22.7024 12.2671ZM22.7215 11.8973C22.6997 11.8973 22.6807 11.9027 22.6644 11.9163C22.6616 11.919 22.6562 11.9217 22.6535 11.9245C22.5067 11.7151 22.3136 11.4214 22.2592 11.2746C22.1885 11.087 22.2946 10.8042 22.5882 10.3882C22.7242 10.1951 23.0505 10.0646 23.3115 9.96127C23.5807 9.8525 23.7574 9.78181 23.7738 9.64313C23.7819 9.55884 23.7574 9.47727 23.7167 9.40385C23.8281 9.42561 23.8635 9.44736 23.8716 9.46095C23.9043 9.54525 23.9723 9.55068 23.9913 9.55068C24.0321 9.55068 24.0946 9.54797 24.1952 9.325C24.2306 9.43648 24.255 9.53165 24.2578 9.57244C24.2469 9.59419 24.2442 9.62138 24.2496 9.64857C24.2659 9.72471 24.4019 9.89873 24.5378 10.0456C24.4236 10.0156 24.3013 9.97486 24.2143 9.92048C24.013 9.79268 23.8526 9.99118 23.7384 10.1353C23.6269 10.274 23.5481 10.361 23.4774 10.3283C23.3441 10.2685 23.2082 10.3039 23.0913 10.4262C22.9444 10.5785 22.8221 10.9048 22.8955 11.0489C22.9417 11.1441 22.9662 11.7559 22.9336 11.9163C22.8901 11.919 22.8112 11.9109 22.7432 11.8945C22.7378 11.9 22.7296 11.8973 22.7215 11.8973Z" fill="#145CF6"/>
<path d="M24.3036 10.2658C24.3036 10.2658 25.2308 11.0978 25.152 11.9815C25.152 11.9815 25.3641 13.0583 24.6897 13.0555C24.0154 13.0528 23.5341 12.9359 23.3574 12.8163C23.1806 12.6966 22.8027 12.403 22.7619 12.2018C22.7211 12.0005 22.9767 12.0658 23.0039 12.0114C23.0284 11.9543 22.993 11.0652 23.042 10.8911C23.0909 10.7144 23.1861 10.3691 23.496 10.4833C23.806 10.5975 23.942 10.07 23.9719 10.07C23.9991 10.0645 24.2574 10.1135 24.3036 10.2658Z" fill="#145CF6"/>
<path d="M24.6924 13.1534C24.8692 13.1534 25.0078 13.0909 25.1112 12.9685C25.364 12.664 25.2716 12.0766 25.2553 11.9733C25.3233 11.1168 24.5266 10.3337 24.3906 10.2059C24.3063 10.0128 24.0127 9.96118 23.9719 9.96118C23.9012 9.96118 23.8767 10.0156 23.8441 10.0835C23.7299 10.3337 23.6401 10.4207 23.5287 10.3799C23.4172 10.3391 23.3139 10.3419 23.2268 10.3881C23.0474 10.4805 22.9794 10.7252 22.9441 10.8558C22.9141 10.9618 22.9141 11.2337 22.9141 11.6035C22.9141 11.7204 22.9141 11.8618 22.9114 11.9352C22.9087 11.9352 22.906 11.9352 22.906 11.9352C22.8434 11.9434 22.7483 11.9597 22.6939 12.0358C22.6613 12.0848 22.6504 12.1446 22.664 12.2153C22.7184 12.4872 23.2051 12.8271 23.303 12.8924C23.5314 13.0528 24.0752 13.1534 24.6924 13.1534ZM24.2383 10.3391C24.2465 10.3473 25.1275 11.1494 25.0541 11.9706C25.0541 11.9787 25.0541 11.9896 25.0568 11.9978C25.0894 12.1609 25.1329 12.6286 24.9589 12.8407C24.8964 12.9168 24.8094 12.9522 24.6952 12.9522C24.0398 12.9495 23.5749 12.8353 23.4199 12.7319C23.1725 12.5634 22.8924 12.3132 22.8652 12.18C22.8625 12.1664 22.8625 12.1582 22.8625 12.1555C22.8761 12.1473 22.9169 12.1419 22.9386 12.1365C22.9957 12.1283 23.0691 12.1174 23.099 12.0467C23.1154 12.0087 23.1181 11.9543 23.1181 11.6062C23.1181 11.3642 23.1181 10.9999 23.1425 10.9129C23.167 10.8177 23.2214 10.6246 23.322 10.5703C23.3601 10.5512 23.4063 10.5512 23.4634 10.573C23.787 10.6899 23.9583 10.3228 24.0263 10.176C24.0942 10.195 24.1921 10.2385 24.2112 10.2956C24.2139 10.3119 24.2247 10.3255 24.2383 10.3391Z" fill="#145CF6"/>
<path d="M23.6074 12.3324C23.6074 12.3324 23.5884 13.0121 23.0419 12.2861Z" fill="#145CF6"/>
<path d="M23.4417 12.7184C23.4634 12.7184 23.4852 12.7157 23.507 12.7075C23.6891 12.6504 23.7054 12.384 23.7054 12.3323C23.7082 12.2779 23.6647 12.2317 23.6076 12.229C23.5532 12.229 23.507 12.2698 23.5042 12.3269C23.5015 12.4112 23.4716 12.509 23.4444 12.5172C23.4444 12.5172 23.3547 12.5335 23.1181 12.2235C23.0855 12.18 23.023 12.1719 22.9767 12.2045C22.9332 12.2371 22.9251 12.2997 22.9577 12.3459C23.1535 12.5988 23.3085 12.7184 23.4417 12.7184Z" fill="#145CF6"/>
<path d="M10.0018 21.2436C10.0178 20.8792 10.1393 20.5028 10.4081 20.2558C10.7706 19.9232 11.0374 19.8296 11.1131 19.3039C11.1549 19.0072 11.2704 18.7224 11.4417 18.4794C11.6508 18.1807 11.9495 17.9855 12.2403 17.7764C12.2781 17.7485 12.2981 17.6808 12.316 17.639C12.3558 17.5474 12.3897 17.4538 12.4235 17.3602C12.4952 17.161 12.5569 16.9559 12.6366 16.7587C12.7979 16.3565 13.005 15.9761 13.2022 15.5917C13.252 15.4941 12.9851 15.5419 12.8696 15.4563C12.7362 15.3587 12.6525 15.532 12.6087 15.6355C12.541 15.7968 12.3259 15.8267 12.2164 15.9482C12.2084 15.9582 12.2005 15.9661 12.1965 15.9781C12.1905 15.996 12.1965 16.0139 12.1985 16.0318C12.2084 16.1075 12.1766 16.1912 12.1069 16.223C12.0212 16.2649 11.9236 16.1951 11.846 16.2469C11.7882 16.2868 11.7803 16.3724 11.7763 16.4361C11.7643 16.5835 11.6906 16.7488 11.5473 16.8065C11.4377 16.8504 11.2585 16.8782 11.1609 16.7946C11.0076 16.6632 10.9777 16.4222 11.1908 16.3326C11.2067 16.3266 11.2266 16.3166 11.2266 16.2987C11.2266 16.2907 11.2206 16.2828 11.2167 16.2768C10.9777 15.9482 10.4818 15.8207 10.3743 15.3946C10.2707 14.9843 10.6969 14.6876 10.9458 14.4386C11.0454 14.343 11.145 14.2056 11.2764 14.1558C11.3282 14.1359 11.4357 14.128 11.4736 14.0881C11.4716 14.0842 11.4676 14.0822 11.4636 14.0802C11.3879 14.0483 11.378 13.9647 11.5114 13.8591C11.5572 13.8233 11.597 13.8053 11.5433 13.7575C11.4835 13.7018 11.4457 13.6122 11.4716 13.5345C11.4955 13.4668 11.5612 13.423 11.6189 13.3792C11.6229 13.3772 11.6249 13.3732 11.6269 13.3712C11.6289 13.3612 11.6189 13.3553 11.611 13.3513C11.4716 13.2836 11.4477 13.1322 11.5632 13.0366C11.6508 12.9629 11.7723 12.9171 11.8818 12.8932C12.0053 12.8673 12.1328 12.9072 12.2503 12.943C12.3279 12.9669 12.4773 13.0326 12.551 12.9709C12.6247 12.9092 12.6525 12.7618 12.6884 12.6762C12.7422 12.5507 12.7939 12.4272 12.8477 12.3018C12.9533 12.0528 13.0588 11.8039 13.1644 11.5549C13.3376 11.1427 13.4651 10.7085 13.6224 10.2883C13.9072 9.52758 14.2159 8.77678 14.4748 8.00607C14.6142 7.59184 14.7476 7.17362 14.8771 6.7554C14.9268 6.5921 14.9766 6.4268 15.0244 6.2635C15.0483 6.18185 15.0503 6.09024 15.12 6.03846C15.2296 5.95681 15.4665 6.01257 15.5203 6.13604C15.5223 6.13804 15.5223 6.14202 15.5243 6.14401C15.584 6.33121 15.5721 6.55426 15.5801 6.74943C15.592 7.08799 15.596 7.42654 15.6 7.76311C15.602 8.10764 15.6398 8.44221 15.5741 8.78475C15.5163 9.09542 15.4008 9.39216 15.2594 9.67495C14.9726 10.2445 14.5823 10.7524 14.2677 11.304C13.9052 11.9413 13.6144 12.6224 13.1863 13.2238C13.1305 13.3015 13.0688 13.3792 13.0289 13.4668C13.019 13.4887 13.0011 13.5225 13.005 13.5464C13.017 13.6122 13.1146 13.5863 13.1604 13.5703C13.3356 13.5106 13.5009 13.423 13.6483 13.3134C13.7618 13.2278 13.8713 13.1262 14.0068 13.0764C14.1402 13.0287 14.2916 13.0127 14.431 12.9988C14.6779 12.9749 14.9209 12.8932 15.1598 12.8335C15.2136 12.8195 15.2714 12.8076 15.3232 12.8275C15.3729 12.8494 15.4048 12.8992 15.4466 12.9351C15.5104 12.9908 15.594 13.0127 15.6776 13.0306C15.8091 13.0585 15.9425 13.0764 16.07 13.1123C16.1974 13.1481 16.305 13.2198 16.4304 13.2577C16.4503 13.2636 16.4762 13.2676 16.4902 13.2517C16.5041 13.2358 16.4962 13.2099 16.4862 13.19C16.4026 13.0227 16.2651 12.8873 16.1795 12.72C16.058 12.4909 16.3826 12.5109 16.5181 12.5188C16.6834 12.5268 16.6933 12.4153 16.536 12.1683C16.4902 12.0966 16.4623 12.005 16.5101 11.9273C16.536 11.8855 16.5758 11.8537 16.6196 11.8318C16.6973 11.7939 16.7889 11.784 16.8765 11.7939C16.9602 11.8039 17.0398 11.8298 17.1195 11.8576C17.1653 11.8736 17.245 11.9114 17.2888 11.8716C17.3565 11.8118 16.8367 11.3857 17.0538 11.2164C17.2708 11.0471 17.6273 11.2821 17.8066 11.2861C17.9858 11.2901 18.0655 10.9336 18.5255 10.7603C18.9079 10.6169 19.3918 10.7305 19.7523 10.8838C20.1964 11.073 20.5708 11.4175 20.7381 11.8776C20.8615 12.2161 20.8775 12.6065 20.8416 12.9609C20.8257 13.1083 20.7401 13.2378 20.6783 13.3692C20.5807 13.5743 20.4792 13.7695 20.3418 13.9507C20.2621 14.0583 20.047 14.3928 19.8877 14.357C19.7264 14.3211 19.577 14.3709 19.4416 14.4566C19.3102 14.5402 19.1707 14.6338 19.0532 14.7354C18.9596 14.817 18.8999 14.9285 18.9238 15.054C18.9577 15.2372 18.9935 15.4085 19.0911 15.5678C19.3241 15.9422 19.4655 16.3027 19.4954 16.7428C19.5153 17.0515 19.7124 17.394 19.5451 17.6868C19.3898 17.9576 19.111 18.1289 18.9099 18.3599C18.7605 18.5312 18.641 18.7503 18.4419 18.8697C18.2686 18.9733 18.0535 18.9733 17.9559 19.1784C17.8643 19.3756 17.5895 19.507 17.4142 19.6185C17.1195 19.8077 17.1255 20.0507 17.0617 20.3654C17.0139 20.6004 16.9562 20.8334 16.9243 21.0723C16.8686 21.4746 16.8407 21.8809 16.8407 22.2872C16.8407 22.568 16.522 22.8408 16.3468 23.024C16.295 23.0778 16.1158 23.2112 16.1058 23.2889C16.0959 23.3745 16.1456 23.3188 16.2193 23.3467C16.301 23.3765 16.3667 23.4562 16.3767 23.5438C16.3926 23.6752 16.3229 23.8007 16.2492 23.9102C16.1755 24.0198 16.0919 24.1313 16.074 24.2608C16.066 24.3225 16.074 24.3862 16.0799 24.4499C16.1217 24.906 16.064 25.3581 16.1536 25.8101C16.2791 26.4454 15.7533 27.6164 16.0023 27.6224C16.2512 27.6284 16.8088 27.3257 16.7511 27.6045C16.6933 27.8833 16.3906 28.4688 16.5161 28.7337C16.6415 28.9985 16.522 29.1419 16.5479 29.4685C16.5738 29.7932 15.9445 30.4464 15.835 30.5061C15.7254 30.5679 15.9684 31.0578 16.0879 31.3246C16.2074 31.5915 16.2353 32.0794 16.4503 32.3204C16.6654 32.5614 16.54 32.8143 16.534 33.0015C16.528 33.1907 17.3107 33.2225 17.3107 33.2225C17.6453 33.1787 17.8285 33.3261 17.942 33.5969C18.0555 33.8658 17.5497 34.059 17.1553 34.2581C16.8287 34.4234 16.4324 34.5011 16.068 34.517C15.7095 34.5329 15.4267 34.3398 15.0782 34.4174C14.8074 34.4792 14.5166 34.4573 14.2577 34.3557C14.2199 34.3418 14.182 34.3258 14.1442 34.3179C14.1103 34.3119 14.0745 34.3139 14.0406 34.3179C14.0386 34.3179 14.0386 34.3179 14.0366 34.3179C13.8654 34.3298 13.6861 34.3278 13.5188 34.3696C13.1285 34.4652 12.6127 34.2382 12.5271 33.9514C12.4395 33.6646 12.5828 33.1947 12.1447 33.0592C11.7046 32.9238 11.4337 32.4936 11.4278 32.2686C11.4218 32.0436 11.6787 31.946 11.7046 31.6273C11.7305 31.3087 11.8619 31.1972 11.9157 30.9721C11.9714 30.7451 12.2284 30.8148 12.2403 30.757C12.2542 30.7013 12.3658 30.4125 12.537 30.2134C12.8019 29.9007 12.4673 29.4327 12.3478 29.126C12.2045 28.7556 12.1447 28.3533 12.1746 27.957C12.2025 27.5985 12.083 27.3396 12.0491 26.9911C12.0411 26.9015 12.0392 26.8079 12.0053 26.7223C11.9575 26.5968 11.846 26.5072 11.7305 26.4395C11.4098 26.2562 10.9398 26.1268 10.8164 25.7325C10.7706 25.5831 10.7785 25.4218 10.7726 25.2645C10.7467 24.7208 10.436 24.2548 10.436 23.7051C10.436 23.3686 10.424 23.0519 10.3225 22.7253C10.1592 22.2314 9.97994 21.7833 10.0018 21.2436ZM16.4802 12.5965C16.3667 12.5826 16.299 12.6403 16.291 12.6781C16.2831 12.716 16.3488 12.7678 16.3587 12.7777C16.3687 12.7877 16.5659 12.6303 16.5659 12.6303C16.5659 12.6303 16.5937 12.6084 16.4802 12.5965ZM16.8706 12.2739C16.996 12.2739 17.2848 12.2101 17.3366 12.1763C17.3366 12.1763 17.5178 12.0887 17.4282 12.0568C17.4282 12.0568 17.1972 11.9672 17.0398 11.9552C16.8825 11.9433 16.8706 11.9373 16.8347 12.0448C16.7989 12.1544 16.7451 12.2739 16.8706 12.2739ZM16.6535 13.2497C16.6694 13.2617 16.6933 13.2537 16.6973 13.2338C16.7172 13.1402 16.757 12.9171 16.6893 12.9351C16.6037 12.9589 16.5519 13.0227 16.5479 13.0944C16.5439 13.1501 16.6017 13.2119 16.6535 13.2497Z" fill="#145CF6"/>
</g>
</svg>
