<svg width="14" height="14" viewBox="0 0 14 14" fill="none" xmlns="http://www.w3.org/2000/svg">
<path d="M2.28581 2.28581C4.83396 -0.262209 8.9316 -0.316422 11.5457 2.12317L11.714 2.28581C14.3174 4.88935 14.3174 9.11049 11.714 11.714C9.11049 14.3174 4.88935 14.3174 2.28581 11.714C-0.3176 9.11049 -0.3176 4.88935 2.28581 2.28581Z" fill="#C73333"/>
<path d="M4.59207 11.5877C4.68584 11.6126 4.75896 11.6858 4.78368 11.7794C4.80841 11.8732 4.78079 11.973 4.71148 12.0408L4.32326 12.4286C4.27276 12.4792 4.20437 12.5075 4.13296 12.5075C4.02394 12.5074 3.9257 12.4417 3.88401 12.3411C3.84245 12.2404 3.86547 12.1245 3.94253 12.0476L4.33076 11.6598C4.39848 11.5905 4.4983 11.563 4.59207 11.5877ZM4.01 11.0056C4.10364 11.0303 4.17689 11.1036 4.20161 11.1974C4.2262 11.2911 4.19872 11.391 4.12928 11.4587L3.74119 11.8465C3.69069 11.897 3.62217 11.9254 3.55076 11.9253C3.44187 11.9253 3.34363 11.8597 3.30194 11.7591C3.26025 11.6583 3.2834 11.5425 3.36046 11.4655L3.74868 11.0776C3.81641 11.0084 3.91623 10.9809 4.01 11.0056ZM5.65995 10.711C5.76516 10.8162 5.76516 10.9868 5.66008 11.092L5.27186 11.4801C5.22135 11.5308 5.15284 11.5592 5.08129 11.559C4.9724 11.559 4.87416 11.4934 4.83247 11.3928C4.79078 11.2921 4.8138 11.1763 4.89086 11.0993L5.27909 10.711C5.3843 10.6058 5.55474 10.6058 5.65995 10.711ZM5.07564 10.1309C5.18006 10.2354 5.18098 10.4042 5.07787 10.5098L4.69005 10.8979C4.63968 10.9485 4.57103 10.9771 4.49949 10.977C4.39059 10.977 4.29249 10.9113 4.2508 10.8107C4.20911 10.7101 4.23199 10.5943 4.30906 10.5172L4.69689 10.1291C4.80236 10.0259 4.97122 10.0266 5.07564 10.1309ZM2.80246 9.79821C2.89622 9.82294 2.96934 9.89619 2.9942 9.98983C3.01892 10.0836 2.99144 10.1834 2.92226 10.2511L2.5343 10.6394C2.48393 10.69 2.41529 10.7184 2.34387 10.7184C2.23498 10.7184 2.13674 10.6528 2.09505 10.5522C2.05336 10.4516 2.07638 10.3357 2.15331 10.2586L2.54114 9.87055C2.60887 9.80111 2.70869 9.77362 2.80246 9.79821ZM6.62985 9.74114C6.73506 9.84622 6.73506 10.0168 6.62985 10.122L6.24202 10.5098C6.19152 10.5605 6.123 10.5889 6.05159 10.5887C5.9427 10.5887 5.84446 10.5231 5.80277 10.4225C5.76108 10.3219 5.78409 10.206 5.86116 10.129L6.24899 9.74114C6.35407 9.63593 6.52464 9.63593 6.62985 9.74114ZM2.22038 9.21614C2.31402 9.24087 2.38727 9.31399 2.41213 9.40775C2.43685 9.50152 2.40937 9.60134 2.34006 9.66907L1.95223 10.0573C1.90186 10.1079 1.83321 10.1363 1.76167 10.1362C1.65278 10.1362 1.55467 10.0707 1.51298 9.9701C1.47129 9.86949 1.49418 9.75363 1.57124 9.67657L1.95907 9.28834C2.0268 9.21903 2.12662 9.19142 2.22038 9.21614ZM6.04646 9.16012C6.15127 9.2648 6.15193 9.43445 6.04791 9.53979L5.65995 9.92802C5.60958 9.97865 5.54093 10.0071 5.46952 10.0069C5.36063 10.0069 5.26239 9.94143 5.2207 9.84082C5.17901 9.74022 5.20202 9.62435 5.27896 9.54729L5.66679 9.15907C5.77213 9.05491 5.94178 9.05543 6.04646 9.16012ZM3.75092 8.85107C3.84429 8.87592 3.91715 8.94878 3.94188 9.04215C3.96673 9.13552 3.93951 9.23508 3.87086 9.30294L3.48264 9.69077C3.43214 9.7414 3.36362 9.76968 3.29221 9.76968C3.18331 9.76968 3.08508 9.70392 3.04339 9.60331C3.0017 9.50257 3.02484 9.38671 3.10191 9.30978L3.49 8.92195C3.55799 8.85317 3.65755 8.82621 3.75092 8.85107ZM7.48073 8.69904C7.57437 8.72389 7.64762 8.79714 7.67234 8.89091C7.69693 8.98455 7.66945 9.08437 7.60001 9.1521L7.21192 9.53992C7.16142 9.59056 7.0929 9.61883 7.02149 9.61883C6.9126 9.61883 6.81436 9.55321 6.77267 9.45247C6.73098 9.35186 6.75413 9.236 6.83119 9.15893L7.21941 8.77111C7.28714 8.7018 7.38696 8.67431 7.48073 8.69904ZM3.28879 8.33988C3.394 8.44509 3.394 8.61566 3.28879 8.72074L2.90056 9.10896C2.85006 9.15959 2.78155 9.188 2.71013 9.18787C2.60124 9.18787 2.503 9.12224 2.46131 9.02164C2.41963 8.9209 2.44264 8.80504 2.51971 8.7281L2.9078 8.33988C3.01301 8.23467 3.18358 8.23467 3.28879 8.33988ZM6.89866 8.11697C6.99229 8.14182 7.06555 8.21507 7.09014 8.30871C7.11486 8.40248 7.08724 8.5023 7.01794 8.57002L6.62958 8.95785C6.57921 9.00835 6.51083 9.03676 6.43942 9.03663C6.33053 9.03676 6.23229 8.971 6.1906 8.8704C6.14891 8.76966 6.17192 8.6538 6.24899 8.57686L6.63721 8.18903C6.70507 8.11973 6.80489 8.09224 6.89866 8.11697ZM4.72082 7.88103C4.81419 7.90602 4.88705 7.97888 4.91191 8.07225C4.93663 8.16563 4.90954 8.26518 4.84076 8.33304L4.45254 8.72087C4.40204 8.77137 4.33365 8.79978 4.26224 8.79964C4.15322 8.79964 4.05498 8.73402 4.01329 8.63341C3.9716 8.53267 3.99474 8.41681 4.07181 8.33988L4.46003 7.95192C4.52789 7.88327 4.62745 7.85618 4.72082 7.88103ZM8.44997 7.72993C8.54334 7.75465 8.61633 7.82764 8.64119 7.92101C8.66591 8.01439 8.63882 8.11394 8.57017 8.1818L8.18195 8.57002C8.13145 8.62052 8.06293 8.64893 7.99152 8.6488C7.8825 8.6488 7.78439 8.58318 7.7427 8.48257C7.70101 8.38196 7.72403 8.2661 7.80109 8.18903L8.18918 7.80081C8.25717 7.73216 8.3566 7.70507 8.44997 7.72993ZM4.25869 7.36998C4.3639 7.47519 4.3639 7.64563 4.25869 7.75084L3.87086 8.13867C3.82049 8.1893 3.75184 8.2177 3.68043 8.21757C3.57154 8.21757 3.4733 8.15195 3.43161 8.05134C3.38992 7.9506 3.41293 7.83487 3.49 7.75781L3.87783 7.36998C3.98304 7.26477 4.15348 7.26477 4.25869 7.36998ZM7.98797 7.21913C8.09318 7.32434 8.09318 7.49478 7.98797 7.59999L7.60014 7.98782C7.54964 8.03845 7.48112 8.06686 7.40971 8.06673C7.30082 8.06673 7.20258 8.0011 7.16089 7.9005C7.1192 7.79976 7.14222 7.68403 7.21928 7.60696L7.60711 7.21913C7.71232 7.11392 7.88276 7.11392 7.98797 7.21913ZM5.80948 6.98294C5.91429 7.08762 5.91482 7.25727 5.81079 7.36275L5.42296 7.75084C5.37246 7.80147 5.30394 7.82988 5.2324 7.82974C5.12364 7.82961 5.02553 7.76412 4.98384 7.66351C4.94215 7.56304 4.96504 7.44718 5.04197 7.37011L5.4298 6.98202C5.53501 6.87786 5.70466 6.87826 5.80948 6.98294ZM9.53994 6.83091C9.64515 6.93599 9.64528 7.10656 9.54007 7.21177L9.15224 7.59999C9.10188 7.65062 9.03323 7.67903 8.96182 7.6789C8.85279 7.6789 8.75468 7.61328 8.71286 7.51267C8.67117 7.41206 8.69419 7.2962 8.77126 7.21913L9.15908 6.83104C9.26429 6.72583 9.43473 6.7257 9.53994 6.83091ZM5.22859 6.39955C5.3338 6.50476 5.33393 6.6752 5.22872 6.78054L4.84089 7.16863C4.79039 7.21927 4.72187 7.24767 4.65033 7.24767C4.54144 7.24767 4.4432 7.18205 4.40151 7.08144C4.35982 6.98083 4.38283 6.86497 4.4599 6.78791L4.84773 6.39968C4.95281 6.29447 5.12338 6.29447 5.22859 6.39955ZM8.95366 6.25279C9.05729 6.35629 9.05927 6.5237 8.958 6.62944L8.57017 7.01766C8.5198 7.06842 8.45116 7.09683 8.37961 7.09683C8.27072 7.09683 8.17261 7.0312 8.13092 6.9306C8.08923 6.82999 8.11212 6.71413 8.18918 6.63706L8.57701 6.24897C8.68275 6.14758 8.85003 6.14929 8.95366 6.25279ZM6.66115 5.93979C6.75491 5.96451 6.82804 6.03763 6.85276 6.1314C6.87748 6.22517 6.85 6.32499 6.78069 6.39271L6.39286 6.78054C6.34236 6.83117 6.27384 6.85958 6.20243 6.85945C6.09341 6.85945 5.9953 6.79383 5.95361 6.69322C5.91192 6.59248 5.93494 6.47662 6.012 6.39968L6.39983 6.01186C6.46756 5.94255 6.56738 5.91493 6.66115 5.93979ZM10.51 5.86101C10.6152 5.96609 10.6152 6.13666 10.51 6.24187L10.1221 6.6297C10.0716 6.68033 10.0031 6.70874 9.93172 6.70861C9.82282 6.70861 9.72458 6.64298 9.6829 6.54237C9.64121 6.44177 9.66422 6.32591 9.74129 6.24884L10.1291 5.86101C10.2342 5.7558 10.4048 5.7558 10.51 5.86101ZM6.07934 5.35758C6.17311 5.38231 6.24636 5.45556 6.27108 5.54933C6.29581 5.6431 6.26819 5.74278 6.19888 5.81064L5.81079 6.19873C5.76029 6.24937 5.69177 6.27777 5.62036 6.27764C5.51134 6.27764 5.4131 6.21202 5.37141 6.11141C5.32972 6.0108 5.35287 5.89494 5.4298 5.81787L5.81802 5.42965C5.88588 5.36035 5.9857 5.33286 6.07934 5.35758ZM9.9283 5.27894C10.0335 5.38415 10.0334 5.55472 9.92817 5.65993L9.53994 6.04776C9.48957 6.09826 9.42106 6.12667 9.34964 6.12653C9.24062 6.12653 9.14238 6.06091 9.10082 5.96017C9.05913 5.85956 9.08215 5.7437 9.15921 5.66664L9.54744 5.27881C9.65265 5.17373 9.82322 5.17373 9.9283 5.27894ZM7.63118 4.97094C7.72455 4.99579 7.79741 5.06865 7.82213 5.16203C7.84699 5.2554 7.81977 5.35495 7.75112 5.42281L7.36289 5.81064C7.31239 5.86127 7.24388 5.88968 7.17233 5.88955C7.06344 5.88955 6.9652 5.82379 6.92351 5.72319C6.88182 5.62245 6.90497 5.50659 6.98204 5.42965L7.37026 5.04182C7.43825 4.97304 7.53781 4.94608 7.63118 4.97094ZM11.4803 4.89072C11.5855 4.99593 11.5855 5.16637 11.4803 5.27157L11.0922 5.6598C11.0417 5.71043 10.9732 5.73871 10.9016 5.73871C10.7927 5.73871 10.6945 5.67308 10.6528 5.57247C10.6111 5.47174 10.6341 5.35587 10.7112 5.27894L11.0994 4.89072C11.2046 4.78551 11.3751 4.78551 11.4803 4.89072ZM7.04884 4.38874C7.14222 4.41359 7.21521 4.48658 7.23993 4.57995C7.26466 4.67333 7.23756 4.77288 7.16878 4.84074L6.78056 5.22857C6.73019 5.27907 6.66167 5.30748 6.59026 5.30735C6.48137 5.30735 6.38313 5.24172 6.34144 5.14111C6.29975 5.04038 6.3229 4.92452 6.39996 4.84758L6.78806 4.45975C6.85605 4.39097 6.95547 4.36388 7.04884 4.38874ZM10.7788 4.23684C10.8724 4.2617 10.9457 4.33495 10.9703 4.42858C10.995 4.52235 10.9674 4.62217 10.8981 4.6899L10.51 5.07773C10.4595 5.12836 10.391 5.15663 10.3195 5.1565C10.2107 5.15663 10.1124 5.09088 10.0707 4.99027C10.029 4.88953 10.052 4.77367 10.1291 4.69674L10.5173 4.30891C10.5852 4.2396 10.685 4.21212 10.7788 4.23684ZM8.60121 3.99946C8.69498 4.02418 8.76823 4.09731 8.79295 4.19107C8.81781 4.28471 8.79032 4.38453 8.72102 4.45239L8.33319 4.84061C8.28269 4.89124 8.21417 4.91965 8.14263 4.91952C8.03374 4.91952 7.9355 4.85389 7.89381 4.75329C7.85212 4.65268 7.87513 4.53695 7.95207 4.45988L8.34003 4.07166C8.40776 4.00235 8.50744 3.97474 8.60121 3.99946ZM12.3091 3.87018C12.4027 3.89491 12.4759 3.96803 12.5008 4.0618C12.5255 4.15543 12.498 4.25525 12.4287 4.32311L12.0409 4.71133C11.9904 4.76197 11.9219 4.79037 11.8503 4.79024C11.7415 4.79024 11.6433 4.72462 11.6017 4.62401C11.56 4.5234 11.5828 4.40767 11.6599 4.33061L12.0477 3.94238C12.1155 3.87308 12.2153 3.84546 12.3091 3.87018ZM8.13881 3.48985C8.24402 3.59506 8.24402 3.7655 8.13881 3.87071L7.75099 4.25854C7.70062 4.30917 7.63197 4.33758 7.56056 4.33745C7.45166 4.33745 7.35343 4.27182 7.31174 4.17122C7.27005 4.07048 7.29306 3.95475 7.37013 3.87768L7.75796 3.48985C7.86316 3.38464 8.03361 3.38464 8.13881 3.48985ZM11.7279 3.28575C11.8225 3.31021 11.8962 3.38398 11.921 3.47841C11.9456 3.57297 11.9172 3.67331 11.8467 3.74091L11.4588 4.129C11.4083 4.17976 11.3398 4.20817 11.2683 4.20817C11.1594 4.20817 11.0611 4.14255 11.0195 4.04194C10.9778 3.94133 11.0008 3.82547 11.0777 3.74854L11.4657 3.36031C11.5331 3.28969 11.6335 3.26115 11.7279 3.28575ZM9.6896 3.10268C9.79442 3.20736 9.79494 3.37701 9.69092 3.48249L9.30309 3.87058C9.25272 3.92121 9.18407 3.94975 9.11253 3.94962C9.00364 3.94962 8.90553 3.88399 8.86384 3.78339C8.82215 3.68278 8.84517 3.56692 8.9221 3.48985L9.30993 3.10176C9.41514 2.9976 9.58479 2.998 9.6896 3.10268ZM8.98956 2.44749C9.08333 2.47221 9.15645 2.54547 9.18118 2.6391C9.2059 2.73287 9.17842 2.83269 9.10911 2.90042L8.72089 3.28864C8.67052 3.33927 8.60187 3.36755 8.53046 3.36755C8.42157 3.36755 8.32333 3.30192 8.28164 3.20118C8.23995 3.10058 8.26309 2.98471 8.34003 2.90765L8.72825 2.51956C8.79598 2.45025 8.8958 2.42263 8.98956 2.44749ZM10.6356 2.15751C10.7389 2.26114 10.7408 2.42842 10.6394 2.53415L10.2512 2.92212C10.2008 2.97262 10.1324 3.00089 10.061 3.00089C9.9521 3.00089 9.85386 2.93527 9.81217 2.83453C9.77048 2.73392 9.79363 2.61806 9.87069 2.54099L10.2588 2.15317C10.3647 2.0519 10.5321 2.05387 10.6356 2.15751ZM10.0555 1.57333C10.1598 1.67775 10.1607 1.84661 10.0574 1.95208L9.66922 2.33991C9.61885 2.39054 9.55033 2.41882 9.47892 2.41882C9.3699 2.41869 9.27179 2.35306 9.2301 2.25246C9.18841 2.15172 9.21143 2.03586 9.28849 1.95892L9.67671 1.57109C9.78232 1.46799 9.95118 1.46891 10.0555 1.57333Z" fill="#FFCD05"/>
</svg>
