<svg width="16" height="16" viewBox="0 0 16 16" fill="none" xmlns="http://www.w3.org/2000/svg">
<path fill-rule="evenodd" clip-rule="evenodd" d="M13.6237 2.33737C10.5071 -0.779125 5.45403 -0.779125 2.33737 2.33737C-0.779125 5.45403 -0.779125 10.5071 2.33737 13.6237C5.45403 16.7402 10.5071 16.7402 13.6237 13.6237C16.7402 10.5071 16.7402 5.45403 13.6237 2.33737Z" fill="#C63838"/>
<path fill-rule="evenodd" clip-rule="evenodd" d="M10.6501 2.29754C10.7 2.41798 10.8174 2.49654 10.9479 2.49669C11.0334 2.49669 11.1155 2.46285 11.1757 2.40224L11.6405 1.93797C11.7641 1.81171 11.763 1.60957 11.6381 1.48457C11.5133 1.35957 11.3111 1.35847 11.1847 1.4819L10.72 1.94616C10.6277 2.03826 10.6002 2.17695 10.6501 2.29754ZM11.6447 3.19348C11.5144 3.19348 11.3968 3.11492 11.3469 2.99433C11.297 2.8739 11.3247 2.7352 11.4169 2.64295L11.8815 2.17868C12.0082 2.05746 12.2087 2.05982 12.3325 2.18388C12.4563 2.30793 12.4585 2.50819 12.3371 2.63476L11.8724 3.09918C11.8121 3.15964 11.7302 3.19348 11.6447 3.19348ZM10.5093 4.32919C10.379 4.32919 10.2615 4.25063 10.2116 4.1302C10.1617 4.00976 10.1893 3.87106 10.2814 3.77881L10.7456 3.31423C10.8716 3.18955 11.0747 3.19002 11.2001 3.31533C11.3256 3.44065 11.3263 3.64373 11.2017 3.76999L10.7375 4.23457C10.6772 4.29518 10.595 4.32935 10.5093 4.32919ZM9.34829 5.49024C9.21794 5.49024 9.10034 5.41168 9.05043 5.29125C9.00053 5.17081 9.02808 5.03227 9.12018 4.94002L9.5846 4.47528C9.66567 4.39232 9.78501 4.35926 9.89725 4.38885C10.0095 4.41845 10.0972 4.50598 10.1268 4.61823C10.1565 4.73032 10.1236 4.84981 10.0407 4.93105L9.57641 5.39578C9.51596 5.45639 9.43393 5.4904 9.34829 5.49024ZM8.18677 6.65145C8.05642 6.65145 7.93881 6.57273 7.88891 6.4523C7.839 6.33171 7.86671 6.19301 7.95897 6.10091L8.4237 5.63665C8.50509 5.55431 8.62427 5.52204 8.73604 5.5518C8.84782 5.58155 8.93504 5.66877 8.96463 5.78054C8.99439 5.89232 8.9618 6.01149 8.87962 6.09273L8.41489 6.55699C8.35443 6.6176 8.27241 6.65161 8.18677 6.65145ZM6.72786 7.61351C6.77776 7.73394 6.89521 7.8125 7.02572 7.8125C7.1112 7.81266 7.19322 7.77865 7.25368 7.71804L7.71794 7.25378C7.80091 7.1727 7.83381 7.05321 7.80421 6.94096C7.77461 6.82872 7.68708 6.74118 7.57484 6.71159C7.46259 6.68183 7.3431 6.71489 7.26202 6.79786L6.79776 7.26212C6.7055 7.35422 6.67795 7.49292 6.72786 7.61351ZM8.17307 9.05872C8.22298 9.17916 8.34058 9.25771 8.47093 9.25771C8.55642 9.25787 8.63844 9.22387 8.69889 9.16326L9.16315 8.69899C9.2891 8.57305 9.2891 8.36902 9.16315 8.24307C9.03721 8.11713 8.83318 8.11713 8.70723 8.24307L8.24297 8.70734C8.15072 8.79959 8.12317 8.93813 8.17307 9.05872ZM9.33428 7.89767C9.38419 8.0181 9.50163 8.09666 9.63198 8.09666C9.71762 8.09666 9.7998 8.06266 9.8601 8.00189L10.3244 7.53715C10.4456 7.41058 10.4432 7.21017 10.3192 7.08627C10.1951 6.96237 9.99486 6.96033 9.86829 7.08171L9.40402 7.54628C9.31177 7.63854 9.28438 7.77724 9.33428 7.89767ZM10.4953 6.73599C10.5451 6.85658 10.6627 6.93514 10.7932 6.93514C10.8787 6.9353 10.9607 6.90129 11.021 6.84084L11.4857 6.37657C11.6117 6.25063 11.6118 6.04644 11.4859 5.9205C11.3601 5.79455 11.1559 5.79455 11.03 5.92034L10.5652 6.3846C10.473 6.47686 10.4454 6.61555 10.4953 6.73599ZM5.86451 8.97402C5.73431 8.97387 5.61687 8.89547 5.56696 8.77503C5.51706 8.65475 5.54445 8.51606 5.63655 8.4238L6.10081 7.95923C6.22676 7.83454 6.42984 7.83501 6.55531 7.96033C6.68079 8.08564 6.68142 8.28873 6.55689 8.41499L6.09263 8.87957C6.03217 8.94018 5.95015 8.97418 5.86451 8.97402ZM7.01155 10.2198C7.06145 10.3402 7.17905 10.4189 7.30941 10.4188C7.39489 10.4189 7.47676 10.3849 7.53705 10.3245L8.00194 9.8602C8.08491 9.77913 8.11797 9.65963 8.08837 9.54739C8.05893 9.4353 7.97125 9.34761 7.85915 9.31785C7.74691 9.28826 7.62742 9.32116 7.54618 9.40413L7.08145 9.86839C6.98919 9.96049 6.96164 10.0992 7.01155 10.2198ZM4.70314 10.1351C4.57263 10.1351 4.45503 10.0565 4.40512 9.93608C4.35522 9.81549 4.38293 9.6768 4.47518 9.5847L4.93992 9.12028C5.02115 9.0381 5.14033 9.00567 5.2521 9.03542C5.36388 9.06533 5.45109 9.15255 5.48085 9.26433C5.51045 9.3761 5.47802 9.49528 5.39568 9.57651L4.93094 10.0408C4.87049 10.1012 4.78863 10.1352 4.70314 10.1351ZM5.8505 11.3815C5.9004 11.5019 6.018 11.5803 6.14836 11.5803C6.23384 11.5804 6.31602 11.5464 6.37632 11.4858L6.84074 11.0211C6.96526 10.895 6.96448 10.6919 6.839 10.5666C6.71369 10.4413 6.5106 10.4406 6.3845 10.5653L5.92024 11.0301C5.82814 11.1223 5.80059 11.261 5.8505 11.3815ZM3.54193 11.2963C3.41158 11.2963 3.29398 11.2176 3.24407 11.0971C3.19417 10.9765 3.22188 10.8378 3.31413 10.7458L3.77871 10.2815C3.8601 10.1992 3.97927 10.1669 4.09105 10.1966C4.20283 10.2264 4.29004 10.3136 4.31964 10.4254C4.34939 10.5372 4.31681 10.6563 4.23463 10.7376L3.76989 11.2018C3.70944 11.2624 3.62742 11.2963 3.54193 11.2963ZM4.68944 12.5425C4.73935 12.6629 4.85679 12.7415 4.98715 12.7415C5.07279 12.7417 5.15497 12.7075 5.21526 12.6469L5.67953 12.1823C5.80295 12.0559 5.80185 11.8537 5.67685 11.7287C5.55185 11.6039 5.34971 11.603 5.22345 11.7265L4.75919 12.1911C4.66693 12.2834 4.63954 12.4221 4.68944 12.5425ZM2.4067 12.432C2.27635 12.432 2.15875 12.3534 2.10884 12.233C2.05893 12.1126 2.08649 11.9739 2.17858 11.8816L2.64285 11.417C2.72392 11.3339 2.84341 11.301 2.95566 11.3304C3.06791 11.36 3.15544 11.4477 3.18519 11.5598C3.21479 11.6721 3.18189 11.7916 3.09908 11.8726L2.63466 12.3374C2.57436 12.398 2.49218 12.432 2.4067 12.432ZM3.55358 13.6777C3.60349 13.7982 3.72109 13.8767 3.85144 13.8767C3.93693 13.8769 4.01895 13.8429 4.0794 13.7824L4.54398 13.3182C4.6271 13.2371 4.66001 13.1176 4.63057 13.0054C4.60097 12.8931 4.51328 12.8054 4.40119 12.7758C4.28894 12.7462 4.16945 12.7791 4.08837 12.8619L3.62364 13.3264C3.53138 13.4185 3.50368 13.5571 3.55358 13.6777ZM11.6564 5.57494C11.7063 5.69537 11.8239 5.77409 11.9542 5.77393C12.0397 5.77409 12.1217 5.74024 12.1822 5.67963L12.6468 5.21537C12.7297 5.13429 12.7628 5.0148 12.7332 4.90255C12.7038 4.79046 12.6161 4.70277 12.504 4.67302C12.3917 4.64342 12.2723 4.67632 12.191 4.75929L11.7263 5.22355C11.634 5.31565 11.6065 5.45435 11.6564 5.57494ZM12.7921 4.4397C12.842 4.56014 12.9596 4.6387 13.0899 4.6387C13.1756 4.6387 13.2576 4.60469 13.3181 4.54392L13.7823 4.07935C13.8667 3.99843 13.9007 3.87831 13.8713 3.76511C13.8417 3.65208 13.7534 3.56376 13.6402 3.53448C13.5271 3.50504 13.407 3.5392 13.3263 3.62374L12.8618 4.08848C12.7697 4.18057 12.7422 4.31927 12.7921 4.4397ZM9.1674 9.9545C9.03689 9.9545 8.91945 9.87595 8.86955 9.75551C8.81964 9.63508 8.84719 9.49638 8.93945 9.40413L9.40402 8.93939C9.48541 8.85721 9.60443 8.82478 9.71621 8.85453C9.82798 8.88413 9.91536 8.97151 9.94511 9.08328C9.97471 9.19506 9.94228 9.31423 9.8601 9.39547L9.39536 9.8602C9.33491 9.92066 9.25289 9.95466 9.1674 9.9545ZM10.0309 8.59446C10.081 8.71489 10.1984 8.79345 10.3289 8.79345C10.4144 8.79361 10.4966 8.7596 10.5569 8.69899L11.0212 8.23426C11.1471 8.10831 11.1469 7.90413 11.021 7.77834C10.895 7.65239 10.691 7.65255 10.5651 7.7785L10.1008 8.24307C10.0086 8.33533 9.98101 8.47402 10.0309 8.59446ZM11.49 7.63193C11.3596 7.63193 11.242 7.55337 11.1921 7.43293C11.1422 7.3125 11.1698 7.1738 11.262 7.08155L11.7263 6.61729C11.8521 6.49134 12.0563 6.49134 12.1822 6.61729C12.3081 6.74307 12.3081 6.94726 12.1822 7.07321L11.7179 7.53747C11.6575 7.59808 11.5755 7.63208 11.49 7.63193ZM7.70834 10.9166C7.75824 11.0372 7.87584 11.1157 8.0062 11.1157C8.09168 11.1157 8.1737 11.0819 8.23415 11.0213L8.69873 10.557C8.78186 10.4759 8.81476 10.3564 8.78532 10.2443C8.75572 10.1321 8.66803 10.0444 8.55594 10.0146C8.4437 9.98504 8.32421 10.0179 8.24313 10.1009L7.77839 10.5652C7.68614 10.6574 7.65843 10.7961 7.70834 10.9166ZM6.84514 12.2768C6.71479 12.2768 6.59719 12.1982 6.54728 12.0778C6.49738 11.9573 6.52493 11.8186 6.61718 11.7264L7.08145 11.2621C7.20723 11.1362 7.41142 11.1362 7.53737 11.2621C7.66331 11.3879 7.66331 11.5921 7.53737 11.718L7.0731 12.1823C7.01265 12.2429 6.93063 12.2769 6.84514 12.2768ZM5.38576 13.2393C5.43567 13.3597 5.55327 13.4383 5.68362 13.4383C5.76926 13.4384 5.85128 13.4044 5.91174 13.3438L6.37647 12.8793C6.50226 12.7533 6.50226 12.5491 6.37632 12.4232C6.25037 12.2972 6.04634 12.2972 5.9204 12.4232L5.45566 12.8879C5.36341 12.9802 5.33586 13.1187 5.38576 13.2393ZM4.54839 14.5737C4.41788 14.5735 4.30028 14.495 4.25037 14.3745C4.20062 14.2539 4.22817 14.1152 4.32043 14.0231L4.78516 13.5589C4.86624 13.4759 4.98573 13.443 5.09798 13.4726C5.21023 13.5024 5.29776 13.5901 5.32735 13.7021C5.35695 13.8144 5.32389 13.9339 5.24092 14.015L4.77619 14.4792C4.71574 14.5398 4.63387 14.5737 4.54839 14.5737ZM12.3532 6.27188C12.4031 6.39232 12.5207 6.47088 12.651 6.47088C12.7367 6.47088 12.8187 6.43703 12.8791 6.37642L13.3437 5.91168C13.4697 5.78574 13.4697 5.58171 13.3437 5.45576C13.2178 5.32982 13.0138 5.32982 12.8878 5.45576L12.4231 5.9205C12.3308 6.0126 12.3033 6.15129 12.3532 6.27188ZM13.7867 5.33549C13.6564 5.33549 13.5389 5.25693 13.489 5.13649C13.4391 5.01606 13.4665 4.87752 13.5588 4.78526L14.023 4.32053C14.1041 4.23756 14.2236 4.2045 14.3359 4.2341C14.4479 4.2637 14.5356 4.35123 14.5654 4.46348C14.595 4.57557 14.5621 4.69506 14.4791 4.77629L14.0149 5.24103C13.9544 5.30164 13.8724 5.33564 13.7867 5.33549ZM6.03091 6.91703C6.08082 7.03747 6.19842 7.11603 6.32893 7.11603C6.41441 7.11618 6.49643 7.08218 6.55689 7.02157L7.02147 6.55699C7.10443 6.47576 7.13749 6.35642 7.1079 6.24418C7.0783 6.13193 6.99061 6.04424 6.87836 6.01464C6.76627 5.98504 6.64678 6.01795 6.56555 6.10091L6.10081 6.56565C6.00871 6.6579 5.98101 6.7966 6.03091 6.91703ZM7.48998 5.9545C7.35963 5.9545 7.24203 5.87595 7.19212 5.75551C7.14222 5.63492 7.16992 5.49622 7.26218 5.40413L7.72676 4.93986C7.80815 4.85753 7.92717 4.82509 8.03894 4.85485C8.15072 4.8846 8.23809 4.97198 8.26769 5.08375C8.29728 5.19553 8.26485 5.3147 8.18252 5.39594L7.71778 5.8602C7.65749 5.92066 7.57546 5.95466 7.48998 5.9545ZM8.35365 4.59446C8.40355 4.71489 8.52115 4.79345 8.6515 4.79345C8.73699 4.79361 8.81917 4.7596 8.87946 4.69899L9.34373 4.23473C9.46967 4.10878 9.46967 3.90475 9.34373 3.77881C9.21778 3.65287 9.01375 3.65287 8.88781 3.77881L8.42354 4.24307C8.33129 4.33533 8.30374 4.47387 8.35365 4.59446ZM5.16772 8.27724C5.03737 8.27724 4.91977 8.19868 4.86986 8.07824C4.81995 7.95781 4.84751 7.81911 4.93976 7.72686L5.40402 7.26212C5.52981 7.13618 5.734 7.13618 5.85994 7.26197C5.98589 7.38791 5.98604 7.59194 5.8601 7.71804L5.39584 8.18262C5.33538 8.24323 5.25336 8.27724 5.16772 8.27724ZM3.70881 9.2393C3.75871 9.35973 3.87631 9.43829 4.00667 9.43829C4.09215 9.43845 4.17433 9.40444 4.23463 9.34383L4.69889 8.87957C4.82484 8.75362 4.82484 8.54959 4.69889 8.42365C4.57295 8.2977 4.36892 8.2977 4.24297 8.42365L3.77871 8.88791C3.68645 8.98016 3.6589 9.1187 3.70881 9.2393ZM2.84514 10.5998C2.71479 10.5998 2.59719 10.5213 2.54728 10.4008C2.49738 10.2802 2.52493 10.1415 2.61718 10.0494L3.08176 9.5847C3.20771 9.45875 3.41189 9.45875 3.53784 9.5847C3.66378 9.71064 3.66378 9.91483 3.53784 10.0406L3.0731 10.5054C3.01265 10.566 2.93063 10.6 2.84514 10.5998ZM1.41205 11.5362C1.46196 11.6566 1.5794 11.735 1.70975 11.735C1.7954 11.7352 1.87757 11.7012 1.93787 11.6406L2.40213 11.1758C2.4851 11.0948 2.518 10.9753 2.48841 10.863C2.45865 10.7508 2.37096 10.6633 2.25887 10.6337C2.14662 10.6041 2.02713 10.6371 1.94606 10.7201L1.48179 11.1848C1.38954 11.2771 1.36215 11.4158 1.41205 11.5362ZM9.81256 3.6324C9.6822 3.6324 9.5646 3.55384 9.5147 3.43325C9.46479 3.31282 9.4925 3.17412 9.5846 3.08186L10.0493 2.61729C10.1304 2.53432 10.2499 2.50126 10.3621 2.53101C10.4744 2.56061 10.5619 2.6483 10.5915 2.76039C10.6211 2.87264 10.5882 2.99213 10.5053 3.07321L10.0405 3.53794C9.98022 3.59855 9.89804 3.6324 9.81256 3.6324Z" fill="#FEDB41"/>
</svg>
