<svg width="24" height="24" viewBox="0 0 24 24" fill="none" xmlns="http://www.w3.org/2000/svg">
<g clip-path="url(#clip0_799_43241)">
<g clip-path="url(#clip1_799_43241)">
<path d="M5.0625 9.375C5.91543 9.375 6.74921 9.12208 7.4584 8.64822C8.16758 8.17435 8.72033 7.50083 9.04673 6.71282C9.37313 5.92482 9.45853 5.05772 9.29214 4.22117C9.12574 3.38463 8.71501 2.61622 8.1119 2.0131C7.50878 1.40999 6.74037 0.999264 5.90383 0.832865C5.06728 0.666467 4.20018 0.751869 3.41218 1.07827C2.62417 1.40467 1.95065 1.95742 1.47679 2.66661C1.00292 3.37579 0.75 4.20957 0.75 5.0625C0.751241 6.20587 1.20599 7.30205 2.01447 8.11053C2.82295 8.91901 3.91913 9.37376 5.0625 9.375ZM5.0625 2.25C5.61876 2.25 6.16253 2.41495 6.62504 2.72399C7.08755 3.03304 7.44804 3.47229 7.66091 3.9862C7.87378 4.50012 7.92948 5.06562 7.82096 5.61119C7.71244 6.15677 7.44457 6.6579 7.05124 7.05124C6.6579 7.44458 6.15676 7.71244 5.61119 7.82096C5.06562 7.92948 4.50012 7.87378 3.9862 7.66091C3.47229 7.44804 3.03303 7.08756 2.72399 6.62504C2.41495 6.16253 2.25 5.61876 2.25 5.0625C2.25084 4.31684 2.54743 3.60196 3.07469 3.0747C3.60196 2.54743 4.31684 2.25085 5.0625 2.25ZM22.3564 1.79344C21.6883 1.12534 20.7822 0.750013 19.8374 0.750013C18.8925 0.750013 17.9864 1.12534 17.3183 1.79344L17.0617 2.05008C16.0707 3.04142 15.1179 4.0703 14.2056 5.13446L14.1907 5.1518L7.68305 13.7563L3.68194 17.7574C3.30494 17.5408 2.8621 17.4685 2.43579 17.554C2.00948 17.6395 1.62873 17.8769 1.36438 18.2221C1.10003 18.5673 0.970077 18.9968 0.998697 19.4306C1.02732 19.8645 1.21256 20.2732 1.51997 20.5807L3.41934 22.48C3.72696 22.7872 4.13564 22.9722 4.56943 23.0007C5.00321 23.0292 5.43258 22.8992 5.77772 22.6349C6.12287 22.3705 6.36029 21.9899 6.44587 21.5637C6.53145 21.1375 6.45936 20.6947 6.243 20.3176L10.2386 16.322L18.6714 10.1926L18.7109 10.162C19.9754 9.10709 21.1918 7.99583 22.3564 6.83156C23.0235 6.16294 23.3981 5.25701 23.3981 4.31251C23.3981 3.36801 23.0235 2.46208 22.3564 1.79344ZM21.2957 5.77092C20.1689 6.89736 18.9922 7.97282 17.7693 8.9941L9.26138 15.1781L4.16503 20.2743L4.89497 21.0044C4.92268 21.0315 4.94474 21.0639 4.95987 21.0996C4.97499 21.1353 4.98288 21.1737 4.98309 21.2125C4.98329 21.2513 4.9758 21.2897 4.96105 21.3256C4.9463 21.3615 4.92459 21.3941 4.89716 21.4215C4.86973 21.4489 4.83713 21.4706 4.80126 21.4854C4.76538 21.5001 4.72694 21.5076 4.68815 21.5074C4.64936 21.5072 4.61099 21.4994 4.57527 21.4842C4.53955 21.4691 4.50718 21.4471 4.48003 21.4193L2.58066 19.52C2.52562 19.465 2.4947 19.3903 2.49469 19.3125C2.49469 19.2347 2.5256 19.16 2.58063 19.105C2.63566 19.05 2.7103 19.0191 2.78813 19.019C2.86596 19.019 2.9406 19.05 2.99564 19.105L3.72563 19.835L8.81719 14.7437L15.3595 6.09338C16.2423 5.06447 17.164 4.06953 18.1225 3.11072L18.3791 2.85413C18.5704 2.66148 18.7978 2.5085 19.0483 2.40394C19.2989 2.29938 19.5676 2.24531 19.839 2.24482C20.1105 2.24434 20.3794 2.29745 20.6303 2.40111C20.8812 2.50478 21.1092 2.65695 21.3011 2.84891C21.4931 3.04087 21.6453 3.26884 21.7489 3.51973C21.8526 3.77063 21.9057 4.03953 21.9052 4.311C21.9047 4.58247 21.8507 4.85118 21.7461 5.1017C21.6416 5.35223 21.4886 5.57965 21.2959 5.77092H21.2957Z" fill="white"/>
</g>
</g>
<defs>
<clipPath id="clip0_799_43241">
<rect width="24" height="24" fill="white"/>
</clipPath>
<clipPath id="clip1_799_43241">
<rect width="24" height="24" fill="white"/>
</clipPath>
</defs>
</svg>
