<?xml version="1.0" standalone="no"?>
<!DOCTYPE svg PUBLIC "-//W3C//DTD SVG 20010904//EN"
 "http://www.w3.org/TR/2001/REC-SVG-20010904/DTD/svg10.dtd">
<svg version="1.0" xmlns="http://www.w3.org/2000/svg"
 width="512.000000pt" height="512.000000pt" viewBox="0 0 512.000000 512.000000"
 preserveAspectRatio="xMidYMid meet">
<metadata>
Created by potrace 1.16, written by Peter Selinger 2001-2019
</metadata>
<g transform="translate(0.000000,512.000000) scale(0.100000,-0.100000)"
fill="#000000" stroke="none">
<path d="M2735 5101 c-50 -32 -557 -548 -859 -875 l-285 -310 37 -42 c20 -23
43 -42 49 -41 38 6 1211 1047 1239 1100 29 53 21 110 -21 152 -31 30 -42 35
-83 35 -29 0 -59 -7 -77 -19z" fill="#7402D3"/>
<path d="M2895 4486 c-154 -50 -249 -158 -276 -315 -21 -119 20 -246 108 -334
190 -190 512 -133 625 110 94 201 1 446 -200 524 -69 27 -198 35 -257 15z" fill="#7402D3"/>
<path d="M1366 3855 c-47 -16 -89 -56 -112 -103 -23 -49 -21 -140 5 -189 25
-48 613 -634 661 -659 22 -12 57 -18 95 -18 58 0 67 4 270 116 l210 116 3
-499 2 -500 -287 -877 c-308 -940 -311 -953 -279 -1050 58 -173 281 -247 434
-144 87 58 87 58 362 889 l256 775 258 -769 c142 -422 269 -787 282 -810 90
-157 333 -181 456 -45 54 60 71 99 76 178 4 70 4 73 -282 941 l-286 870 0 694
c-1 382 -5 714 -9 738 -11 55 -37 89 -87 115 -38 20 -54 21 -449 21 -394 0
-412 -1 -440 -20 -17 -11 -127 -77 -245 -147 l-215 -127 -250 249 c-207 205
-257 250 -290 259 -52 14 -91 13 -139 -4z" fill="#7402D3"/>
<path d="M1076 3524 c-33 -32 -20 -65 56 -141 77 -78 100 -87 136 -53 36 34
27 57 -50 136 -75 78 -109 92 -142 58z" fill="#7402D3"/>
</g>
</svg>
