<?xml version="1.0" standalone="no"?>
<!DOCTYPE svg PUBLIC "-//W3C//DTD SVG 20010904//EN"
 "http://www.w3.org/TR/2001/REC-SVG-20010904/DTD/svg10.dtd">
<svg version="1.0" xmlns="http://www.w3.org/2000/svg"
 width="200.000000pt" height="200.000000pt" viewBox="0 0 200.000000 200.000000"
 preserveAspectRatio="xMidYMid meet">
<metadata>
Created by potrace 1.16, written by Peter Selinger 2001-2019
</metadata>
<g transform="translate(0.000000,200.000000) scale(0.100000,-0.100000)"
fill="#000000" stroke="none">
<path d="M1477 1880 c-53 -14 -95 -37 -107 -59 -11 -21 0 -64 19 -76 6 -3 36
-43 66 -88 39 -59 59 -102 71 -152 9 -39 18 -76 20 -82 5 -17 19 -16 38 3 9 8
16 11 16 5 0 -6 7 -11 15 -11 8 0 15 5 15 11 0 8 4 8 15 -1 8 -6 22 -9 33 -6
10 3 27 -1 38 -9 10 -8 23 -15 28 -15 5 0 6 44 2 104 -6 91 -4 111 14 159 11
30 29 62 39 71 51 46 30 104 -46 131 -56 20 -220 29 -276 15z" fill="#7402D3"/>
<path d="M748 1765 c-14 -8 -36 -30 -48 -50 -18 -29 -20 -44 -15 -92 9 -81 32
-159 59 -202 25 -39 180 -191 195 -191 5 0 18 15 30 33 11 18 31 43 45 56 14
13 23 28 20 32 -3 5 2 6 10 3 12 -5 9 -11 -15 -31 -34 -29 -71 -89 -94 -153
-15 -40 -55 -225 -55 -251 0 -6 58 -8 156 -7 l157 3 44 82 45 83 -26 31 c-14
17 -26 42 -26 57 0 25 1 24 36 -16 26 -31 43 -42 63 -42 36 0 65 32 58 62 -10
38 -64 95 -117 124 l-49 26 20 28 c40 53 42 139 6 162 -17 11 -65 10 -88 -2
-22 -13 -49 -61 -49 -90 0 -18 -3 -19 -20 -10 -31 17 -74 8 -84 -16 l-9 -21
-61 26 c-50 22 -67 36 -107 91 l-48 65 37 8 c71 15 109 83 82 148 -23 55 -101
82 -152 54z" fill="#7402D3"/>
<path d="M716 725 c-86 -96 -164 -174 -185 -184 -21 -11 -65 -55 -105 -105
-37 -48 -105 -119 -150 -158 -84 -73 -106 -96 -106 -110 0 -18 50 -58 72 -58
35 0 140 94 158 141 25 66 188 197 340 273 109 55 134 64 199 69 l75 6 98
-104 c73 -76 110 -108 143 -121 40 -15 47 -22 65 -71 11 -29 20 -57 20 -62 0
-18 42 -61 60 -61 50 0 55 61 14 168 -24 61 -34 76 -61 87 -23 10 -38 29 -61
77 -27 56 -41 99 -98 304 l-14 52 -97 6 c-54 4 -125 9 -158 12 l-60 5 -149
-166z" fill="#7402D3"/>
</g>
</svg>
