<svg width="40" height="40" viewBox="0 0 40 40" fill="none" xmlns="http://www.w3.org/2000/svg">
<mask id="mask0_2183_68713" style="mask-type:alpha" maskUnits="userSpaceOnUse" x="0" y="0" width="40" height="40">
<circle cx="20" cy="20" r="20" fill="white"/>
</mask>
<g mask="url(#mask0_2183_68713)">
<circle cx="20" cy="20" r="20" fill="white"/>
<circle cx="20" cy="20" r="19.5" fill="#F5F8FF" stroke="#7FA7FA"/>
<path d="M31.9881 28.3657C31.9063 28.1862 31.6424 28.2443 31.5263 28.1968C31.4102 28.1493 31.1753 27.9988 30.9378 27.8326C30.7003 27.6663 30.6792 27.698 30.4839 27.6901C30.286 27.6822 30.2887 27.6742 30.1066 27.4658C29.9245 27.2573 29.7609 27.4156 29.4706 27.3154C29.1803 27.2151 28.9349 26.8535 28.3675 26.5553C27.8002 26.2571 27.2697 25.6476 27.0058 25.4074C26.7393 25.1673 26.3303 25.0855 26.1746 25.0432C26.0083 24.9984 25.8368 24.9667 25.6679 24.9271C25.4805 24.8823 25.3328 24.8664 25.4779 24.6368C25.5201 24.5709 25.5808 24.5155 25.6389 24.4627C26.1403 23.9877 26.4015 23.3279 26.8238 22.7896C27.0586 22.4888 27.3463 22.2697 27.6234 22.0138C27.6788 21.961 27.7289 21.9029 27.7764 21.8396C28.1696 21.3197 28.3227 20.7339 28.2752 20.09C28.2303 19.4566 28.0007 18.8207 27.5679 18.3483C27.4254 18.1926 27.6022 18.1504 27.5389 18.0026C27.4756 17.8548 27.2803 17.5249 27.18 17.364C27.0481 17.1502 26.8976 16.947 26.7525 16.7438C26.6681 16.6251 26.5783 16.5116 26.4965 16.3955C26.42 16.2873 26.4068 16.1448 26.3303 16.034C26.296 15.9812 26.2485 15.939 26.2036 15.8967C26.0162 15.7173 25.8394 15.5273 25.6758 15.3267C25.5412 15.1578 25.3512 14.9546 25.3512 14.725C25.3512 14.5667 25.1348 14.4321 25.0821 14.3925C25.0293 14.353 24.8578 14.1128 24.6651 13.8648C24.4725 13.6167 24.1505 13.2182 24.0898 13.0018C24.0291 12.7854 23.9183 12.8699 23.8365 12.8461C23.7652 12.825 23.7204 12.7115 23.6861 12.6535C23.6386 12.5717 23.5911 12.4872 23.5462 12.4054C23.4565 12.2418 23.372 12.0756 23.277 11.9146C23.1557 11.7088 23.0184 11.5082 22.8495 11.3393C22.6754 11.1651 22.4827 11.0649 22.2663 10.9593C22.203 10.9276 22.0024 10.8458 22.0236 10.7508C22.0288 10.7297 22.042 10.7112 22.0526 10.6928C22.1054 10.6004 22.1133 10.4843 22.1027 10.3814C22.0895 10.2547 21.9998 10.136 21.9523 10.0172C21.9022 9.89317 21.8916 9.7797 21.9127 9.64775C21.9286 9.54747 21.9417 9.42081 21.889 9.32844C21.8177 9.20178 21.604 9.244 21.5142 9.14636C21.4245 9.04872 21.3058 8.63968 20.9073 8.28871C20.646 8.05648 20.2476 7.99051 19.9124 8.00106C19.535 8.01426 19.192 8.05912 18.8621 8.2676C18.5481 8.46552 18.3423 8.76107 18.1522 9.07511C17.9649 9.3865 18.0625 10.0647 18.0678 10.1439C18.0757 10.223 17.9939 10.2494 17.6799 10.2521C17.3658 10.2547 16.7563 9.97762 16.3842 9.9222C16.0121 9.86678 15.5714 9.95123 15.2204 10.0119C14.8694 10.07 14.661 10.0805 14.5659 10.0594C14.4709 10.0383 14.5422 9.83248 14.4657 9.56331C14.3891 9.29414 14.1675 9.23344 14.0197 9.20705C13.8719 9.18066 13.9141 9.42608 13.8297 9.30469C13.7452 9.1833 13.6634 9.20441 13.4312 9.21497C13.1963 9.22553 13.2307 9.42081 13.1541 9.33372C13.0776 9.244 12.8744 9.29678 12.848 9.37594C12.8216 9.45775 12.8718 9.47622 12.7002 9.40497C12.4918 9.32053 12.1724 9.84303 12.1091 9.9829C11.9455 10.3286 11.8215 10.6611 11.5919 10.9725C11.547 11.0332 11.4969 11.1044 11.5127 11.1757C11.5233 11.2311 11.5708 11.2812 11.5549 11.334C11.5444 11.3657 11.5154 11.3868 11.4863 11.4079C11.2884 11.5451 11.1248 11.7325 11.014 11.9463C10.9744 12.0228 10.9427 12.102 10.9374 12.1864C10.9348 12.2365 10.9427 12.2893 10.9374 12.3395C10.9216 12.4608 10.7817 12.5427 10.7501 12.672C10.729 12.759 10.7421 12.8435 10.7501 12.9306C10.7765 13.1918 10.8503 13.4346 10.919 13.6853C10.9374 13.7513 10.9533 13.8173 10.9533 13.8832C10.9612 14.1841 10.729 14.4691 10.5865 14.7145C10.2751 15.2423 9.95311 15.7621 9.64172 16.2873C9.26171 16.9259 8.93448 17.5856 8.41461 18.1319C8.27475 18.2797 7.86044 18.628 8.0478 18.8602C8.14281 18.979 8.22989 18.9684 8.36184 18.8655C8.53073 18.7362 8.6917 18.6016 8.87907 18.4961C9.06379 18.3932 9.25643 18.3008 9.4306 18.1794C9.71824 17.9736 9.97686 17.7281 10.2064 17.459C10.3753 17.2611 10.597 17.0156 10.6788 16.7623C10.729 16.6066 11.5285 14.7066 11.5655 14.6221C11.6051 14.5377 11.7291 14.6195 11.8004 14.572C11.8716 14.5271 12.0062 14.3741 12.0933 14.4137C12.1804 14.4532 12.3941 14.6512 12.5393 14.7778C12.6844 14.9045 12.8929 14.9019 13.0512 14.981C13.2254 15.0707 13.3784 15.2132 13.5341 15.332C13.7136 15.4666 13.8957 15.5959 14.0804 15.7199C14.4736 15.9812 14.8879 16.2108 15.3286 16.3797C15.6136 16.4878 15.8854 16.6251 16.1678 16.7359C16.4844 16.8599 16.7668 16.7333 17.0808 16.6673C17.2735 16.6251 17.4661 16.5802 17.6614 16.5538C17.9517 16.5169 18.2393 16.4324 18.5243 16.3638C18.9017 16.2741 19.2975 16.2292 19.6485 16.0551C19.733 16.0128 19.8174 15.9627 19.8939 15.9099C19.9335 15.8809 20.0364 15.7806 20.0945 15.8228C20.1077 15.8334 20.1182 15.8492 20.1262 15.8651C20.1974 16.0023 20.266 16.1395 20.3531 16.2662C20.4719 16.4351 20.6091 16.5855 20.7437 16.7412C20.9046 16.9259 21.063 17.1185 21.2398 17.2874C21.3744 17.4167 21.4852 17.5804 21.5987 17.7255C21.7729 17.9445 21.9444 18.1662 22.1186 18.3852C22.1977 18.4855 22.2743 18.5832 22.3561 18.6808C22.3904 18.7204 22.4326 18.7943 22.4801 18.818C22.583 18.8682 22.6648 19.0239 22.7308 19.1452C22.7651 19.2059 22.7519 19.2825 22.7018 19.3326C22.3165 19.7153 21.7702 19.9475 21.2926 20.1876C21.0709 20.2985 20.8994 20.4885 20.7014 20.6362C20.4481 20.8289 20.0444 20.8949 20.0312 21.2854C20.0259 21.4437 19.8807 21.544 19.7171 21.6443C19.5535 21.7446 19.2896 21.8581 19.2078 21.9451C19.1234 22.0322 19.06 21.8079 18.9782 21.5704C18.8964 21.3329 18.6114 21.0901 18.2789 20.8394C17.9464 20.5887 17.7696 20.7075 17.7036 20.8236C17.635 20.9371 17.6852 21.6021 17.6799 21.7419C17.6746 21.8844 17.7379 22.3331 17.6456 22.4175C17.5532 22.502 17.5427 22.6365 17.5427 22.7474C17.5427 22.8265 17.6165 22.8767 17.6245 22.9506C17.6324 23.0245 17.5875 23.0561 17.5717 23.1274C17.5374 23.2752 17.6007 23.4441 17.73 23.5232C17.8197 23.5786 17.825 23.6024 17.8646 23.6868C17.8752 23.7079 17.9411 23.832 17.9411 23.8557C17.9411 23.8768 17.9279 23.8953 17.9147 23.9138C17.8488 24.0009 17.7828 24.0932 17.7564 24.1988C17.7274 24.3043 17.7406 24.4284 17.8171 24.5075C17.8409 24.5339 17.8725 24.555 17.8884 24.5867C17.9174 24.6448 17.8831 24.7134 17.8646 24.7767C17.7881 25.0485 18.0388 25.1831 18.081 25.4259C18.1549 25.8666 18.1813 26.3178 18.2367 26.7612C18.3185 27.4341 18.4742 28.0912 18.4029 28.772C18.3871 28.9145 18.6985 29.0491 18.5613 29.0993C18.4241 29.152 18.3924 29.2629 18.3792 29.4898C18.3634 29.7168 18.5454 29.9041 18.5323 29.9648C18.5191 30.0255 18.1443 29.9807 17.862 30.1839C17.5822 30.3897 17.6007 30.5322 17.094 30.5692C16.5874 30.6061 16.4897 30.775 16.4554 31.0099C16.4211 31.2447 16.8539 31.3899 16.9753 31.4268C17.0967 31.4637 18.9861 31.4558 19.1762 31.3424C19.3662 31.2289 19.6907 31.2949 19.8728 31.3978C20.0549 31.5007 21.2398 31.5033 21.5776 31.3978C21.9154 31.2922 21.662 30.9571 21.5617 30.7644C21.4615 30.5718 21.4535 30.0176 21.4008 29.8276C21.3506 29.6402 20.9469 29.1494 20.9469 29.0439C20.9469 28.9357 20.8519 28.3841 20.8598 27.5001C20.8651 26.8667 21.0524 26.3548 21.158 26.1146C21.1976 26.0249 21.311 25.9933 21.3902 26.0487C21.4562 26.0935 21.5459 26.1648 21.6699 26.273C22.0341 26.5923 22.174 26.4419 22.327 26.7269C22.4774 27.0145 22.8495 26.9538 23.0237 27.0277C23.1979 27.1016 23.5198 27.3391 23.5937 27.4288C23.6702 27.5186 23.9711 27.4315 24.0239 27.4974C24.0766 27.5634 24.3669 27.6505 24.5728 27.6505C24.7786 27.6505 25.6943 28.3551 26.1139 28.4501C26.5308 28.5451 28.4414 29.7036 28.5259 29.7669C28.6103 29.8303 28.6209 29.9411 28.5259 30.2525C28.4309 30.5612 28.5179 30.6694 28.2831 30.7671C28.0482 30.8647 27.6049 31.4162 28.0984 31.5482C28.5892 31.6801 29.0642 31.3872 29.4891 31.1708C29.9139 30.9544 30.352 30.3765 30.5499 30.139C30.7478 29.9041 31.3126 29.4186 31.5237 29.2418C31.7322 29.0702 32.0673 28.5451 31.9881 28.3657ZM18.8146 12.672C18.8199 12.635 18.8278 12.5796 18.8225 12.5268C18.8173 12.4345 18.8595 12.3579 18.9043 12.3606C18.9492 12.3632 18.9914 12.4292 19.0284 12.5083C19.0653 12.5902 19.1155 12.7775 19.1181 12.8303C19.1181 12.8804 19.0759 12.8699 18.9571 12.8356C18.9096 12.8224 18.878 12.8013 18.8542 12.7828C18.8199 12.7564 18.8067 12.7142 18.8146 12.672ZM19.1392 13.0256L19.0653 13.0203L19.0363 12.9517C19.0363 12.9517 19.1023 12.9385 19.1075 12.9438C19.1102 12.949 19.1392 13.0256 19.1392 13.0256ZM18.6774 11.9753C18.6774 11.9515 18.7539 12.0096 18.7698 12.0756C18.7856 12.1415 18.7196 12.2629 18.6774 12.2656C18.6774 12.2656 18.6774 11.9964 18.6774 11.9753ZM18.6721 12.4345C18.6748 12.3843 18.7513 12.3764 18.7592 12.4292C18.7618 12.4371 18.7618 12.4477 18.7618 12.4582C18.7618 12.511 18.717 12.5215 18.688 12.5163C18.6695 12.5136 18.6695 12.4688 18.6721 12.4345ZM18.6352 12.4002C18.6404 12.4477 18.6352 12.4978 18.6141 12.4846C18.5929 12.4714 18.5243 12.3527 18.5296 12.35C18.5903 12.3421 18.6299 12.3553 18.6352 12.4002ZM18.49 11.9515C18.5164 11.9014 18.556 11.9436 18.5824 11.9806C18.6088 12.0175 18.5956 12.2392 18.5956 12.2392C18.585 12.2629 18.4979 12.2207 18.461 12.1495C18.4241 12.0782 18.4636 12.0017 18.49 11.9515ZM19.2738 13.5929C19.2738 13.5929 18.9835 13.9439 18.6932 14.097C18.4029 14.2527 18.366 14.3398 18.0836 14.4612C17.8013 14.5825 17.2999 14.8728 17.0518 15.018C16.8064 15.1631 16.7325 15.2528 16.3657 15.1842C15.9989 15.113 15.2785 14.7567 14.9143 14.6934C14.5501 14.63 14.12 14.5139 13.9722 14.4532C13.8244 14.3925 13.6397 14.3292 13.6793 14.2078C13.7189 14.0864 13.6793 13.9677 13.4734 13.9202C13.265 13.8753 13.1462 13.6378 13.1594 13.5639C13.1726 13.49 13.2438 12.9675 13.1911 12.7221C13.1383 12.4767 13.1066 12.1178 12.9193 11.9067C12.7319 11.6956 13.2465 11.8908 13.5526 11.6032C13.8587 11.3156 14.0698 11.2892 14.1384 11.3947C14.2071 11.5003 14.368 11.6824 14.4894 11.6322C14.6108 11.5821 14.6715 11.5214 14.5712 11.4026C14.4709 11.2839 14.3865 11.2469 14.5633 11.2126C14.7428 11.1783 14.9248 11.1414 15.2785 11.3235C15.6321 11.5056 15.9672 11.4897 16.1229 11.4844C16.2786 11.4765 16.6533 11.4976 16.7853 11.5293C16.9489 11.5689 17.4186 11.6006 17.7168 11.7457C18.0177 11.8908 18.2631 11.8592 18.3027 11.8724C18.3423 11.8856 18.2182 12.0914 18.3238 12.2497C18.4293 12.4107 18.5217 12.5136 18.5903 12.6403C18.6589 12.767 18.7407 12.8778 18.8991 12.9728C19.0548 13.0678 19.0468 13.0678 19.1339 13.1575C19.221 13.2472 19.1682 13.4584 19.2184 13.5191C19.2791 13.5771 19.2738 13.5929 19.2738 13.5929ZM19.4084 12.8145V12.7274C19.4084 12.7142 19.4242 12.7063 19.4348 12.7142C19.4743 12.7432 19.5403 12.7986 19.5588 12.8145C19.5746 12.8303 19.4928 12.8409 19.4427 12.8461C19.4242 12.8461 19.4084 12.8329 19.4084 12.8145ZM19.4717 13.1285L19.4559 12.957C19.4532 12.9438 19.4664 12.9306 19.4796 12.9306H19.5825C19.6037 12.9306 19.6221 12.9438 19.6274 12.9649L19.6723 13.1179C19.6775 13.1364 19.6644 13.1549 19.6432 13.1549H19.5034C19.4875 13.1575 19.4743 13.1443 19.4717 13.1285ZM19.7514 13.3264C19.7171 13.3343 19.5113 13.4504 19.5113 13.4504C19.4691 13.4188 19.4981 13.2895 19.5113 13.2367C19.5139 13.2235 19.5271 13.2129 19.5403 13.2129H19.667C19.6775 13.2129 19.6881 13.2182 19.696 13.2261C19.7198 13.2552 19.7778 13.3211 19.7514 13.3264Z" fill="#145CF6"/>
</g>
</svg>
