<?xml version="1.0" encoding="UTF-8"?>
<svg width="26px" height="26px" viewBox="0 0 26 26" version="1.1" xmlns="http://www.w3.org/2000/svg" xmlns:xlink="http://www.w3.org/1999/xlink">
    <!-- Generator: Sketch 59 (86127) - https://sketch.com -->
    <title>bot-icon</title>
    <desc>Created with Sketch.</desc>
    <g id="bot-icon" stroke="none" stroke-width="1" fill="none" fill-rule="evenodd">
        <g id="Group-43">
            <rect id="Rectangle" x="0" y="0" width="26" height="26"></rect>
            <path d="M15.8230262,9.76190819 C18.486657,9.76190819 20.6510303,11.8972953 20.6940514,14.5477579 L20.694704,14.628231 L20.694704,15.7168129 C20.694704,18.3777114 18.556967,20.5397075 15.9035878,20.5826814 L15.8230262,20.5833333 L10.1263508,20.5833333 C7.46271998,20.5833333 5.29834667,18.4479462 5.25532557,15.7972918 L5.2546729,15.7168129 L5.2546729,14.628231 C5.2546729,11.9675281 7.3924099,9.80553396 10.0457892,9.76256014 L10.1263508,9.76190819 L15.8230262,9.76190819 Z M18.2608426,14.3129748 L7.73915742,14.3129748 C6.80263094,14.3129748 6.04328514,15.0712884 6.04328514,16.006983 C6.04328514,16.933125 6.78751996,17.6858032 7.71111536,17.7007642 L7.73915742,17.7009911 L18.2608426,17.7009911 C19.1973691,17.7009911 19.9567149,16.94248 19.9567149,16.006983 C19.9567149,15.0806453 19.21248,14.3281588 18.2888846,14.3132018 L18.2608426,14.3129748 Z M4.75318828,13.6050311 C4.69275204,13.9194725 4.65769074,14.2382541 4.648656,14.5582835 L4.64719626,14.6223051 L4.64719626,15.7132574 C4.65216035,16.2312464 4.72791249,16.7459208 4.87231674,17.2432352 L4.88805123,17.2964519 L3.9948312,17.2964519 C2.98672059,17.2964519 2.16666667,16.457744 2.16666667,15.4507415 C2.16666667,14.453809 2.97040151,13.6218221 3.96464493,13.6052821 L3.9948312,13.6050311 L4.75318828,13.6050311 Z M22.0051688,13.6050311 C23.0132794,13.6050311 23.8333333,14.443739 23.8333333,15.4507415 C23.8333333,16.447674 23.0295985,17.2796609 22.0353551,17.2962009 L22.0051688,17.2964519 L21.1119488,17.2964519 C21.261254,16.8003954 21.3419834,16.2864772 21.3520011,15.7687429 L21.3528037,15.7132574 L21.3528037,14.6223051 C21.3472421,14.3021231 21.3156105,13.9829827 21.2585604,13.6679764 L21.2468117,13.6050311 L22.0051688,13.6050311 Z M18.2608426,14.9197837 C18.8617936,14.9197837 19.3492382,15.406495 19.3492382,16.006983 C19.3492382,16.6014661 18.8714937,17.0844366 18.2788367,17.0940366 L18.2608426,17.0941822 L7.73915742,17.0941822 C7.1382064,17.0941822 6.65076178,16.6074709 6.65076178,16.006983 C6.65076178,15.4124999 7.12850625,14.9295293 7.72116331,14.9199294 L7.73915742,14.9197837 L18.2608426,14.9197837 Z M9.35514019,15.4254578 L8.7982866,15.4254578 C8.63440885,15.4254578 8.5007487,15.5552506 8.49475788,15.7174917 L8.49454829,15.7288622 L8.49454829,16.2851037 C8.49454829,16.4488013 8.62448395,16.5823146 8.78690353,16.5882988 L8.7982866,16.5885082 L9.35514019,16.5885082 C9.51901794,16.5885082 9.6526781,16.4587153 9.65866891,16.2964743 L9.6588785,16.2851037 L9.6588785,15.7288622 C9.6588785,15.5651646 9.52894284,15.4316514 9.36652326,15.4256672 L9.35514019,15.4254578 Z M17.2017134,15.4254578 L16.6448598,15.4254578 C16.4809821,15.4254578 16.3473219,15.5552506 16.3413311,15.7174917 L16.3411215,15.7288622 L16.3411215,16.2851037 C16.3411215,16.4488013 16.4710572,16.5823146 16.6334767,16.5882988 L16.6448598,16.5885082 L17.2017134,16.5885082 C17.3655911,16.5885082 17.4992513,16.4587153 17.5052421,16.2964743 L17.5054517,16.2851037 L17.5054517,15.7288622 C17.5054517,15.5651646 17.3755161,15.4316514 17.2130965,15.4256672 L17.2017134,15.4254578 Z M21.5056616,5.41666667 C22.283647,5.41666667 22.9158864,6.0404398 22.9284533,6.81458053 L22.928644,6.83808488 C22.9345165,7.50192178 22.4749496,8.07827019 21.8282658,8.22243541 L21.8084112,8.22671326 L21.8084112,13.3016267 L21.2009346,13.3016267 L21.2009346,8.22671326 C20.5508526,8.09120843 20.0852412,7.52000316 20.0826147,6.85836693 L20.0826792,6.83808488 C20.0826792,6.05310492 20.7198178,5.41666667 21.5056616,5.41666667 Z" id="Shape" fill="#7402D3" fill-rule="nonzero"></path>
        </g>
    </g>
</svg>