<svg width="40" height="40" viewBox="0 0 40 40" fill="none" xmlns="http://www.w3.org/2000/svg">
<mask id="mask0_2183_68851" style="mask-type:alpha" maskUnits="userSpaceOnUse" x="0" y="0" width="40" height="40">
<circle cx="20" cy="20" r="20" fill="white"/>
</mask>
<g mask="url(#mask0_2183_68851)">
<circle cx="20" cy="20" r="20" fill="white"/>
<circle cx="20" cy="20" r="19.5" fill="#F5F8FF" stroke="#7FA7FA"/>
<path d="M22.5261 5.33736C22.5261 5.33736 23.278 6.19547 22.1752 6.45203L21.724 6.39305L21.3554 6.18958L21.5471 5.65288L22.187 5.26953L22.5261 5.33736Z" fill="#145CF6"/>
<path d="M22.1752 6.56121C22.1841 6.56121 22.1929 6.56121 22.1988 6.55826C22.5615 6.47274 22.7856 6.31645 22.8594 6.08644C22.9832 5.70309 22.6234 5.28435 22.6087 5.26666C22.594 5.24896 22.5704 5.23717 22.5497 5.23127L22.2077 5.16345C22.1811 5.15755 22.1546 5.16345 22.131 5.17524L21.4911 5.55859C21.4704 5.57039 21.4527 5.59103 21.4439 5.61462L21.2522 6.15426C21.2345 6.2044 21.2552 6.26042 21.3024 6.28401L21.671 6.48749C21.6828 6.49338 21.6975 6.49928 21.7093 6.49928L22.1605 6.55826C22.1664 6.56121 22.1723 6.56121 22.1752 6.56121ZM22.4672 5.43769C22.5586 5.5527 22.7178 5.81515 22.6529 6.01862C22.6058 6.16606 22.4436 6.27517 22.1693 6.34004L21.7565 6.28696L21.4881 6.13657L21.6356 5.72078L22.2047 5.38461L22.4672 5.43769Z" fill="#145CF6"/>
<path d="M22.1783 14.7737L22.0515 13.0546C21.8481 12.6653 22.1548 12.3793 23.0335 10.9284C23.9123 9.47759 22.1754 6.61719 22.1754 6.61719C22.1636 6.7145 22.0339 6.77348 21.8628 6.80591C21.6535 6.8472 21.3851 6.8531 21.1934 6.85015C21.0489 6.8472 20.9487 6.8413 20.9487 6.8413C20.9487 6.8413 21.0932 7.80263 21.5414 9.10898C21.9896 10.4183 19.7426 11.2764 19.7426 11.2764C19.9254 11.8485 19.4772 12.2171 19.4772 12.2171C18.4952 12.3793 17.6784 11.931 17.6784 11.931C17.6784 11.931 17.2478 12.7272 16.9412 13.4438C16.4045 14.7 17.1476 15.6643 17.3776 17.3687C17.4661 18.0263 17.5398 19.0349 17.3805 20.3206C17.9851 20.3383 18.74 20.3058 19.5833 20.1377C20.8926 19.8753 21.91 19.3917 22.5912 18.9936C22.7652 18.3596 22.258 17.7521 22.2757 17.5958C22.2963 17.4277 22.199 15.2279 22.1783 14.7737Z" fill="#145CF6"/>
<path d="M17.6785 20.4327C18.3273 20.4327 18.9731 20.3678 19.6071 20.241C20.6746 20.0287 21.6978 19.6394 22.6473 19.085C22.6709 19.0703 22.6886 19.0467 22.6975 19.0202C22.8302 18.5424 22.6061 18.0795 22.4734 17.8052C22.435 17.7286 22.3908 17.6342 22.3878 17.6018C22.4055 17.4042 22.3082 15.2102 22.2905 14.7679C22.2905 14.765 22.2905 14.765 22.2905 14.762L22.1637 13.0458C22.1637 13.031 22.1578 13.0163 22.1519 13.0045C22.0251 12.7656 22.1372 12.571 22.6326 11.7866C22.7682 11.5713 22.9363 11.303 23.131 10.9845C24.0333 9.49534 22.3436 6.67917 22.2728 6.55827C22.2492 6.51993 22.2021 6.49929 22.1578 6.50814C22.1136 6.51698 22.0782 6.55532 22.0723 6.59955C22.0694 6.61429 22.0251 6.66148 21.8453 6.69686C21.6447 6.73815 21.3823 6.7411 21.1965 6.73815C21.0579 6.7352 20.9606 6.7293 20.9576 6.7293C20.9252 6.72635 20.8928 6.7411 20.8692 6.76469C20.8456 6.78828 20.8367 6.82072 20.8426 6.85315C20.8426 6.862 20.993 7.83807 21.4413 9.14147C21.8511 10.3358 19.728 11.1644 19.7073 11.1703C19.6542 11.1909 19.6248 11.2499 19.6425 11.3059C19.781 11.7365 19.5098 12.0373 19.4301 12.111C18.513 12.2525 17.7404 11.8367 17.7316 11.8308C17.705 11.8161 17.6756 11.8131 17.649 11.822C17.6225 11.8308 17.5989 11.8485 17.5841 11.8751C17.5812 11.8839 17.1477 12.686 16.844 13.3967C16.4783 14.2519 16.6847 14.992 16.9265 15.8472C17.0533 16.2925 17.1949 16.7967 17.2716 17.3776C17.3984 18.3154 17.3984 19.3003 17.2745 20.3C17.2716 20.3295 17.2804 20.3619 17.3011 20.3855C17.3217 20.4091 17.3482 20.4238 17.3807 20.4238C17.478 20.4297 17.5782 20.4327 17.6785 20.4327ZM22.4999 18.9199C21.5828 19.4507 20.5949 19.8223 19.5658 20.0287C18.8905 20.1643 18.1975 20.2263 17.5045 20.2145C17.6166 19.2354 17.6107 18.2741 17.4868 17.3541C17.4072 16.7554 17.2627 16.2453 17.133 15.7912C16.8941 14.9419 16.7054 14.2725 17.0416 13.4851C17.2834 12.9249 17.6018 12.3027 17.7227 12.0726C17.9734 12.1876 18.6752 12.4589 19.4921 12.3233C19.5098 12.3203 19.5274 12.3115 19.5422 12.2997C19.5628 12.285 19.9963 11.9193 19.8695 11.3384C20.0523 11.2617 20.477 11.0641 20.8721 10.7692C21.5799 10.2443 21.8453 9.65752 21.6447 9.07365C21.2997 8.06514 21.1346 7.2601 21.0785 6.95636C21.111 6.95636 21.1493 6.95931 21.1906 6.95931C21.3852 6.96226 21.6654 6.95636 21.8836 6.91213C21.9396 6.90033 22.0664 6.87674 22.1608 6.81187C22.4881 7.39279 23.6676 9.67227 22.9422 10.8725C22.7506 11.1909 22.5825 11.4563 22.4468 11.6716C21.9514 12.4589 21.7774 12.7361 21.9485 13.0841L22.0723 14.7797C22.1283 16.0477 22.1844 17.4661 22.1726 17.5811C22.1637 17.6607 22.208 17.7492 22.2787 17.8996C22.3996 18.1532 22.5854 18.5336 22.4999 18.9199Z" fill="#145CF6"/>
<path d="M21.0605 22.724C21.0605 22.724 20.9986 23.7679 22.1634 24.7469C22.1634 24.7469 20.9661 27.569 21.0605 27.9671C21.0605 27.9671 21.3996 29.1614 22.1634 28.9166C22.1634 28.9166 25.1063 25.2069 24.6787 23.9802C24.2482 22.7535 23.5434 21.4973 23.6053 21.282C23.6673 21.0667 24.3101 20.4239 23.3901 20.1172C23.3901 20.1172 22.9006 18.9524 22.4405 18.9524C22.4405 18.9524 19.4976 20.6745 17.3803 20.3177C17.3803 20.3177 17.3184 22.9363 17.8108 24.2544C18.3003 25.5726 18.2089 26.4307 18.0556 27.106C17.9022 27.7813 17.2889 32.5024 18.0261 32.9919C18.7633 33.4814 19.6214 32.9919 19.6214 32.9919L20.2967 27.9641L21.0605 22.724Z" fill="#145CF6"/>
<path d="M18.7662 33.3222C19.2557 33.3222 19.6479 33.101 19.6715 33.0892C19.701 33.0715 19.7216 33.042 19.7246 33.0096L20.3999 27.9818L21.0693 23.4022C21.199 23.7885 21.4703 24.2869 22.0306 24.7764C21.7741 25.3868 20.8599 27.5955 20.9513 27.9906C20.9513 27.9936 20.9513 27.9936 20.9513 27.9965C20.9602 28.026 21.1607 28.7249 21.6207 28.9726C21.8006 29.0699 21.9923 29.0847 22.1928 29.0198C22.2134 29.0139 22.2311 29.0021 22.2459 28.9844C22.2547 28.9756 22.9919 28.0408 23.6702 26.9674C24.5991 25.5018 24.9706 24.4844 24.7819 23.9448C24.5784 23.3668 24.313 22.777 24.1007 22.3023C23.912 21.8835 23.6967 21.4088 23.7115 21.3085C23.7203 21.282 23.7527 21.223 23.7852 21.167C23.8943 20.9812 24.0594 20.6981 23.9592 20.4298C23.8943 20.2587 23.7321 20.1231 23.4726 20.0287C23.3664 19.7869 22.9182 18.8433 22.4405 18.8433C22.4199 18.8433 22.4022 18.8492 22.3845 18.858C22.355 18.8757 19.4504 20.5566 17.3979 20.2115C17.3655 20.2056 17.336 20.2145 17.3095 20.2351C17.2859 20.2558 17.2711 20.2853 17.2711 20.3177C17.2682 20.4268 17.2151 22.9717 17.7076 24.2957C18.1853 25.5814 18.0968 26.4277 17.9494 27.0853C17.8698 27.4363 17.6781 28.7868 17.5985 30.1138C17.5513 30.8687 17.5483 31.4939 17.5896 31.9716C17.6397 32.5879 17.7636 32.9506 17.9641 33.0863C18.2325 33.2632 18.5126 33.3222 18.7662 33.3222ZM19.5211 32.9241C19.3412 33.0096 18.663 33.2897 18.088 32.9034C17.9612 32.8179 17.681 32.3786 17.8167 30.1256C17.8963 28.8281 18.088 27.4657 18.1617 27.1296C18.318 26.4395 18.4124 25.5578 17.911 24.2161C17.4923 23.0926 17.4835 20.9723 17.4864 20.4415C18.3622 20.5566 19.4562 20.3619 20.742 19.8665C21.6296 19.5244 22.3166 19.144 22.4641 19.0585C22.7442 19.0969 23.1158 19.7427 23.2898 20.1555C23.3016 20.185 23.3252 20.2056 23.3546 20.2174C23.5758 20.2912 23.7085 20.3885 23.7527 20.5064C23.8176 20.6775 23.6879 20.8957 23.5965 21.0579C23.5522 21.1345 23.5139 21.1965 23.4991 21.2525C23.4579 21.3999 23.5906 21.7066 23.9002 22.3907C24.1125 22.8596 24.375 23.4464 24.5755 24.0156C24.9087 24.9681 22.9241 27.7813 22.1014 28.8222C21.9687 28.8576 21.8478 28.8429 21.7298 28.7809C21.3642 28.5834 21.1784 27.9847 21.1666 27.9405C21.1548 27.8845 21.1636 27.6014 21.6797 26.2479C21.9628 25.5047 22.2606 24.797 22.2636 24.7911C22.2813 24.7469 22.2695 24.6968 22.2341 24.6643C21.1283 23.7325 21.1695 22.7387 21.1695 22.7299C21.1725 22.6709 21.1283 22.6208 21.0722 22.6149C21.0132 22.609 20.9631 22.6502 20.9543 22.7063L20.1876 27.9494L19.5211 32.9241Z" fill="#145CF6"/>
<path d="M18.0292 32.9949C17.9938 33.101 17.9732 33.219 17.985 33.3517C18.0263 33.8412 17.7992 34.6197 18.156 34.7612C18.5158 34.9057 19.7838 34.9647 19.8428 34.7612C19.9047 34.5578 19.9666 34.3926 19.5774 34.2098L19.3533 33.1069C19.3562 33.1069 18.7399 33.4372 18.0292 32.9949Z" fill="#145CF6"/>
<path d="M19.2089 35C19.4714 35 19.7073 34.9764 19.8282 34.9174C19.893 34.8879 19.9314 34.8437 19.9491 34.7906L19.955 34.7759C20.0139 34.5842 20.0847 34.3483 19.6778 34.1359L19.4655 33.0862C19.4596 33.0537 19.436 33.0242 19.4065 33.0095C19.374 32.9947 19.3387 32.9947 19.3092 33.0124C19.2856 33.0242 18.7371 33.3044 18.0913 32.9033C18.0589 32.8827 18.0146 32.8827 17.9822 32.9004C17.9586 32.9151 17.9379 32.9387 17.9321 32.9652C17.8878 33.095 17.8731 33.2277 17.8849 33.3604C17.8967 33.5049 17.8819 33.6877 17.8701 33.8617C17.8377 34.2922 17.8053 34.7346 18.1237 34.8614C18.3154 34.941 18.7961 35 19.2089 35ZM19.7456 34.7198C19.6041 34.823 18.5602 34.8053 18.1974 34.6638C18.0264 34.596 18.053 34.2156 18.0795 33.8823C18.0942 33.6995 18.109 33.5078 18.0942 33.3457C18.0883 33.2837 18.0913 33.2247 18.1001 33.1628C18.6132 33.4253 19.0615 33.3339 19.2767 33.2601L19.4743 34.2333C19.4802 34.2657 19.5038 34.2952 19.5333 34.3099C19.8282 34.4485 19.8046 34.5281 19.7456 34.7169V34.7198Z" fill="#145CF6"/>
<path d="M21.0695 27.7871C21.0459 27.625 20.7746 27.9523 20.6448 28.0378C20.2143 28.3209 20.2969 29.0198 20.5004 29.2645C20.7038 29.5093 21.0311 29.9192 20.9102 30.4706C20.7864 31.022 21.3408 32.1662 22.137 31.8595C22.9332 31.5528 22.2726 29.3854 22.2726 29.3854C22.2726 29.3854 22.3404 29.2616 22.4024 29.0787C22.4319 28.9903 22.3729 28.8576 22.3021 28.7396C22.3021 28.7396 22.2107 28.9637 22.0102 28.946C21.8096 28.9284 21.1904 28.6482 21.0695 27.7871Z" fill="#145CF6"/>
<path d="M21.8715 32.0187C21.9718 32.0187 22.072 32.001 22.1723 31.9597C22.5556 31.8122 22.7001 31.3198 22.6087 30.4941C22.5527 29.9987 22.4259 29.5357 22.3875 29.3971C22.4141 29.344 22.4613 29.2438 22.5025 29.114C22.5379 29.0079 22.5025 28.8693 22.3934 28.6864C22.3728 28.6511 22.3345 28.6304 22.2932 28.6334C22.2519 28.6363 22.2165 28.6629 22.2018 28.7012C22.2018 28.7012 22.1369 28.8516 22.0219 28.8398C21.8833 28.828 21.2935 28.595 21.1785 27.7723C21.1667 27.6809 21.1077 27.6514 21.0812 27.6425C20.9721 27.6042 20.86 27.7045 20.7185 27.8342C20.6684 27.8785 20.6182 27.9256 20.5858 27.9463C20.3971 28.0701 20.2762 28.2707 20.2378 28.5272C20.1936 28.8221 20.2673 29.1553 20.4177 29.3352C20.5917 29.5446 20.919 29.9338 20.804 30.4469C20.7214 30.8185 20.9043 31.4466 21.3083 31.7945C21.4793 31.942 21.6739 32.0187 21.8715 32.0187ZM22.2843 28.9518C22.305 29.0138 22.2991 29.0403 22.2991 29.0433C22.243 29.2143 22.1782 29.3322 22.1782 29.3322C22.1634 29.3588 22.1605 29.3883 22.1693 29.4148C22.3433 29.9898 22.6736 31.5321 22.0986 31.7562C21.8685 31.8447 21.6533 31.8004 21.4528 31.6294C21.1225 31.3434 20.9514 30.7949 21.0163 30.4911C21.152 29.8748 20.7686 29.4148 20.5858 29.1907C20.4914 29.0786 20.4148 28.8191 20.4531 28.5537C20.4737 28.4181 20.5327 28.2353 20.7037 28.1232C20.7509 28.0937 20.807 28.0406 20.863 27.9876C20.8954 27.9581 20.9397 27.9168 20.975 27.8873C21.1284 28.7041 21.724 29.0226 21.9983 29.0492C22.1192 29.0668 22.2136 29.0167 22.2843 28.9518ZM21.0694 27.787L20.9632 27.8018L21.0694 27.787Z" fill="#145CF6"/>
<path d="M18.7426 13.4851C18.7426 13.4851 19.704 13.9746 20.3586 14.1604C21.0133 14.3432 22.6322 12.6683 22.6322 12.6683C23.2603 12.6093 23.567 13.609 23.4254 13.6915C23.2809 13.7741 21.2993 15.5729 20.9307 15.9002C20.5621 16.2276 19.8072 16.0831 18.9903 16.0241C18.1735 15.9622 17.7636 16.2895 17.7636 16.2895C17.7636 16.2895 17.1709 13.146 18.7426 13.4851Z" fill="#145CF6"/>
<path d="M17.7608 16.3926C17.7844 16.3926 17.808 16.3838 17.8286 16.3691C17.8315 16.3661 18.2208 16.0712 18.9787 16.1273C19.1143 16.1361 19.2499 16.1508 19.3826 16.1626C20.0697 16.2275 20.6595 16.2806 21.0016 15.9769C21.0871 15.9031 21.2552 15.7498 21.4675 15.5581C22.0809 15.0037 23.3607 13.8537 23.4757 13.7829C23.6143 13.7033 23.5612 13.4644 23.517 13.3258C23.3872 12.913 23.0569 12.5149 22.6175 12.5562C22.591 12.5591 22.5674 12.5709 22.5497 12.5886C21.9776 13.1813 20.9455 14.063 20.4678 14.063C20.4383 14.063 20.4118 14.0601 20.3853 14.0513C19.7483 13.8714 18.7988 13.3907 18.7899 13.3848C18.7811 13.3819 18.7722 13.376 18.7634 13.376C18.4331 13.3052 18.1618 13.3701 17.9583 13.5676C17.2742 14.2341 17.6369 16.2187 17.6546 16.3012C17.6605 16.3396 17.687 16.3691 17.7224 16.3838C17.7342 16.3897 17.749 16.3926 17.7608 16.3926ZM18.784 15.9031C18.324 15.9031 18.0114 16.0211 17.8404 16.1096C17.7696 15.6348 17.6074 14.2134 18.1087 13.7269C18.2562 13.5824 18.4508 13.5381 18.7044 13.5883C18.8253 13.6502 19.7041 14.0896 20.3263 14.2636C20.9927 14.4523 22.4052 13.0486 22.6765 12.7744H22.6795C22.88 12.7744 23.0274 12.91 23.1189 13.028C23.2928 13.2521 23.3577 13.5293 23.343 13.6089C23.1867 13.721 22.4731 14.3579 21.3171 15.3989C21.1048 15.5906 20.9367 15.741 20.8512 15.8176C20.5799 16.0594 20.0314 16.0063 19.3974 15.9474C19.2647 15.9356 19.129 15.9238 18.9904 15.912C18.9226 15.9061 18.8518 15.9031 18.784 15.9031Z" fill="#145CF6"/>
<path d="M24.2305 12.8394C24.2305 12.8424 24.2305 12.8424 24.2305 12.8394C24.2305 12.8424 24.2305 12.8424 24.2305 12.8424C24.2305 12.8424 24.2305 12.8424 24.2305 12.8453C24.2069 13.034 24.3957 13.4528 24.4664 13.3997C24.5372 13.3496 24.5077 12.8984 24.5077 12.8984C24.6168 13.0252 25.0179 13.0753 24.8527 12.8512C24.6905 12.6271 24.1155 12.114 23.626 12.1346C23.3252 12.1464 23.0215 12.4502 22.8269 12.6831C22.8269 12.6831 23.3134 12.8778 23.3636 13.2228C23.3871 13.3879 23.5641 12.9633 23.5729 12.978C23.7233 13.2375 23.8943 13.0635 24.027 13.1962C24.1509 13.3201 24.2217 12.9043 24.2305 12.8453V12.8424C24.2305 12.8424 24.2305 12.8424 24.2305 12.8394Z" fill="#145CF6"/>
<path d="M24.4519 13.5147C24.4784 13.5147 24.5049 13.5058 24.5285 13.4911C24.558 13.4704 24.6258 13.4203 24.6229 13.0871C24.7379 13.1225 24.8677 13.1284 24.9414 13.0665C24.962 13.0488 25.0623 12.9544 24.9414 12.7863C24.7468 12.518 24.1422 12.0049 23.6232 12.0255C23.2871 12.0403 22.9597 12.3528 22.7445 12.6123C22.7238 12.6389 22.715 12.6743 22.7238 12.7096C22.7327 12.7421 22.7563 12.7716 22.7887 12.7834C22.9067 12.8305 23.2251 13.0075 23.2576 13.2375C23.2723 13.3407 23.3401 13.3643 23.3667 13.3672C23.464 13.3849 23.5259 13.2935 23.5937 13.1667C23.6822 13.2375 23.7766 13.2404 23.8444 13.2434C23.9063 13.2463 23.927 13.2493 23.9506 13.2699C24.0007 13.3201 24.0626 13.3348 24.1186 13.3171C24.1363 13.3112 24.1717 13.2994 24.2101 13.2463C24.2572 13.3584 24.3192 13.4528 24.3781 13.4881C24.4017 13.5088 24.4283 13.5147 24.4519 13.5147ZM24.5049 12.7922C24.4902 12.7922 24.4755 12.7952 24.4607 12.8011C24.4194 12.8188 24.3929 12.863 24.3958 12.9072C24.4017 12.9927 24.4047 13.0783 24.4017 13.152C24.3605 13.0547 24.3251 12.9338 24.3339 12.863C24.3339 12.86 24.3339 12.86 24.3339 12.8571C24.3339 12.8541 24.3339 12.8512 24.3339 12.8482C24.3339 12.8453 24.3339 12.8423 24.3339 12.8394C24.3339 12.7804 24.2867 12.7303 24.2248 12.7303C24.1688 12.7303 24.1245 12.7716 24.1157 12.8246V12.8276C24.1157 12.8276 24.1157 12.8276 24.1157 12.8305C24.098 12.9397 24.0715 13.0311 24.0508 13.0841C23.9771 13.034 23.9004 13.0311 23.8444 13.0311C23.7648 13.0281 23.7205 13.0281 23.6616 12.9249C23.6409 12.8895 23.6026 12.8689 23.5643 12.8718C23.4964 12.8748 23.4728 12.919 23.4316 12.9986C23.4257 13.0075 23.4198 13.0222 23.4109 13.0399C23.3136 12.8541 23.1278 12.7214 22.9981 12.6507C23.231 12.3971 23.4493 12.2526 23.6262 12.2467C24.0538 12.229 24.5846 12.689 24.7468 12.8984C24.6907 12.8895 24.6111 12.863 24.5816 12.8305C24.5639 12.804 24.5344 12.7922 24.5049 12.7922Z" fill="#145CF6"/>
<path d="M21.8628 6.80585C21.8628 6.80585 22.2284 6.29865 22.2579 6.21608C22.2992 6.09223 21.4499 6.21608 21.4824 6.07158C21.5148 5.92709 22.3287 5.73836 22.2373 5.69708C22.1459 5.65579 21.8156 5.45232 21.8156 5.45232C21.8156 5.45232 22.6472 5.48181 22.5145 5.27834C22.3818 5.07487 21.7478 4.97166 21.3202 5.51425C21.0312 5.87696 21.1108 6.48737 21.1963 6.85303L21.8628 6.80585Z" fill="#145CF6"/>
<path d="M21.1934 6.95926C21.1963 6.95926 21.1993 6.95926 21.1993 6.95926L21.8686 6.91502C21.9011 6.91207 21.9306 6.89733 21.9483 6.87079C22.0603 6.7145 22.3287 6.33999 22.3582 6.25153C22.3729 6.21024 22.3641 6.16896 22.3405 6.13357C22.2844 6.05395 22.1635 6.04806 21.8952 6.04511C21.8421 6.04511 21.7713 6.04216 21.7065 6.03921C21.8067 5.99498 21.9424 5.9478 22.022 5.91831C22.2697 5.82984 22.3464 5.8033 22.3493 5.70599C22.3523 5.65881 22.3228 5.61457 22.2785 5.59393C22.2608 5.58509 22.2314 5.57034 22.196 5.5497C22.3906 5.53201 22.5587 5.48777 22.6118 5.39341C22.6442 5.33738 22.6383 5.27251 22.6 5.21353C22.5203 5.09262 22.3405 5.01006 22.1281 5.00121C21.9689 4.99236 21.559 5.02185 21.2287 5.44059C20.925 5.82394 20.981 6.42846 21.0842 6.87079C21.099 6.92387 21.1432 6.95926 21.1934 6.95926ZM21.8067 6.69976L21.2818 6.73514C21.214 6.40192 21.1639 5.88292 21.4057 5.57919C21.6711 5.24007 21.9954 5.21648 22.1222 5.22237C22.2402 5.22827 22.3375 5.26366 22.3876 5.30199C22.2844 5.33148 22.0485 5.34918 21.8185 5.34328C21.7684 5.34033 21.7241 5.37277 21.7094 5.41995C21.6947 5.46713 21.7153 5.51726 21.7566 5.5438C21.7772 5.5556 21.8952 5.62932 22.0072 5.69419C21.9895 5.70009 21.9689 5.70894 21.9512 5.71484C21.5797 5.84753 21.4027 5.9242 21.3732 6.05101C21.3644 6.09229 21.3732 6.13357 21.3998 6.16896C21.4676 6.25448 21.615 6.26037 21.8922 6.26332C21.9542 6.26332 22.0397 6.26627 22.1016 6.26922C22.0367 6.37243 21.9188 6.54347 21.8067 6.69976Z" fill="#145CF6"/>
<path d="M17.0852 11.247C17.0852 11.247 16.6046 10.5923 16.5014 10.3181C16.3982 10.0409 16.5751 9.67522 16.87 9.25648C17.1649 8.83774 18.1144 8.69325 18.135 8.50157C18.1557 8.30695 17.9198 8.08283 17.8903 8.10347C17.8608 8.12412 18.3916 8.11232 18.4535 8.27746C18.5154 8.43965 18.7101 7.84692 18.7101 7.84692C18.7101 7.84692 18.9253 8.4308 18.8723 8.48093C18.8221 8.53106 19.3028 9.0648 19.4031 9.10314C19.5063 9.14442 18.943 9.0825 18.6658 8.90851C18.3886 8.73453 18.197 9.50124 17.8785 9.35674C17.563 9.21225 17.3153 9.84625 17.389 9.99075C17.4598 10.1352 17.4922 11.0346 17.4096 11.073C17.3271 11.1143 17.1029 11.0641 17.1029 11.0641L17.0852 11.247Z" fill="#145CF6"/>
<path d="M17.0854 11.3532C17.0943 11.3532 17.1031 11.3532 17.1149 11.3502C17.1591 11.3384 17.1886 11.303 17.1945 11.2558L17.2034 11.188C17.2918 11.1998 17.395 11.2028 17.4629 11.1674C17.513 11.1408 17.5838 11.1055 17.569 10.5629C17.5661 10.4803 17.5543 10.0645 17.4894 9.9377C17.4717 9.87873 17.5454 9.61333 17.684 9.48948C17.7548 9.4246 17.8049 9.4364 17.8374 9.45114C18.0733 9.5573 18.2502 9.33908 18.38 9.17985C18.5038 9.0265 18.5657 8.96458 18.6129 8.99407C18.8341 9.13266 19.3708 9.25946 19.474 9.19754C19.5094 9.1769 19.53 9.13561 19.5271 9.09433C19.5241 9.06779 19.5123 9.02061 19.4474 8.99407C19.3708 8.95278 19.0523 8.60777 18.9874 8.48686C19.0022 8.41314 18.9786 8.248 18.8134 7.79978C18.7987 7.75554 18.7574 7.729 18.7102 7.729C18.663 7.729 18.6247 7.75849 18.61 7.80273C18.5687 7.92363 18.5215 8.04748 18.4832 8.1271C18.3741 8.04158 18.1824 8.01799 17.9907 7.99735C17.9819 7.99735 17.9701 7.9944 17.9612 7.9944C17.9022 7.96786 17.861 7.98555 17.8374 8.0003C17.799 8.02684 17.7784 8.07402 17.7902 8.11825C17.802 8.17133 17.8374 8.19198 17.8845 8.20082C17.9376 8.24211 18.0379 8.36891 18.0349 8.46622C17.9966 8.51045 17.8079 8.58712 17.6693 8.6402C17.3567 8.76406 16.9704 8.92035 16.7876 9.17985C16.5399 9.53076 16.2715 9.98194 16.4042 10.3417C16.5104 10.6277 16.9822 11.2706 16.9999 11.2971C17.0205 11.3384 17.053 11.3532 17.0854 11.3532ZM17.106 10.9521C17.0825 10.9521 17.0618 10.958 17.0441 10.9728C17.0412 10.9757 17.0353 10.9787 17.0323 10.9816C16.8731 10.7545 16.6637 10.4361 16.6047 10.2768C16.5281 10.0734 16.6431 9.76667 16.9616 9.31549C17.109 9.10612 17.4629 8.96458 17.746 8.85252C18.0379 8.73457 18.2296 8.6579 18.2473 8.5075C18.2561 8.41609 18.2296 8.32762 18.1853 8.248C18.3062 8.27159 18.3446 8.29519 18.3534 8.30993C18.3888 8.40134 18.4625 8.40724 18.4832 8.40724C18.5274 8.40724 18.5952 8.40429 18.7043 8.16249C18.7427 8.28339 18.7692 8.3866 18.7722 8.43083C18.7604 8.45442 18.7574 8.48391 18.7633 8.5134C18.781 8.59597 18.9284 8.7847 19.0759 8.94394C18.952 8.9115 18.8193 8.86727 18.725 8.80829C18.5068 8.66969 18.3328 8.88496 18.2089 9.04125C18.088 9.19164 18.0025 9.286 17.9258 9.25062C17.7813 9.18574 17.6339 9.22408 17.5071 9.35678C17.3479 9.52191 17.2152 9.87578 17.2948 10.0321C17.3449 10.1353 17.3714 10.7988 17.3361 10.9728C17.2889 10.9757 17.2034 10.9669 17.1296 10.9492C17.1237 10.9551 17.1149 10.9521 17.106 10.9521Z" fill="#145CF6"/>
<path d="M18.8225 9.18272C18.8225 9.18272 19.8281 10.0851 19.7426 11.0435C19.7426 11.0435 19.9726 12.2112 19.2413 12.2083C18.5099 12.2053 17.988 12.0785 17.7963 11.9488C17.6046 11.819 17.1947 11.5005 17.1505 11.2823C17.1063 11.0641 17.3835 11.1349 17.413 11.0759C17.4395 11.014 17.4012 10.0497 17.4542 9.86096C17.5073 9.66929 17.6105 9.29478 17.9467 9.41863C18.2829 9.54249 18.4303 8.97041 18.4628 8.97041C18.4922 8.96451 18.7724 9.01759 18.8225 9.18272Z" fill="#145CF6"/>
<path d="M19.2444 12.3145C19.4361 12.3145 19.5865 12.2467 19.6985 12.114C19.9728 11.7837 19.8725 11.1468 19.8548 11.0347C19.9285 10.1058 19.0645 9.25653 18.9171 9.11794C18.8257 8.90857 18.5072 8.85254 18.4629 8.85254C18.3863 8.85254 18.3597 8.91152 18.3243 8.98524C18.2005 9.25653 18.1032 9.3509 17.9823 9.30666C17.8614 9.26243 17.7493 9.26538 17.655 9.31551C17.4603 9.41577 17.3866 9.68117 17.3483 9.82272C17.3158 9.93772 17.3158 10.2326 17.3158 10.6337C17.3158 10.7605 17.3158 10.9138 17.3129 10.9934C17.3099 10.9934 17.307 10.9934 17.307 10.9934C17.2392 11.0023 17.136 11.02 17.077 11.1025C17.0416 11.1556 17.0298 11.2205 17.0445 11.2971C17.1035 11.592 17.6314 11.9606 17.7375 12.0314C17.9852 12.2054 18.575 12.3145 19.2444 12.3145ZM18.7519 9.26243C18.7608 9.27128 19.7162 10.1412 19.6366 11.0317C19.6366 11.0406 19.6366 11.0524 19.6395 11.0612C19.6749 11.2382 19.7221 11.7454 19.5334 11.9754C19.4656 12.058 19.3712 12.0963 19.2473 12.0963C18.5367 12.0933 18.0324 11.9695 17.8643 11.8574C17.596 11.6746 17.2922 11.4033 17.2628 11.2588C17.2598 11.2441 17.2598 11.2352 17.2598 11.2323C17.2746 11.2234 17.3188 11.2175 17.3424 11.2116C17.4043 11.2028 17.4839 11.191 17.5164 11.1143C17.5341 11.073 17.537 11.0141 17.537 10.6366C17.537 10.3742 17.537 9.97901 17.5635 9.88464C17.5901 9.78143 17.6491 9.57206 17.7582 9.51308C17.7995 9.49244 17.8496 9.49244 17.9115 9.51603C18.2624 9.64283 18.4482 9.24474 18.5219 9.0855C18.5956 9.10614 18.7018 9.15332 18.7224 9.21525C18.7254 9.23294 18.7372 9.24769 18.7519 9.26243Z" fill="#145CF6"/>
<path d="M18.0674 11.4239C18.0674 11.4239 18.0467 12.1611 17.454 11.3738Z" fill="#145CF6"/>
<path d="M17.8877 11.8426C17.9112 11.8426 17.9348 11.8397 17.9584 11.8308C18.156 11.7689 18.1737 11.4799 18.1737 11.4239C18.1766 11.3649 18.1295 11.3148 18.0675 11.3118C18.0086 11.3118 17.9584 11.3561 17.9555 11.418C17.9525 11.5094 17.9201 11.6156 17.8906 11.6244C17.8906 11.6244 17.7933 11.6421 17.5367 11.3059C17.5014 11.2588 17.4335 11.2499 17.3834 11.2853C17.3362 11.3207 17.3274 11.3885 17.3628 11.4386C17.5751 11.7129 17.7432 11.8426 17.8877 11.8426Z" fill="#145CF6"/>
</g>
</svg>
