<svg width="20" height="20" viewBox="0 0 20 20" fill="none" xmlns="http://www.w3.org/2000/svg">
<g clip-path="url(#clip0_324_14078)">
<path d="M14.1667 2.50016H17.5C17.721 2.50016 17.933 2.58796 18.0893 2.74424C18.2456 2.90052 18.3334 3.11248 18.3334 3.3335V16.6668C18.3334 16.8878 18.2456 17.0998 18.0893 17.2561C17.933 17.4124 17.721 17.5002 17.5 17.5002H2.50002C2.27901 17.5002 2.06704 17.4124 1.91076 17.2561C1.75448 17.0998 1.66669 16.8878 1.66669 16.6668V3.3335C1.66669 3.11248 1.75448 2.90052 1.91076 2.74424C2.06704 2.58796 2.27901 2.50016 2.50002 2.50016H5.83335V0.833496H7.50002V2.50016H12.5V0.833496H14.1667V2.50016ZM12.5 4.16683H7.50002V5.8335H5.83335V4.16683H3.33335V7.50016H16.6667V4.16683H14.1667V5.8335H12.5V4.16683ZM16.6667 9.16683H3.33335V15.8335H16.6667V9.16683Z" fill="#042365"/>
<rect x="5.83331" y="0.833496" width="1.66667" height="5" fill="#FD0000"/>
<rect x="12.5" y="0.833496" width="1.66667" height="5" fill="#FD0000"/>
</g>
<defs>
<clipPath id="clip0_324_14078">
<rect width="20" height="20" fill="white"/>
</clipPath>
</defs>
</svg>
