<?xml version="1.0" encoding="UTF-8"?>
<svg width="20px" height="20px" viewBox="0 0 20 20" version="1.1" xmlns="http://www.w3.org/2000/svg" xmlns:xlink="http://www.w3.org/1999/xlink">
    <!-- Generator: Sketch 59 (86127) - https://sketch.com -->
    <title>calendar-icon</title>
    <desc>Created with Sketch.</desc>
    <g id="calendar-icon" stroke="none" stroke-width="1" fill="none" fill-rule="evenodd">
        <g id="calendar" transform="translate(1.428571, 1.428571)" fill="#7402D3" fill-rule="nonzero">
            <path d="M15.1339286,1.33928571 L14.3303571,1.33928571 L14.3303571,0 L12.9910714,0 L12.9910714,1.33928571 L4.15178571,1.33928571 L4.15178571,0 L2.8125,0 L2.8125,1.33928571 L2.00892857,1.33928571 C0.901205357,1.33928571 0,2.24049107 0,3.34821429 L0,15.1339286 C0,16.2416518 0.901205357,17.1428571 2.00892857,17.1428571 L15.1339286,17.1428571 C16.2416518,17.1428571 17.1428571,16.2416518 17.1428571,15.1339286 L17.1428571,3.34821429 C17.1428571,2.24049107 16.2416518,1.33928571 15.1339286,1.33928571 Z M15.8035714,15.1339286 C15.8035714,15.5031696 15.5031696,15.8035714 15.1339286,15.8035714 L2.00892857,15.8035714 C1.6396875,15.8035714 1.33928571,15.5031696 1.33928571,15.1339286 L1.33928571,6.29464286 L15.8035714,6.29464286 L15.8035714,15.1339286 Z M15.8035714,4.95535714 L1.33928571,4.95535714 L1.33928571,3.34821429 C1.33928571,2.97897321 1.6396875,2.67857143 2.00892857,2.67857143 L2.8125,2.67857143 L2.8125,4.01785714 L4.15178571,4.01785714 L4.15178571,2.67857143 L12.9910714,2.67857143 L12.9910714,4.01785714 L14.3303571,4.01785714 L14.3303571,2.67857143 L15.1339286,2.67857143 C15.5031696,2.67857143 15.8035714,2.97897321 15.8035714,3.34821429 L15.8035714,4.95535714 Z" id="Shape"></path>
            <rect id="Rectangle" x="2.54464286" y="7.70089286" width="1.33928571" height="1.33928571"></rect>
            <rect id="Rectangle" x="5.22321429" y="7.70089286" width="1.33928571" height="1.33928571"></rect>
            <rect id="Rectangle" x="7.90178571" y="7.70089286" width="1.33928571" height="1.33928571"></rect>
            <rect id="Rectangle" x="10.5803571" y="7.70089286" width="1.33928571" height="1.33928571"></rect>
            <rect id="Rectangle" x="13.2589286" y="7.70089286" width="1.33928571" height="1.33928571"></rect>
            <rect id="Rectangle" x="2.54464286" y="10.3794643" width="1.33928571" height="1.33928571"></rect>
            <rect id="Rectangle" x="5.22321429" y="10.3794643" width="1.33928571" height="1.33928571"></rect>
            <rect id="Rectangle" x="7.90178571" y="10.3794643" width="1.33928571" height="1.33928571"></rect>
            <rect id="Rectangle" x="10.5803571" y="10.3794643" width="1.33928571" height="1.33928571"></rect>
            <rect id="Rectangle" x="2.54464286" y="13.0580357" width="1.33928571" height="1.33928571"></rect>
            <rect id="Rectangle" x="5.22321429" y="13.0580357" width="1.33928571" height="1.33928571"></rect>
            <rect id="Rectangle" x="7.90178571" y="13.0580357" width="1.33928571" height="1.33928571"></rect>
            <rect id="Rectangle" x="10.5803571" y="13.0580357" width="1.33928571" height="1.33928571"></rect>
            <rect id="Rectangle" x="13.2589286" y="10.3794643" width="1.33928571" height="1.33928571"></rect>
        </g>
    </g>
</svg>