<?xml version="1.0" encoding="UTF-8"?>
<svg width="20px" height="20px" viewBox="0 0 20 20" version="1.1" xmlns="http://www.w3.org/2000/svg" xmlns:xlink="http://www.w3.org/1999/xlink">
    <!-- Generator: Sketch 59 (86127) - https://sketch.com -->
    <title>camera_alt-24px</title>
    <desc>Created with Sketch.</desc>
    <g id="camera_alt-24px" stroke="none" stroke-width="1" fill="none" fill-rule="evenodd">
        <g>
            <polygon id="Path" points="0 0 20 0 20 20 0 20"></polygon>
            <path d="M12.25,3.33333333 L13.6225,4.81481481 L16,4.81481481 C16.7875,4.81481481 17.4383264,5.42225283 17.4958654,6.18615216 L17.5,6.2962963 L17.5,15.1851852 C17.5,15.962963 16.884969,16.6057545 16.1115209,16.6625831 L16,16.6666667 L4,16.6666667 C3.2125,16.6666667 2.56167355,16.0592287 2.50413458,15.2953293 L2.5,15.1851852 L2.5,6.2962963 C2.5,5.51851852 3.11503099,4.87572697 3.88847906,4.81889835 L4,4.81481481 L6.3775,4.81481481 L7.75,3.33333333 L12.25,3.33333333 Z M10,7.03703704 C7.93,7.03703704 6.25,8.6962963 6.25,10.7407407 C6.25,12.7851852 7.93,14.4444444 10,14.4444444 C12.07,14.4444444 13.75,12.7851852 13.75,10.7407407 C13.75,8.6962963 12.07,7.03703704 10,7.03703704 Z M10,8.37037037 C11.3254834,8.37037037 12.4,9.43162133 12.4,10.7407407 C12.4,12.0498601 11.3254834,13.1111111 10,13.1111111 C8.6745166,13.1111111 7.6,12.0498601 7.6,10.7407407 C7.6,9.43162133 8.6745166,8.37037037 10,8.37037037 Z" id="Shape" fill="#7402D3" fill-rule="nonzero"></path>
        </g>
    </g>
</svg>