<?xml version="1.0" encoding="UTF-8"?>
<svg width="12px" height="12px" viewBox="0 0 12 12" version="1.1" xmlns="http://www.w3.org/2000/svg" xmlns:xlink="http://www.w3.org/1999/xlink">
    <!-- Generator: Sketch 59 (86127) - https://sketch.com -->
    <title>Artboard</title>
    <desc>Created with Sketch.</desc>
    <g id="Artboard" stroke="none" stroke-width="1" fill="none" fill-rule="evenodd">
        <path d="M7.8,1 L8.898,2.22222222 L10.8,2.22222222 C11.46,2.22222222 12,2.77222222 12,3.44444444 L12,3.44444444 L12,10.7777778 C12,11.45 11.46,12 10.8,12 L10.8,12 L1.2,12 C0.54,12 2.74447132e-13,11.45 2.74447132e-13,10.7777778 L2.74447132e-13,10.7777778 L2.74447132e-13,3.44444444 C2.74447132e-13,2.77222222 0.54,2.22222222 1.2,2.22222222 L1.2,2.22222222 L3.102,2.22222222 L4.2,1 L7.8,1 Z M6,4.05555556 C4.344,4.05555556 3,5.42444444 3,7.11111111 C3,8.79777778 4.344,10.1666667 6,10.1666667 C7.656,10.1666667 9,8.79777778 9,7.11111111 C9,5.42444444 7.656,4.05555556 6,4.05555556 Z M6,5.15555556 C7.06038672,5.15555556 7.92,6.0310876 7.92,7.11111111 C7.92,8.19113462 7.06038672,9.06666667 6,9.06666667 C4.93961328,9.06666667 4.08,8.19113462 4.08,7.11111111 C4.08,6.0310876 4.93961328,5.15555556 6,5.15555556 Z" id="Combined-Shape" fill="#FFFFFF" fill-rule="nonzero"></path>
    </g>
</svg>