<svg width="16" height="16" viewBox="0 0 16 16" fill="none" xmlns="http://www.w3.org/2000/svg">
<path d="M14.915 10L15.085 9L12.5 8.575V6.385L15.03 5.705L14.775 4.74L12.36 5.385C12.1956 4.76343 11.8999 4.18432 11.4928 3.68667C11.0857 3.18901 10.5767 2.78437 10 2.5V1H9.00004V2.115C8.3422 1.96166 7.65789 1.96166 7.00004 2.115V1H6.00004V2.5C5.42164 2.7876 4.91194 3.19636 4.50558 3.69849C4.09922 4.20062 3.80572 4.78435 3.64504 5.41L1.23004 4.74L1.00004 5.705L3.50004 6.385V8.575L0.920044 9L1.08004 10L3.50004 9.59C3.51147 10.207 3.65109 10.8149 3.91004 11.375L1.64504 13.645L2.35504 14.355L4.45004 12.255C4.87082 12.7952 5.4093 13.2322 6.02449 13.5328C6.63968 13.8333 7.31535 13.9896 8.00004 13.9896C8.68474 13.9896 9.36041 13.8333 9.9756 13.5328C10.5908 13.2322 11.1293 12.7952 11.55 12.255L13.645 14.355L14.355 13.645L12.085 11.375C12.3457 10.8152 12.4871 10.2073 12.5 9.59L14.915 10ZM7.50004 12.96C6.66775 12.8399 5.90652 12.4241 5.35563 11.7887C4.80475 11.1534 4.50103 10.3409 4.50004 9.5V6.5H7.50004V12.96ZM4.64504 5.5C4.8599 4.77698 5.30258 4.14271 5.90713 3.69168C6.51169 3.24065 7.24578 2.99698 8.00004 2.99698C8.75431 2.99698 9.4884 3.24065 10.093 3.69168C10.6975 4.14271 11.1402 4.77698 11.355 5.5H4.64504ZM11.5 9.5C11.4991 10.3409 11.1953 11.1534 10.6445 11.7887C10.0936 12.4241 9.33234 12.8399 8.50004 12.96V6.5H11.5V9.5Z" fill="#3A3F50" stroke="#3A3F50" stroke-width="0.4"/>
</svg>
