<svg width="40" height="40" viewBox="0 0 40 40" fill="none" xmlns="http://www.w3.org/2000/svg">
<mask id="mask0_2183_69084" style="mask-type:alpha" maskUnits="userSpaceOnUse" x="0" y="0" width="40" height="40">
<circle cx="20" cy="20" r="20" fill="white"/>
</mask>
<g mask="url(#mask0_2183_69084)">
<circle cx="20" cy="20" r="20" fill="white"/>
<circle cx="20" cy="20" r="19.5" fill="#F5F8FF" stroke="#7FA7FA"/>
<path d="M26.7135 26.237C26.8431 26.3784 26.9799 26.5621 27.1599 26.7105C27.2967 26.8306 27.4695 26.9225 27.6423 26.9861C28.1679 27.198 28.7007 27.3747 28.9743 27.9329C29.0967 28.1802 29.2335 28.4275 29.3919 28.6537C29.7231 29.12 30.0759 29.5652 30.4215 30.0245C30.6951 30.3919 30.6663 30.4697 30.2415 30.6463C30.1911 30.6675 30.1191 30.7028 30.1047 30.7382C30.0183 31.1127 29.6727 31.0703 29.4207 31.2116C28.8951 31.5084 28.3695 31.4872 27.8079 31.5154C27.4191 31.5366 27.0519 31.8264 26.6559 31.8688C25.8999 31.9465 25.0791 32.1726 24.4023 31.7557C23.8263 31.4024 23.2719 31.36 22.6527 31.4095C22.4511 31.4236 22.2351 31.2681 22.0407 31.2964C21.6879 31.3388 21.3423 31.5154 20.9895 31.5296C20.1543 31.5578 19.3119 31.5508 18.4767 31.5084C18.2319 31.4942 17.9727 31.3247 17.7711 31.1692C17.5335 30.9855 17.5695 30.5615 17.8503 30.3707C18.2247 30.1164 18.6207 29.8973 19.0239 29.6994C19.5279 29.4521 20.0463 29.2472 20.5863 29.007C20.4567 28.6961 20.3343 28.4205 20.2191 28.1378C19.9815 27.5513 19.7439 26.9578 19.5063 26.3713C19.4559 26.2512 19.4271 26.0887 19.3335 26.0321C18.9807 25.8201 18.9159 25.5516 19.0671 25.2831C18.6207 24.8521 18.2103 24.4634 17.8071 24.0748C17.7639 24.0395 17.6991 24.0324 17.6559 23.99C17.4543 23.7851 17.1736 23.6014 17.0872 23.3541C16.8424 22.6686 16.8856 21.9762 17.3247 21.3685C17.4975 21.1353 17.5119 20.9445 17.4255 20.6901C17.332 20.4216 17.2671 20.146 17.1664 19.7927C16.648 19.8563 16.144 19.9553 15.6328 19.9623C15.136 19.9694 14.6248 19.9341 14.1424 19.821C13.156 19.6019 12.1768 19.3193 11.2048 19.0579C10.9744 18.9943 10.7656 18.8529 10.5352 18.8176C10.0384 18.7469 9.53439 18.7187 9.06639 18.6763C8.89359 19.4465 8.75679 20.1531 8.56959 20.8385C8.51919 21.0293 8.34639 21.2342 8.17359 21.3402C7.7272 21.6158 7.2664 21.3826 7.2808 20.8597C7.3024 20.252 7.36 19.6373 7.5112 19.0508C7.8496 17.7577 7.6408 16.5423 7.1512 15.334C7.036 15.0231 7 14.6557 7 14.3094C7 13.8925 7.3024 13.6169 7.72 13.5533C8.09439 13.4968 8.31759 13.6452 8.46879 14.1045C8.69919 14.804 8.92239 15.5107 9.12399 16.2243C9.17439 16.401 9.15999 16.5988 9.14559 16.7826C9.12399 17.0369 9.26079 17.1217 9.47679 17.1429C10.6432 17.2631 11.8096 17.2419 12.976 17.1712C13.8904 17.1147 14.812 17.0652 15.7264 17.0157C15.7984 17.0087 15.8632 17.0016 15.9784 16.9875C16.0936 16.3798 16.2088 15.7792 16.3168 15.1785C16.2736 15.1503 16.2304 15.122 16.1872 15.0867C16.072 15.1291 15.9424 15.1573 15.8416 15.2209C15.5536 15.3976 15.28 15.6096 14.9776 15.765C14.7112 15.9064 14.4808 15.8357 14.38 15.5319C14.0632 14.5638 13.7464 13.5745 13.4368 12.5923C13.3864 12.444 13.408 12.2744 13.3864 12.0836C13.732 12.0129 14.0416 11.9211 14.3584 11.8857C14.5888 11.8575 14.6896 11.7868 14.7112 11.5536C14.7256 11.3487 14.7976 11.1438 14.8624 10.8823C14.524 10.9318 14.2432 10.9954 13.948 11.0095C13.7968 11.0166 13.6384 10.9389 13.4872 10.9035C13.5448 10.7905 13.624 10.6774 13.6672 10.5502C13.732 10.3665 13.7896 10.1757 13.8112 9.98494C13.8688 9.44085 14.1712 9.05221 14.6176 8.79783C16.0288 7.99936 17.5263 7.76617 19.1103 8.25374C19.7871 8.45866 20.2407 9.10874 20.2479 9.80122C20.2479 10.0697 20.2479 10.3453 20.2695 10.6138C20.2983 11.0025 20.2263 11.3416 19.9311 11.6455C19.7943 11.7868 19.7655 12.0553 19.7511 12.2673C19.7439 12.338 19.9311 12.4793 20.0391 12.4864C22.2927 12.6277 24.2295 13.6028 26.0511 14.804C26.7351 15.2563 27.3039 15.8922 27.9159 16.4434C27.9879 16.507 28.0383 16.6059 28.1247 16.6342C29.1687 17.0369 29.7879 17.9131 30.5151 18.6763C30.7383 18.9095 31.0047 19.1144 31.2783 19.2981C31.5015 19.4536 31.6095 19.6302 31.5663 19.8917C31.5087 20.2379 31.5231 20.5559 31.7967 20.8385C31.8975 20.9445 31.9695 21.1141 31.9695 21.2554C31.9767 21.9479 32.0559 22.6616 31.9263 23.3329C31.6095 24.951 30.6087 25.7707 28.9023 26.0604C28.1679 26.1734 27.4263 26.1805 26.7135 26.237ZM24.2871 28.5971C24.2367 28.6254 24.1863 28.6537 24.1287 28.6819C24.2223 28.9292 24.3015 29.1836 24.4095 29.4239C24.5319 29.6924 24.6759 29.9397 24.8271 30.2294C25.1079 30.0528 25.4391 29.8408 25.8423 29.5864C25.2879 29.226 24.7911 28.9151 24.2871 28.5971ZM14.2288 14.3235C14.6104 14.1681 14.6392 13.9278 14.3584 13.2919C14.2144 13.3202 14.0704 13.3484 13.8904 13.3837C14.0056 13.7088 14.1136 14.0056 14.2288 14.3235ZM14.308 13.0304C14.3656 12.3662 14.3008 12.2956 13.7176 12.4086C13.7536 12.6206 13.7968 12.8326 13.84 13.0658C14.02 13.0587 14.164 13.0446 14.308 13.0304Z" fill="#145CF6"/>
</g>
</svg>
