<svg width="40" height="40" viewBox="0 0 40 40" fill="none" xmlns="http://www.w3.org/2000/svg">
<mask id="mask0_2183_69073" style="mask-type:alpha" maskUnits="userSpaceOnUse" x="0" y="0" width="40" height="40">
<circle cx="20" cy="20" r="20" fill="white"/>
</mask>
<g mask="url(#mask0_2183_69073)">
<circle cx="20" cy="20" r="20" fill="white"/>
<circle cx="20" cy="20" r="19.5" fill="#F5F8FF" stroke="#7FA7FA"/>
<path d="M16.1448 33.0726C16.1193 33.4115 16.0938 33.8183 16.1873 34.0725C16.2808 34.3182 16.8502 34.9113 17.0457 34.9791C17.2412 35.0469 17.5472 34.9537 17.7002 34.6402C17.8532 34.3182 17.7767 33.581 17.7767 33.581C17.7767 33.581 17.9552 33.8352 18.0911 33.8945C18.2016 33.9454 18.4396 33.9369 18.6266 33.742C18.8136 33.5471 19.0601 32.9285 19.1961 32.632C19.3065 32.3947 19.3405 31.9456 19.4 31.81C19.4595 31.6745 19.672 31.4711 19.6975 31.4033C19.723 31.3355 19.6295 31.2508 19.6295 31.2508C19.6295 31.2508 19.672 31.1576 19.7825 31.0559C19.893 30.9542 20.284 30.5983 20.3605 30.5221C20.437 30.4458 20.4285 30.3187 20.4285 30.3187C20.4285 30.3187 21.0914 29.751 21.3634 29.4459C21.6354 29.1409 22.1623 28.0648 22.2133 27.9716C22.2643 27.8784 22.3068 27.5055 22.3493 27.3784C22.3918 27.2513 22.4173 26.8615 22.4173 26.709C22.4088 26.5565 22.5023 26.2345 22.5023 26.0566C22.5023 25.8871 22.5278 24.8025 22.5278 24.8025C22.5278 24.8025 22.6893 24.7262 22.7063 24.5144C22.7233 24.311 22.4173 23.2773 22.3153 22.9383C22.2048 22.5994 22.2303 21.7436 22.2473 21.447C22.2643 21.1504 22.2388 20.8962 22.0858 20.5234C21.9243 20.1421 21.9923 20.0404 21.9753 19.7777C21.9498 19.5235 21.7374 19.4557 21.7119 19.4049C21.6864 19.354 21.7204 18.888 21.7204 18.888C21.7204 18.888 21.8223 18.8626 21.8308 18.7863C21.8478 18.7101 21.7204 17.5916 21.7544 17.1848C21.7883 16.7866 21.8138 16.2019 21.7883 15.863C21.7629 15.524 21.8988 15.4393 21.9073 15.363C21.9158 15.2868 21.7714 15.0241 21.7714 15.0241C21.7714 15.0241 21.8733 14.4818 21.8903 14.2784C21.9158 14.0751 21.8903 13.465 21.8903 13.287C21.8903 13.1091 22.6383 12.8549 22.9188 12.6854C23.2077 12.5244 23.6752 11.8974 23.9387 11.6008C24.1937 11.3043 24.4146 11.0162 24.3042 10.5925C24.1937 10.1688 23.9217 10.0248 23.6497 9.60109C23.3692 9.18589 22.5278 8.31312 22.3068 8.13518C22.0858 7.95724 22.0858 7.8725 22.1028 7.70304C22.1198 7.59288 22.0603 7.55051 22.0263 7.53357C22.1538 7.30478 22.2218 7.0421 22.2218 6.77095C22.2218 5.97445 21.6354 5.32199 20.8619 5.21184C20.8619 5.161 20.8024 5.11016 20.7854 5.11016C20.7684 5.11016 20.7174 5.161 20.6834 5.19489C20.6664 5.19489 20.6579 5.19489 20.6409 5.19489C20.5389 5.19489 20.437 5.20336 20.335 5.22031C20.3435 5.18642 20.352 5.15252 20.3605 5.14405C20.369 5.11016 20.3265 5 20.267 5C20.2075 5 20.0375 5.161 20.0205 5.17794C20.0035 5.19489 19.927 5.17794 19.9015 5.16947C19.876 5.161 19.5785 5.2881 19.5105 5.34741C19.434 5.40673 19.3915 5.55925 19.3065 5.61856C19.2216 5.68635 19.1111 5.77109 19.0516 5.98292C18.9921 6.17781 19.0771 6.4066 19.0006 6.60996C18.9241 6.60996 18.7966 6.60996 18.7286 6.63538C18.6351 6.66927 18.5161 6.77943 18.5331 6.81332C18.5671 6.87264 18.6861 6.83874 18.8221 6.83874C18.4651 7.19463 17.5812 7.88945 17.5812 7.88945C17.5047 7.91487 17.3347 8.1606 17.2412 8.2877C17.1477 8.41481 16.9437 8.62664 16.8927 8.79611C16.8417 8.96558 16.7313 9.66888 16.7313 9.72819C16.7228 9.79598 16.7737 9.88072 16.7737 9.88072C16.7737 9.88072 16.5868 10.2959 16.5613 10.4993C16.5358 10.7026 16.6208 11.1094 16.5188 11.3975C16.4168 11.6856 16.3488 12.2872 16.3573 12.516C16.3743 12.7447 16.5868 13.1515 16.6208 13.2616C16.6548 13.3718 16.6378 13.8802 16.6208 14.1429C16.6038 14.4055 16.7313 14.8631 16.7313 14.8631C16.7313 14.8631 16.6718 14.9224 16.6803 15.0834C16.6888 15.2444 16.9522 15.8884 16.9777 16.3205C17.0032 16.7527 17.0882 16.9222 17.1817 17.3374C17.2667 17.7526 17.1562 18.3457 17.1817 18.4982C17.2072 18.6592 17.3602 18.7185 17.3602 18.7185C17.3602 18.7185 17.3262 19.0151 17.3347 19.1507C17.3432 19.2778 17.1222 19.4557 17.1222 19.4557C17.1222 19.4557 16.9182 19.4388 16.9012 19.6337C16.8757 19.8286 16.8587 20.3285 16.9012 20.7352C16.9437 21.142 16.6803 22.2604 16.6718 22.5655C16.6633 22.8621 16.6378 23.5145 16.6888 23.7179C16.7398 23.9212 16.6633 24.2348 16.6718 24.4212C16.6888 24.6076 17.1647 24.8025 17.1647 24.8025C17.1647 24.8025 17.3177 25.5227 17.3772 25.7685C17.4452 26.0142 17.4877 26.9632 17.4877 27.048C17.4877 27.1242 17.2157 27.5225 17.0627 27.819C16.9097 28.1156 16.7992 28.5986 16.7652 28.9206C16.7398 29.2426 16.6973 29.9374 16.6378 29.9628C16.5783 29.9882 16.4763 30.2763 16.4933 30.4034C16.5188 30.5305 16.4253 31.0729 16.4253 31.0729C16.4253 31.0729 16.3573 31.0983 16.2468 31.2169C16.1363 31.3355 16.0003 31.7507 16.0003 32.0981C15.9918 32.4201 16.1618 32.7336 16.1448 33.0726ZM20.9214 11.711C20.5814 11.8296 20.301 12.2533 20.301 12.2533C20.1905 12.194 19.9015 12.355 19.8505 12.355C19.7995 12.355 19.774 12.2702 19.774 12.2702C19.774 12.2702 20.08 12.2533 20.165 12.1601C20.25 12.0669 20.2585 11.855 20.2585 11.7195C20.2585 11.5924 20.301 11.2026 20.3095 11.0246C20.318 10.8467 20.267 10.7789 20.2415 10.7026C20.216 10.6264 20.284 10.4569 20.267 10.3891C20.2415 10.3213 20.148 10.0671 20.0035 9.88919C19.859 9.71125 19.4255 9.42315 18.9496 9.58414C18.4651 9.73667 18.1421 10.2027 18.1421 10.2027C18.1336 10.1603 18.1336 10.0926 18.1336 10.0926C18.1336 10.0926 18.1846 10.0502 18.2016 10.0078C18.2186 9.96545 18.2611 9.51636 18.3036 9.33841C18.3461 9.16047 18.6181 8.89779 18.7456 8.79611C18.8731 8.69443 18.8221 8.5758 18.8221 8.5758C18.8221 8.5758 18.9496 8.31312 19.0686 8.11823C19.1281 8.02503 19.2386 7.86403 19.349 7.71151C19.638 8.10976 20.1055 8.37244 20.6409 8.37244C20.7514 8.37244 20.8534 8.36397 20.9554 8.33855C21.0659 8.40633 21.4824 8.50801 21.5759 8.52496C21.6694 8.53343 21.7629 8.7029 21.8308 8.79611C21.8988 8.88932 22.2643 9.6943 22.4003 9.9824C22.5363 10.2705 22.7998 10.4993 22.7998 10.6094C22.7998 10.7111 22.7998 10.8043 22.7998 10.8043C22.7998 10.8043 22.6043 10.8213 22.2983 10.9568C21.9923 11.0924 21.6184 11.5924 21.5844 11.6178C21.5334 11.6008 21.2614 11.6008 20.9214 11.711ZM17.5557 31.0474C17.5812 30.878 17.7172 30.4119 17.7172 30.3018C17.7087 30.1916 17.6747 30.2001 17.6747 30.2001C17.6747 30.2001 18.0146 29.4036 18.1931 29.0985C18.3716 28.7935 18.6606 28.4461 18.6691 28.1241C18.6861 27.8021 18.9921 27.5394 19.0176 27.3022C19.0431 27.0649 19.3065 26.6921 19.3235 26.2176C19.349 25.743 19.434 25.7091 19.434 25.4126C19.4425 25.116 19.4765 24.8872 19.4765 24.8872C19.4765 24.8872 19.6805 24.7601 19.689 24.6839C19.706 24.6076 19.689 25.0143 19.689 25.0143C19.689 25.0143 19.689 25.2177 19.8165 25.2262C19.944 25.2346 20.046 25.3533 20.046 25.3533C20.046 25.3533 20.2245 26.404 20.318 26.5734C20.403 26.7429 20.5474 27.0141 20.5644 27.0988C20.5899 27.1835 20.6494 27.4716 20.5899 27.514C20.5219 27.5564 20.1735 27.8614 20.1225 28.2766C20.0545 28.8613 19.706 29.4375 19.706 29.4375C19.706 29.4375 19.638 29.4121 19.5955 29.4714C19.5615 29.5307 19.3405 29.7679 19.2301 29.8357C19.2301 29.8357 19.0091 29.7595 18.8136 29.734C18.6181 29.7086 18.2186 29.7595 18.1166 29.9374C18.0146 30.1153 17.9552 30.3441 17.9722 30.7C17.9977 31.0559 18.0826 31.4372 18.0146 31.6406C17.9467 31.8439 17.7087 32.0727 17.6747 32.2083C17.6747 32.2083 17.7427 31.7846 17.7257 31.5389C17.7002 31.2932 17.5642 31.344 17.5642 31.344C17.5642 31.344 17.5302 31.2169 17.5557 31.0474Z" fill="#145CF6"/>
</g>
</svg>
