<?xml version="1.0" encoding="UTF-8"?>
<svg width="28px" height="28px" viewBox="0 0 28 28" version="1.1" xmlns="http://www.w3.org/2000/svg" xmlns:xlink="http://www.w3.org/1999/xlink">
    <!-- Generator: Sketch 59 (86127) - https://sketch.com -->
    <title>contest-icon</title>
    <desc>Created with Sketch.</desc>
    <g id="contest-icon" stroke="none" stroke-width="1" fill="none" fill-rule="evenodd">
        <g id="Group-6-Copy">
            <rect id="Rectangle" x="0" y="0" width="28" height="28"></rect>
            <path d="M24.968661,8.16666667 C25.9442895,8.16666667 26.7449151,8.93566118 26.8264889,9.91528431 L26.8333333,10.0804094 L26.8333333,19.0862573 C26.8333333,20.0875603 26.0840566,20.9092549 25.129552,20.9929754 L24.968661,21 L3.03133903,21 C2.05571051,21 1.25508493,20.2310055 1.17351113,19.2513824 L1.16666667,19.0862573 L1.16666667,10.0804094 C1.16666667,9.0791064 1.91594337,8.25741173 2.87044796,8.17369124 L3.03133903,8.16666667 L24.968661,8.16666667 Z M5.98444006,16.630117 L3.03133903,16.630117 L3.03133903,19.0862573 L5.98444006,19.0862573 L5.98444006,16.630117 Z M21.1718168,16.630117 L18.2187158,16.630117 L18.2187158,19.0862573 L21.1718168,19.0862573 L21.1718168,16.630117 Z M9.78128424,16.630117 L6.82818321,16.630117 L6.82818321,19.0862573 L9.78128424,19.0862573 L9.78128424,16.630117 Z M17.3749726,16.630117 L14.4218716,16.630117 L14.4218716,19.0862573 L17.3749726,19.0862573 L17.3749726,16.630117 Z M17.3749726,13.3552632 L14.4218716,13.3552632 L14.4218716,15.8114035 L17.3749726,15.8114035 L17.3749726,13.3552632 Z M5.98444006,13.3552632 L3.03133903,13.3552632 L3.03133903,15.8114035 L5.98444006,15.8114035 L5.98444006,13.3552632 Z M13.5781284,13.3552632 L10.6250274,13.3552632 L10.6250274,15.8114035 L13.5781284,15.8114035 L13.5781284,13.3552632 Z M24.968661,13.3552632 L22.0155599,13.3552632 L22.0155599,15.8114035 L24.968661,15.8114035 L24.968661,13.3552632 Z M5.98444006,10.0804094 L3.03133903,10.0804094 L3.03133903,12.5365497 L5.98444006,12.5365497 L5.98444006,10.0804094 Z M13.5781284,10.0804094 L10.6250274,10.0804094 L10.6250274,12.5365497 L13.5781284,12.5365497 L13.5781284,10.0804094 Z M9.78128424,10.0804094 L6.82818321,10.0804094 L6.82818321,12.5365497 L9.78128424,12.5365497 L9.78128424,10.0804094 Z M21.1718168,10.0804094 L18.2187158,10.0804094 L18.2187158,12.5365497 L21.1718168,12.5365497 L21.1718168,10.0804094 Z M24.968661,10.0804094 L22.0155599,10.0804094 L22.0155599,12.5365497 L24.968661,12.5365497 L24.968661,10.0804094 Z" id="Combined-Shape" fill="#7402D3" fill-rule="nonzero"></path>
        </g>
    </g>
</svg>