<?xml version="1.0" encoding="UTF-8"?>
<svg width="40px" height="40px" viewBox="0 0 40 40" version="1.1" xmlns="http://www.w3.org/2000/svg" xmlns:xlink="http://www.w3.org/1999/xlink">
    <!-- Generator: Sketch 59 (86127) - https://sketch.com -->
    <title>contest-icon</title>
    <desc>Created with Sketch.</desc>
    <g id="V2" stroke="none" stroke-width="1" fill="none" fill-rule="evenodd">
        <g id="02_Dashboard" transform="translate(-836.000000, -360.000000)">
            <g id="Group-17" transform="translate(811.000000, 340.000000)">
                <g id="Group-20" transform="translate(25.000000, 20.000000)">
                    <g id="contest-icon">
                        <circle id="Oval" fill="#FFF7DB" cx="20" cy="20" r="20"></circle>
                        <path d="M30.1297879,14.0740741 C31.0308013,14.0740741 31.7701957,14.7842566 31.8455308,15.6889591 L31.8518519,15.8414555 L31.8518519,24.1585445 C31.8518519,25.0832687 31.1598791,25.842121 30.2783742,25.9194386 L30.1297879,25.9259259 L9.87021209,25.9259259 C8.96919874,25.9259259 8.22980427,25.2157434 8.15446915,24.3110409 L8.14814815,24.1585445 L8.14814815,15.8414555 C8.14814815,14.9167313 8.84012086,14.157879 9.72162582,14.0805614 L9.87021209,14.0740741 L30.1297879,14.0740741 Z M12.5018896,21.6592593 L9.59939531,21.6592593 L9.59939531,24.0296296 L12.5018896,24.0296296 L12.5018896,21.6592593 Z M26.5306122,21.6592593 L23.6281179,21.6592593 L23.6281179,24.0296296 L26.5306122,24.0296296 L26.5306122,21.6592593 Z M15.888133,21.6592593 L12.9856387,21.6592593 L12.9856387,24.0296296 L15.888133,24.0296296 L15.888133,21.6592593 Z M23.1443689,21.6592593 L20.2418745,21.6592593 L20.2418745,24.0296296 L23.1443689,24.0296296 L23.1443689,21.6592593 Z M23.1443689,18.8148148 L20.2418745,18.8148148 L20.2418745,21.1851852 L23.1443689,21.1851852 L23.1443689,18.8148148 Z M12.5018896,18.8148148 L9.59939531,18.8148148 L9.59939531,21.1851852 L12.5018896,21.1851852 L12.5018896,18.8148148 Z M19.2743764,18.8148148 L16.3718821,18.8148148 L16.3718821,21.1851852 L19.2743764,21.1851852 L19.2743764,18.8148148 Z M29.9168556,18.8148148 L27.0143613,18.8148148 L27.0143613,21.1851852 L29.9168556,21.1851852 L29.9168556,18.8148148 Z M12.5018896,15.4962963 L9.59939531,15.4962963 L9.59939531,17.8666667 L12.5018896,17.8666667 L12.5018896,15.4962963 Z M19.2743764,15.4962963 L16.3718821,15.4962963 L16.3718821,17.8666667 L19.2743764,17.8666667 L19.2743764,15.4962963 Z M15.888133,15.4962963 L12.9856387,15.4962963 L12.9856387,17.8666667 L15.888133,17.8666667 L15.888133,15.4962963 Z M26.5306122,15.4962963 L23.6281179,15.4962963 L23.6281179,17.8666667 L26.5306122,17.8666667 L26.5306122,15.4962963 Z M29.9168556,15.4962963 L27.0143613,15.4962963 L27.0143613,17.8666667 L29.9168556,17.8666667 L29.9168556,15.4962963 Z" id="Combined-Shape" fill="#FFD029" fill-rule="nonzero"></path>
                    </g>
                </g>
            </g>
        </g>
    </g>
</svg>