<svg width="16" height="16" viewBox="0 0 16 16" fill="none" xmlns="http://www.w3.org/2000/svg">
<path d="M15.9947 1.10195L15.1246 1.97234L14.0222 0.870119L14.8927 0L15.9947 1.10195Z" fill="#FEDB41"/>
<path d="M13.1521 1.74024L14.0222 0.870119L15.1246 1.97234L14.2545 2.84246L13.1521 1.74024Z" fill="#00ACEA"/>
<path d="M12.2821 2.61036L13.1521 1.74024L14.2544 2.84246L13.3843 3.71258L12.2821 2.61036Z" fill="#FEDB41"/>
<path d="M11.412 3.48048L12.282 2.61036L13.3843 3.71258L12.5142 4.5827L11.412 3.48048Z" fill="#00ACEA"/>
<path d="M12.5142 4.5827L11.6438 5.45282L10.5419 4.35087L11.412 3.48048L12.5142 4.5827Z" fill="#FEDB41"/>
<path d="M12.2317 6.60548L3.20306 15.6342C2.72244 16.1148 1.9433 16.1148 1.46282 15.6342L0.36046 14.5319C-0.120153 14.0514 -0.120153 13.2721 0.36046 12.7916L9.3892 3.76302L10.2593 4.633L10.2517 4.64073L7.61222 8.38246L11.354 5.74295L11.3615 5.73536L12.2317 6.60548Z" fill="#F4B844"/>
<path d="M11.3616 5.73536L11.354 5.74295L7.6123 8.38246L10.2518 4.64073L10.2594 4.633L11.3616 5.73536Z" fill="#189EE1"/>
</svg>
