<svg width="14" height="14" viewBox="0 0 14 14" fill="none" xmlns="http://www.w3.org/2000/svg">
<path d="M13.6659 1.25155L12.9409 1.97687L12.0222 1.05835L12.7477 0.333252L13.6659 1.25155Z" fill="#FFD83D"/>
<path d="M11.2969 1.78369L12.022 1.05859L12.9406 1.97711L12.2155 2.70221L11.2969 1.78369Z" fill="#5968AB"/>
<path d="M10.5718 2.50903L11.2968 1.78394L12.2154 2.70245L11.4903 3.42755L10.5718 2.50903Z" fill="#FFD83D"/>
<path d="M9.84644 3.23438L10.5714 2.50928L11.4901 3.4278L10.765 4.1529L9.84644 3.23438Z" fill="#5968AB"/>
<path d="M10.7647 4.15314L10.0394 4.87824L9.12109 3.95994L9.84619 3.23462L10.7647 4.15314Z" fill="#FFD83D"/>
<path d="M10.5297 5.83972L3.00335 13.3662C2.60271 13.7668 1.9532 13.7668 1.55267 13.3662L0.633735 12.4472C0.233091 12.0467 0.233091 11.3971 0.633735 10.9966L8.16019 3.47021L8.88553 4.19544L8.8792 4.20188L6.67888 7.32103L9.79803 5.12071L9.80435 5.11438L10.5297 5.83972Z" fill="#FFCD05"/>
<path d="M9.80443 5.11425L9.7981 5.12058L6.67896 7.3209L8.87928 4.20175L8.8856 4.19531L9.80443 5.11425Z" fill="#5968AB"/>
</svg>
