<svg width="24" height="24" viewBox="0 0 24 24" fill="none" xmlns="http://www.w3.org/2000/svg">
<path d="M11.105 18.79L10.105 19.782C9.3379 20.5423 8.30511 20.9744 7.22513 20.9868C6.14515 20.9993 5.10268 20.5911 4.31827 19.8486C3.53387 19.1062 3.06905 18.0877 3.02215 17.0087C2.97526 15.9297 3.34996 14.8747 4.067 14.067L4.224 13.901L12.506 5.5L14.006 7L17.456 3.609C17.8361 3.23227 18.3469 3.01657 18.882 3.00676C19.4171 2.99695 19.9354 3.19377 20.3291 3.55631C20.7228 3.91885 20.9616 4.41919 20.9959 4.95329C21.0301 5.48739 20.8572 6.01414 20.513 6.424L20.397 6.55L17.006 10L18.506 11.5L14.838 15.117M10.5 7.5L16.5 13.5" stroke="white" stroke-width="2" stroke-linecap="round" stroke-linejoin="round"/>
<path d="M11 18C11 18.394 11.0776 18.7841 11.2284 19.1481C11.3791 19.512 11.6001 19.8427 11.8787 20.1213C12.1573 20.3999 12.488 20.6209 12.8519 20.7716C13.2159 20.9224 13.606 21 14 21C14.394 21 14.7841 20.9224 15.1481 20.7716C15.512 20.6209 15.8427 20.3999 16.1213 20.1213C16.3999 19.8427 16.6209 19.512 16.7716 19.1481C16.9224 18.7841 17 18.394 17 18C17 17.606 16.9224 17.2159 16.7716 16.8519C16.6209 16.488 16.3999 16.1573 16.1213 15.8787C15.8427 15.6001 15.512 15.3791 15.1481 15.2284C14.7841 15.0776 14.394 15 14 15C13.606 15 13.2159 15.0776 12.8519 15.2284C12.488 15.3791 12.1573 15.6001 11.8787 15.8787C11.6001 16.1573 11.3791 16.488 11.2284 16.8519C11.0776 17.2159 11 17.606 11 18Z" stroke="white" stroke-width="2" stroke-linecap="round" stroke-linejoin="round"/>
</svg>
