<?xml version="1.0" standalone="no"?>
<!DOCTYPE svg PUBLIC "-//W3C//DTD SVG 20010904//EN"
 "http://www.w3.org/TR/2001/REC-SVG-20010904/DTD/svg10.dtd">
<svg version="1.0" xmlns="http://www.w3.org/2000/svg"
 width="512.000000pt" height="512.000000pt" viewBox="0 0 512.000000 512.000000"
 preserveAspectRatio="xMidYMid meet">
<metadata>
Created by potrace 1.16, written by Peter Selinger 2001-2019
</metadata>
<g transform="translate(0.000000,512.000000) scale(0.100000,-0.100000)"
fill="#000000" stroke="none">
<path d="M3674 4624 c-291 -273 -538 -504 -549 -515 -19 -19 -19 -19 25 -64
l44 -45 -36 -37 -36 -36 -41 17 c-57 22 -145 21 -195 -4 -23 -11 -72 -47 -111
-80 -145 -125 -326 -239 -504 -316 l-76 -33 -22 21 -23 21 123 67 c140 76 280
156 487 278 l145 85 -35 13 c-75 27 -91 23 -505 -130 -99 -37 -227 -81 -285
-97 l-104 -31 -58 17 c-166 51 -351 -42 -439 -220 -59 -121 -51 -289 18 -392
15 -23 118 -149 229 -280 110 -131 236 -283 279 -338 78 -99 255 -361 255
-376 0 -5 -29 -39 -64 -77 -68 -72 -112 -104 -351 -261 -211 -138 -307 -245
-406 -454 -60 -126 -259 -754 -259 -816 0 -87 45 -157 128 -198 48 -24 70 -28
137 -28 88 0 125 14 183 69 48 44 61 76 131 301 124 400 183 518 327 655 72
69 210 168 220 158 3 -3 -2 -32 -10 -64 -69 -272 -63 -489 25 -839 35 -139
123 -414 149 -465 42 -82 127 -129 231 -130 109 0 191 41 236 118 41 69 36
127 -27 318 -29 87 -72 238 -97 334 -79 307 -73 422 42 845 34 127 68 261 75
298 8 47 24 85 46 119 48 71 67 145 62 236 -5 67 -11 87 -64 191 -86 168 -219
367 -386 578 l-49 62 102 52 c246 123 540 343 590 441 24 47 33 113 21 153 -9
27 -5 34 31 73 l41 42 46 -45 45 -45 545 512 545 512 0 86 c-1 66 -6 94 -22
125 -43 82 -104 115 -211 115 l-69 0 -529 -496z" fill="#7402D3"/>
<path d="M1495 4513 c-43 -48 -75 -77 -84 -74 -9 2 -61 4 -116 5 -89 1 -107
-2 -157 -26 -69 -32 -147 -107 -181 -175 -136 -268 70 -583 368 -560 126 9
241 77 301 178 20 34 35 49 51 49 31 0 83 47 104 95 35 76 23 219 -28 348 -18
44 -28 45 -108 8 l-60 -27 -41 30 -41 31 60 68 60 68 -30 30 -30 30 -68 -78z" fill="#7402D3"/>
<path d="M4260 3833 c0 -73 -26 -219 -55 -308 -80 -245 -271 -470 -540 -635
-90 -55 -271 -141 -357 -170 -65 -21 -68 -23 -62 -48 4 -15 8 -29 10 -31 6 -6
149 52 249 102 473 235 740 593 762 1025 3 61 3 112 -1 112 -3 0 -6 -21 -6
-47z" fill="#7402D3"/>
<path d="M719 2338 c-22 -17 -28 -38 -18 -65 7 -20 5 -23 -17 -23 -14 0 -36
-11 -49 -25 l-25 -24 0 -910 0 -910 23 -25 c34 -38 95 -39 132 -1 l25 24 0
909 c0 889 0 909 -20 929 l-19 21 125 4 c131 3 144 8 144 53 0 46 -12 50 -152
53 -99 2 -137 0 -149 -10z" fill="#7402D3"/>
<path d="M1092 2334 c-12 -8 -22 -26 -22 -39 0 -44 33 -55 159 -55 l114 0 -19
-21 c-18 -20 -19 -43 -22 -348 -1 -179 -1 -384 0 -456 l3 -130 47 91 c25 50
67 121 93 158 l46 67 -3 301 -3 300 -28 24 c-15 13 -40 24 -55 24 -20 0 -23 3
-14 12 19 19 14 55 -10 72 -17 12 -50 16 -143 16 -93 0 -126 -4 -143 -16z" fill="#7402D3"/>
<path d="M985 2226 c-13 -13 -26 -39 -30 -57 -3 -19 -5 -429 -3 -911 l3 -878
26 -26 c19 -19 37 -26 64 -26 54 0 59 10 39 77 -21 74 -15 130 25 256 l31 96
0 712 c0 733 0 738 -39 768 -28 22 -89 16 -116 -11z" fill="#7402D3"/>
</g>
</svg>
