<svg xmlns="http://www.w3.org/2000/svg" width="16" height="16" viewBox="0 0 16 16">
  <g id="Group_41010" data-name="Group 41010" transform="translate(-14354.999 2027.471)">
    <g id="Ellipse_194" data-name="Ellipse 194" transform="translate(14354.999 -2027.471)" fill="#ffe67e" stroke="#f8a520" stroke-width="2">
      <circle cx="8" cy="8" r="8" stroke="none"/>
      <circle cx="8" cy="8" r="7" fill="none"/>
    </g>
    <g id="Group_35128" data-name="Group 35128" transform="translate(14359.438 -2021.761)">
      <path id="Path_58236" data-name="Path 58236" d="M-1539.024,487.577v0h-2.619v-.036a.293.293,0,0,1-.161-.226h0l0-.037a.293.293,0,0,1,.157-.258c0-.012,0-.025,0-.037h0v-.139a.289.289,0,0,1-.146-.218h0v-.037a.3.3,0,0,1,.124-.24,7.748,7.748,0,0,0-.09-.8,2.5,2.5,0,0,0-.27-.761.443.443,0,0,1-.249-.148.448.448,0,0,1-.159-.341.451.451,0,0,1,.45-.45.447.447,0,0,1,.341.159.448.448,0,0,1,.159.341.427.427,0,0,1-.009.087,4.451,4.451,0,0,0,.589.517,1.158,1.158,0,0,0,.385.193.472.472,0,0,0,.1.011l.026,0a.268.268,0,0,0,.055-.008.46.46,0,0,0,.226-.167,8.879,8.879,0,0,0,.8-1.8.441.441,0,0,1-.038-.178l0-.028a.062.062,0,0,1,0-.021.451.451,0,0,1,.45-.45.451.451,0,0,1,.45.45l0,.029a.069.069,0,0,1,0,.021.442.442,0,0,1-.04.182,8.884,8.884,0,0,0,.8,1.795.461.461,0,0,0,.22.165.286.286,0,0,0,.062.009l.021.1v-.1a.4.4,0,0,0,.074-.008l.026-.006a1.151,1.151,0,0,0,.383-.191,4.447,4.447,0,0,0,.591-.52.426.426,0,0,1-.009-.087.447.447,0,0,1,.159-.341.448.448,0,0,1,.341-.159.451.451,0,0,1,.451.45.449.449,0,0,1-.167.348.41.41,0,0,1-.243.141,2.522,2.522,0,0,0-.271.763c-.013.073-.025.153-.035.235-.021.165-.04.357-.055.571a.3.3,0,0,1,.116.235.267.267,0,0,1,0,.038h0a.293.293,0,0,1-.135.21v.145h-.007c0,.014,0,.028,0,.042a.291.291,0,0,1,.149.254.285.285,0,0,1,0,.038h0a.291.291,0,0,1-.154.221v.03l-.1.011Z" transform="translate(1542.453 -482.5)" fill="#ac5200"/>
      <path id="Path_58214" data-name="Path 58214" d="M-1534.5,485.656c-.016-.251-.227-.089-.227-.089-1.159,1.281-1.589,1.224-1.9.851a9.583,9.583,0,0,1-.863-1.941c-.089-.268-.235-.218-.235-.218v0s-.146-.049-.235.218a9.574,9.574,0,0,1-.863,1.941c-.308.373-.738.43-1.9-.851,0,0-.211-.162-.227.089s.341.543.47,1.265a14.649,14.649,0,0,1,.134,1.947h2.618v0h2.619a14.64,14.64,0,0,1,.134-1.947C-1534.841,486.2-1534.484,485.908-1534.5,485.656Z" transform="translate(1541.255 -483.894)" fill="#f87320"/>
      <path id="Path_58215" data-name="Path 58215" d="M-1537.948,495.249h.882c0-.408-.019-1.137-.063-1.68a4.52,4.52,0,0,0-.083-.542,2.217,2.217,0,0,1-1.1-.748,12.9,12.9,0,0,1,.361,1.89Z" transform="translate(1539.158 -490.277)" fill="#f87320"/>
      <path id="Path_58216" data-name="Path 58216" d="M-1516.87,491.826c.13-.721.486-1.013.47-1.265s-.227-.089-.227-.089c-.683.754-1.112,1.045-1.413,1.08a4.458,4.458,0,0,0-.083.542c-.044.543-.058,1.272-.063,1.68H-1517A14.627,14.627,0,0,1-1516.87,491.826Z" transform="translate(1523.153 -488.799)" fill="#f87320"/>
      <rect id="Rectangle_17035" data-name="Rectangle 17035" width="5.561" height="0.389" rx="0.195" transform="translate(0.747 4.581)" fill="#f87320"/>
      <rect id="Rectangle_17036" data-name="Rectangle 17036" width="5.27" height="0.099" transform="translate(0.898 4.278)" fill="#ac5200"/>
      <rect id="Rectangle_17037" data-name="Rectangle 17037" width="5.561" height="0.389" rx="0.195" transform="translate(0.747 3.892)" fill="#f87320"/>
      <path id="Path_58217" data-name="Path 58217" d="M-1533.438,504.877h-5.172a.194.194,0,0,0-.194.195h0a.18.18,0,0,0,0,.024.194.194,0,0,1,.193-.17h5.172a.2.2,0,0,1,.193.17.2.2,0,0,0,0-.024h0A.2.2,0,0,0-1533.438,504.877Z" transform="translate(1539.552 -500.296)" fill="#ffe67e"/>
      <path id="Path_58218" data-name="Path 58218" d="M-1533.438,501.511h-5.172a.2.2,0,0,0-.194.195h0a.179.179,0,0,0,0,.024.194.194,0,0,1,.193-.17h5.172a.2.2,0,0,1,.193.17.2.2,0,0,0,0-.024h0A.2.2,0,0,0-1533.438,501.511Z" transform="translate(1539.552 -497.619)" fill="#ffe67e"/>
      <path id="Path_58219" data-name="Path 58219" d="M-1525.2,506.787" transform="translate(1528.735 -501.815)" fill="none" stroke="#ffe67e" stroke-linecap="round" stroke-width="12"/>
      <g id="Group_35115" data-name="Group 35115" transform="translate(0.261 0.416)">
        <path id="Path_58220" data-name="Path 58220" d="M-1536.39,487.026h-.012a.585.585,0,0,1-.447-.25,9.513,9.513,0,0,1-.872-1.957c-.069-.206-.164-.19-.174-.187l-.066.026v-.027c-.036.01-.093.049-.139.185a9.5,9.5,0,0,1-.872,1.957.585.585,0,0,1-.447.25,1.064,1.064,0,0,1-.609-.241,5.864,5.864,0,0,1-.912-.855c-.031-.022-.085-.048-.112-.036s-.031.042-.034.092l-.1-.006a.186.186,0,0,1,.091-.174c.091-.041.2.041.214.05l0,0,0,0a5.8,5.8,0,0,0,.9.844.977.977,0,0,0,.55.224.488.488,0,0,0,.374-.215,9.438,9.438,0,0,0,.855-1.926.378.378,0,0,1,.169-.235.178.178,0,0,1,.119-.017.182.182,0,0,1,.106.019.379.379,0,0,1,.169.235,9.426,9.426,0,0,0,.854,1.926.489.489,0,0,0,.374.215.975.975,0,0,0,.55-.224,5.791,5.791,0,0,0,.9-.844l0,0,0,0c.012-.009.123-.091.214-.05a.186.186,0,0,1,.091.174l-.1.006c0-.05-.016-.084-.034-.092s-.081.014-.112.036a5.885,5.885,0,0,1-.912.855A1.086,1.086,0,0,1-1536.39,487.026Z" transform="translate(1541.181 -484.53)" fill="#db8200"/>
      </g>
      <g id="Group_35116" data-name="Group 35116" transform="translate(0.26 0.359)">
        <path id="Path_58221" data-name="Path 58221" d="M-1536.39,486.749h-.012a.584.584,0,0,1-.447-.25,9.492,9.492,0,0,1-.872-1.957c-.069-.206-.164-.19-.174-.187l-.066.026v-.027c-.036.01-.093.049-.139.185a9.489,9.489,0,0,1-.872,1.957.585.585,0,0,1-.447.25,1.067,1.067,0,0,1-.608-.241,5.876,5.876,0,0,1-.912-.855c-.031-.022-.085-.048-.112-.036s-.031.042-.034.092a.049.049,0,0,1-.052.045.049.049,0,0,1-.045-.052h0a.186.186,0,0,1,.091-.175c.091-.041.2.041.214.05l0,0,0,0a5.809,5.809,0,0,0,.9.844.976.976,0,0,0,.55.224.488.488,0,0,0,.374-.215,9.43,9.43,0,0,0,.855-1.926.378.378,0,0,1,.169-.235.179.179,0,0,1,.118-.017.184.184,0,0,1,.106.019.378.378,0,0,1,.169.235,9.443,9.443,0,0,0,.855,1.926.489.489,0,0,0,.374.215.975.975,0,0,0,.55-.224,5.79,5.79,0,0,0,.9-.844l0,0,0,0c.012-.009.123-.091.214-.05a.186.186,0,0,1,.091.174.049.049,0,0,1-.045.052.049.049,0,0,1-.052-.045c0-.05-.016-.084-.034-.092s-.081.014-.112.036a5.886,5.886,0,0,1-.912.855A1.087,1.087,0,0,1-1536.39,486.749Z" transform="translate(1541.182 -484.253)" fill="#ffe67e"/>
      </g>
      <circle id="Ellipse_371" data-name="Ellipse 371" cx="0.348" cy="0.348" r="0.348" transform="translate(3.185 0.152)" fill="#db8200"/>
      <circle id="Ellipse_372" data-name="Ellipse 372" cx="0.348" cy="0.348" r="0.348" transform="translate(6.217 1.494)" fill="#db8200"/>
      <circle id="Ellipse_373" data-name="Ellipse 373" cx="0.348" cy="0.348" r="0.348" transform="translate(0.152 1.494)" fill="#db8200"/>
      <circle id="Ellipse_374" data-name="Ellipse 374" cx="0.348" cy="0.348" r="0.348" transform="translate(3.185 0.102)" fill="#ffe67e"/>
      <circle id="Ellipse_375" data-name="Ellipse 375" cx="0.348" cy="0.348" r="0.348" transform="translate(6.267 1.445)" fill="#ffe67e"/>
      <circle id="Ellipse_376" data-name="Ellipse 376" cx="0.348" cy="0.348" r="0.348" transform="translate(0.103 1.445)" fill="#ffe67e"/>
      <path id="Path_58230" data-name="Path 58230" d="M-1525.981,483.507a.27.27,0,0,0-.27-.27.27.27,0,0,0-.27.27h0c0,.149.121-.073.27-.073S-1525.981,483.656-1525.981,483.507Z" transform="translate(1529.782 -483.086)" fill="#ffe67e"/>
      <path id="Path_58231" data-name="Path 58231" d="M-1510.789,490.352a.269.269,0,0,0,0-.381h0a.27.27,0,0,0-.381,0h0c-.105.105.137.034.242.139S-1510.894,490.457-1510.789,490.352Z" transform="translate(1517.595 -488.379)" fill="#ffe67e"/>
      <path id="Path_58232" data-name="Path 58232" d="M-1541.567,490.352a.269.269,0,0,1,0-.381h0a.27.27,0,0,1,.381,0h0c.105.105-.137.034-.242.139S-1541.461,490.457-1541.567,490.352Z" transform="translate(1541.811 -488.379)" fill="#ffe67e"/>
    </g>
    <path id="Path_58241" data-name="Path 58241" d="M7.764,0a7.764,7.764,0,0,1,7.764,7.764c0,4.288-3.476-.5-7.764-.5S0,12.053,0,7.764A7.764,7.764,0,0,1,7.764,0Z" transform="translate(14355.207 -2027.471)" fill="#fff" opacity="0.3"/>
  </g>
</svg>
