<svg width="24" height="24" viewBox="0 0 24 24" fill="none" xmlns="http://www.w3.org/2000/svg">
<path d="M10.1217 0.0585637C10.5043 -0.0740185 10.9223 0.0366625 11.273 0.209607C11.518 0.367363 11.763 0.526797 12.0374 0.63001C12.0584 0.669449 12.102 0.747487 12.123 0.786087C12.1121 0.8121 12.0911 0.865804 12.0802 0.891817C12.2757 1.33656 12.4008 1.86353 12.2111 2.33084C12.0819 2.48859 11.857 2.51301 11.6749 2.5741C11.6741 2.79983 11.7102 3.02312 11.7295 3.24716C12.1188 3.3101 12.4484 3.03906 12.8336 3.06591C12.8856 2.85026 12.9267 2.63108 12.9957 2.4197C13.0754 2.55984 13.0787 2.72103 13.0796 2.87879C13.1803 2.90732 13.2827 2.93333 13.3857 2.95842C13.3867 2.9971 13.3875 3.0743 13.3875 3.1129C15.0758 3.12297 16.7632 3.10527 18.4516 3.12213C18.4474 3.17987 18.4392 3.29575 18.4359 3.35373C18.4795 3.35373 18.5684 3.35457 18.6127 3.35457C18.6111 3.04754 18.6127 2.73949 18.6119 2.43246C18.6547 2.43069 18.7386 2.42818 18.7806 2.42734C18.7816 2.66901 18.7823 2.91067 18.7849 3.15243C18.8217 3.19774 18.8955 3.28828 18.9326 3.3336C18.9603 3.30079 19.0156 3.23634 19.0432 3.20353C19.1716 3.32361 19.0986 3.48808 19.0929 3.6356C19.5653 3.63048 20.0426 3.66237 20.5135 3.62377C20.5488 3.59775 20.6193 3.54657 20.6545 3.52064C20.7192 3.54573 20.7846 3.57098 20.8492 3.597C21.0615 3.59179 21.2746 3.59112 21.4878 3.59028C21.4834 3.70021 21.48 3.81005 21.4758 3.92006C21.2015 3.91578 20.9262 3.90999 20.656 3.9569C20.4815 3.80678 20.2474 3.85444 20.0367 3.84874C19.7128 3.86384 19.3787 3.80678 19.065 3.90991C18.8786 3.96193 18.674 3.94943 18.5095 3.84362C18.4699 3.94179 18.5305 4.16165 18.365 4.15317C17.7139 4.16165 17.0636 4.14738 16.4132 4.15745C16.3243 4.20444 16.2345 4.24892 16.1457 4.29247C16.0517 4.57273 15.7824 4.75978 15.5531 4.93096C15.5246 5.36143 15.6949 5.76337 15.7612 6.18117C15.6328 6.21801 15.5036 6.25594 15.3769 6.2979C15.1948 6.72753 15.3064 7.314 14.8852 7.61373C14.5621 7.80161 14.3483 8.21027 13.9126 8.14574C14.1342 8.33035 13.8522 8.27245 13.8816 8.12476C13.0936 8.05511 12.4299 7.59275 11.7452 7.24041C11.7133 7.43332 11.663 7.62305 11.6109 7.81185C11.871 7.86136 12.0859 8.05268 12.132 8.31952C12.2151 8.90112 12.0489 9.47853 12.0514 10.0616C12.0699 10.404 11.9231 10.7178 11.7401 10.9972C11.5799 11.1784 11.3273 10.9921 11.1351 10.9653C11.0914 11.05 11.0487 11.1349 11.0067 11.2204C11.0613 11.4485 11.0848 11.686 11.1611 11.9092C11.5899 12.3833 11.9801 12.897 12.2797 13.4634C12.5881 14.1048 12.8629 14.7619 13.103 15.4319C13.1264 15.562 13.2489 15.6088 13.3565 15.6559C13.3707 15.7902 13.385 15.9243 13.3984 16.0603C13.4404 16.1216 13.4832 16.1827 13.5268 16.2448C13.5528 17.0723 13.4513 17.8962 13.3227 18.7127C13.2432 19.0812 13.4587 19.4411 13.3714 19.812C13.3815 20.0019 13.2507 20.1453 13.1893 20.3131C13.1776 20.705 13.1583 21.1018 13.2012 21.493C13.2313 21.78 13.4739 21.9645 13.6384 22.1786C13.818 22.3691 13.9682 22.625 14.2401 22.6929C14.496 22.7692 14.7402 22.88 14.9657 23.0252C15.0345 23.1955 15.022 23.3761 14.9892 23.553C14.4975 23.6436 13.9957 23.5984 13.4989 23.606C13.1161 23.626 12.7748 23.4205 12.4029 23.3776C12.0429 23.3685 11.604 23.5472 11.3273 23.2249C11.4446 22.7779 11.454 22.2977 11.6686 21.8806C11.7374 21.4082 11.6067 20.929 11.6342 20.4524C11.5933 20.418 11.5109 20.3492 11.4698 20.3146C11.4993 20.0034 11.3457 19.7264 11.2944 19.4286C11.261 18.9936 11.2214 18.5591 11.171 18.1262C11.1316 17.9155 11.2407 17.7226 11.3892 17.5825C11.4026 17.3391 11.4355 17.0982 11.4589 16.8566C11.4228 16.6996 11.2977 16.5831 11.2172 16.4488C10.9478 16.5623 10.5845 16.5085 10.4242 16.2448C10.0442 15.6793 9.6648 15.1138 9.28048 14.5515C9.12944 14.5415 8.97 14.5573 8.82903 14.4969C8.66641 14.33 8.58149 14.1077 8.4776 13.9046C8.32899 14.0716 8.33982 14.3274 8.16377 14.4794C7.7912 14.8369 7.69218 15.3622 7.4975 15.8203C7.34831 16.1173 7.43222 16.4756 7.2659 16.7652C7.17696 16.9212 6.95375 16.9522 6.89501 17.1303C6.81781 17.3223 6.72719 17.5212 6.54677 17.638C6.35126 17.7663 6.29931 18.0098 6.21213 18.211C6.13241 18.3965 6.25073 18.5911 6.22304 18.7817C6.09885 19.3868 5.71369 19.8927 5.55174 20.4852C5.47789 20.752 5.37208 21.0524 5.0616 21.1094C4.70833 21.7404 4.51374 22.5125 4.71345 23.223C4.83596 23.4462 4.82925 23.6971 4.79149 23.943C4.2302 23.9867 3.65447 24.0621 3.10325 23.9053C2.97402 23.6493 2.99248 23.348 3.01933 23.0714C3.18959 22.3437 3.4154 21.6288 3.55378 20.8938C3.38092 20.7402 3.42128 20.5053 3.42455 20.2997C3.41876 19.9162 3.67964 19.6091 3.86089 19.2944C3.92895 18.9713 3.89706 18.6242 4.06396 18.3277C4.2604 17.9568 4.42647 17.5558 4.72948 17.2561C4.78729 16.9918 4.98214 16.7922 5.06085 16.5377C5.14476 16.3128 4.99791 16.0846 5.02745 15.8547C5.09953 15.1572 5.22632 14.4667 5.33625 13.7744C5.12823 13.6007 5.19527 13.3248 5.12898 13.0906C5.16171 12.9982 5.20283 12.9102 5.25233 12.8245C5.20031 12.7767 5.14921 12.728 5.0971 12.6803C5.14745 12.4342 5.13318 11.9936 5.51079 12.0736C5.53428 11.2588 5.2515 10.47 5.34632 9.65432C5.39667 9.71298 5.44609 9.77264 5.49652 9.83222L5.46967 9.55615C5.62743 9.47223 5.79525 9.40762 5.97147 9.37489C5.68449 9.33722 5.40506 9.26421 5.12378 9.19868C5.05581 9.01986 5.09374 8.82946 5.11875 8.64653C5.22783 8.02893 5.26811 7.40294 5.29077 6.77695C5.6088 6.66636 5.95955 6.76026 6.27003 6.61249C6.1737 5.82958 6.14936 5.01235 6.42779 4.26125C6.65183 3.62175 7.07987 3.00499 7.74773 2.78019C8.06324 2.70475 8.46015 2.61992 8.68319 2.9262C8.74445 2.86998 8.8057 2.81208 8.86696 2.75586C8.35769 1.74437 8.96606 0.266667 10.1217 0.0585637ZM14.1973 4.44552C14.063 4.52776 13.9313 4.62182 14.0724 4.77119C14.0036 4.81222 13.9346 4.85174 13.865 4.88942C13.7559 4.97333 13.5109 5.02108 13.5394 5.19075C13.6619 5.38754 13.7675 5.5944 13.855 5.8091C14.1226 5.58934 14.3357 5.2938 14.48 4.98097C14.5103 4.94992 14.5716 4.88783 14.6017 4.85753C14.5883 4.71404 14.5564 4.57383 14.5002 4.44133C14.3995 4.44309 14.298 4.44468 14.1973 4.44552Z" fill="white"/>
</svg>
