<svg width="24" height="24" viewBox="0 0 24 24" fill="none" xmlns="http://www.w3.org/2000/svg">
<rect x="0.5" y="0.5" width="23" height="23" rx="3.5" fill="#F6F7F9"/>
<path d="M18.915 14L19.085 13L16.5 12.575V10.385L19.03 9.705L18.775 8.74L16.36 9.385C16.1956 8.76343 15.8999 8.18432 15.4928 7.68667C15.0857 7.18901 14.5767 6.78437 14 6.5V5H13V6.115C12.3422 5.96166 11.6579 5.96166 11 6.115V5H10V6.5C9.42164 6.7876 8.91194 7.19636 8.50558 7.69849C8.09922 8.20062 7.80572 8.78435 7.64504 9.41L5.23004 8.74L5.00004 9.705L7.50004 10.385V12.575L4.92004 13L5.08004 14L7.50004 13.59C7.51147 14.207 7.65109 14.8149 7.91004 15.375L5.64504 17.645L6.35504 18.355L8.45004 16.255C8.87082 16.7952 9.4093 17.2322 10.0245 17.5328C10.6397 17.8333 11.3153 17.9896 12 17.9896C12.6847 17.9896 13.3604 17.8333 13.9756 17.5328C14.5908 17.2322 15.1293 16.7952 15.55 16.255L17.645 18.355L18.355 17.645L16.085 15.375C16.3457 14.8152 16.4871 14.2073 16.5 13.59L18.915 14ZM11.5 16.96C10.6677 16.8399 9.90652 16.4241 9.35563 15.7887C8.80475 15.1534 8.50103 14.3409 8.50004 13.5V10.5H11.5V16.96ZM8.64504 9.5C8.8599 8.77698 9.30258 8.14271 9.90713 7.69168C10.5117 7.24065 11.2458 6.99698 12 6.99698C12.7543 6.99698 13.4884 7.24065 14.093 7.69168C14.6975 8.14271 15.1402 8.77698 15.355 9.5H8.64504ZM15.5 13.5C15.4991 14.3409 15.1953 15.1534 14.6445 15.7887C14.0936 16.4241 13.3323 16.8399 12.5 16.96V10.5H15.5V13.5Z" fill="#3A3F50" stroke="#3A3F50" stroke-width="0.4"/>
<rect x="0.5" y="0.5" width="23" height="23" rx="3.5" stroke="#3A3F50"/>
</svg>
