<svg width="40" height="40" viewBox="0 0 40 40" fill="none" xmlns="http://www.w3.org/2000/svg">
<mask id="mask0_2183_68975" style="mask-type:alpha" maskUnits="userSpaceOnUse" x="0" y="0" width="40" height="40">
<circle cx="20" cy="20" r="20" fill="white"/>
</mask>
<g mask="url(#mask0_2183_68975)">
<circle cx="20" cy="20" r="20" fill="white"/>
<circle cx="20" cy="20" r="19.5" fill="#F5F8FF" stroke="#7FA7FA"/>
<path d="M18.559 7.10461C19.0515 7.25168 19.7178 7.97235 19.8047 8.41357C19.8916 8.85479 19.7612 10.1049 19.7612 10.1049C19.7612 10.1049 20.2103 9.78136 20.3116 9.91373C20.413 10.0314 21.1373 11.2521 21.1373 11.2521L22.6726 12.2228L22.6292 12.6493C22.6292 12.6493 23.6286 12.9582 24.0341 13.0611C24.4397 13.1641 26.1634 13.5024 26.1634 13.5024C26.1634 13.5024 26.4386 13.2229 26.6413 13.267C26.8296 13.3112 27.9884 14.4142 28.0029 14.5319C28.0174 14.6495 28.1912 15.1496 28.0898 15.1937C28.0029 15.2378 27.3656 14.6642 27.3656 14.6642C27.3656 14.6642 27.1917 14.9878 27.1048 14.9437C27.0324 14.8996 26.8586 14.6054 26.8586 14.6054C26.8586 14.6054 25.2363 14.8407 24.8742 14.6937C24.4976 14.5319 24.1355 14.2966 24.1355 14.2966L22.9913 14.0759C22.9913 14.0759 24.1935 15.2084 24.3383 15.4143C24.4832 15.6349 24.628 16.5468 24.5266 16.988C24.4252 17.4292 24.2224 17.9734 24.2224 17.9734C24.2224 17.9734 24.6715 18.9588 24.7873 19.1647C24.9032 19.3706 24.9322 19.9148 24.9322 19.9148L24.5411 19.7236C24.5411 19.7236 24.6425 20.0178 24.5556 20.0325C24.4687 20.0472 24.0776 19.5471 24.0776 19.5471C24.0776 19.5471 24.15 19.9295 24.0631 19.9736C23.9762 20.0178 23.672 19.9295 23.3679 19.503C23.0492 19.0765 23.0202 18.8117 23.0202 18.8117L22.6147 19.1941L22.4553 18.9735C22.4553 18.9735 22.3974 18.5176 22.5567 18.2823C22.7161 18.047 23.2085 17.5616 23.2085 17.5616L22.8174 15.6791L21.6442 14.6642L20.949 16.2232L21.369 18.7382C21.369 18.7382 22.0787 19.0765 22.1367 19.4147C22.1801 19.753 22.1801 20.2972 22.1801 20.2972L24.657 23.0916L24.4976 23.5475L25.3088 25.0771C25.3088 25.0771 25.7288 24.3565 26.1778 24.2094C26.6413 24.0623 28.3215 23.9152 28.5678 23.7534C28.814 23.577 28.785 23.0475 28.785 23.0475C28.785 23.0475 29.2196 22.6651 29.4223 22.6357C29.6251 22.6063 30.2335 23.121 30.6825 23.1504C31.1315 23.1799 31.8123 23.0475 32.2903 23.474C32.7682 23.9005 33 24.3123 33 24.3123C33 24.3123 32.8552 24.8124 32.7393 24.8565C32.6234 24.9006 31.1605 24.7388 30.9867 24.7977C30.8129 24.8565 30.4218 25.1507 30.2624 25.0477C30.1031 24.9448 29.8569 24.7241 29.8569 24.7241C29.8569 24.7241 29.3354 25.0918 29.1616 25.2683C28.9733 25.4448 25.9026 27.2979 25.6419 27.3274C25.3812 27.3568 24.8887 27.3862 24.5266 27.092C24.1645 26.7979 22.7016 25.2389 22.7016 25.2389L22.0643 25.5036C22.0643 25.5036 20.3696 23.7534 20.1958 23.7387C20.0364 23.724 18.2259 25.386 18.2259 25.386L17.2989 24.9742L14.7931 25.989C14.7931 25.989 14.6772 27.3274 14.0689 27.798C13.4605 28.2686 12.3597 29.3276 12.3597 29.3276L11.1575 30.8572C11.1575 30.8572 11.1865 31.4013 10.8968 31.7396C10.6071 32.0779 9.89734 31.9896 9.89734 31.9896L9.05725 31.2395C9.05725 31.2395 7.99988 30.9454 7.7971 30.7248C7.57984 30.5336 7.01494 28.9452 7.00046 28.7687C6.98597 28.5922 7.31912 28.3863 7.31912 28.3863C7.31912 28.3863 8.69514 29.357 8.99931 29.3717C9.30348 29.3717 9.81044 29.1511 9.81044 29.1511L10.0277 29.6511C10.0277 29.6511 11.1575 28.2833 12.0845 26.6949C13.0115 25.1065 12.9246 24.6947 12.9246 24.6947C12.9246 24.6947 13.4895 24.077 13.953 23.7093C14.4165 23.3416 16.5457 21.4885 16.5457 21.4885L16.9078 20.959L17.1685 20.8414V20.106C17.1685 20.106 16.6905 19.8854 16.6616 19.6795C16.6326 19.4736 17.0382 18.5323 16.9947 17.8852C16.9513 17.2233 16.8933 16.0909 17.183 14.7084C17.4727 13.3259 18.2404 11.9728 18.2259 11.8845C18.2114 11.7963 17.9797 11.5463 17.9797 11.5463C17.9797 11.5463 17.4437 11.5757 17.3858 11.3992C17.3279 11.2227 17.1251 10.5167 17.1251 10.5167L16.7774 10.3844L16.8499 9.94314L16.5022 9.76666L16.4298 8.97245C16.4298 8.97245 16.0677 8.92833 16.0677 8.76655C16.0677 8.60477 16.5457 7.6929 17.1251 7.32522C17.7044 6.95753 18.6315 7.00165 18.6315 7.00165L18.559 7.10461Z" fill="#145CF6"/>
<path d="M14.4917 32.9097C15.5545 32.8599 16.3761 31.9467 16.3269 30.8702C16.2777 29.7937 15.3762 28.9614 14.3135 29.0113C13.2507 29.0611 12.4291 29.9743 12.4783 31.0508C12.5275 32.1273 13.429 32.9596 14.4917 32.9097Z" fill="#145CF6"/>
</g>
</svg>
