<svg width="40" height="40" viewBox="0 0 40 40" fill="none" xmlns="http://www.w3.org/2000/svg">
<mask id="mask0_2183_69128" style="mask-type:alpha" maskUnits="userSpaceOnUse" x="0" y="0" width="40" height="40">
<circle cx="20" cy="20" r="20" fill="white"/>
</mask>
<g mask="url(#mask0_2183_69128)">
<circle cx="20" cy="20" r="20" fill="white"/>
<circle cx="20" cy="20" r="19.5" fill="#F5F8FF" stroke="#7FA7FA"/>
<path d="M35.9683 21.2912C35.6355 21.2912 35.2868 21.2912 34.9539 21.2912C34.9381 21.3227 34.9381 21.3542 34.9222 21.3858C35.1917 21.4961 35.4453 21.6222 35.7147 21.7326C34.7162 21.5119 33.6701 21.9218 32.7192 21.1808C32.1803 20.7709 31.2452 20.8813 30.5002 20.6921C28.9153 20.298 27.3621 19.8408 25.7771 19.4624C25.2699 19.3363 24.6677 19.2575 24.1922 19.4151C22.4487 19.9984 20.7053 20.2507 18.8985 19.9354C18.6449 19.8881 18.3754 19.9354 18.1377 19.9354C17.472 22.4578 17.6939 23.1357 19.8177 24.7437C19.4373 24.6964 19.2155 24.6807 18.8985 24.6334C19.1362 24.9171 19.3422 25.1694 19.5324 25.4059C19.5007 25.4532 19.4849 25.4847 19.4532 25.532C19.1679 25.3901 18.8985 25.2482 18.5498 25.0748C18.6132 25.327 18.6449 25.532 18.6924 25.7212C18.6449 25.7527 18.6132 25.7685 18.5656 25.8C18.4071 25.6266 18.2486 25.4532 18.0426 25.2324C17.9633 25.4532 17.9 25.6581 17.8207 25.863C17.5988 25.8473 17.4086 25.8158 17.1233 25.8C17.1233 25.4059 17.1233 25.0117 17.1233 24.7122C15.6969 24.7122 14.3338 24.6807 12.9866 24.728C12.5428 24.7437 12.1149 24.9487 11.6711 25.0748C11.8455 25.4847 12.004 25.9103 12.1783 26.3202C12.2576 26.4779 12.4002 26.604 12.5111 26.7459C11.2907 27.2819 10.5617 26.9666 10.1971 25.8315C10.0703 25.4059 9.84844 25.0117 9.6741 24.6018C9.32541 23.8294 9.579 23.3879 10.419 23.3091C10.7836 23.2776 11.1639 23.3249 11.5285 23.2776C12.0832 23.1987 12.6379 23.0726 13.1927 22.978C13.6999 22.8834 14.2229 22.8204 14.7459 22.7416C14.9203 21.7641 14.4765 20.1088 13.8108 19.3205C11.9089 19.9511 10.0069 20.566 8.08915 21.1966C7.02724 21.5592 6.56761 22.4736 6.07628 23.3722C5.77514 23.9082 5.42645 24.46 4.96682 24.8698C4.50718 25.2797 4.04755 25.0433 4 24.3969C4.01585 24.0343 4.0317 23.5613 4.23774 23.2776C4.87172 22.3947 5.14116 21.1651 6.42496 20.834C6.56761 20.8025 6.6627 20.566 6.80535 20.4556C7.42348 19.9669 7.97821 19.3363 8.69143 19.0683C10.1654 18.5008 11.2749 17.5549 12.1308 16.2779C12.9549 15.064 14.001 14.7014 15.4591 14.9063C17.5513 15.1901 19.6909 15.2532 21.894 15.4266C21.8465 14.4018 22.0367 13.7239 22.8133 13.2825C23.9544 12.6362 25.5077 13.1406 25.9515 14.3703C26.0307 14.591 25.9673 14.8906 25.8881 15.1113C25.682 15.6946 25.4284 16.2621 25.2224 16.7351C27.4096 18.8476 30.2467 19.3521 32.9569 20.1561C33.163 20.2192 33.4641 20.093 33.686 19.9984C34.0664 19.8566 34.4309 19.6674 34.8747 19.6358C34.7003 19.825 34.5419 20.0142 34.2724 20.3137C34.8905 20.4241 35.4453 20.5187 36 20.6133C36 20.6606 36 20.7079 35.9842 20.7709C35.6672 20.8025 35.366 20.8498 34.8905 20.897C35.3502 21.0389 35.6513 21.1178 35.9683 21.2124C35.9842 21.2281 35.9683 21.2596 35.9683 21.2912Z" fill="#145CF6"/>
</g>
</svg>
