<svg width="24" height="24" viewBox="0 0 24 24" fill="none" xmlns="http://www.w3.org/2000/svg">
<rect x="0.5" y="0.5" width="23" height="23" rx="3.5" fill="#FFF5F5"/>
<g clip-path="url(#clip0_141_2610)">
<path d="M8.66634 6.66659V5.33325H15.333V6.66659H18.6663V7.99992H17.333V17.9999C17.333 18.1767 17.2628 18.3463 17.1377 18.4713C17.0127 18.5963 16.8432 18.6666 16.6663 18.6666H7.33301C7.1562 18.6666 6.98663 18.5963 6.8616 18.4713C6.73658 18.3463 6.66634 18.1767 6.66634 17.9999V7.99992H5.33301V6.66659H8.66634ZM7.99967 7.99992V17.3333H15.9997V7.99992H7.99967ZM9.99967 9.99992H11.333V15.3333H9.99967V9.99992ZM12.6663 9.99992H13.9997V15.3333H12.6663V9.99992Z" fill="#FF3D3D"/>
</g>
<rect x="0.5" y="0.5" width="23" height="23" rx="3.5" stroke="#FF3D3D"/>
<defs>
<clipPath id="clip0_141_2610">
<rect width="16" height="16" fill="white" transform="translate(4 4)"/>
</clipPath>
</defs>
</svg>
