<?xml version="1.0" encoding="UTF-8"?>
<svg width="40px" height="40px" viewBox="0 0 40 40" version="1.1" xmlns="http://www.w3.org/2000/svg" xmlns:xlink="http://www.w3.org/1999/xlink">
    <!-- Generator: Sketch 59 (86127) - https://sketch.com -->
    <title>Deposits-icon</title>
    <desc>Created with Sketch.</desc>
    <g id="Design_30/06/2020" stroke="none" stroke-width="1" fill="none" fill-rule="evenodd">
        <g id="02_Dashboard" transform="translate(-39.000000, -172.000000)">
            <g id="Group-31" transform="translate(15.000000, 152.000000)">
                <g id="Group-23-Copy-2" transform="translate(24.000000, 20.000000)">
                    <g id="Deposits-icon">
                        <circle id="Oval" fill="#C9F8CE" cx="20" cy="20" r="20"></circle>
                        <path d="M13.1219909,22.7596534 C15.3974037,22.7623054 17.2413286,24.6054172 17.2439817,26.8798267 C17.2439817,29.1553356 15.3985036,31 13.1219909,31 C10.8454782,31 9,29.1553356 9,26.8798267 C9,24.6043178 10.8454782,22.7596534 13.1219909,22.7596534 Z M15.0763148,25.2611759 C14.9626113,25.1475226 14.7887815,25.1299176 14.6564599,25.2092438 L14.5942287,25.2569886 L12.0854749,27.7642924 L11.2945038,26.9781389 C11.1599377,26.8440118 10.9420709,26.8443196 10.8078847,26.9788264 C10.6928679,27.0941179 10.6766632,27.2705829 10.7591219,27.4031135 L10.8085725,27.4652309 L11.8430251,28.4930399 C11.9580656,28.6076706 12.1340458,28.6240464 12.2664976,28.5421673 L12.3286125,28.4930399 L15.0798162,25.7430494 C15.2108327,25.6081696 15.2089688,25.3937714 15.0763148,25.2611759 Z M29.2804977,13.1250617 C29.4466873,13.1250617 29.5853439,13.2428926 29.6174113,13.3995331 L29.6243982,13.4688105 L29.6243982,16.5625498 L25.1536922,16.5625498 C24.6218855,16.5625498 24.1840581,16.9647459 24.1280448,17.4814306 L24.1219909,17.5937962 L24.1219909,22.4062796 C24.1219909,22.9378519 24.5243644,23.3754862 25.041277,23.4314749 L25.1536922,23.4375261 L29.6243982,23.4375261 L29.6243982,26.8750142 C29.6243982,27.0411306 29.5065153,27.179726 29.3498057,27.2117793 L29.2804977,27.218763 L17.941068,27.218763 C17.9493216,27.1046384 17.9586069,26.9912013 17.9586069,26.8750142 C17.961947,25.1475939 17.0422933,23.5498402 15.5465821,22.6845005 C14.1188578,21.8584944 12.3736655,21.8198294 10.916078,22.5689085 L10.7098731,22.6812787 L10.7098731,13.4688105 C10.7098731,13.3026941 10.827756,13.1640987 10.9844656,13.1320454 L11.0537735,13.1250617 L29.2804977,13.1250617 Z M30.6560995,17.2500474 C30.8222891,17.2500474 30.9609457,17.3678783 30.9930132,17.5245189 L31,17.5937962 L31,22.4062796 C31,22.572396 30.8821171,22.7109914 30.7254075,22.7430447 L30.6560995,22.7500285 L25.1536922,22.7500285 C24.9875026,22.7500285 24.8488461,22.6321976 24.8167786,22.475557 L24.8097918,22.4062796 L24.8097918,17.5937962 C24.8097918,17.4276799 24.9276747,17.2890845 25.0843843,17.2570312 L25.1536922,17.2500474 L30.6560995,17.2500474 Z M27.9048959,18.9687915 C27.335103,18.9687915 26.8731945,19.4304963 26.8731945,20.0000379 C26.8731945,20.5695796 27.335103,21.0312844 27.9048959,21.0312844 C28.4746888,21.0312844 28.9365973,20.5695796 28.9365973,20.0000379 C28.9365973,19.4304963 28.4746888,18.9687915 27.9048959,18.9687915 Z M27.9048959,19.6562891 C28.0948269,19.6562891 28.2487963,19.8101907 28.2487963,20.0000379 C28.2487963,20.1898852 28.0948269,20.3437868 27.9048959,20.3437868 C27.7149649,20.3437868 27.5609954,20.1898852 27.5609954,20.0000379 C27.5609954,19.8101907 27.7149649,19.6562891 27.9048959,19.6562891 Z M27.1593197,9.00488836 C27.2592023,8.98787366 27.3615084,9.01575202 27.4389321,9.08108261 C27.4969999,9.13008055 27.5366266,9.19640513 27.5528108,9.2692317 L27.5609954,9.3438247 L27.5609954,12.437564 L11.0537735,12.437564 C10.9754922,12.438319 10.8976901,12.4480808 10.8218874,12.4665698 L10.7098731,12.5008138 L10.7098731,12.0938152 C10.7098731,11.9501658 10.7986559,11.8244436 10.9281066,11.7737241 L10.9959982,11.7548789 L27.1593197,9.00488836 Z" id="Shape" fill="#16AD28" fill-rule="nonzero"></path>
                    </g>
                </g>
            </g>
        </g>
    </g>
</svg>