<svg width="24" height="24" viewBox="0 0 24 24" fill="none" xmlns="http://www.w3.org/2000/svg">
<path fill-rule="evenodd" clip-rule="evenodd" d="M4.5168 3.2208C3.864 3.888 3.3216 3.3312 3.3216 3.3312L3.2304 4.0368L3.1632 4.0272L3.1296 3.6192L3.2064 3.5952L3.2304 3.528L3.0336 3.504L3 4.392C3.1632 4.6464 3.1968 4.3824 3.1968 4.3824L3.2976 4.4352C2.9232 8.3712 3.4608 10.0608 3.4608 10.0608C3.0768 11.0352 3.6816 11.3088 3.6816 11.3088L3.6576 11.9664L3.36 11.8032L3.3504 11.9664L3.504 12.0528L3.4608 12.1296C3.3072 11.9952 3.2544 12.0288 3.2544 12.0288C3.168 13.584 3.3216 14.2752 3.3216 14.2752L3.6624 14.328L3.5856 16.1904L3.3216 16.2C3.2112 16.3728 3.2016 17.0544 3.2016 17.0544C3.4464 19.008 3.1152 19.5984 3.1152 19.5984L3.6192 19.6752L3.6096 19.9152L3.72 19.968C3.7392 19.7904 3.9168 19.7472 3.9168 19.7472C4.0368 19.7904 3.9264 19.9776 3.9264 19.9776L4.0368 20.0016L4.08 19.7616H4.1472L4.1376 19.9056L4.248 19.9152C4.728 19.6992 4.7616 19.9392 4.7616 19.9392L4.8048 19.6656C4.872 19.8432 5.3856 19.8096 5.3856 19.8096C5.8368 19.7568 5.8896 19.9536 5.8896 19.9536L5.8656 19.68H5.9664C6.0096 19.8864 6.1536 19.8336 6.1536 19.8336C6.1776 19.5504 6.2976 19.6032 6.2976 19.6032C6.3888 19.704 6.3648 19.9344 6.3648 19.9344L6.4848 19.9872C6.528 19.776 6.7488 19.8096 6.7488 19.8096L6.936 19.68V19.8096H7.1328L7.1856 19.6656C7.2384 19.6992 7.272 19.92 7.272 19.92H7.3728L7.4496 19.8672L7.5024 19.944C7.512 19.8336 7.656 19.7568 7.656 19.7568L7.7856 19.9536L7.8864 19.92L7.8768 19.776C7.9776 19.7232 8.208 19.9632 8.208 19.9632L8.2608 19.896L8.1504 19.7664L8.304 19.6032C8.3184 19.7328 8.5248 19.9632 8.5248 19.9632C8.448 19.6224 8.6448 19.5696 8.6448 19.5696C8.7648 19.9536 9.0192 19.9632 9.0192 19.9632C9.0432 19.8096 9.096 19.8 9.096 19.8C9.4032 20.1264 10.0176 19.8432 10.0176 19.8432L10.4352 20.5248C10.5312 20.4 10.7952 20.424 10.7952 20.424L10.7424 20.2368C11.4912 19.9968 11.7312 20.424 11.7312 20.424L11.8752 20.2176L11.9616 20.208L11.9712 20.3712C12.2256 20.544 12.7824 20.3376 12.7824 20.3376L12.6528 20.2368C12.6 20.1024 14.2752 20.1264 14.2752 20.1264C14.2848 20.2032 14.208 20.256 14.208 20.256L13.7808 20.2896C14.1984 20.5632 14.5392 20.2224 14.5392 20.2224L14.5824 20.0352L14.4384 20.0688C14.5008 19.9056 14.6784 19.9584 14.6784 19.9584L14.6016 20.2224C14.7216 20.2656 14.808 20.1888 14.808 20.1888L14.8176 20.0016H14.8944L14.8512 20.1552C15.432 19.9776 15.8496 20.0544 15.8496 20.0544C15.9024 19.7952 16.1664 19.848 16.1664 19.848C16.5504 20.1456 17.0208 19.9488 17.0208 19.9488C17.9952 20.4336 18.5232 19.9392 18.5232 19.9392C18.7392 20.232 18.7296 19.9152 18.7296 19.9152L19.0128 19.9056L19.056 19.8192L18.3984 19.7664C18.936 19.2288 20.3376 20.04 20.3376 20.04L20.2704 12.9456C19.5264 13.0224 19.8096 12.768 19.8096 12.768C19.9536 12.888 20.0304 12.8016 20.0304 12.8016C19.9776 12.2976 20.1312 12.0144 20.1312 12.0144C19.9344 11.8704 20.1984 11.256 20.1984 11.256C19.8576 11.28 20.0208 10.5984 20.0208 10.5984C19.7376 10.5408 19.7808 10.344 19.7808 10.344C19.968 10.1568 19.704 10.2672 19.704 10.2672C19.4304 9.7872 19.9344 9.6336 19.9344 9.6336L19.7376 9.1296L20.2416 9.12C20.472 6.3792 20.1408 4.8096 20.1408 4.8096C20.4048 4.6656 20.208 3.7776 20.208 3.7776C19.6704 3.6672 19.7232 3.4368 19.7232 3.4368L19.2528 3.4272L19.0896 3.3264C19.08 3.7008 18.2256 3.2928 18.2256 3.2928C17.856 3.7104 17.7552 3.0288 17.7552 3.0288C17.832 3.0384 17.496 2.9376 17.6256 3.1584C17.7552 3.3792 17.592 3.3888 17.592 3.3888C14.5104 3.0624 14.2464 3.3024 14.2464 3.3024C14.4794 3.45418 14.3645 3.6371 14.2912 3.75383C14.2649 3.79584 14.2439 3.82927 14.2464 3.8496C13.6656 3.84 13.5216 3.96 13.5216 3.96C13.512 3.4704 12.888 3.1392 12.504 3.1728C12.12 3.2064 11.8896 3.0096 11.8896 3.0096C11.5296 3.3504 10.6944 3 10.6944 3C10.584 3.2736 10.4304 3.1536 10.4304 3.1536L10.0896 3.12L10.0368 3.36L9.9264 3.1296C9.8304 3.5568 9.7296 3.504 9.7296 3.504L9.45628 3.51254C9.45314 3.48286 9.4224 3.5136 9.4224 3.5136L9.45628 3.51254C9.4581 3.52978 9.45061 3.56738 9.4224 3.6432C9.3456 3.8496 9.1248 3.6432 9.1248 3.6432C9.1248 3.6432 8.3808 3.6912 8.0064 3.6672C7.632 3.648 7.4256 3.3504 7.4256 3.3504L7.2816 3.5472L6.9312 3.504L6.9072 3.3936L6.72 3.504L5.9328 3.48L5.856 3.5568L5.736 3.4272L5.5392 3.4176L5.4528 3.5184L5.3328 3.3552L5.2656 3.3456L5.1984 3.5232L5.088 3.4368L4.6176 3.4128L4.5168 3.2208ZM9.2544 11.0257L5.0448 6.53289C6.2736 5.73609 6.864 6.36969 6.864 6.36969L8.16 7.28169L8.0928 7.35849L8.376 7.64169L8.4432 7.60809L8.3136 7.44489L8.5824 7.58889L8.5152 7.69929L8.568 7.75209L8.6688 7.67529L8.7696 7.77609L8.9472 7.78569C8.928 8.07369 9.3648 8.04969 9.3648 8.04969L16.3248 12.7873L16.2384 12.8881L16.4256 13.0417L16.3152 13.0321L15.9984 12.9025L15.9888 13.0465L16.8336 13.1233L18.2832 14.0977C18.1968 16.0849 17.1552 17.4097 17.1552 17.4097C14.9664 17.5537 14.5584 16.5889 14.5584 16.5889L12.8064 14.7121L12.8832 14.6113L12.696 14.4337L12.7056 14.5777C12.5184 14.2033 12.2976 14.0833 12.2976 14.0833L12.3504 14.2609C12.096 14.0497 12.1728 13.8097 12.1728 13.8097L11.8416 13.3825C11.5776 13.2385 11.7648 13.4593 11.7648 13.4593L12.0192 13.7425L11.952 13.8433C11.952 13.8433 11.5152 13.4689 11.2416 12.9553C10.968 12.4369 11.1744 13.0081 11.1744 13.0081L9.4752 11.1649L9.6048 11.2657C9.6048 11.2657 9.7728 11.4865 9.672 11.2321C9.5712 10.9825 9.2544 11.0257 9.2544 11.0257ZM9.80155 16.8575L6.37915 13.5503C6.37915 13.5503 5.49115 15.4607 5.32795 15.9647C5.16475 16.4639 5.37115 16.5407 5.37115 16.5407L6.82075 17.6159L6.83515 17.4719L6.91195 17.4815L7.01275 17.4143L7.02235 17.5727L7.06075 17.4911C7.11355 17.4047 7.15195 17.4911 7.15195 17.4911C7.11344 17.5956 7.07632 17.6371 7.04517 17.6484C7.02011 17.6406 6.99183 17.6271 6.95995 17.6063C6.95995 17.6063 6.99477 17.6668 7.04517 17.6484C7.19361 17.695 7.22875 17.5439 7.22875 17.5439L7.37755 17.6351L9.80155 16.8575ZM16.6992 9.30245L17.0496 7.05125L16.9488 7.05605L16.9584 7.14245C16.9584 7.14245 16.9152 7.33445 16.872 7.16645C16.8288 6.99845 16.9248 6.94565 16.9248 6.94565L17.04 6.97925L17.0448 6.90725L16.2816 6.35045C16.2816 6.35045 16.0128 6.14885 15.48 6.31685C14.9472 6.48485 13.296 6.90245 13.296 6.90245L16.176 9.11045L16.2144 9.03365L16.0752 8.96645C16.0752 8.96645 15.984 8.85125 16.1568 8.85605C16.3344 8.86085 16.2864 9.19205 16.2864 9.19205H16.4496L16.5408 9.31205L16.6992 9.30245Z" fill="white"/>
</svg>
