<svg width="24" height="24" viewBox="0 0 24 24" fill="none" xmlns="http://www.w3.org/2000/svg">
<rect x="0.5" y="0.5" width="23" height="23" rx="3.5" fill="#F1F4FF"/>
<g clip-path="url(#clip0_141_2606)">
<path d="M14.4853 10.4574L13.5427 9.51472L7.33333 15.7241V16.6667H8.276L14.4853 10.4574ZM15.428 9.51472L16.3707 8.57206L15.428 7.62939L14.4853 8.57206L15.428 9.51472ZM8.828 18.0001H6V15.1714L14.9567 6.21472C15.0817 6.08974 15.2512 6.01953 15.428 6.01953C15.6048 6.01953 15.7743 6.08974 15.8993 6.21472L17.7853 8.10072C17.9103 8.22574 17.9805 8.39528 17.9805 8.57206C17.9805 8.74883 17.9103 8.91837 17.7853 9.04339L8.82867 18.0001H8.828Z" fill="#2C9AFF"/>
</g>
<rect x="0.5" y="0.5" width="23" height="23" rx="3.5" stroke="#2C9AFF"/>
<defs>
<clipPath id="clip0_141_2606">
<rect width="16" height="16" fill="white" transform="translate(4 4)"/>
</clipPath>
</defs>
</svg>
