<svg width="278" height="131" viewBox="0 0 278 131" fill="none" xmlns="http://www.w3.org/2000/svg">
<g clip-path="url(#clip0_1332_40444)">
<path d="M162.076 1.54688L210.84 19.3319L231.517 63.7646L206.373 132.989L125.1 103.347L162.076 1.54688Z" fill="white"/>
<path fill-rule="evenodd" clip-rule="evenodd" d="M127.08 102.422L205.45 131.005L229.847 63.8377L209.711 20.567L162.999 3.53048L127.08 102.422ZM210.84 19.3319L162.076 1.54688L125.1 103.347L206.373 132.989L231.517 63.7646L210.84 19.3319Z" fill="#CEDDFD"/>
<path d="M231.517 63.7656L199.008 51.9089L210.841 19.3329L231.517 63.7656Z" fill="#CEDDFD"/>
<path fill-rule="evenodd" clip-rule="evenodd" d="M214.516 85.2307L149.497 61.5173L150.976 57.4453L215.995 81.1587L214.516 85.2307Z" fill="#CEDDFD"/>
<path fill-rule="evenodd" clip-rule="evenodd" d="M182.013 48.0173L157.631 39.1247L159.11 35.0527L183.492 43.9453L182.013 48.0173Z" fill="#CEDDFD"/>
<path fill-rule="evenodd" clip-rule="evenodd" d="M187.929 31.7282L163.547 22.8357L165.026 18.7637L189.408 27.6562L187.929 31.7282Z" fill="#CEDDFD"/>
<path fill-rule="evenodd" clip-rule="evenodd" d="M208.599 101.524L143.58 77.8103L145.059 73.7383L210.078 97.4517L208.599 101.524Z" fill="#CEDDFD"/>
<path fill-rule="evenodd" clip-rule="evenodd" d="M202.683 117.809L137.664 94.0954L139.143 90.0234L204.162 113.737L202.683 117.809Z" fill="#CEDDFD"/>
<path d="M33.9785 63.4512L78.9195 37.4512L126.178 50.1401L162.936 113.937L88.0341 157.271L33.9785 63.4512Z" fill="white"/>
<path fill-rule="evenodd" clip-rule="evenodd" d="M88.5994 155.157L160.826 113.371L125.16 51.469L79.1377 39.112L36.0883 64.0176L88.5994 155.157ZM78.9195 37.4512L33.9785 63.4512L88.0341 157.271L162.936 113.937L126.178 50.1401L78.9195 37.4512Z" fill="#CEDDFD"/>
<path d="M126.177 50.1387L96.2164 67.472L78.9186 37.4498L126.177 50.1387Z" fill="#CEDDFD"/>
<path fill-rule="evenodd" clip-rule="evenodd" d="M131.66 76.9885L71.7384 111.655L69.5762 107.902L129.497 73.2357L131.66 76.9885Z" fill="#CEDDFD"/>
<path fill-rule="evenodd" clip-rule="evenodd" d="M82.318 78.0164L59.8475 91.0164L57.6853 87.2637L80.1558 74.2637L82.318 78.0164Z" fill="#CEDDFD"/>
<path fill-rule="evenodd" clip-rule="evenodd" d="M73.6688 63.0067L51.1984 76.0067L49.0361 72.2539L71.5066 59.2539L73.6688 63.0067Z" fill="#CEDDFD"/>
<path fill-rule="evenodd" clip-rule="evenodd" d="M140.31 92.0021L80.389 126.669L78.2268 122.916L138.148 88.2493L140.31 92.0021Z" fill="#CEDDFD"/>
<path fill-rule="evenodd" clip-rule="evenodd" d="M148.958 107.014L89.0372 141.681L86.875 137.928L146.796 103.261L148.958 107.014Z" fill="#CEDDFD"/>
<path fill-rule="evenodd" clip-rule="evenodd" d="M215.039 65.2967C225.293 75.5713 225.293 92.2295 215.039 102.504C204.786 112.779 188.162 112.779 177.908 102.504C167.655 92.2295 167.655 75.5713 177.908 65.2967C188.162 55.0222 204.786 55.0222 215.039 65.2967ZM212.855 100.315C221.902 91.2496 221.902 76.5512 212.855 67.4854C203.808 58.4197 189.14 58.4197 180.093 67.4854C171.046 76.5512 171.046 91.2496 180.093 100.315C189.14 109.381 203.808 109.381 212.855 100.315Z" fill="#AFB5C5"/>
<path opacity="0.5" d="M212.855 67.4854C221.902 76.5512 221.902 91.2496 212.855 100.315C203.808 109.381 189.14 109.381 180.092 100.315C171.045 91.2496 171.045 76.5512 180.092 67.4854C189.14 58.4197 203.808 58.4197 212.855 67.4854Z" fill="#F5F8FF"/>
<path d="M211.49 101.685L215.586 97.5811L238.793 118.1L231.967 124.939L211.49 101.685Z" fill="#AFB5C5"/>
</g>
<path fill-rule="evenodd" clip-rule="evenodd" d="M278 130.5H0V128.5H278V130.5Z" fill="#CEDDFD"/>
<path fill-rule="evenodd" clip-rule="evenodd" d="M69.4998 4.64211C68.6539 4.64211 67.9553 5.34208 67.9553 6.18973C67.9553 7.03739 68.6539 7.73735 69.4998 7.73735C70.3457 7.73735 71.0442 7.03739 71.0442 6.18973C71.0442 5.34208 70.3457 4.64211 69.4998 4.64211ZM64.8665 6.18973C64.8665 3.63262 66.9479 1.54688 69.4998 1.54688C72.0517 1.54688 74.1331 3.63262 74.1331 6.18973C74.1331 8.74684 72.0517 10.8326 69.4998 10.8326C66.9479 10.8326 64.8665 8.74684 64.8665 6.18973Z" fill="#CEDDFD"/>
<path fill-rule="evenodd" clip-rule="evenodd" d="M239.389 3.09524C238.543 3.09524 237.844 3.7952 237.844 4.64286C237.844 5.49051 238.543 6.19048 239.389 6.19048C240.235 6.19048 240.933 5.49051 240.933 4.64286C240.933 3.7952 240.235 3.09524 239.389 3.09524ZM234.755 4.64286C234.755 2.08575 236.837 0 239.389 0C241.941 0 244.022 2.08575 244.022 4.64286C244.022 7.19996 241.941 9.28571 239.389 9.28571C236.837 9.28571 234.755 7.19996 234.755 4.64286Z" fill="#CEDDFD"/>
<path fill-rule="evenodd" clip-rule="evenodd" d="M129.579 24.4533V6.19141H132.668V24.4533H129.579Z" fill="#CEDDFD"/>
<path fill-rule="evenodd" clip-rule="evenodd" d="M122.011 13.7754H140.235V16.8706H122.011V13.7754Z" fill="#CEDDFD"/>
<path fill-rule="evenodd" clip-rule="evenodd" d="M124.796 19.3178L135.299 9.10352L137.45 11.3246L126.948 21.5389L124.796 19.3178Z" fill="#CEDDFD"/>
<path fill-rule="evenodd" clip-rule="evenodd" d="M127.135 8.98242L137.328 19.5062L135.112 21.662L124.918 11.1382L127.135 8.98242Z" fill="#CEDDFD"/>
<path fill-rule="evenodd" clip-rule="evenodd" d="M23.0122 117.309V99.0469H26.1011V117.309H23.0122Z" fill="#CEDDFD"/>
<path fill-rule="evenodd" clip-rule="evenodd" d="M15.4443 106.631H33.6688V109.726H15.4443V106.631Z" fill="#CEDDFD"/>
<path fill-rule="evenodd" clip-rule="evenodd" d="M18.2297 112.173L28.732 101.959L30.8833 104.18L20.3811 114.394L18.2297 112.173Z" fill="#CEDDFD"/>
<path fill-rule="evenodd" clip-rule="evenodd" d="M20.5681 101.838L30.7614 112.362L28.5449 114.517L18.3516 103.994L20.5681 101.838Z" fill="#CEDDFD"/>
<path fill-rule="evenodd" clip-rule="evenodd" d="M257.768 101.834V83.5723H260.857V101.834H257.768Z" fill="#CEDDFD"/>
<path fill-rule="evenodd" clip-rule="evenodd" d="M250.2 91.1562H268.424V94.2515H250.2V91.1562Z" fill="#CEDDFD"/>
<path fill-rule="evenodd" clip-rule="evenodd" d="M23.0122 27.5471V9.28516H26.1011V27.5471H23.0122Z" fill="#CEDDFD"/>
<path fill-rule="evenodd" clip-rule="evenodd" d="M15.4443 16.8691H33.6688V19.9644H15.4443V16.8691Z" fill="#CEDDFD"/>
<defs>
<clipPath id="clip0_1332_40444">
<rect width="210.044" height="130" fill="white" transform="translate(33.9778)"/>
</clipPath>
</defs>
</svg>
