<svg width="20" height="20" viewBox="0 0 20 20" fill="none" xmlns="http://www.w3.org/2000/svg">
<rect width="20" height="20" fill="#FF3D3D"/>
<path d="M15.2459 5.92949C15.5704 5.60503 15.5704 5.07896 15.2459 4.75449C14.9214 4.43002 14.3954 4.43002 14.0709 4.75449L10.0001 8.82533L5.92925 4.75449C5.60478 4.43003 5.07872 4.43002 4.75425 4.75449C4.42978 5.07896 4.42978 5.60502 4.75425 5.92949L8.82508 10.0003L4.75425 14.0712C4.42978 14.3956 4.42978 14.9217 4.75425 15.2462C5.07872 15.5706 5.60478 15.5706 5.92925 15.2462L10.0001 11.1753L14.0709 15.2462C14.3954 15.5706 14.9214 15.5706 15.2459 15.2462C15.5704 14.9217 15.5704 14.3956 15.2459 14.0712L11.1751 10.0003L15.2459 5.92949Z" fill="white"/>
</svg>
