<?xml version="1.0" encoding="UTF-8"?>
<svg width="20px" height="20px" viewBox="0 0 20 20" version="1.1" xmlns="http://www.w3.org/2000/svg" xmlns:xlink="http://www.w3.org/1999/xlink">
    <!-- Generator: Sketch 59 (86127) - https://sketch.com -->
    <title>excel-icon</title>
    <desc>Created with Sketch.</desc>
    <g id="excel-icon" stroke="none" stroke-width="1" fill="none" fill-rule="evenodd">
        <path d="M10.459,2.01088298 C10.621,1.97713298 10.793125,2.02325798 10.921375,2.13013298 C11.05075,2.23700798 11.125,2.39563298 11.125,2.56325798 L11.125,2.56325798 L11.125,4.25075798 L18.4375,4.25075798 C18.748,4.25075798 19,4.50275798 19,4.81325798 L19,4.81325798 L19,16.063258 C19,16.373758 18.748,16.625758 18.4375,16.625758 L18.4375,16.625758 L11.125,16.625758 L11.125,18.313258 C11.125,18.479758 11.05075,18.639508 10.921375,18.746383 C10.820125,18.830758 10.693,18.875758 10.5625,18.875758 C10.527625,18.875758 10.49275,18.872383 10.459,18.865633 L10.459,18.865633 L1.459,17.178133 C1.192375,17.128633 1,16.895758 1,16.625758 L1,16.625758 L1,4.25075798 C1,3.97963298 1.192375,3.74788298 1.459,3.69838298 L1.459,3.69838298 Z M17.875,5.37575798 L11.125,5.37575798 L11.125,6.50075798 L12.8125,6.50075798 C13.123,6.50075798 13.375,6.75275798 13.375,7.06325798 C13.375,7.37375798 13.123,7.62575798 12.8125,7.62575798 L12.8125,7.62575798 L11.125,7.62575798 L11.125,8.75075798 L12.8125,8.75075798 C13.123,8.75075798 13.375,9.00275798 13.375,9.31325798 C13.375,9.62375798 13.123,9.87575798 12.8125,9.87575798 L12.8125,9.87575798 L11.125,9.87575798 L11.125,11.000758 L12.8125,11.000758 C13.123,11.000758 13.375,11.252758 13.375,11.563258 C13.375,11.873758 13.123,12.125758 12.8125,12.125758 L12.8125,12.125758 L11.125,12.125758 L11.125,13.250758 L12.8125,13.250758 C13.123,13.250758 13.375,13.502758 13.375,13.813258 C13.375,14.123758 13.123,14.375758 12.8125,14.375758 L12.8125,14.375758 L11.125,14.375758 L11.125,15.500758 L17.875,15.500758 L17.875,5.37575798 Z M16.1875,13.250758 C16.498,13.250758 16.75,13.502758 16.75,13.813258 C16.75,14.123758 16.498,14.375758 16.1875,14.375758 L16.1875,14.375758 L15.0625,14.375758 C14.752,14.375758 14.5,14.123758 14.5,13.813258 C14.5,13.502758 14.752,13.250758 15.0625,13.250758 L15.0625,13.250758 Z M8.659,7.18250798 C8.41375,6.99125798 8.0605,7.03625798 7.86925,7.28038298 L7.86925,7.28038298 L6.203125,9.42238298 L4.799125,7.81813298 C4.592125,7.58300798 4.23775,7.56050798 4.004875,7.76525798 C3.770875,7.97000798 3.74725,8.32550798 3.952,8.55838298 L3.952,8.55838298 L5.498875,10.326883 L3.930625,12.342883 C3.7405,12.588133 3.784375,12.941383 4.029625,13.132633 C4.133125,13.212508 4.254625,13.250758 4.375,13.250758 C4.5415,13.250758 4.708,13.176508 4.819375,13.034758 L4.819375,13.034758 L6.25375,11.189758 L7.8895,13.058383 C8.000875,13.185508 8.156125,13.250758 8.3125,13.250758 C8.444125,13.250758 8.57575,13.204633 8.682625,13.111258 C8.916625,12.906508 8.94025,12.551008 8.7355,12.318133 L8.7355,12.318133 L6.956875,10.285258 L8.756875,7.97225798 C8.948125,7.72588298 8.90425,7.37263298 8.659,7.18250798 Z M16.1875,11.000758 C16.498,11.000758 16.75,11.252758 16.75,11.563258 C16.75,11.873758 16.498,12.125758 16.1875,12.125758 L16.1875,12.125758 L15.0625,12.125758 C14.752,12.125758 14.5,11.873758 14.5,11.563258 C14.5,11.252758 14.752,11.000758 15.0625,11.000758 L15.0625,11.000758 Z M16.1875,8.75075798 C16.498,8.75075798 16.75,9.00275798 16.75,9.31325798 C16.75,9.62375798 16.498,9.87575798 16.1875,9.87575798 L16.1875,9.87575798 L15.0625,9.87575798 C14.752,9.87575798 14.5,9.62375798 14.5,9.31325798 C14.5,9.00275798 14.752,8.75075798 15.0625,8.75075798 L15.0625,8.75075798 Z M16.1875,6.50075798 C16.498,6.50075798 16.75,6.75275798 16.75,7.06325798 C16.75,7.37375798 16.498,7.62575798 16.1875,7.62575798 L16.1875,7.62575798 L15.0625,7.62575798 C14.752,7.62575798 14.5,7.37375798 14.5,7.06325798 C14.5,6.75275798 14.752,6.50075798 15.0625,6.50075798 L15.0625,6.50075798 Z" id="Combined-Shape" fill="#16AD28" fill-rule="nonzero"></path>
    </g>
</svg>