<svg width="40" height="48" viewBox="0 0 40 48" fill="none" xmlns="http://www.w3.org/2000/svg">
<path fill-rule="evenodd" clip-rule="evenodd" d="M37.3502 40.0282L30.0249 40.9726L31.6308 39.163C33.5463 39.3737 35.4604 39.5951 37.3502 40.0282Z" fill="#FD0000"/>
<path fill-rule="evenodd" clip-rule="evenodd" d="M2.54945 40.0281L9.56274 40.7828L8.18968 39.163C6.74348 39.362 3.9884 39.7717 2.54945 40.0281Z" fill="#FD0000"/>
<path fill-rule="evenodd" clip-rule="evenodd" d="M19.9023 1.67483C32.7292 1.38098 37.5791 4.75658 37.5791 4.75658C43.3404 43.2635 19.9023 46.615 19.9023 46.615C19.9023 46.615 -3.53654 43.2635 2.22472 4.75658C2.22472 4.75658 7.07473 1.38098 19.9023 1.67483Z" fill="#8BB1BB"/>
<path fill-rule="evenodd" clip-rule="evenodd" d="M19.9038 2.64714C32.1758 2.366 36.8159 5.59557 36.8159 5.59557C42.328 42.4368 19.9038 45.6433 19.9038 45.6433C19.9038 45.6433 -2.52112 42.4368 2.99092 5.59557C2.99092 5.59557 7.63113 2.366 19.9038 2.64714Z" fill="#EDEDED"/>
<path fill-rule="evenodd" clip-rule="evenodd" d="M19.9018 3.56041C31.652 3.29122 36.0949 6.38349 36.0949 6.38349C41.3726 41.6584 19.9018 44.7286 19.9018 44.7286C19.9018 44.7286 -1.56982 41.6584 3.70788 6.38349C3.70788 6.38349 8.15081 3.29122 19.9018 3.56041Z" fill="#042365"/>
<path fill-rule="evenodd" clip-rule="evenodd" d="M31.5973 13.7546H27.7912C27.6433 13.7546 27.5239 13.6346 27.5239 13.486C27.5239 13.3379 27.6433 13.2173 27.7912 13.2173H31.8892C31.9624 13.2173 32.0327 13.2475 32.0829 13.3008C32.1337 13.3547 32.16 13.4265 32.1561 13.5C32.1561 13.5 32.0277 15.9584 30.8086 18.0865C29.9803 19.5331 28.6547 20.826 26.5476 21.1312C26.4014 21.1525 26.2658 21.0504 26.2445 20.9034C26.2233 20.7565 26.3249 20.6202 26.4712 20.5989C28.8774 20.2505 30.1545 18.4769 30.8388 16.8004C31.3612 15.5209 31.5404 14.292 31.5973 13.7546Z" fill="white"/>
<path fill-rule="evenodd" clip-rule="evenodd" d="M7.94496 13.7546C8.00189 14.292 8.18105 15.5209 8.70349 16.8004C9.3878 18.4769 10.6649 20.2505 13.0711 20.5989C13.2174 20.6202 13.3189 20.7565 13.2977 20.9034C13.2765 21.0504 13.1409 21.1525 12.9946 21.1312C10.8876 20.826 9.56195 19.5331 8.73363 18.0865C7.5146 15.9584 7.38622 13.5 7.38622 13.5C7.38231 13.4265 7.40855 13.3547 7.45934 13.3008C7.50958 13.2475 7.57992 13.2173 7.65304 13.2173H11.7511C11.899 13.2173 12.0184 13.3379 12.0184 13.486C12.0184 13.6346 11.899 13.7546 11.7511 13.7546H7.94496Z" fill="white"/>
<path fill-rule="evenodd" clip-rule="evenodd" d="M19.7146 29.5253L21.5767 29.4013C21.6249 30.0155 20.9774 32.597 22.0732 34.2221C23.1689 35.8471 24.4807 36.2377 24.4807 36.2377C25.9085 36.6341 25.8239 37.3368 25.8239 37.3368C25.9407 38.5868 20.3474 38.4742 19.7146 38.4575C19.0825 38.4742 13.4892 38.5868 13.6053 37.3368C13.6053 37.3368 13.5214 36.6341 14.9492 36.2377C14.9492 36.2377 16.2603 35.8471 17.356 34.2221C18.4525 32.597 17.8043 30.0155 17.8532 29.4013L19.7146 29.5253Z" fill="white"/>
<path fill-rule="evenodd" clip-rule="evenodd" d="M14.0984 11.1375L11.2447 11.7072H28.0791C28.0791 11.7072 25.9164 11.2263 25.5653 11.1482C25.5332 11.1411 25.501 11.1375 25.4681 11.1375C24.6584 11.1375 14.0984 11.1375 14.0984 11.1375Z" fill="#8BB1BB"/>
<path fill-rule="evenodd" clip-rule="evenodd" d="M22.1871 28.8702C22.1871 28.5065 21.8937 28.2112 21.5313 28.2112H18.0101C17.6477 28.2112 17.3543 28.5065 17.3543 28.8702C17.3543 29.234 17.6477 29.5292 18.0101 29.5292H21.5313C21.8937 29.5292 22.1871 29.234 22.1871 28.8702Z" fill="#FD0000"/>
<path d="M21.5307 28.2128L19.7131 28.2128V29.5269L21.5307 29.5269C21.8936 29.5269 22.1877 29.2327 22.1877 28.8699C22.1877 28.507 21.8936 28.2128 21.5307 28.2128Z" fill="#C3001D"/>
<path fill-rule="evenodd" clip-rule="evenodd" d="M18.9074 28.211C18.9074 28.211 10.8206 24.9319 11.2485 11.7074H28.0661C28.4941 24.9319 20.4073 28.211 20.4073 28.211H18.9074Z" fill="#8BB1BB"/>
<path fill-rule="evenodd" clip-rule="evenodd" d="M17.831 28.211C17.831 28.211 9.74422 24.9319 10.1722 11.7074H27.4618C27.8897 24.9319 19.3309 28.211 19.3309 28.211H17.831Z" fill="white"/>
<path d="M26.267 13.313C27.2632 13.313 28.0708 12.5014 28.0708 11.5003C28.0708 10.4992 27.2632 9.68757 26.267 9.68757C25.2707 9.68757 24.4631 10.4992 24.4631 11.5003C24.4631 12.5014 25.2707 13.313 26.267 13.313Z" fill="white" stroke="white" stroke-width="0.000271473" stroke-miterlimit="1.5" stroke-linecap="round" stroke-linejoin="round"/>
<path d="M13.0551 13.3316C14.0514 13.3316 14.859 12.52 14.859 11.5189C14.859 10.5178 14.0514 9.7062 13.0551 9.7062C12.0589 9.7062 11.2513 10.5178 11.2513 11.5189C11.2513 12.52 12.0589 13.3316 13.0551 13.3316Z" fill="white" stroke="white" stroke-width="0.000271473" stroke-miterlimit="1.5" stroke-linecap="round" stroke-linejoin="round"/>
<path d="M17.2055 12.9487C18.2017 12.9487 19.0093 12.1371 19.0093 11.136C19.0093 10.1349 18.2017 9.32327 17.2055 9.32327C16.2093 9.32327 15.4017 10.1349 15.4017 11.136C15.4017 12.1371 16.2093 12.9487 17.2055 12.9487Z" fill="white" stroke="white" stroke-width="0.000271473" stroke-miterlimit="1.5" stroke-linecap="round" stroke-linejoin="round"/>
<path d="M21.7039 12.9487C22.7001 12.9487 23.5077 12.1371 23.5077 11.136C23.5077 10.1349 22.7001 9.32327 21.7039 9.32327C20.7076 9.32327 19.9 10.1349 19.9 11.136C19.9 12.1371 20.7076 12.9487 21.7039 12.9487Z" fill="white" stroke="white" stroke-width="0.000271473" stroke-miterlimit="1.5" stroke-linecap="round" stroke-linejoin="round"/>
<path d="M17.2038 12.4243C17.9534 12.4243 18.561 11.8117 18.561 11.056C18.561 10.3004 17.9534 9.68776 17.2038 9.68776C16.4543 9.68776 15.8467 10.3004 15.8467 11.056C15.8467 11.8117 16.4543 12.4243 17.2038 12.4243Z" fill="#8BB1BB"/>
<path fill-rule="evenodd" clip-rule="evenodd" d="M16.1913 10.1775C16.1913 10.1775 16.8772 10.2933 17.2027 10.8225C17.4201 11.1762 17.4745 11.7138 17.0604 12.5239L17.05 12.5441L17.0905 12.5649L17.1008 12.5447C17.5257 11.7136 17.4645 11.1615 17.2412 10.7986C16.9056 10.2527 16.1988 10.1326 16.1988 10.1326L16.1764 10.1288L16.1688 10.1738L16.1913 10.1775Z" fill="white"/>
<path fill-rule="evenodd" clip-rule="evenodd" d="M16.6812 9.70981C16.6812 9.70981 17.0721 9.7599 17.3946 10.1532C17.7209 10.5512 17.975 11.2976 17.6954 12.69L17.691 12.7123L17.7356 12.7214L17.74 12.699C18.0237 11.2854 17.761 10.5283 17.4296 10.1242C17.0943 9.71518 16.6867 9.6646 16.6867 9.6646L16.6642 9.66168L16.6586 9.70701L16.6812 9.70981Z" fill="white"/>
<path fill-rule="evenodd" clip-rule="evenodd" d="M18.1455 9.91259C18.1455 9.91259 18.0117 10.3428 18.0737 10.7888C18.1155 11.0892 18.2457 11.3963 18.562 11.5869L18.5815 11.5986L18.6048 11.5595L18.5854 11.5478C18.2823 11.3651 18.1587 11.0703 18.1187 10.7826C18.0581 10.3466 18.1888 9.92612 18.1888 9.92612L18.1955 9.90443L18.1523 9.89078L18.1455 9.91259Z" fill="white"/>
<path fill-rule="evenodd" clip-rule="evenodd" d="M15.9407 11.5825C15.9407 11.5825 16.8488 10.5873 18.5566 10.7658L18.5792 10.7682L18.5839 10.7227L18.5613 10.7204C16.8281 10.5393 15.9072 11.5517 15.9072 11.5517L15.8919 11.5685L15.9254 11.5993L15.9407 11.5825Z" fill="white"/>
<path fill-rule="evenodd" clip-rule="evenodd" d="M17.2061 9.65844C16.4414 9.65844 15.8206 10.2842 15.8206 11.0552C15.8206 11.8261 16.4414 12.4519 17.2061 12.4519C17.9708 12.4519 18.5917 11.8261 18.5917 11.0552C18.5917 10.2842 17.9708 9.65844 17.2061 9.65844ZM17.2061 9.71535C17.9396 9.71535 18.5349 10.3158 18.5349 11.0552C18.5349 11.7945 17.9396 12.395 17.2061 12.395C16.4728 12.395 15.8773 11.7945 15.8773 11.0552C15.8773 10.3158 16.4728 9.71535 17.2061 9.71535Z" fill="#E6E6E7"/>
<path fill-rule="evenodd" clip-rule="evenodd" d="M12.0247 13.4893L15.5312 13.7197C15.5312 13.7197 13.9106 18.1175 15.9702 20.4818C15.9702 20.4818 12.2689 20.7524 12.0247 13.4893Z" fill="#E2E2E2"/>
<path fill-rule="evenodd" clip-rule="evenodd" d="M25.5199 17.6691L21.927 17.9051C21.927 17.9051 23.5876 22.4112 21.4772 24.8337C21.4772 24.8337 25.2697 25.111 25.5199 17.6691Z" fill="#E2E2E2"/>
<path d="M21.7036 12.4061C22.4506 12.4061 23.0562 11.7975 23.0562 11.0468C23.0562 10.2961 22.4506 9.68756 21.7036 9.68756C20.9566 9.68756 20.351 10.2961 20.351 11.0468C20.351 11.7975 20.9566 12.4061 21.7036 12.4061Z" fill="#8BB1BB"/>
<path fill-rule="evenodd" clip-rule="evenodd" d="M21.4062 10.4233L21.8235 10.8772L21.5226 11.4163L20.9198 11.2955L20.8476 10.6817L21.4062 10.4233Z" fill="white"/>
<path fill-rule="evenodd" clip-rule="evenodd" d="M22.3736 10.8727L22.6234 10.3081L23.2352 10.3725L23.3632 10.9767L22.8308 11.2861L22.3736 10.8727Z" fill="white"/>
<path fill-rule="evenodd" clip-rule="evenodd" d="M21.6004 12.4166L21.8502 11.8519L22.462 11.9163L22.5901 12.5205L22.0576 12.8299L21.6004 12.4166Z" fill="white"/>
<path fill-rule="evenodd" clip-rule="evenodd" d="M19.9121 12.1114L20.1619 11.5467L20.7737 11.6111L20.9017 12.2153L20.3693 12.5247L19.9121 12.1114Z" fill="white"/>
<path fill-rule="evenodd" clip-rule="evenodd" d="M21.2977 9.37617L21.7702 8.9807L22.2906 9.31033L22.1396 9.90913L21.5259 9.95005L21.2977 9.37617Z" fill="white"/>
<path fill-rule="evenodd" clip-rule="evenodd" d="M21.4324 10.4879L21.5969 9.90274L21.5464 9.88838L21.3819 10.4736L21.4324 10.4879Z" fill="white"/>
<path fill-rule="evenodd" clip-rule="evenodd" d="M22.6706 10.336L22.1325 9.84623L22.0972 9.8855L22.6353 10.3753L22.6706 10.336Z" fill="white"/>
<path fill-rule="evenodd" clip-rule="evenodd" d="M22.5086 10.8365L21.765 10.8671L21.7671 10.9197L22.5105 10.8892L22.5086 10.8365Z" fill="white"/>
<path fill-rule="evenodd" clip-rule="evenodd" d="M22.8293 11.1874L22.3847 11.9133L22.4629 11.9556L22.9074 11.2297L22.8293 11.1874Z" fill="white"/>
<path fill-rule="evenodd" clip-rule="evenodd" d="M21.4392 11.2783L21.8646 11.9459L21.9086 11.9175L21.4833 11.2499L21.4392 11.2783Z" fill="white"/>
<path fill-rule="evenodd" clip-rule="evenodd" d="M21.0463 11.0481L20.6748 11.7421L20.7209 11.767L21.0925 11.073L21.0463 11.0481Z" fill="white"/>
<path fill-rule="evenodd" clip-rule="evenodd" d="M20.2939 10.3145L20.9435 10.7561L20.9728 10.7125L20.3233 10.2709L20.2939 10.3145Z" fill="white"/>
<path fill-rule="evenodd" clip-rule="evenodd" d="M21.7054 9.65923C20.9433 9.65923 20.3246 10.281 20.3246 11.0468C20.3246 11.8126 20.9433 12.4343 21.7054 12.4343C22.4674 12.4343 23.0861 11.8126 23.0861 11.0468C23.0861 10.281 22.4674 9.65923 21.7054 9.65923ZM21.7054 9.71578C22.4364 9.71578 23.0297 10.3122 23.0297 11.0468C23.0297 11.7814 22.4364 12.3776 21.7054 12.3776C20.9744 12.3776 20.3809 11.7814 20.3809 11.0468C20.3809 10.3122 20.9744 9.71578 21.7054 9.71578Z" fill="#E6E6E7"/>
<path fill-rule="evenodd" clip-rule="evenodd" d="M19.3845 31.46V37.8908H16.0322C16.0322 37.8908 18.778 37.4762 19.3845 31.46Z" fill="#E2E2E2"/>
<path fill-rule="evenodd" clip-rule="evenodd" d="M6.02987 26.0108L6.20049 26.5375H6.75142L6.30571 26.863L6.47632 27.3898L6.02987 27.0642L5.58416 27.3898L5.75478 26.863L5.30906 26.5375H5.85999L6.02987 26.0108Z" fill="white"/>
<path fill-rule="evenodd" clip-rule="evenodd" d="M33.7316 26.0108L33.5609 26.5375H33.01L33.4557 26.863L33.2851 27.3898L33.7316 27.0642L34.1773 27.3898L34.0067 26.863L34.4524 26.5375H33.9014L33.7316 26.0108Z" fill="white"/>
<path fill-rule="evenodd" clip-rule="evenodd" d="M37.3474 31.7919C25.902 29.9068 14.2608 30.0164 2.45424 31.7919L2.45477 40.0291C14.2436 38.1023 25.8785 38.092 37.3479 40.0291L37.3474 31.7919Z" fill="#8BB1BB"/>
<path fill-rule="evenodd" clip-rule="evenodd" d="M36.9632 32.1128C25.7706 30.404 14.3866 30.5034 2.84087 32.1128L2.84135 39.5798C14.3698 37.8331 25.7476 37.8238 36.9637 39.5798L36.9632 32.1128Z" fill="#EDEDED"/>
<path fill-rule="evenodd" clip-rule="evenodd" d="M36.5248 32.4384C25.6176 30.9295 14.5238 31.0172 3.27242 32.4384L3.27285 39.0322C14.5074 37.4897 25.5951 37.4815 36.5252 39.0322L36.5248 32.4384Z" fill="#042365"/>
<path d="M13.8033 22.038L14.1763 20.5312H14.5774L15.4919 16.8361H15.0908L15.4661 15.3197H20.375L19.9332 17.1049H18.4338L18.5003 16.8361H17.3256L17.0572 17.9206H17.3246L17.3887 17.6615H18.8977L18.3941 19.6962H16.8851L16.9493 19.437H16.6819L16.4111 20.5312H17.1847L16.8117 22.038H13.8033ZM16.6897 21.8748L16.9843 20.6847H16.2107L16.5599 19.2739H17.152L17.0855 19.5426H18.2698L18.695 17.8247H17.5107L17.4442 18.0934H16.8521L17.2036 16.673H18.6935L18.627 16.9417H19.8112L20.1723 15.4829H15.5881L15.2935 16.673H15.6851L14.6922 20.6847H14.3006L14.0061 21.8748H16.6897ZM14.2684 21.6637L14.4585 20.8959H14.85L15.9475 16.4618H15.5559L15.7459 15.694H19.9195L19.6629 16.7305H18.8894L18.9559 16.4618H17.0553L16.6016 18.2949H17.6044L17.6709 18.0262H18.435L18.1119 19.3315H17.3479L17.4144 19.0627H16.4116L15.9579 20.8959H16.7219L16.5319 21.6637H14.2684Z" fill="#042365"/>
<path d="M19.2769 20.963L19.5952 19.677H21.4289L21.2721 20.3104L21.4467 20.5311H22.4017L22.6736 20.32L22.8375 19.6578L22.6773 19.4562H20.7195L19.9158 18.3813L20.4076 16.3946L21.7433 15.3197H24.6848L25.4884 16.3946L25.1606 17.7191H23.3174L23.4836 17.0473L23.3258 16.8361H22.3325L22.0797 17.0473L21.9111 17.7287L22.0689 17.9398H24.0363L24.8399 19.0147L24.3577 20.963L23.022 22.038H20.0805L19.2769 20.963ZM20.1686 21.8748H23.0146L24.2048 20.9246L24.6704 19.0435L23.9577 18.103H21.9903L21.7488 17.7671L21.9364 17.0089L22.3443 16.673H23.4044L23.6555 17.0089L23.5201 17.5559H25.0386L25.3165 16.433L24.6062 15.4829H21.7411L20.5604 16.433L20.0877 18.3429L20.798 19.2931H22.7559L23.0094 19.6194L22.8289 20.3488L22.4019 20.6847H21.3609L21.1098 20.3488L21.2357 19.8401H19.7171L19.4487 20.9246L20.1686 21.8748ZM19.6945 20.7807L19.8774 20.0417H20.9757L20.8664 20.4832L21.1749 20.8959H22.4929L23.0081 20.4736L23.2456 19.5138L22.9323 19.0819H21.0031L20.3358 18.1894L20.7349 16.577L21.8321 15.694H24.4107L25.0756 16.5962L24.8879 17.3544H23.7801L23.8941 16.8937L23.5808 16.4618H22.2724L21.7596 16.8745L21.5078 17.8918L21.8163 18.3045H23.7646L24.4295 19.2067L24.0399 20.7807L22.9523 21.6637H20.345L19.6945 20.7807Z" fill="#042365"/>
<path d="M6.90763 34.0411L5.61521 34.2332L5.76101 35.2143L6.87536 35.0487L6.99715 35.8682L5.8828 36.0338L6.15124 37.8402L5.33559 37.9614L4.67777 33.5349L6.78584 33.2216L6.90763 34.0411Z" fill="white"/>
<path d="M9.51443 37.408L9.20122 36.4393L8.34726 36.5361L8.26235 37.5499L7.4257 37.6447L7.81522 33.0966L8.96344 32.9665L10.3453 37.3138L9.51443 37.408ZM8.94726 35.6343L8.53284 34.3365L8.41643 35.6944L8.94726 35.6343Z" fill="white"/>
<path d="M12.7466 37.1256L11.6764 34.8532L11.849 37.1925L11.0326 37.2534L10.7031 32.7901L11.5833 32.7245L12.6535 34.9969L12.4808 32.6576L13.2973 32.5967L13.6263 37.0542L13.6268 37.06L12.7466 37.1256Z" fill="white"/>
<path d="M16.7685 36.4529L16.2656 36.941L14.8442 37.0002L14.2971 36.5558L14.2673 35.8328L15.0911 35.7985L15.106 36.16L15.9356 36.1255L15.8945 35.1285L14.769 35.1754L14.2218 34.7309L14.1512 33.0169L14.6599 32.5285L16.0813 32.4693L16.6226 32.914L16.6512 33.6078L15.8332 33.6418L15.8195 33.3095L14.9899 33.344L15.0308 34.3352L16.1563 34.2883L16.6979 34.7388L16.7685 36.4529Z" fill="white"/>
<path d="M19.9298 34.8804L19.4062 35.3642L18.2798 35.3757L18.2951 36.8928L17.4706 36.9011L17.4255 32.4258L19.3764 32.406L19.9096 32.8732L19.9298 34.8804ZM19.1076 34.5387L19.0945 33.2375L18.2584 33.246L18.2715 34.5472L19.1076 34.5387Z" fill="white"/>
<path d="M23.2404 36.4695L22.7019 36.9245L21.1751 36.8908L20.6571 36.4125L20.7344 32.8714L21.2728 32.4164L22.7996 32.4501L23.3177 32.9284L23.2404 36.4695ZM22.4239 36.0896L22.4855 33.2719L21.5508 33.2513L21.4893 36.069L22.4239 36.0896Z" fill="white"/>
<path d="M26.5692 37.1095L25.688 37.0604L25.0873 35.1976L24.8438 35.184L24.743 37.0076L23.9197 36.9617L24.1667 32.493L26.1437 32.6033L26.6397 33.0986L26.5489 34.7415L25.9572 35.2403L26.5692 37.1095ZM24.8895 34.3567L25.7417 34.4043L25.7968 33.408L24.9445 33.3604L24.8895 34.3567Z" fill="white"/>
<path d="M30.019 33.7487L29.2035 33.6753L28.8797 37.3077L28.0585 37.2338L28.3823 33.6014L27.5668 33.5279L27.6404 32.7027L30.0926 32.9234L30.019 33.7487Z" fill="white"/>
<path d="M31.7143 33.1108L30.8952 33.016L30.3856 37.4621L31.2048 37.5569L31.7143 33.1108Z" fill="white"/>
<path d="M34.2299 37.9664L31.8841 37.6339L31.936 37.2641L33.7027 34.2027L32.5068 34.0332L32.6212 33.2185L34.8405 33.5331L34.7781 33.978L33.0629 36.9642L34.3451 37.146L34.2299 37.9664Z" fill="white"/>
<path fill-rule="evenodd" clip-rule="evenodd" d="M19.8992 40.8194L20.0698 41.346H20.6207L20.175 41.6716L20.3456 42.1983L19.8992 41.8728L19.4534 42.1983L19.6241 41.6716L19.1783 41.346H19.7293L19.8992 40.8194Z" fill="white"/>
<path fill-rule="evenodd" clip-rule="evenodd" d="M25.291 12.1704C25.291 12.1704 25.1666 12.0922 25.1475 12.1717C25.1475 12.1717 25.1288 12.2304 25.1694 12.3069C25.1694 12.3069 25.2565 12.5329 25.3451 12.3238L25.291 12.1704Z" fill="#8BB1BB"/>
<path fill-rule="evenodd" clip-rule="evenodd" d="M25.1285 12.1658C25.133 12.1473 25.142 12.1349 25.1531 12.1266C25.1688 12.1148 25.1898 12.1115 25.2121 12.1145C25.2563 12.1204 25.306 12.1513 25.306 12.1513C25.3103 12.1541 25.3136 12.1582 25.3154 12.163L25.3695 12.3164C25.3713 12.3218 25.3712 12.3277 25.3689 12.3331C25.3372 12.408 25.3017 12.4327 25.273 12.4355C25.2499 12.4376 25.2279 12.4268 25.2091 12.4086C25.1773 12.378 25.1554 12.3262 25.1516 12.3169C25.1093 12.2364 25.1262 12.1733 25.1285 12.1658ZM25.2752 12.1862C25.2623 12.1788 25.233 12.1636 25.2061 12.16C25.1964 12.1587 25.187 12.1583 25.1802 12.1634C25.1764 12.1662 25.1741 12.1709 25.1726 12.1774C25.1725 12.1779 25.1723 12.1785 25.1721 12.179C25.1721 12.179 25.157 12.2299 25.1923 12.2964C25.1927 12.2972 25.1932 12.2981 25.1935 12.2989C25.1935 12.2989 25.2074 12.3354 25.2298 12.3636C25.2363 12.3718 25.2435 12.3793 25.2515 12.3844C25.2569 12.388 25.2627 12.3905 25.2687 12.3898C25.2763 12.3892 25.2837 12.3842 25.2918 12.3755C25.3022 12.3641 25.3128 12.3471 25.3235 12.3231L25.2752 12.1862Z" fill="#E6E6E7"/>
<path fill-rule="evenodd" clip-rule="evenodd" d="M25.3118 12.162L27.5212 11.4373C27.5212 11.4373 27.8047 11.3287 27.8612 11.5775C27.8612 11.5775 27.8999 11.7938 27.614 11.8369L25.3457 12.3241L25.2911 12.1702L25.3118 12.162Z" fill="#8BB1BB"/>
<path fill-rule="evenodd" clip-rule="evenodd" d="M27.5156 11.4186C27.5224 11.416 27.5937 11.3903 27.6717 11.3943C27.7569 11.3986 27.85 11.4368 27.8809 11.5728C27.8809 11.573 27.8809 11.5734 27.881 11.5737C27.881 11.5737 27.8967 11.6593 27.841 11.738C27.8052 11.7887 27.7395 11.8374 27.6182 11.8557L25.3505 12.3429C25.341 12.3449 25.3315 12.3395 25.3282 12.3303L25.2736 12.1764C25.2701 12.1664 25.275 12.1556 25.2848 12.1517L25.3065 12.1431L27.5156 11.4186ZM27.8429 11.5809C27.8305 11.527 27.8069 11.4914 27.7773 11.4688C27.7324 11.4345 27.6748 11.43 27.627 11.4341C27.5719 11.4388 27.5288 11.4552 27.5288 11.4552C27.5285 11.4554 27.5282 11.4555 27.528 11.4555L25.3191 12.18L25.3164 12.1811L25.359 12.3011L27.6107 11.8175L27.6119 11.8173C27.7189 11.8012 27.7778 11.7601 27.8094 11.7153C27.8531 11.6535 27.8438 11.5866 27.8429 11.5809Z" fill="#E6E6E7"/>
<path fill-rule="evenodd" clip-rule="evenodd" d="M26.6495 12.5139L25.0786 10.7927C25.0786 10.7927 24.8847 10.5581 24.714 10.747C24.714 10.747 24.5746 10.9165 24.8026 11.095L26.5408 12.6384L26.6636 12.5313L26.6495 12.5139Z" fill="#8BB1BB"/>
<path fill-rule="evenodd" clip-rule="evenodd" d="M24.792 11.1103C24.6953 11.0345 24.6618 10.9596 24.6554 10.8978C24.6454 10.8018 24.7008 10.7349 24.7008 10.7349L24.7014 10.7342C24.7948 10.631 24.8945 10.6436 24.9708 10.6818C25.0407 10.7169 25.0903 10.7745 25.095 10.78L26.6656 12.501C26.6659 12.5013 26.6661 12.5016 26.6664 12.5018L26.6804 12.5192C26.687 12.5274 26.686 12.5393 26.6781 12.5462L26.5553 12.6534C26.548 12.6598 26.537 12.6598 26.5297 12.6533L24.792 11.1103ZM26.6366 12.5269L25.0662 10.8061C25.066 10.806 25.0657 10.8057 25.0656 10.8055C25.0656 10.8055 25.0361 10.7699 24.9904 10.7386C24.9507 10.7115 24.8983 10.687 24.8424 10.6947C24.8056 10.6998 24.7676 10.7192 24.7305 10.76C24.727 10.7645 24.6861 10.8182 24.6941 10.8936C24.6997 10.9482 24.731 11.0131 24.8163 11.0799C24.8167 11.0802 24.817 11.0805 24.8173 11.0807L26.5427 12.6128L26.6385 12.5292L26.6366 12.5269Z" fill="#E6E6E7"/>
<path fill-rule="evenodd" clip-rule="evenodd" d="M26.6405 12.5256C26.6405 12.5256 26.7872 12.5189 26.765 12.5975C26.765 12.5975 26.7526 12.6579 26.6799 12.7045C26.6799 12.7045 26.4935 12.8585 26.5185 12.6325L26.6405 12.5256Z" fill="#8BB1BB"/>
<path fill-rule="evenodd" clip-rule="evenodd" d="M26.6914 12.7233C26.6836 12.7295 26.6391 12.7638 26.5965 12.7748C26.5712 12.7814 26.5467 12.7799 26.5276 12.7666C26.504 12.7501 26.4852 12.7111 26.4941 12.6301C26.4948 12.6244 26.4975 12.6192 26.5018 12.6153L26.6238 12.5084C26.6278 12.5051 26.6326 12.5031 26.6377 12.5028C26.6377 12.5028 26.6961 12.5004 26.7375 12.5171C26.7584 12.5254 26.7751 12.5387 26.7831 12.5567C26.7886 12.5694 26.7904 12.5846 26.7853 12.603C26.7836 12.6107 26.7675 12.6739 26.6914 12.7233ZM26.6475 12.5484L26.5386 12.6439C26.5362 12.6701 26.5371 12.6901 26.5406 12.7051C26.5434 12.7168 26.5474 12.7247 26.5537 12.729C26.5587 12.7326 26.5649 12.7332 26.5714 12.7328C26.5808 12.7322 26.5908 12.7292 26.6004 12.7253C26.6337 12.7119 26.6637 12.6869 26.6637 12.6869L26.6659 12.6853C26.7292 12.6448 26.7409 12.593 26.7409 12.593L26.7412 12.5914C26.7431 12.585 26.7433 12.5797 26.7414 12.5754C26.738 12.5676 26.7296 12.5633 26.7205 12.5596C26.6953 12.5495 26.6623 12.5483 26.6475 12.5484Z" fill="#E6E6E7"/>
<path d="M26.1729 11.5894C26.5184 11.6805 26.872 11.4729 26.9627 11.1256C27.0533 10.7784 26.8467 10.423 26.5011 10.3319C26.1556 10.2408 25.802 10.4485 25.7114 10.7957C25.6207 11.143 25.8273 11.4983 26.1729 11.5894Z" fill="#8BB1BB"/>
<path fill-rule="evenodd" clip-rule="evenodd" d="M26.1096 10.3546C26.1096 10.3546 26.2934 10.8302 26.9601 10.8734C26.9726 10.8742 26.9835 10.8646 26.9842 10.852C26.9851 10.8394 26.9755 10.8284 26.9629 10.8276C26.329 10.7866 26.1521 10.3379 26.1521 10.3379C26.1475 10.3261 26.1343 10.3203 26.1225 10.3249C26.1109 10.3296 26.1051 10.3429 26.1096 10.3546Z" fill="white"/>
<path fill-rule="evenodd" clip-rule="evenodd" d="M26.5577 11.5687C26.5577 11.5687 26.364 11.0943 25.7086 11.0647C25.6961 11.0641 25.6854 11.0739 25.6849 11.0866C25.6842 11.0991 25.694 11.1099 25.7066 11.1104C26.3295 11.1386 26.5156 11.5862 26.5156 11.5862C26.5203 11.598 26.5336 11.6035 26.5453 11.5986C26.5569 11.5938 26.5624 11.5804 26.5577 11.5687Z" fill="white"/>
<path fill-rule="evenodd" clip-rule="evenodd" d="M26.5075 10.3182C26.155 10.2253 25.7937 10.4375 25.7013 10.7918C25.6088 11.146 25.8199 11.509 26.1723 11.6019C26.5249 11.6949 26.8862 11.4827 26.9786 11.1285C27.0711 10.7742 26.86 10.4112 26.5075 10.3182ZM26.5006 10.3445C26.8387 10.4336 27.0412 10.7819 26.9525 11.1216C26.8638 11.4614 26.5173 11.6648 26.1792 11.5757C25.8411 11.4866 25.6386 11.1384 25.7273 10.7986C25.8159 10.4589 26.1625 10.2554 26.5006 10.3445Z" fill="#E6E6E7"/>
<path fill-rule="evenodd" clip-rule="evenodd" d="M26.1745 10.5967L26.3252 10.4678C26.3348 10.4597 26.3359 10.4451 26.3278 10.4356C26.3197 10.4259 26.3052 10.4248 26.2956 10.4329L26.1449 10.5618C26.1354 10.5699 26.1342 10.5845 26.1424 10.594C26.1505 10.6037 26.1649 10.6048 26.1745 10.5967Z" fill="white"/>
<path fill-rule="evenodd" clip-rule="evenodd" d="M26.4976 11.3238L26.3469 11.4527C26.3373 11.4608 26.3362 11.4754 26.3443 11.4849C26.3524 11.4946 26.3669 11.4957 26.3765 11.4876L26.5272 11.3587C26.5367 11.3505 26.5379 11.336 26.5297 11.3265C26.5216 11.3168 26.5072 11.3157 26.4976 11.3238Z" fill="white"/>
<path fill-rule="evenodd" clip-rule="evenodd" d="M26.3061 10.7294L26.4419 10.5849C26.4506 10.5757 26.4502 10.5611 26.441 10.5525C26.4319 10.5438 26.4174 10.5442 26.4087 10.5534L26.2729 10.6979C26.2643 10.707 26.2646 10.7216 26.2739 10.7302C26.283 10.739 26.2974 10.7385 26.3061 10.7294Z" fill="white"/>
<path fill-rule="evenodd" clip-rule="evenodd" d="M26.3725 11.2041L26.2367 11.3486C26.228 11.3578 26.2284 11.3723 26.2375 11.381C26.2467 11.3897 26.2612 11.3893 26.2698 11.3801L26.4057 11.2356C26.4143 11.2264 26.414 11.2119 26.4047 11.2032C26.3956 11.1945 26.3812 11.195 26.3725 11.2041Z" fill="white"/>
<path fill-rule="evenodd" clip-rule="evenodd" d="M26.6524 10.9125L26.6958 10.7186C26.6986 10.7063 26.6908 10.6939 26.6786 10.6912C26.6663 10.6884 26.6541 10.6962 26.6513 10.7085L26.6079 10.9025C26.6052 10.9148 26.6128 10.9271 26.6252 10.9298C26.6375 10.9326 26.6496 10.9249 26.6524 10.9125Z" fill="white"/>
<path fill-rule="evenodd" clip-rule="evenodd" d="M26.0198 11.0452L25.9764 11.2391C25.9736 11.2515 25.9814 11.2638 25.9936 11.2665C26.0059 11.2693 26.0181 11.2615 26.0209 11.2492L26.0643 11.0552C26.067 11.0429 26.0594 11.0306 26.047 11.0279C26.0348 11.0251 26.0226 11.0328 26.0198 11.0452Z" fill="white"/>
<path fill-rule="evenodd" clip-rule="evenodd" d="M26.4677 10.8343L26.5616 10.6593C26.5676 10.6482 26.5634 10.6342 26.5524 10.6283C26.5413 10.6222 26.5274 10.6264 26.5214 10.6375L26.4276 10.8125C26.4217 10.8236 26.4257 10.8376 26.4369 10.8435C26.4479 10.8495 26.4617 10.8454 26.4677 10.8343Z" fill="white"/>
<path fill-rule="evenodd" clip-rule="evenodd" d="M26.1979 11.1065L26.1041 11.2815C26.098 11.2926 26.1022 11.3066 26.1133 11.3125C26.1243 11.3185 26.1382 11.3144 26.1442 11.3032L26.2381 11.1282C26.244 11.1171 26.2399 11.1032 26.2288 11.0972C26.2177 11.0912 26.204 11.0954 26.1979 11.1065Z" fill="white"/>
<path fill-rule="evenodd" clip-rule="evenodd" d="M26.8011 10.9514L26.8203 10.7536C26.8216 10.741 26.8123 10.7298 26.7999 10.7286C26.7873 10.7273 26.7761 10.7366 26.7749 10.7491L26.7557 10.947C26.7545 10.9595 26.7636 10.9708 26.7762 10.972C26.7887 10.9732 26.7998 10.964 26.8011 10.9514Z" fill="white"/>
<path fill-rule="evenodd" clip-rule="evenodd" d="M25.8581 11.016L25.8388 11.2139C25.8376 11.2265 25.8468 11.2377 25.8593 11.2389C25.8718 11.2402 25.883 11.2309 25.8843 11.2183L25.9035 11.0205C25.9046 11.0079 25.8955 10.9966 25.8829 10.9955C25.8704 10.9942 25.8593 11.0034 25.8581 11.016Z" fill="white"/>
<path fill-rule="evenodd" clip-rule="evenodd" d="M12.9165 10.8154C12.9727 10.7618 13.0379 10.7692 13.1171 10.8315L14.6577 12.093C14.6577 12.093 14.8072 12.1848 14.6807 12.3188L14.4244 12.638C14.4244 12.638 14.3225 12.7667 14.1997 12.661L12.6313 11.3742C12.6313 11.3742 12.5282 11.2974 12.6126 11.1902C12.6942 11.0832 12.9165 10.8154 12.9165 10.8154Z" fill="#8BB1BB"/>
<path fill-rule="evenodd" clip-rule="evenodd" d="M14.1843 12.6792L12.6159 11.3923C12.6159 11.3923 12.5581 11.3476 12.5566 11.2773C12.5534 11.2466 12.5642 11.2146 12.5938 11.1749C12.6757 11.0707 12.8977 10.8001 12.8977 10.8001L12.9002 10.7971C12.9642 10.737 13.0402 10.7404 13.1288 10.813L14.6722 12.0743C14.6845 12.0844 14.7539 12.1336 14.7535 12.2125C14.7541 12.2462 14.7417 12.2897 14.6985 12.3336L14.4423 12.6528C14.4423 12.6528 14.385 12.7234 14.304 12.7261C14.2676 12.727 14.2271 12.7143 14.1843 12.6792ZM12.9344 10.8302C12.9166 10.8489 12.7099 11.1039 12.6305 11.2049C12.6081 11.2326 12.602 11.2557 12.6012 11.2755C12.6032 11.3232 12.643 11.3557 12.643 11.3557C12.643 11.3557 12.643 11.3557 12.6458 11.3555L14.2142 12.6424C14.2478 12.6699 14.2767 12.6782 14.3019 12.6784C14.3635 12.6777 14.4056 12.6227 14.4056 12.6227L14.6619 12.3035L14.6646 12.3032C14.6976 12.2689 14.7086 12.2396 14.7086 12.2114C14.7079 12.1495 14.6454 12.1137 14.6454 12.1137C14.6454 12.1137 14.6454 12.1137 14.6423 12.1112C14.6423 12.1112 13.1014 10.8468 13.1017 10.8496C13.0347 10.7973 12.9803 10.786 12.9344 10.8302Z" fill="#E6E6E7"/>
<path fill-rule="evenodd" clip-rule="evenodd" d="M12.8484 10.8898L12.2367 10.3864L12.0798 10.58L12.6945 11.0859L12.8484 10.8898Z" fill="#8BB1BB"/>
<path fill-rule="evenodd" clip-rule="evenodd" d="M12.5532 10.6561L12.5948 11.0658C12.5961 11.0789 12.6083 11.0876 12.6222 11.0862C12.6334 11.085 12.6435 11.0741 12.6422 11.0609L12.6006 10.6512C12.5996 10.6414 12.5871 10.6294 12.576 10.6306C12.562 10.632 12.5522 10.6462 12.5532 10.6561Z" fill="white"/>
<path fill-rule="evenodd" clip-rule="evenodd" d="M12.4372 10.5452L12.4788 10.9549C12.4801 10.968 12.4923 10.9767 12.5062 10.9753C12.5174 10.9741 12.5275 10.9631 12.5262 10.95L12.4846 10.5403C12.4836 10.5305 12.4711 10.5185 12.46 10.5196C12.446 10.5211 12.4362 10.5353 12.4372 10.5452Z" fill="white"/>
<path fill-rule="evenodd" clip-rule="evenodd" d="M12.3021 10.4278L12.3437 10.8375C12.345 10.8506 12.3572 10.8593 12.3711 10.8579C12.3822 10.8568 12.3924 10.8458 12.3911 10.8327L12.3495 10.4229C12.3485 10.4131 12.336 10.4011 12.3248 10.4023C12.3109 10.4037 12.3011 10.418 12.3021 10.4278Z" fill="white"/>
<path fill-rule="evenodd" clip-rule="evenodd" d="M12.883 10.8933C12.8932 10.8838 12.8918 10.8699 12.8796 10.8598L12.2655 10.3595C12.256 10.3492 12.2421 10.3506 12.2349 10.3626L12.0777 10.5533C12.0705 10.5653 12.0719 10.5793 12.0811 10.5868L12.6956 11.0899C12.7017 11.095 12.7075 11.0972 12.713 11.0966C12.7186 11.096 12.7238 11.0927 12.7288 11.0865L12.883 10.8933ZM12.1266 10.5653L12.7074 11.0408L12.8341 10.8814L12.2564 10.4083L12.1266 10.5653Z" fill="#E6E6E7"/>
<path fill-rule="evenodd" clip-rule="evenodd" d="M11.8803 10.5472C11.8705 10.5393 11.869 10.5244 11.877 10.5143L12.1321 10.1934C12.1401 10.1833 12.155 10.1815 12.1648 10.1894L12.2874 10.2878C12.2972 10.2957 12.2987 10.3107 12.2907 10.3207L12.0356 10.6416C12.0276 10.6517 12.0127 10.6536 12.0029 10.6457L11.8803 10.5472Z" fill="#8BB1BB"/>
<path fill-rule="evenodd" clip-rule="evenodd" d="M11.8691 10.5662L11.9918 10.6647C12.0114 10.6804 12.0411 10.6768 12.0571 10.6566L12.3122 10.3357C12.3282 10.3155 12.3253 10.2856 12.3057 10.2699L12.183 10.1714C12.1634 10.1557 12.1337 10.1593 12.1177 10.1795L11.8625 10.5004C11.8465 10.5206 11.8495 10.5505 11.8691 10.5662ZM11.8985 10.5293L12.0211 10.6277L12.2763 10.3068L12.1536 10.2084L11.8985 10.5293Z" fill="#E6E6E7"/>
<path d="M13.5228 12.9105C13.2165 12.8578 13.0107 12.5655 13.0632 12.2577C13.1156 11.9499 13.4064 11.743 13.7128 11.7958C14.0191 11.8485 14.2249 12.1407 14.1724 12.4485C14.12 12.7564 13.8291 12.9632 13.5228 12.9105Z" fill="#8BB1BB"/>
<path fill-rule="evenodd" clip-rule="evenodd" d="M14.0924 12.7137C14.0924 12.7137 14.0826 12.6998 14.0655 12.6755C14.0581 12.665 14.0436 12.6625 14.0331 12.67C14.0226 12.6774 14.0201 12.692 14.0275 12.7025C14.0446 12.7268 14.0544 12.7407 14.0544 12.7407L14.0924 12.7137ZM14.0117 12.5992C14.0033 12.5872 13.9943 12.5744 13.9849 12.5611C13.9775 12.5505 13.9629 12.548 13.9525 12.5555C13.942 12.5629 13.9395 12.5776 13.9469 12.5881C13.9564 12.6015 13.9653 12.6142 13.9738 12.6262C13.9812 12.6368 13.9957 12.6393 14.0062 12.6318C14.0167 12.6244 14.0192 12.6098 14.0117 12.5992ZM13.9311 12.4848C13.9224 12.4723 13.9134 12.4596 13.9043 12.4466C13.8968 12.4361 13.8824 12.4336 13.8719 12.441C13.8614 12.4485 13.8589 12.4631 13.8663 12.4736C13.8755 12.4866 13.8844 12.4993 13.8932 12.5117C13.9006 12.5223 13.9151 12.5248 13.9256 12.5173C13.9361 12.5099 13.9385 12.4953 13.9311 12.4848ZM13.8505 12.3703C13.8416 12.3577 13.8327 12.3449 13.8237 12.3321C13.8163 12.3216 13.8017 12.3191 13.7913 12.3265C13.7808 12.334 13.7783 12.3486 13.7857 12.3591C13.7947 12.3719 13.8037 12.3847 13.8126 12.3973C13.82 12.4078 13.8345 12.4103 13.845 12.4029C13.8555 12.3954 13.858 12.3808 13.8505 12.3703ZM13.7699 12.2558C13.761 12.2431 13.752 12.2303 13.7431 12.2177C13.7356 12.2071 13.7211 12.2046 13.7106 12.2121C13.7001 12.2195 13.6977 12.2341 13.7051 12.2447C13.714 12.2574 13.723 12.2701 13.732 12.2828C13.7394 12.2933 13.7539 12.2958 13.7644 12.2884C13.7749 12.2809 13.7773 12.2663 13.7699 12.2558ZM13.6893 12.1413C13.6803 12.1285 13.6713 12.1158 13.6624 12.1032C13.6551 12.0927 13.6405 12.0902 13.6301 12.0976C13.6196 12.1051 13.6171 12.1197 13.6245 12.1302C13.6333 12.1428 13.6423 12.1555 13.6513 12.1684C13.6588 12.1789 13.6733 12.1814 13.6838 12.1739C13.6943 12.1665 13.6968 12.1519 13.6893 12.1413ZM13.6087 12.0269C13.5995 12.0138 13.5905 12.0011 13.5819 11.9887C13.5744 11.9782 13.5599 11.9757 13.5494 11.9832C13.5389 11.9906 13.5365 12.0052 13.5439 12.0157C13.5526 12.0281 13.5615 12.0408 13.5708 12.0539C13.5782 12.0644 13.5927 12.0669 13.6032 12.0594C13.6136 12.052 13.6161 12.0374 13.6087 12.0269ZM13.5281 11.9124C13.5184 11.8986 13.5094 11.8859 13.5012 11.8742C13.4938 11.8637 13.4793 11.8612 13.4688 11.8687C13.4584 11.8761 13.4559 11.8908 13.4633 11.9013C13.4714 11.9129 13.4804 11.9256 13.4901 11.9394C13.4976 11.9499 13.5121 11.9524 13.5226 11.945C13.5331 11.9375 13.5355 11.923 13.5281 11.9124Z" fill="white"/>
<path fill-rule="evenodd" clip-rule="evenodd" d="M13.9284 12.8782C13.9284 12.8782 13.9186 12.8645 13.9013 12.8402C13.8938 12.8297 13.8793 12.8273 13.8689 12.8348C13.8585 12.8423 13.856 12.8569 13.8635 12.8674C13.8807 12.8917 13.8905 12.9054 13.8905 12.9054L13.9284 12.8782ZM13.8472 12.7641C13.8387 12.7522 13.8297 12.7395 13.8201 12.7261C13.8127 12.7156 13.7981 12.7132 13.7877 12.7207C13.7773 12.7282 13.7749 12.7428 13.7823 12.7533C13.7918 12.7667 13.8009 12.7794 13.8094 12.7913C13.8168 12.8018 13.8314 12.8043 13.8418 12.7967C13.8523 12.7893 13.8547 12.7747 13.8472 12.7641ZM13.766 12.6501C13.7572 12.6377 13.7482 12.625 13.739 12.6121C13.7315 12.6016 13.717 12.5991 13.7065 12.6067C13.6961 12.6141 13.6937 12.6288 13.7012 12.6393C13.7104 12.6522 13.7194 12.6649 13.7282 12.6773C13.7357 12.6878 13.7502 12.6902 13.7606 12.6827C13.7711 12.6752 13.7735 12.6606 13.766 12.6501ZM13.6849 12.536C13.6759 12.5235 13.6669 12.5108 13.6578 12.498C13.6504 12.4875 13.6358 12.4851 13.6254 12.4926C13.6149 12.5001 13.6125 12.5147 13.62 12.5252C13.6291 12.538 13.6381 12.5507 13.647 12.5632C13.6545 12.5737 13.669 12.5761 13.6795 12.5686C13.6899 12.5611 13.6923 12.5465 13.6849 12.536ZM13.6037 12.422C13.5947 12.4093 13.5857 12.3966 13.5766 12.384C13.5692 12.3734 13.5546 12.371 13.5442 12.3785C13.5337 12.386 13.5313 12.4006 13.5388 12.4111C13.5478 12.4238 13.5569 12.4365 13.5658 12.4492C13.5733 12.4597 13.5878 12.4621 13.5983 12.4546C13.6088 12.4471 13.6112 12.4325 13.6037 12.422ZM13.5225 12.3079C13.5134 12.2951 13.5044 12.2825 13.4955 12.2699C13.488 12.2594 13.4735 12.257 13.463 12.2645C13.4526 12.272 13.4502 12.2866 13.4576 12.2971C13.4665 12.3096 13.4756 12.3223 13.4847 12.3351C13.4921 12.3456 13.5067 12.348 13.5171 12.3405C13.5276 12.333 13.53 12.3184 13.5225 12.3079ZM13.4413 12.1938C13.4322 12.1809 13.4231 12.1682 13.4143 12.1558C13.4068 12.1453 13.3923 12.1429 13.3818 12.1504C13.3714 12.1579 13.369 12.1725 13.3765 12.183C13.3853 12.1954 13.3943 12.2081 13.4035 12.2211C13.411 12.2315 13.4255 12.2339 13.436 12.2265C13.4464 12.219 13.4488 12.2043 13.4413 12.1938ZM13.3602 12.0798C13.3507 12.0665 13.3417 12.0538 13.3331 12.0417C13.3257 12.0313 13.3111 12.0289 13.3007 12.0363C13.2902 12.0439 13.2878 12.0585 13.2953 12.069C13.3039 12.081 13.3129 12.0937 13.3224 12.107C13.3298 12.1174 13.3443 12.1199 13.3548 12.1124C13.3652 12.1049 13.3676 12.0903 13.3602 12.0798ZM13.279 11.9657C13.267 11.9489 13.2579 11.936 13.252 11.9277C13.2445 11.9172 13.2299 11.9148 13.2195 11.9223C13.209 11.9298 13.2066 11.9444 13.2141 11.9549C13.22 11.9632 13.2292 11.9761 13.2412 11.9929C13.2487 12.0034 13.2632 12.0058 13.2736 11.9983C13.284 11.9908 13.2865 11.9762 13.279 11.9657Z" fill="white"/>
<path fill-rule="evenodd" clip-rule="evenodd" d="M14.0275 12.762C14.0275 12.762 14.0177 12.7481 14.0006 12.7238C13.9932 12.7133 13.9787 12.7108 13.9682 12.7182C13.9577 12.7257 13.9552 12.7403 13.9626 12.7508C13.9797 12.7751 13.9895 12.789 13.9895 12.789L14.0275 12.762ZM13.9469 12.6475C13.9384 12.6355 13.9294 12.6227 13.92 12.6093C13.9126 12.5988 13.8981 12.5963 13.8876 12.6037C13.8771 12.6112 13.8746 12.6258 13.882 12.6363C13.8915 12.6497 13.9004 12.6625 13.9089 12.6745C13.9163 12.685 13.9308 12.6875 13.9413 12.6801C13.9518 12.6726 13.9543 12.658 13.9469 12.6475ZM13.8663 12.533C13.8575 12.5206 13.8485 12.5078 13.8394 12.4949C13.832 12.4843 13.8175 12.4818 13.807 12.4893C13.7965 12.4967 13.794 12.5113 13.8014 12.5219C13.8106 12.5349 13.8195 12.5476 13.8283 12.56C13.8357 12.5705 13.8502 12.573 13.8607 12.5656C13.8712 12.5581 13.8737 12.5435 13.8663 12.533ZM13.7857 12.4185C13.7768 12.4059 13.7678 12.3932 13.7588 12.3804C13.7514 12.3699 13.7368 12.3674 13.7264 12.3748C13.7159 12.3823 13.7134 12.3969 13.7208 12.4074C13.7299 12.4202 13.7388 12.4329 13.7477 12.4456C13.7551 12.4561 13.7696 12.4586 13.7801 12.4511C13.7906 12.4437 13.7931 12.4291 13.7857 12.4185ZM13.7051 12.3041C13.6961 12.2913 13.6871 12.2786 13.6782 12.2659C13.6708 12.2554 13.6563 12.2529 13.6458 12.2604C13.6353 12.2678 13.6328 12.2824 13.6402 12.2929C13.6491 12.3056 13.6581 12.3183 13.6671 12.3311C13.6745 12.3416 13.689 12.3441 13.6995 12.3367C13.71 12.3292 13.7125 12.3146 13.7051 12.3041ZM13.6244 12.1896C13.6154 12.1767 13.6064 12.164 13.5976 12.1515C13.5902 12.1409 13.5756 12.1384 13.5652 12.1459C13.5547 12.1533 13.5522 12.168 13.5596 12.1785C13.5685 12.191 13.5774 12.2038 13.5865 12.2166C13.5939 12.2271 13.6084 12.2296 13.6189 12.2222C13.6294 12.2148 13.6319 12.2002 13.6244 12.1896ZM13.5439 12.0752C13.5346 12.0621 13.5257 12.0493 13.517 12.037C13.5096 12.0265 13.495 12.024 13.4846 12.0314C13.4741 12.0389 13.4716 12.0535 13.479 12.064C13.4877 12.0763 13.4967 12.0891 13.5059 12.1021C13.5133 12.1127 13.5278 12.1152 13.5383 12.1077C13.5488 12.1003 13.5513 12.0857 13.5439 12.0752ZM13.4632 11.9607C13.4535 11.9469 13.4445 11.9341 13.4364 11.9225C13.429 11.912 13.4144 11.9095 13.4039 11.9169C13.3935 11.9244 13.391 11.939 13.3984 11.9495C13.4066 11.9611 13.4156 11.9739 13.4253 11.9877C13.4327 11.9982 13.4472 12.0007 13.4577 11.9933C13.4682 11.9858 13.4707 11.9712 13.4632 11.9607Z" fill="white"/>
<path fill-rule="evenodd" clip-rule="evenodd" d="M13.8474 12.9004C13.8474 12.9004 13.8376 12.8865 13.8205 12.8623C13.8131 12.8517 13.7986 12.8492 13.7881 12.8567C13.7777 12.8641 13.7752 12.8787 13.7826 12.8893C13.7997 12.9136 13.8094 12.9274 13.8094 12.9274L13.8474 12.9004ZM13.7668 12.7859C13.7583 12.7739 13.7494 12.7612 13.7399 12.7478C13.7325 12.7373 13.718 12.7348 13.7075 12.7422C13.697 12.7497 13.6945 12.7643 13.702 12.7748C13.7114 12.7882 13.7204 12.8009 13.7288 12.8129C13.7362 12.8235 13.7508 12.826 13.7612 12.8185C13.7717 12.8111 13.7742 12.7965 13.7668 12.7859ZM13.6862 12.6715C13.6774 12.6591 13.6685 12.6463 13.6593 12.6333C13.6519 12.6228 13.6374 12.6203 13.6269 12.6277C13.6165 12.6352 13.614 12.6498 13.6214 12.6603C13.6305 12.6733 13.6395 12.686 13.6482 12.6985C13.6556 12.709 13.6702 12.7115 13.6807 12.704C13.6911 12.6966 13.6936 12.682 13.6862 12.6715ZM13.6056 12.557C13.5967 12.5444 13.5877 12.5317 13.5787 12.5188C13.5713 12.5083 13.5568 12.5058 13.5463 12.5133C13.5358 12.5207 13.5333 12.5353 13.5408 12.5459C13.5498 12.5587 13.5588 12.5714 13.5676 12.584C13.575 12.5946 13.5896 12.5971 13.6 12.5896C13.6105 12.5822 13.613 12.5676 13.6056 12.557ZM13.525 12.4426C13.516 12.4298 13.507 12.4171 13.4981 12.4044C13.4907 12.3938 13.4762 12.3913 13.4657 12.3988C13.4552 12.4062 13.4527 12.4208 13.4601 12.4314C13.4691 12.4441 13.4781 12.4568 13.487 12.4696C13.4944 12.4801 13.509 12.4826 13.5194 12.4751C13.5299 12.4677 13.5324 12.4531 13.525 12.4426ZM13.4444 12.3281C13.4353 12.3152 13.4264 12.3025 13.4175 12.2899C13.4101 12.2794 13.3956 12.2769 13.3851 12.2843C13.3746 12.2918 13.3721 12.3064 13.3796 12.3169C13.3884 12.3295 13.3973 12.3422 13.4064 12.3551C13.4138 12.3656 13.4284 12.3681 13.4388 12.3607C13.4493 12.3532 13.4518 12.3386 13.4444 12.3281ZM13.3638 12.2136C13.3546 12.2005 13.3456 12.1878 13.3369 12.1755C13.3295 12.1649 13.315 12.1624 13.3045 12.1699C13.294 12.1773 13.2915 12.1919 13.2989 12.2025C13.3076 12.2148 13.3166 12.2275 13.3258 12.2406C13.3332 12.2511 13.3477 12.2536 13.3582 12.2462C13.3687 12.2387 13.3712 12.2241 13.3638 12.2136ZM13.2832 12.0991C13.2735 12.0854 13.2645 12.0726 13.2563 12.061C13.2489 12.0505 13.2344 12.048 13.2239 12.0554C13.2134 12.0629 13.2109 12.0775 13.2183 12.088C13.2265 12.0996 13.2355 12.1124 13.2452 12.1261C13.2526 12.1367 13.2672 12.1392 13.2776 12.1317C13.2881 12.1242 13.2906 12.1097 13.2832 12.0991Z" fill="white"/>
<path fill-rule="evenodd" clip-rule="evenodd" d="M13.9946 12.8478L13.2886 11.8575L13.2508 11.8847L13.9568 12.8751L13.9946 12.8478Z" fill="white"/>
<path fill-rule="evenodd" clip-rule="evenodd" d="M13.7156 11.7724C13.3969 11.7176 13.0938 11.9331 13.0392 12.2534C12.9846 12.5738 13.1991 12.8784 13.5178 12.9332C13.8366 12.9881 14.1397 12.7725 14.1943 12.4522C14.2489 12.1318 14.0344 11.8272 13.7156 11.7724ZM13.7078 11.8185C14.0012 11.869 14.1987 12.1494 14.1484 12.4443C14.0982 12.7392 13.8192 12.9376 13.5257 12.8872C13.2322 12.8367 13.0348 12.5562 13.085 12.2613C13.1353 11.9664 13.4143 11.768 13.7078 11.8185Z" fill="#E6E6E7"/>
</svg>
