<svg width="240" height="66" viewBox="0 0 240 66" fill="none" xmlns="http://www.w3.org/2000/svg">
<g clip-path="url(#clip0_13_195)">
<path fill-rule="evenodd" clip-rule="evenodd" d="M240.002 9.65237C161.232 -3.09846 81.1322 -2.3657 -0.00244141 9.65237V65.638C81.1322 52.5941 161.085 52.4478 240.002 65.638V9.65237Z" fill="#8BB1BB"/>
<path fill-rule="evenodd" clip-rule="evenodd" d="M237.342 11.8508C160.346 0.272443 82.0192 0.858828 2.65771 11.8508V62.5602C82.0192 50.6891 160.198 50.6891 237.342 62.5602V11.8508Z" fill="#EDEDED"/>
<path fill-rule="evenodd" clip-rule="evenodd" d="M234.387 14.0493C159.312 3.79009 83.0538 4.37618 5.61401 14.0493V58.7499C82.9063 48.344 159.164 48.1974 234.387 58.7499V14.0493Z" fill="#042365"/>
<path d="M30.5893 24.8946L21.7223 26.2134L22.7567 32.9552L30.4414 31.7827L31.1805 37.3521L23.6433 38.5245L25.4168 50.689L19.8009 51.5684L15.3674 21.5235L29.8503 19.3253L30.5893 24.8946Z" fill="white"/>
<path d="M48.6197 47.7576L46.5505 41.1625L40.6393 41.7489L40.0481 48.637L34.2844 49.2234L36.9445 18.2994L44.9249 17.42L54.3834 46.8785L48.6197 47.7576ZM44.6295 35.7398L41.8216 26.9464L41.0826 36.1795L44.6295 35.7398Z" fill="white"/>
<path d="M70.7869 45.8525L63.5452 30.4636L64.7275 46.2922L59.1117 46.7319L56.7471 16.3943L62.8065 15.9546L70.1958 31.3431L69.0135 15.5149L74.6293 15.0751L76.846 45.4127L70.7869 45.8525Z" fill="white"/>
<path d="M98.4237 41.3092L95.0244 44.5335L85.2707 44.9732L81.4281 42.0419L81.2802 37.059L86.8964 36.9123L87.0439 39.2573L92.8076 39.1109L92.5122 32.3691L84.6793 32.6621L80.9848 29.5844L80.5415 18.0061L83.9406 14.6353L93.6945 14.1956L97.5368 17.2733L97.6847 21.9632L92.0689 22.2566L91.921 19.9113L86.1573 20.2047L86.4528 26.9465L94.2856 26.6531L97.9801 29.5844L98.4237 41.3092Z" fill="white"/>
<path d="M120.296 30.6104L116.601 33.8347L108.916 33.9814L109.064 44.2406H103.448L103.152 13.9027L116.601 13.756L120.296 16.9804V30.6104ZM114.532 28.2654L114.384 19.472H108.62L108.768 28.2654H114.532Z" fill="white"/>
<path d="M143.055 41.4559L139.36 44.5336L128.868 44.2406L125.321 41.0162L125.912 16.9803L129.606 13.9026L140.099 14.1957L143.646 17.4201L143.055 41.4559ZM137.439 38.8176L137.883 19.6183L131.38 19.472L130.937 38.6712L137.439 38.8176Z" fill="white"/>
<path d="M165.961 45.706L159.902 45.4127L155.764 32.8088L154.138 32.6621L153.399 44.9732L147.783 44.6799L149.409 14.3423L163.005 15.075L166.404 18.4458L165.813 29.5844L161.823 32.9552L165.961 45.706ZM154.434 27.0928L160.345 27.3862L160.789 20.6444L154.877 20.3513L154.434 27.0928Z" fill="white"/>
<path d="M189.608 22.8426L183.992 22.4029L181.775 47.0248L176.159 46.5851L178.376 21.9632L172.76 21.3771L173.351 15.8078L190.199 17.2733L189.608 22.8426Z" fill="white"/>
<path d="M197.735 48.7838L192.119 48.1977L195.666 18.0062L201.282 18.5925L197.735 48.7838Z" fill="white"/>
<path d="M218.574 51.5684L202.465 49.3698L202.761 46.7318L215.027 26.067L206.751 24.8946L207.49 19.3253L222.859 21.5235L222.416 24.4549L210.593 44.8266L219.313 45.9991L218.574 51.5684Z" fill="white"/>
</g>
<defs>
<clipPath id="clip0_13_195">
<rect width="240" height="66" fill="white"/>
</clipPath>
</defs>
</svg>
