<?xml version="1.0" standalone="no"?>
<!DOCTYPE svg PUBLIC "-//W3C//DTD SVG 20010904//EN"
 "http://www.w3.org/TR/2001/REC-SVG-20010904/DTD/svg10.dtd">
<svg version="1.0" xmlns="http://www.w3.org/2000/svg"
 width="25px" height="25px" viewBox="0 0 900.000000 520.000000"
 preserveAspectRatio="xMidYMid meet">

<g transform="translate(0.000000,520.000000) scale(0.100000,-0.100000)"
fill="#000000" stroke="none">
<path d="M4215 5154 c-22 -2 -92 -9 -155 -14 -858 -77 -1524 -392 -1666 -787
-24 -67 -24 -201 0 -272 132 -387 749 -686 1621 -788 190 -22 738 -25 920 -5
330 36 575 86 820 167 469 154 763 370 851 625 24 72 24 206 0 273 -98 272
-447 513 -951 656 -212 60 -427 101 -700 132 -91 10 -666 20 -740 13z" fill="#FFFFFF"/>
<path d="M2371 3549 c-1 -194 3 -370 9 -399 28 -145 159 -314 338 -433 377
-252 931 -400 1590 -426 800 -30 1529 126 1974 426 179 120 312 289 338 432
13 69 12 763 -1 706 -5 -22 -26 -73 -47 -112 -162 -312 -658 -563 -1337 -677
-252 -43 -364 -50 -730 -51 -368 0 -442 5 -710 47 -761 119 -1314 424 -1409
780 -14 49 -15 27 -15 -293z" fill="#FFFFFF"/>
<path d="M2373 2530 c2 -364 3 -377 25 -431 181 -452 975 -770 1987 -796 652
-17 1249 94 1692 313 283 139 448 292 525 483 22 54 23 67 25 431 2 320 0 368
-11 330 -165 -575 -1415 -952 -2668 -805 -829 98 -1455 419 -1564 804 -11 40
-13 -7 -11 -329z" fill="#FFFFFF"/>
<path d="M2371 1578 c-1 -215 3 -367 10 -400 29 -140 148 -297 315 -417 159
-113 434 -236 675 -301 389 -106 743 -146 1229 -137 617 11 1105 115 1510 323
283 144 469 339 509 532 7 33 11 185 10 400 0 317 -2 342 -14 295 -79 -293
-484 -564 -1055 -708 -1106 -278 -2488 -78 -3000 435 -87 87 -147 178 -171
265 -18 60 -18 59 -18 -287z" fill="#FFFFFF"/>
</g>
</svg>
