<?xml version="1.0" standalone="no"?>
<!DOCTYPE svg PUBLIC "-//W3C//DTD SVG 20010904//EN"
 "http://www.w3.org/TR/2001/REC-SVG-20010904/DTD/svg10.dtd">
<svg version="1.0" xmlns="http://www.w3.org/2000/svg"
 width="256.000000pt" height="256.000000pt" viewBox="0 0 256.000000 256.000000"
 preserveAspectRatio="xMidYMid meet">
<metadata>
Created by potrace 1.16, written by Peter Selinger 2001-2019
</metadata>
<g transform="translate(0.000000,256.000000) scale(0.100000,-0.100000)"
fill="#000000" stroke="none">
<path d="M1394 2541 c-125 -57 -171 -230 -89 -341 106 -144 332 -120 399 42
35 83 12 202 -50 260 -63 59 -178 76 -260 39z" fill="#7402D3"/>
<path d="M1790 2130 c-109 -10 -188 -36 -330 -107 l-115 -58 -115 -162 -115
-161 -145 -72 c-155 -77 -180 -93 -199 -127 -38 -72 25 -172 111 -173 12 0
106 41 208 91 l185 91 50 71 50 72 7 -155 c6 -108 15 -184 31 -251 l24 -95
-75 -85 c-110 -124 -660 -785 -689 -828 -35 -50 -28 -114 16 -153 45 -40 118
-40 160 0 15 15 158 184 317 376 159 191 301 362 315 379 26 30 27 30 33 9 4
-12 13 -22 20 -22 16 0 290 -83 379 -115 82 -30 119 -49 136 -69 19 -22 74
-30 115 -16 49 16 76 57 76 116 0 43 -4 51 -44 90 -48 46 -158 93 -368 158
-76 24 -118 42 -118 51 0 7 -3 20 -6 28 -3 9 13 36 43 69 27 29 58 69 70 88
57 93 139 353 168 535 10 61 19 112 21 114 1 1 36 -16 78 -38 l74 -42 21 -88
c22 -92 25 -148 13 -216 -11 -57 -5 -81 28 -114 38 -38 83 -46 128 -24 52 26
70 59 82 145 13 92 1 197 -35 321 -46 158 -28 141 -261 261 -114 59 -219 109
-233 110 -14 2 -64 0 -111 -4z" fill="#7402D3"/>
<path d="M265 521 c-49 -22 -90 -63 -118 -116 -29 -55 -28 -155 0 -211 28 -53
92 -110 140 -123 168 -47 317 60 317 229 0 102 -49 181 -139 221 -53 24 -147
24 -200 0z" fill="#7402D3"/>
</g>
</svg>
