<svg width="40" height="40" viewBox="0 0 40 40" fill="none" xmlns="http://www.w3.org/2000/svg">
<mask id="mask0_2183_69015" style="mask-type:alpha" maskUnits="userSpaceOnUse" x="0" y="0" width="40" height="40">
<circle cx="20" cy="20" r="20" fill="white"/>
</mask>
<g mask="url(#mask0_2183_69015)">
<circle cx="20" cy="20" r="20" fill="white"/>
<circle cx="20" cy="20" r="19.5" fill="#F5F8FF" stroke="#7FA7FA"/>
<path d="M23.7168 20.6053C23.7168 20.6053 24.4135 20.6053 24.4988 20.2067C24.5984 19.8081 24.7832 18.5125 24.7548 18.0712C24.7263 17.6299 24.5699 16.2632 24.4277 15.8361C24.2855 15.409 23.9158 14.3128 23.93 14.2558C23.9443 14.2131 24.0722 13.9142 24.0722 13.9142C24.0722 13.9142 24.4135 14.4551 24.513 14.4978C24.6126 14.5406 24.769 14.5406 24.769 14.5406C24.769 14.5406 25.4942 15.2239 25.5368 15.4802C25.5795 15.7507 25.7359 16.4198 26.0345 16.9181C26.3331 17.4021 26.7881 18.1424 26.7597 18.5695C26.7313 18.9966 26.5891 19.7938 26.5891 19.9362C26.5891 20.0786 26.5037 20.2921 26.5606 20.3206C26.6033 20.3348 26.9019 20.406 26.9019 20.406L27.0441 20.7904C27.0441 20.7904 26.7028 21.3029 26.7028 21.4026C26.7028 21.5022 26.7881 21.6446 26.7881 21.6446L27.2432 21.2602C27.2432 21.2602 27.6555 21.1178 27.7266 21.0039C27.8119 20.89 28.1816 20.4345 28.2243 20.3633C28.2669 20.2779 28.338 20.0074 28.2243 19.9077C28.1105 19.8081 27.7977 18.9966 27.8119 18.7403C27.8261 18.4841 27.6555 17.8861 27.6413 17.6299C27.6271 17.3594 27.2289 15.4944 27.2289 15.4944C27.0156 14.9961 26.3331 14.0423 26.2905 13.9853C26.2478 13.9284 25.9492 13.4016 25.9492 13.4016L25.679 12.6898C25.679 12.6898 24.6979 10.6398 24.5841 10.5401C24.4562 10.4262 22.437 9.52931 21.1999 9.35847C21.1146 8.98832 21.3421 8.41886 21.3421 8.41886L21.4274 7.60738C21.4274 7.60738 21.6834 7.15181 21.6976 6.99521C21.7118 6.83861 21.8682 6.6393 21.9536 6.56812C22.0389 6.51117 22.1526 6.15526 22.0957 5.94171C22.0389 5.72816 21.1004 5.14446 21.1004 5.14446V5.30107C21.1004 5.30107 20.5885 5.03057 20.5316 5.0021C20.489 4.97363 20.5601 5.24412 20.5601 5.24412C20.5601 5.24412 19.5363 4.91668 18.7969 5.18717C18.0574 5.4719 17.7446 6.26915 17.7446 6.26915L18.0148 6.58235L18.029 7.5362C18.029 7.5362 17.8157 7.5362 17.702 7.70704C17.5882 7.87787 17.7873 8.51852 17.8299 8.60394C17.8726 8.68935 18.285 8.88867 18.285 8.88867L18.4414 9.58626L18.285 9.88522C18.285 9.88522 17.4887 10.2838 17.0479 10.5116C16.6071 10.7536 15.825 11.1238 15.4695 11.7217C15.1283 12.3197 14.7301 13.0457 14.5737 13.3874C14.4173 13.7291 14.2182 14.4409 14.0049 14.626C13.8059 14.8111 13.5073 15.4802 13.2371 15.7222C12.9669 15.9784 12.7678 16.2774 12.7536 16.676C12.7394 17.0889 12.8389 17.4306 13.0949 17.9573C13.3651 18.4698 13.749 18.9396 13.749 18.9396C13.749 18.9396 13.4504 19.7084 13.3508 19.922C13.2513 20.1213 12.7536 20.8758 12.7963 20.9328C12.8389 20.9755 12.9954 21.0466 12.9954 21.0466L13.4077 20.4202C13.4077 20.4202 13.2797 21.2744 13.3651 21.2602C13.4504 21.246 13.621 21.2602 13.621 21.2602L13.8343 20.406C13.8343 20.406 13.8627 21.2744 13.9196 21.2602C13.9623 21.246 14.2182 21.1748 14.2182 21.1748L14.332 20.0074C14.332 20.0074 14.5879 20.9043 14.659 20.8758C14.7443 20.8473 14.9292 20.8331 14.9292 20.7761C14.9292 20.7334 14.8723 19.5803 14.8723 19.5803C14.8723 19.5803 15.3842 19.4949 15.4411 19.381C15.4837 19.2528 15.0856 18.4983 14.8439 18.1851C14.6021 17.8719 14.2893 17.0177 14.2893 17.0177C14.2893 16.8184 14.4457 16.3344 14.6021 16.2062C14.7586 16.0639 15.3131 15.7364 15.498 15.3663C15.6828 15.0104 16.2231 14.626 16.2942 14.4836C16.3796 14.3412 16.5929 14.0423 16.5929 14.0423L16.9057 14.1704C16.9057 14.1704 17.0052 14.6687 16.9341 14.9677C16.8772 15.2666 16.6782 15.9927 16.8488 16.2774C17.0194 16.5621 17.119 16.8326 17.119 16.8326C17.119 16.8326 16.6639 17.217 16.6924 17.6299C16.7208 18.057 16.9483 18.7403 16.9341 18.7973C16.9199 18.84 17.2043 19.0678 17.2327 19.1105C17.2612 19.1532 16.9341 19.324 16.8488 19.6657C16.7635 20.0074 16.4649 20.0786 16.4933 20.5199C16.5075 20.9612 16.081 21.431 16.1521 21.8724C16.2089 22.3137 15.825 22.6411 15.8677 23.0967C15.9103 23.5523 15.8961 24.2071 15.8961 24.2071C15.8961 24.2071 15.6544 25.5454 15.5833 26.0294C15.5122 26.5135 15.1425 26.9121 14.659 27.4246C14.1756 27.9371 13.9765 28.7771 13.9196 29.1187C13.8627 29.4604 13.2655 31.183 13.0807 31.8237C12.91 32.4643 12.7821 33.29 12.4977 33.5605C12.2133 33.831 12 34.3151 12 34.5001C12 34.6852 12.0853 34.9557 12.0853 34.9557C12.0853 34.9557 13.9338 35.0554 14.0191 34.9557C14.1045 34.8561 13.9907 34.3435 13.9907 34.3435C13.9907 34.3435 14.1756 33.1619 14.3178 32.9199C14.4599 32.6779 14.915 31.781 15.0572 31.5389C15.1994 31.2969 15.7681 30.3431 15.7681 30.3431C15.7681 30.3431 15.7966 31.0549 16.2374 31.0976C16.6782 31.1403 17.1332 30.5566 17.2469 30.3573C17.3607 30.158 17.8299 28.4639 17.8299 28.4639L18.74 28.9194C18.939 29.0476 19.8775 29.3608 19.8775 29.3608C19.8775 29.3608 20.2899 29.7736 20.688 29.7736C21.1004 29.7736 21.6692 29.6313 21.9962 29.0049C22.3233 28.3784 22.8778 27.1968 22.9347 26.784C22.9916 26.3711 23.3613 23.7373 23.3613 23.7373C23.3613 23.7373 23.8447 22.4561 23.9016 22.1998C23.9443 21.9293 23.9016 21.4595 23.9016 21.4595L23.7168 20.6053ZM19.4509 26.7697H18.3276L17.9153 26.2287L18.3845 25.104L19.1381 24.0505C19.1381 24.0505 19.1381 25.0471 19.1381 25.4173C19.1381 25.7874 19.6216 26.3142 19.6216 26.3142L19.4509 26.7697Z" fill="#145CF6"/>
<path d="M24.8571 35C26.2772 35 27.4285 33.8488 27.4285 32.4286C27.4285 31.0084 26.2772 29.8572 24.8571 29.8572C23.4369 29.8572 22.2856 31.0084 22.2856 32.4286C22.2856 33.8488 23.4369 35 24.8571 35Z" fill="#145CF6"/>
</g>
</svg>
