<?xml version="1.0" encoding="UTF-8"?>
<svg width="28px" height="28px" viewBox="0 0 28 28" version="1.1" xmlns="http://www.w3.org/2000/svg" xmlns:xlink="http://www.w3.org/1999/xlink">
    <!-- Generator: Sketch 59 (86127) - https://sketch.com -->
    <title>game-settings-icon</title>
    <desc>Created with Sketch.</desc>
    <g id="game-settings-icon" stroke="none" stroke-width="1" fill="none" fill-rule="evenodd">
        <g id="Group-9">
            <rect id="Rectangle" x="0" y="0" width="28" height="28"></rect>
            <path d="M18.2590836,7.52778396 C19.0207032,7.52778396 19.697208,7.70156894 20.2768342,7.99101632 C20.206583,8.03051712 20.1370231,8.07299501 20.0680025,8.11839278 L20.0266536,8.14598137 L19.1204958,7.79815031 L19.1139279,7.79574916 L19.1025415,7.79196261 L19.0908715,7.78843003 C18.9116043,7.73683285 18.7180892,7.80319879 18.6172032,7.95808163 L18.6107561,7.96830788 L18.607062,7.97453278 L17.7956726,9.32242225 L17.7897578,9.3326378 L17.7840601,9.34315853 C17.6974659,9.50871348 17.7362546,9.70776181 17.8890095,9.82358214 L17.8989145,9.83086078 L17.902527,9.83334728 L18.6646772,10.4002278 L18.6594797,10.4398693 C18.6497755,10.5184976 18.6440275,10.5930785 18.6427421,10.6642115 L18.642466,10.6944877 L18.6426538,10.7281277 L18.6433503,10.7671651 C18.6446234,10.8190431 18.6472776,10.870186 18.651357,10.9200307 L18.6546844,10.9571621 L18.6578041,10.9874484 L17.8917803,11.5573079 L17.8821787,11.5646765 C17.7340761,11.6819995 17.6920526,11.889203 17.7793007,12.0525618 L17.7851743,12.0631521 L18.6066859,13.4209567 C18.706408,13.5840756 18.905205,13.650112 19.0895131,13.5993618 L19.1015115,13.5958863 L19.1089773,13.593616 L20.0220291,13.2430752 L20.0545491,13.2649523 L20.0897711,13.2880657 C20.2190698,13.3718305 20.3500997,13.4447824 20.4850582,13.5074413 L20.5219641,13.5242753 L20.5474393,13.5355081 L20.6846249,14.4605381 L20.6860263,14.4669667 L20.6886669,14.4783325 C20.7332872,14.659145 20.8911976,14.7895513 21.0854129,14.7947987 L21.097598,14.7949631 L22.7288702,14.7949631 L22.7404336,14.7948144 L22.7521439,14.7943594 C22.9466565,14.784242 23.1075215,14.6479674 23.1373875,14.4619449 L23.2500787,13.7017195 L23.9835161,16.6840744 C24.3751544,18.2768702 23.1273804,19.802519 21.4285527,19.8328727 L21.3769362,19.8333333 C20.6495072,19.8333333 19.9655823,19.4667406 19.5855845,18.8752983 L19.5738088,18.8567427 L18.4523231,17.068494 C18.2637709,16.7675186 17.9213784,16.5786397 17.5554637,16.5724273 L17.5368382,16.5722692 L8.85216092,16.5722692 C8.48548631,16.5722692 8.14028527,16.7559785 7.94656091,17.0531286 L7.9368417,17.0683354 L6.81519034,18.8569013 C6.43782627,19.4590635 5.74723507,19.8333333 5.01305722,19.8333333 C3.30261349,19.8333333 2.03593024,18.3220582 2.39429069,16.7322723 L2.40564872,16.6840744 L3.86174047,10.7629981 C4.39218311,8.60530533 6.37751688,7.54901086 8.07878223,7.52810074 L8.13024698,7.52778396 L18.2590836,7.52778396 Z M22.7239202,7 L22.8928265,8.13879079 L23.0058679,8.18273627 L23.0389808,8.19587729 C23.237112,8.27611934 23.4255859,8.38154824 23.6142101,8.51541511 L23.6456506,8.53799012 L23.7413629,8.60750839 L24.8571685,8.17915056 L25.6666667,9.5167987 L24.7120721,10.2268785 L24.7328938,10.346273 L24.7372253,10.3724988 C24.7523946,10.4696496 24.7597369,10.5776257 24.7597369,10.6944877 C24.7597369,10.8052781 24.7535498,10.9099783 24.7410833,11.0113781 L24.7361139,11.0492538 L24.7200793,11.1641847 L25.662424,11.8720955 L24.8529258,13.2097842 L23.7358428,12.7809787 L23.6397603,12.8521902 L23.608272,12.8752022 C23.4291598,13.0042607 23.2385291,13.1104587 23.03725,13.1920891 L23.0016198,13.2062391 L22.8885784,13.2501846 L22.7196775,14.3889754 L21.1025056,14.3889754 L20.9336417,13.2501846 L20.8206003,13.2062391 L20.7874873,13.1930981 C20.5893562,13.1128561 20.4008823,13.0074272 20.212258,12.8735603 L20.1808176,12.8509853 L20.0851053,12.781467 L18.9692573,13.2097842 L18.1597591,11.8721361 L19.1143961,11.1620969 L19.0935744,11.0427024 L19.0896011,11.0186952 C19.0743446,10.9214501 19.0667312,10.8098995 19.0667312,10.6944877 C19.0667312,10.6009317 19.0774598,10.4940835 19.0973249,10.3741758 L19.1020706,10.346273 L19.1228923,10.2268785 L18.1682444,9.5167581 L18.9734999,8.17915056 L20.0889493,8.60735325 L20.1845394,8.53837114 L20.2160679,8.51587383 C20.4047649,8.38275641 20.5954742,8.27568798 20.7904046,8.1964333 L20.8248484,8.18273627 L20.9378898,8.13879079 L21.1067482,7 L22.7239202,7 Z M9.10506279,10.1367304 C8.7581655,10.1367304 8.47605357,10.4024868 8.46896708,10.7328169 L8.46883058,10.7455533 L8.46883058,11.4411244 L7.74194483,11.4411244 C7.39060014,11.4411244 7.10571262,11.7137388 7.10571262,12.0501059 C7.10571262,12.3820586 7.38343345,12.652017 7.72863502,12.6587982 L7.74194483,12.6589288 L8.46883058,12.6589288 L8.46883058,13.3544998 C8.46883058,13.6907083 8.7537181,13.9633227 9.10506279,13.9633227 C9.4521237,13.9633227 9.7342377,13.6975663 9.74132422,13.3672362 L9.74146072,13.3544998 L9.74146072,12.6589288 L10.4683465,12.6589288 C10.8196912,12.6589288 11.1045787,12.3863144 11.1045787,12.0501059 C11.1045787,11.7179966 10.8268579,11.4480362 10.4816563,11.441255 L10.4683465,11.4411244 L9.74146072,11.4411244 L9.74146072,10.7455533 C9.74146072,10.4093448 9.4565732,10.1367304 9.10506279,10.1367304 Z M17.284102,12.7455183 C16.9329231,12.7455183 16.6477041,13.0184499 16.6477041,13.3544998 C16.6477041,13.6905498 16.9329231,13.9633227 17.284102,13.9633227 C17.635281,13.9633227 17.9203343,13.6905498 17.9203343,13.3544998 C17.9203343,13.0184499 17.635281,12.7455183 17.284102,12.7455183 Z M15.9208183,11.4411244 C15.5698051,11.4411244 15.2845862,11.7138973 15.2845862,12.0501059 C15.2845862,12.3861558 15.5696394,12.6589288 15.9208183,12.6589288 C16.272163,12.6589288 16.5572163,12.3861558 16.5572163,12.0501059 C16.5572163,11.7138973 16.272163,11.4411244 15.9208183,11.4411244 Z M21.9132341,9.0299383 C20.9550126,9.0299383 20.1717837,9.77846334 20.1717837,10.6944877 C20.1717837,11.6105121 20.9550126,12.3590371 21.9132341,12.3590371 C22.8714555,12.3590371 23.6546845,11.6105121 23.6546845,10.6944877 C23.6546845,9.77846334 22.8714555,9.0299383 21.9132341,9.0299383 Z M17.284102,10.1367304 C16.9329231,10.1367304 16.6477041,10.4095034 16.6477041,10.7455533 C16.6477041,11.0817618 16.9329231,11.3545348 17.284102,11.3545348 C17.635281,11.3545348 17.9203343,11.0817618 17.9203343,10.7455533 C17.9203343,10.4095034 17.635281,10.1367304 17.284102,10.1367304 Z" id="Shape" fill="#7402D3" fill-rule="nonzero"></path>
        </g>
    </g>
</svg>