<?xml version="1.0" standalone="no"?>
<!DOCTYPE svg PUBLIC "-//W3C//DTD SVG 20010904//EN"
 "http://www.w3.org/TR/2001/REC-SVG-20010904/DTD/svg10.dtd">
<svg version="1.0" xmlns="http://www.w3.org/2000/svg"
 width="20px" height="20px" viewBox="0 0 512.000000 512.000000"
 preserveAspectRatio="xMidYMid meet">

<g transform="translate(0.000000,512.000000) scale(0.100000,-0.100000)"
fill="#000000" stroke="none">
<path d="M2410 4984 c-241 -27 -382 -56 -555 -111 -390 -125 -720 -333 -1012
-637 -704 -732 -871 -1827 -419 -2736 120 -240 245 -417 431 -609 386 -398
849 -633 1410 -717 165 -25 505 -25 665 -1 270 42 483 108 725 226 262 129
492 295 685 497 88 91 210 239 210 254 0 10 -469 372 -485 374 -6 0 -40 -35
-75 -79 -279 -353 -718 -598 -1173 -655 -153 -19 -432 -8 -583 24 -769 162
-1328 774 -1425 1560 -14 119 -7 387 14 501 52 279 149 511 307 737 84 120
297 334 420 420 105 74 263 160 381 207 345 136 740 160 1111 66 227 -58 467
-176 657 -324 l24 -18 -352 -303 c-193 -167 -350 -304 -348 -306 5 -5 1902
-464 1919 -464 13 0 16 7 13 33 -3 17 -23 471 -46 1007 -23 536 -45 979 -49
983 -4 5 -148 -112 -320 -258 -173 -147 -319 -269 -326 -272 -7 -2 -45 23 -85
57 -329 276 -748 459 -1204 526 -97 14 -443 26 -515 18z" fill="#FFFFFF"/>
</g>
</svg>
