<svg width="40" height="40" viewBox="0 0 40 40" fill="none" xmlns="http://www.w3.org/2000/svg">
<mask id="mask0_2182_68866" style="mask-type:alpha" maskUnits="userSpaceOnUse" x="0" y="0" width="40" height="40">
<circle cx="20" cy="20" r="20" fill="white"/>
</mask>
<g mask="url(#mask0_2182_68866)">
<circle cx="20" cy="20" r="20" fill="white"/>
<circle cx="20" cy="20" r="19.5" fill="#F5F8FF" stroke="#7FA7FA"/>
<path d="M28.4319 5.38088C28.2897 5.2555 28.1885 5.36764 28.1885 5.36764L27.7328 6.01923L28.1079 5.25237C28.2618 4.98368 28.0136 4.89676 28.0136 4.89676C27.8033 4.83064 27.6786 5.143 27.6786 5.143L27.2259 6.01132L27.4817 5.12769C27.5899 4.84176 27.3595 4.79421 27.3595 4.79421C27.0797 4.72155 27.0339 4.99827 27.0339 4.99827L26.621 6.22783C26.4156 6.71888 26.1056 5.94883 26.1056 5.94883C25.8872 5.40279 25.6267 5.62483 25.57 5.6884C25.4687 5.80053 25.5099 5.93363 25.5569 6.01667C25.0481 5.6683 24.3668 5.56857 23.7517 5.84658C22.8449 6.25646 22.4346 7.32367 22.8474 8.23692C23.2602 9.15016 24.3245 9.55086 25.2392 9.13742C25.2628 9.12672 25.2865 9.11603 25.3023 9.1089C23.8928 10.5708 23.6442 11.1763 23.6442 11.1763C23.3218 11.7866 22.7085 12.2155 22.7085 12.2155C22.0891 12.5049 21.5101 12.9468 21.5101 12.9468L21.4163 12.6763C21.5959 12.4434 21.5032 12.0492 21.5032 12.0492C21.6416 11.9771 21.56 11.6916 21.56 11.6916C21.5398 11.2267 21.2906 11.2635 21.2906 11.2635C21.4274 10.1587 20.8237 9.95755 20.8237 9.95755C20.5484 9.28554 19.8159 9.5977 19.8159 9.5977C19.0635 9.82401 18.8578 10.4195 18.8578 10.4195C18.4137 10.7814 18.9757 11.8358 18.9757 11.8358C18.4749 11.9674 19.1485 12.5541 19.1485 12.5541C19.2039 12.7187 19.3553 13.0959 19.3553 13.0959L19.2523 13.3511C17.6184 13.35 17.0421 14.407 17.0421 14.407L15.4082 16.2548C15.0885 16.4088 14.8206 16.7195 14.8206 16.7195L14.1057 17.365C13.8368 17.5055 13.8493 17.68 13.8493 17.68C13.0676 18.1566 12.7221 18.5688 12.7221 18.5688L11.9057 19.1368C10.966 19.0117 10.768 19.4141 10.768 19.4141L10.1136 20.4873C9.88204 20.8575 10.1101 20.963 10.1101 20.963C10.1162 21.1024 10.1533 21.1425 10.1533 21.1425C10.3339 21.3738 10.5677 20.9458 10.5677 20.9458L10.702 20.7808C10.9821 20.749 11.6928 20.3045 11.6928 20.3045C12.2063 20.243 12.462 19.9473 12.462 19.9473C13.35 19.6218 13.1908 19.4377 13.1908 19.4377L14.7201 18.6612C15.0082 18.8154 15.1311 18.6461 15.1311 18.6461C15.6938 18.1262 17.0231 16.9281 17.0231 16.9281C17.1233 16.9397 17.646 16.6465 17.646 16.6465C17.6139 16.8696 17.6944 17.2788 17.6944 17.2788C17.5278 17.4774 17.4031 17.7898 17.4031 17.7898C17.2301 17.9533 17.0857 18.3694 17.0857 18.3694C16.1365 18.5803 16.303 18.9697 16.303 18.9697L15.9113 19.763L15.5371 20.2166C14.8116 20.5445 13.6569 21.8344 13.6569 21.8344L12.4295 23.489C12.128 23.7675 12.4479 24.097 12.4479 24.097L11.6958 24.9963C11.2446 25.3425 10.7949 26.1336 10.7949 26.1336C10.4357 26.5994 9.45617 28.7393 9.45617 28.7393C9.0545 29.0062 8.94298 29.4738 8.94298 29.4738C8.4316 30.0652 8.06863 31.111 8.06863 31.111C7.20121 32.5745 8.05909 32.5186 8.05909 32.5186C9.255 32.4331 9.37591 31.1459 9.37591 31.1459C9.59581 30.5819 10.2598 29.9499 10.2598 29.9499C10.9598 29.4818 10.3424 29.0403 10.3424 29.0403C10.7526 28.2671 11.2803 27.7536 11.2803 27.7536C12.2475 26.9941 12.5946 26.2493 12.5946 26.2493C13.1161 25.8904 13.7785 25.297 13.7785 25.297C14.0098 25.8087 14.2471 25.6825 14.2471 25.6825C14.5993 25.201 16.3255 24.1458 16.3255 24.1458C16.3241 24.3739 16.5026 24.8527 16.5026 24.8527L16.084 26.6158C15.9341 26.9775 16.0869 27.1265 16.0869 27.1265L15.7994 28.3183C15.6801 28.4955 15.6135 28.9996 15.6135 28.9996L15.5374 29.3564C14.9583 30.0922 14.7164 32.1832 14.7164 32.1832C14.6049 32.6507 14.2526 33.7202 14.2526 33.7202C14.0058 33.8886 13.8101 34.527 13.8101 34.527C13.53 34.8527 13.6278 35.2162 13.6278 35.2162L13.5488 35.8398C13.4463 36.6635 14.2373 36.4387 14.2373 36.4387C15.3728 36.2194 14.842 35.2552 14.842 35.2552L14.8836 34.696C15.0785 34.3709 15.0593 33.7822 15.0593 33.7822C15.5776 32.2395 16.106 31.7068 16.106 31.7068C17.0885 30.561 17.1001 29.2 17.1001 29.2C17.3372 28.8842 17.5719 28.1429 17.5719 28.1429C17.7293 28.176 17.8377 28.0796 17.8377 28.0796C20.2975 23.9622 20.7073 21.7385 20.7073 21.7385C20.9106 21.4949 20.8987 21.1116 20.8987 21.1116C21.7221 20.8532 22.1046 18.9262 22.1046 18.9262C22.5724 17.7761 23.2251 15.7745 23.2251 15.7745C23.2875 15.1774 23.7344 14.3591 23.7344 14.3591C24.643 13.0288 24.6632 12.4223 24.6632 12.4223C25.0309 12.038 25.3581 11.5014 25.3581 11.5014C26.0697 10.4497 26.8561 8.78582 26.8561 8.78582L27.2197 8.01464C27.5802 7.90862 27.6578 7.51322 27.6578 7.51322C27.7022 7.27512 28.4625 6.75129 28.4625 6.75129C28.7881 6.54723 28.6483 6.36392 28.6483 6.36392C28.57 6.19072 28.3563 6.30626 28.3563 6.30626L27.7855 6.64013L28.373 5.69191C28.6213 5.48487 28.4319 5.38088 28.4319 5.38088Z" fill="#145CF6"/>
</g>
</svg>
