<svg width="24" height="24" viewBox="0 0 24 24" fill="none" xmlns="http://www.w3.org/2000/svg">
<path d="M4.51523 22.6072H11.0177C12.2477 22.6068 13.4513 22.2512 14.484 21.5832C15.5167 20.9151 16.3345 19.9631 16.8392 18.8415L23.017 5.09175C23.1372 4.8498 23.2075 4.58609 23.2236 4.31638C23.2396 4.04666 23.2011 3.77648 23.1104 3.52198C23.0196 3.26748 22.8785 3.03389 22.6954 2.83517C22.5124 2.63645 22.2911 2.47667 22.0449 2.36539C21.7987 2.25412 21.5326 2.19362 21.2625 2.18752C20.9923 2.18143 20.7238 2.22985 20.4728 2.32991C20.2218 2.42996 19.9936 2.57959 19.8017 2.76985C19.6099 2.96012 19.4584 3.1871 19.3562 3.43725L15.4705 12.084C15.0847 12.9426 14.4594 13.6717 13.6696 14.1839C12.8798 14.696 11.959 14.9695 11.0177 14.9715H4.51523C3.51193 14.9856 2.55449 15.394 1.84997 16.1084C1.14546 16.8229 0.750488 17.786 0.750488 18.7894C0.750488 19.7928 1.14546 20.7558 1.84997 21.4703C2.55449 22.1848 3.51193 22.5932 4.51523 22.6072ZM2.90273 17.1652C3.32851 16.7316 3.90757 16.4824 4.51523 16.4715H5.17523L4.52348 21.1072H4.51523C4.06216 21.0991 3.62142 20.9583 3.24749 20.7024C2.87356 20.4464 2.58285 20.0865 2.41129 19.6671C2.23973 19.2477 2.19484 18.7872 2.28218 18.3425C2.36953 17.8979 2.58526 17.4886 2.90273 17.1652ZM9.72023 16.4715L9.06848 21.1072H7.55348L8.20598 16.4715H9.72023ZM11.3425 21.096C11.2345 21.1035 11.1257 21.1072 11.0177 21.1072H9.82523L10.477 16.4715H11.02C11.35 16.4715 11.6785 16.4445 12.0025 16.3935L11.3425 21.096ZM12.115 20.982L12.7847 16.2195C14.2318 15.8013 15.4849 14.8857 16.3232 13.6342L17.2982 14.1592L15.4705 18.2272C15.1615 18.914 14.6979 19.5199 14.116 19.9978C13.534 20.4757 12.8487 20.8125 12.115 20.982ZM5.28248 21.1072L5.93348 16.4715H7.44848L6.79598 21.1072H5.28248ZM17.7302 19.1565H21.8327C22.2002 19.1565 22.4927 19.449 22.4927 19.8165V21.1965C22.4927 21.5565 22.2002 21.8565 21.8327 21.8565H17.7302C17.3702 21.8565 17.0702 21.564 17.0702 21.1965V19.8165C17.0702 19.4565 17.3627 19.1565 17.7302 19.1565Z" fill="white"/>
</svg>
