<svg width="40" height="40" viewBox="0 0 40 40" fill="none" xmlns="http://www.w3.org/2000/svg">
<mask id="mask0_2183_69106" style="mask-type:alpha" maskUnits="userSpaceOnUse" x="0" y="0" width="40" height="40">
<circle cx="20" cy="20" r="20" fill="white"/>
</mask>
<g mask="url(#mask0_2183_69106)">
<circle cx="20" cy="20" r="20" fill="white"/>
<circle cx="20" cy="20" r="19.5" fill="#F5F8FF" stroke="#7FA7FA"/>
<path d="M23.0892 28.6771C22.8413 28.4801 22.6559 28.1044 22.5511 28.011C22.4484 27.9176 21.9365 27.3957 21.6786 27.152C21.4207 26.9083 21.3582 26.7458 21.2494 26.5163C21.1406 26.2869 21.064 26.2198 21.0579 26.0574C21.0519 25.8969 21.0579 25.8441 21.0579 25.8441C21.0579 25.8441 20.8927 25.568 20.8202 25.2349C20.7476 24.9018 20.7375 24.7089 20.7375 24.7089C20.7375 24.7089 20.2499 23.7138 20.0705 23.1513C19.8912 22.5888 19.7139 21.7683 19.5587 21.2769C19.4035 20.7854 19.1174 20.5437 19.1174 19.9101C19.1174 19.2786 19.2343 18.5982 19.2343 18.5982C19.2343 18.5982 19.1879 18.2165 19.196 18.1921C19.2041 18.1677 19.2665 18.0743 19.2665 18.0743C19.2665 18.0743 19.1033 17.4569 18.9945 16.9878C18.8857 16.5187 18.7769 15.9095 18.7769 15.9095C18.7769 15.9095 18.664 15.8831 18.5129 15.682C18.3617 15.483 18.3073 15.1012 18.2912 14.9164C18.2751 14.7316 18.1824 14.4046 18.0091 14.2848C17.8358 14.165 17.723 14.0574 17.4247 14.0513C17.1265 14.0432 16.8081 14.1325 16.665 14.098C16.522 14.0635 15.9396 13.6715 15.6696 13.637C15.3975 13.6025 14.7708 13.6573 14.4303 13.6736C14.0897 13.6898 13.6404 13.6837 13.465 13.6573C13.2897 13.6309 12.659 13.5111 12.3749 13.4014C12.0907 13.2918 11.3834 12.9953 11.1356 12.8958C10.8877 12.7962 9.79152 12.3495 9.53963 12.2236C9.28573 12.0977 9.31192 12.0936 9.07414 12.0936C8.83636 12.0936 8.40311 12.057 8.21571 11.9839C8.0283 11.9108 7.9739 11.7971 7.94166 11.7971C7.91143 11.7971 7.63738 11.7768 7.49229 11.7037C7.3472 11.6306 7.04897 11.3625 7.02277 11.2021C6.99657 11.0416 6.98851 10.9218 7.02277 10.871C7.05703 10.8203 7.11143 10.8081 7.11143 10.8081C7.11143 10.8081 7.12352 10.4141 7.40564 10.2496C7.68775 10.0851 8.1875 10.1989 8.1875 10.1989C8.1875 10.1989 8.43536 10.1867 8.50991 10.1867C8.58447 10.1867 8.82024 10.406 8.90084 10.4791C8.98145 10.5542 9.63636 11.0579 9.73711 11.1229C9.83787 11.1899 10.7406 11.5026 10.9663 11.5676C11.192 11.6346 11.9698 11.8012 12.2298 11.8012C12.4897 11.8012 12.8686 11.8986 13.0016 11.923C13.1326 11.9474 13.7915 12.0956 14.0051 12.0997C14.2187 12.1037 15.1053 11.9717 15.1477 11.9352C15.19 11.9007 15.6817 11.7524 15.8026 11.6773C15.9235 11.6021 16.3325 11.5453 16.391 11.5047C16.4494 11.4661 16.5038 11.3828 16.5965 11.3605C16.6892 11.3361 17.0157 11.3605 17.0842 11.3056C17.1547 11.2508 17.7854 11.1147 18.0292 11.0477C18.2731 10.9807 18.4121 10.9665 18.4121 10.9665C18.4121 10.9665 18.6257 10.8061 18.8534 10.6923C19.0811 10.5786 19.2524 10.6111 19.2524 10.5949C19.2524 10.5786 19.47 10.404 19.5889 10.3166C19.7098 10.2313 19.9839 10.1339 19.9839 10.1339C19.9839 10.1339 19.9295 9.63023 19.8831 9.52056C19.8368 9.4109 19.8025 9.36825 19.8025 9.36825C19.8025 9.36825 19.5547 9.41902 19.4922 9.36825C19.4297 9.31748 19.4156 9.22813 19.3915 9.13471C19.3673 9.04129 19.2524 8.87274 19.2363 8.72449C19.2202 8.57624 19.2101 8.55187 19.2484 8.50923C19.2867 8.46658 19.3834 8.43815 19.3834 8.43815C19.3834 8.43815 19.202 8.1254 19.1436 7.92639C19.0852 7.72737 19.0469 6.80945 19.3915 6.55153C19.7381 6.30378 20.0766 6.04993 20.3708 6.01134C20.665 5.97276 21.4751 6.03774 21.5516 6.12913C21.6282 6.21848 21.9305 6.69572 22.0171 6.86631C22.1018 7.03893 22.1521 7.21357 22.1683 7.39432C22.1844 7.57303 22.1683 7.9406 22.1683 7.9406C22.1683 7.9406 22.3698 7.74971 22.4867 7.93654C22.6035 8.12337 22.5491 8.27568 22.533 8.37316C22.5169 8.47064 22.5632 8.75292 22.4867 8.82603C22.4101 8.90117 22.3436 8.92351 22.2731 8.9032C22.2025 8.88289 22.134 8.82806 22.134 8.82806C22.134 8.82806 22.2086 9.58961 22.2086 9.74192C22.2086 9.89423 22.2247 10.1481 22.2247 10.1481C22.2247 10.1481 22.4826 10.1196 22.7406 10.1867C22.9985 10.2537 23.5002 10.4832 23.6393 10.54C23.7783 10.5969 24.5541 10.7269 25.1164 11.1554C25.6786 11.5818 25.9849 12.0205 26.005 12.1281C26.0252 12.2378 26.0473 12.4571 26.0574 12.5546C26.0675 12.6541 26.408 13.2938 26.4443 13.4502C26.4806 13.6065 26.5148 14.0391 26.5148 14.0391C26.5148 14.0391 26.7627 14.1752 26.7909 14.2686C26.8191 14.362 26.8191 14.4615 26.8191 14.4696C26.8191 14.4777 27.2987 15.0586 27.5163 15.2352C27.734 15.4119 28.0765 15.7348 28.1974 15.881C28.3184 16.0272 28.5642 16.3055 28.5642 16.3055C28.5642 16.3055 28.9309 15.9176 29.1586 15.814C29.3864 15.7104 29.6806 15.7429 29.7853 15.7714C29.8921 15.7998 29.9506 15.8648 29.9506 15.8648C29.9506 15.8648 30.271 15.881 30.4201 16.0516C30.5692 16.2242 30.6115 16.3542 30.6115 16.4293C30.6115 16.5045 30.545 16.671 30.545 16.671C30.545 16.671 30.809 17.0122 30.8171 17.1361C30.8251 17.262 30.807 17.5077 30.7506 17.5686C30.6942 17.6296 30.6256 17.727 30.6256 17.727C30.6256 17.727 30.6196 18.2063 30.535 18.3424C30.4503 18.4784 30.2972 18.6876 30.2307 18.7424C30.1642 18.7973 30.138 18.8013 30.138 18.8013C30.138 18.8013 29.741 19.2623 29.5536 19.2542C29.3682 19.2461 29.1748 19.2298 29.1687 19.1344C29.1627 19.0389 29.1848 18.9597 29.2634 18.9191C29.344 18.8765 29.4649 18.7648 29.5012 18.714C29.5375 18.6612 29.5395 18.6429 29.5395 18.6429C29.5395 18.6429 29.5214 18.3769 29.2675 18.188C29.0136 17.9971 28.7979 17.855 28.6629 17.7717C28.5279 17.6884 28.5078 17.6336 28.4513 17.6499C28.3949 17.6661 28.2398 17.8225 28.0947 17.8245C27.9496 17.8265 27.7279 17.788 27.599 17.6884C27.47 17.5889 27.3168 17.4671 27.3168 17.3818C27.3168 17.2965 27.341 17.1767 27.341 17.1767C27.341 17.1767 26.9823 17.1219 26.8252 17.0284C26.668 16.935 26.1561 16.4537 25.9466 16.2121C25.737 15.9704 25.334 15.3408 25.2796 15.3266C25.2252 15.3124 25.1587 15.2637 25.1446 15.3226C25.1284 15.3815 25.1023 15.5053 25.0096 15.5561C24.9169 15.6069 24.7415 15.6231 24.7335 15.6658C24.7254 15.7084 24.7798 15.7937 24.8685 15.8851C24.9572 15.9744 25.1627 16.4659 25.2211 16.6223C25.2796 16.7786 25.334 17.0366 25.3179 17.1564C25.3017 17.2762 25.1587 17.5828 25.1587 17.5828C25.1587 17.5828 25.334 17.6133 25.334 17.6966C25.334 17.7798 25.2796 17.924 25.2836 17.9423C25.2876 17.9626 25.4146 17.9504 25.465 18.0682C25.5153 18.186 25.5113 18.2469 25.5194 18.3342C25.5274 18.4195 25.7914 18.6734 25.7954 18.7566C25.7995 18.8379 25.7249 19.0024 25.7209 19.108C25.7169 19.2136 25.7753 19.4471 25.7874 19.6583C25.7995 19.8695 26.0393 20.9499 25.9929 21.4515C25.9466 21.9511 25.8619 22.5217 25.7612 22.7553C25.6604 22.9888 25.6141 23.2467 25.598 23.4661C25.5818 23.6854 25.6221 24.0124 25.5516 24.1383C25.4811 24.2642 25.3884 24.4733 25.3803 24.5363C25.3723 24.5993 25.2957 24.9729 25.342 25.0988C25.3884 25.2247 25.7451 25.3649 25.7451 25.5355C25.7451 25.7081 25.6826 26.1752 25.6826 26.4331C25.6826 26.691 25.6584 26.9103 25.6584 26.9103C25.6584 26.9103 26.4302 26.955 26.6116 27.485C26.7929 28.0171 26.7566 28.2913 26.7365 28.5045C26.7163 28.7177 26.7667 29.3473 26.8655 29.5361C26.9642 29.723 27.2886 30.2957 27.331 30.5556C27.3733 30.8155 27.4196 31.2887 27.3249 31.6279C27.2322 31.967 27.1234 32.2737 26.8856 32.3265C26.6478 32.3793 26.4725 32.166 26.3637 31.9934C26.2549 31.8208 26.1219 31.3639 26.003 31.1506C25.8841 30.9374 25.6 30.4845 25.471 30.2388C25.342 29.9951 25.2695 29.859 25.2695 29.859C25.2695 29.859 25.2594 30.5678 25.2131 30.6917C25.1667 30.8176 25.0015 30.9252 24.9955 31.0308C24.9894 31.1344 25.072 31.3111 25.068 31.4431C25.064 31.5751 24.929 31.7294 24.933 31.7863C24.939 31.8431 25.1284 31.8594 25.1405 31.969C25.1506 32.0787 25.0982 32.3224 25.0781 32.4524C25.0579 32.5823 25.1546 33.1753 25.1345 33.3886C25.1143 33.6018 25.336 34.2476 25.0358 34.3369C24.7355 34.4263 24.5199 34.4365 24.5199 34.4365C24.5199 34.4365 24.5501 34.54 24.395 34.5461C24.2398 34.5522 24.1572 34.5624 24.1572 34.4466H23.8992C23.8992 34.4466 23.9295 34.5827 23.7803 34.5827C23.6312 34.5827 23.5627 34.5258 23.5627 34.4365C23.5627 34.4365 23.202 34.3268 23.1597 34.2131C23.1174 34.0993 23.1597 33.9105 23.1899 33.7866C23.2201 33.6607 23.2826 33.5632 23.3451 33.4475C23.4076 33.3337 23.4277 33.3073 23.4015 33.1814C23.3753 33.0555 23.4015 33.0413 23.3189 32.7854C23.2363 32.5295 22.94 32.2594 22.928 32.1315C22.9179 32.0036 22.8897 31.9406 22.9642 31.8391C23.0388 31.7375 23.1416 31.6522 23.1778 31.5649C23.2141 31.4796 23.0086 31.0735 23.0086 30.848C23.0086 30.6206 23.1295 29.2863 23.1355 29.0955C23.1476 28.9046 23.0892 28.6771 23.0892 28.6771Z" fill="#145CF6"/>
</g>
</svg>
