<?xml version="1.0" encoding="UTF-8"?>
<svg width="40px" height="40px" viewBox="0 0 40 40" version="1.1" xmlns="http://www.w3.org/2000/svg" xmlns:xlink="http://www.w3.org/1999/xlink">
    <!-- Generator: Sketch 59 (86127) - https://sketch.com -->
    <title>income-icon</title>
    <desc>Created with Sketch.</desc>
    <g id="V2" stroke="none" stroke-width="1" fill="none" fill-rule="evenodd">
        <g id="02_Dashboard" transform="translate(-437.000000, -360.000000)">
            <g id="Group-32" transform="translate(413.000000, 340.000000)">
                <g id="Group-23-Copy-3" transform="translate(24.000000, 20.000000)">
                    <g id="income-icon">
                        <circle id="Oval" fill="#F6EBFF" cx="20" cy="20" r="20"></circle>
                        <path d="M20.5166088,8 C21.345515,8 22.0222449,8.71274426 22.0695255,9.61345938 L22.0721643,9.71428571 L22.0721643,12.2522321 C23.8703704,12.9674107 25.1666667,14.8486607 25.1666667,17.0736607 C25.1666667,18.0209822 24.4707175,18.7879464 23.6111111,18.7879464 C22.7818142,18.7879464 22.105447,18.0747871 22.0581929,17.1744426 L22.0555556,17.0736607 C22.0555556,16.1276786 21.3579861,15.359375 20.5,15.359375 C19.6416088,15.359375 18.9444444,16.1276786 18.9444444,17.0732143 C18.9444444,17.9854114 19.5927006,18.7323945 20.4086709,18.784587 L20.5,18.7875 C23.0731481,18.7875 25.1666667,21.0946429 25.1666667,23.9303571 C25.1666667,26.1001674 23.934375,27.9423515 22.2060763,28.6959746 L22.0721643,28.7517857 L22.0721643,30.2857143 C22.0721643,31.2330357 21.3762152,32 20.5166088,32 C19.6877026,32 19.0109726,31.2868406 18.963692,30.3864961 L18.9610532,30.2857143 L18.9610532,28.7633929 C17.1458333,28.0584822 15.8333333,26.1691965 15.8333333,23.9308035 C15.8333333,22.9830357 16.5288773,22.2165178 17.3888889,22.2165178 C18.2177951,22.2165178 18.894525,22.9292621 18.9418056,23.8299772 L18.9470878,24.0314075 C18.9944475,24.9302695 19.6722656,25.6450893 20.5,25.6450893 C21.3579861,25.6450893 22.0555556,24.8763393 22.0555556,23.9308035 C22.0555556,23.0404675 21.4376393,22.3075213 20.6496347,22.2243731 L20.5,22.2165178 C17.9264468,22.2165178 15.8333333,19.909375 15.8333333,17.0736607 C15.8333333,14.8907925 17.0810286,13.0402185 18.825867,12.2961147 L18.9610532,12.2410714 L18.9610532,9.71428571 C18.9610532,8.76651783 19.6570023,8 20.5166088,8 Z M28.0833333,15.2 L31,18.788 L28.8125,18.788 L28.8125,27.2 L27.3541667,27.2 L27.3541667,18.788 L25.1666667,18.788 L28.0833333,15.2 Z M13.6458333,12.8 L13.6458333,21.212 L15.8333333,21.212 L12.9166667,24.8 L10,21.212 L12.1875,21.212 L12.1875,12.8 L13.6458333,12.8 Z" id="Shape" fill="#7402D3" fill-rule="nonzero"></path>
                    </g>
                </g>
            </g>
        </g>
    </g>
</svg>