<svg width="18" height="18" viewBox="0 0 18 18" fill="none" xmlns="http://www.w3.org/2000/svg">
<path d="M8.99979 17.75C4.16729 17.75 0.249786 13.8324 0.249786 9C0.249786 4.16751 4.16729 0.25 8.99979 0.25C13.8322 0.25 17.7498 4.16751 17.7498 9C17.7498 13.8324 13.8322 17.75 8.99979 17.75ZM8.99979 16C12.8658 16 15.9998 12.866 15.9998 9C15.9998 5.13401 12.8658 2 8.99979 2C5.13379 2 1.99979 5.13401 1.99979 9C1.99979 12.866 5.13379 16 8.99979 16ZM8.12479 4.625H9.87479V6.375H8.12479V4.625ZM8.12479 8.125H9.87479V13.375H8.12479V8.125Z" fill="#8C94AB"/>
</svg>
