<svg width="18" height="18" viewBox="0 0 18 18" fill="none" xmlns="http://www.w3.org/2000/svg">
<path d="M8.99976 17.75C4.16726 17.75 0.249756 13.8324 0.249756 9C0.249756 4.16751 4.16726 0.25 8.99976 0.25C13.8322 0.25 17.7498 4.16751 17.7498 9C17.7498 13.8324 13.8322 17.75 8.99976 17.75ZM8.99976 16C12.8658 16 15.9998 12.866 15.9998 9C15.9998 5.13401 12.8658 2 8.99976 2C5.13376 2 1.99976 5.13401 1.99976 9C1.99976 12.866 5.13376 16 8.99976 16ZM8.12476 4.625H9.87476V6.375H8.12476V4.625ZM8.12476 8.125H9.87476V13.375H8.12476V8.125Z" fill="#8C94AB"/>
</svg>
