<?xml version="1.0" standalone="no"?>
<!DOCTYPE svg PUBLIC "-//W3C//DTD SVG 20010904//EN"
 "http://www.w3.org/TR/2001/REC-SVG-20010904/DTD/svg10.dtd">
<svg version="1.0" xmlns="http://www.w3.org/2000/svg"
 width="728.000000pt" height="496.000000pt" viewBox="0 0 728.000000 496.000000"
 preserveAspectRatio="xMidYMid meet">
<metadata>
Created by potrace 1.16, written by Peter Selinger 2001-2019
</metadata>
<g transform="translate(0.000000,496.000000) scale(0.100000,-0.100000)"
fill="#000000" stroke="none">
<path d="M1610 4939 c-16 -30 22 -90 132 -204 106 -111 105 -111 257 -69 53
15 120 33 149 41 33 9 52 19 52 28 0 21 -99 83 -253 161 l-128 64 -99 0 c-90
0 -100 -2 -110 -21z" fill="#7402D3"/>
<path d="M2080 4670 c-52 -10 -129 -30 -170 -45 -41 -14 -131 -40 -200 -56
-226 -54 -280 -79 -280 -129 0 -33 59 -52 205 -66 140 -13 194 -29 374 -107
118 -52 129 -61 183 -140 75 -110 127 -260 148 -422 25 -200 63 -336 136 -492
24 -51 47 -105 50 -120 16 -65 54 -131 103 -176 28 -27 51 -52 51 -57 0 -5
-13 -11 -30 -15 -16 -4 -62 -30 -102 -59 -40 -29 -99 -67 -131 -86 -124 -74
-186 -147 -228 -272 -37 -110 -22 -379 28 -528 24 -71 135 -255 233 -385 44
-59 173 -295 165 -303 -5 -5 -174 40 -225 60 -78 30 -184 105 -238 166 -110
126 -146 158 -195 171 -79 23 -109 10 -201 -82 -83 -83 -191 -212 -230 -277
-53 -85 -81 -217 -74 -343 4 -71 8 -83 31 -103 16 -14 34 -20 47 -17 11 3 51
40 88 82 37 42 86 92 110 109 63 48 220 122 259 122 36 0 37 -1 217 -173 106
-102 193 -171 266 -210 36 -20 189 -77 340 -128 151 -50 282 -97 292 -103 9
-6 60 -54 115 -106 54 -52 151 -146 216 -208 65 -62 139 -126 164 -143 45 -28
51 -29 169 -29 121 0 122 0 128 25 3 13 16 30 28 36 23 12 54 46 75 83 33 56
-6 157 -70 179 -10 4 -50 2 -90 -3 l-72 -10 -77 42 c-85 47 -96 64 -101 146
l-3 52 36 0 c23 0 53 -11 83 -30 120 -76 207 -94 344 -70 85 14 103 10 126
-30 15 -24 16 -36 8 -67 -15 -54 -14 -180 2 -190 30 -20 461 -104 687 -135
125 -17 229 -23 425 -26 338 -5 474 13 517 67 19 24 20 36 15 136 -3 61 -15
147 -26 193 -12 46 -25 138 -31 205 -15 185 -28 268 -65 423 -35 147 -53 243
-80 426 -9 59 -22 126 -30 148 -8 23 -24 91 -35 153 -37 198 -82 359 -135 488
-29 69 -60 162 -69 207 -26 127 -53 206 -92 264 -61 90 -145 162 -258 218
l-71 35 -6 115 c-10 162 -61 358 -114 437 -54 80 -144 124 -211 103 -84 -26
-211 -107 -276 -174 -42 -43 -106 -153 -127 -218 -26 -79 -16 -76 -175 -48
-177 31 -375 60 -410 60 -67 0 -94 31 -186 217 -47 94 -108 202 -136 240 -114
154 -438 466 -603 580 -125 87 -202 149 -224 182 -9 14 -24 51 -33 81 -39 138
-53 150 -173 149 -47 0 -129 -9 -181 -19z m785 -621 c31 -29 52 -55 48 -60 -4
-4 -48 -19 -98 -34 -92 -28 -179 -67 -190 -85 -3 -5 -11 -10 -16 -10 -11 0
-89 118 -89 135 0 12 11 18 130 71 46 21 91 34 117 34 36 0 49 -7 98 -51z
m-424 -56 c37 -40 99 -118 99 -125 0 -11 -152 -70 -160 -62 -11 12 -40 145
-40 183 0 29 6 33 55 40 6 0 27 -16 46 -36z m647 -147 c134 -142 236 -295 297
-446 34 -85 45 -102 97 -147 47 -40 100 -55 333 -93 105 -17 206 -35 225 -40
114 -29 120 -31 120 -48 0 -26 -131 -200 -156 -207 -11 -4 -68 -2 -125 3 -79
8 -126 7 -194 -4 -50 -7 -132 -13 -184 -14 -85 0 -99 3 -155 31 -76 39 -170
105 -218 156 -20 21 -66 95 -101 165 -36 70 -135 233 -221 362 -86 129 -156
238 -156 244 0 34 223 120 316 121 39 1 46 -3 122 -83z m-374 -216 c162 -238
208 -315 246 -412 46 -115 107 -197 204 -275 44 -35 91 -69 104 -74 12 -4 22
-13 22 -18 0 -11 -265 -4 -333 10 -26 5 -83 9 -127 9 -43 0 -80 4 -82 9 -1 4
-25 27 -53 51 -69 58 -100 108 -114 180 -12 58 -26 97 -101 269 -70 162 -108
343 -78 369 25 20 142 62 168 59 20 -2 48 -36 144 -177z m1998 -73 c86 -66
133 -207 145 -440 l6 -128 -34 3 c-33 3 -34 4 -36 53 -9 252 -19 323 -40 302
-3 -3 -10 -83 -15 -178 -9 -163 -23 -239 -44 -246 -6 -2 -21 19 -34 47 -26 55
-57 70 -46 23 25 -113 30 -185 17 -258 -13 -76 -33 -138 -55 -164 -9 -12 -12
-9 -16 15 -3 16 -11 29 -19 29 -18 0 -49 -91 -54 -156 -2 -27 -6 -52 -9 -54
-3 -3 -20 6 -39 19 -189 137 -279 165 -729 231 -146 21 -185 30 -237 56 -71
36 -104 66 -82 73 30 10 204 19 404 22 116 2 213 3 216 3 3 1 40 32 82 70 41
38 104 88 139 112 90 61 138 99 138 111 0 11 -79 6 -114 -8 -17 -7 -19 -4 -14
32 9 67 100 247 155 305 75 80 197 158 250 159 12 0 41 -15 65 -33z m206 -658
c68 -23 177 -96 229 -152 58 -63 89 -121 137 -259 24 -68 62 -168 84 -223 41
-99 94 -262 105 -320 21 -110 22 -102 -30 -129 -53 -27 -99 -72 -131 -128 -26
-46 -75 -195 -102 -308 -41 -176 -90 -320 -109 -320 -6 0 -11 13 -11 29 0 16
-16 93 -34 172 -19 79 -40 174 -46 212 -7 37 -16 70 -22 73 -24 15 -82 -9
-124 -52 -57 -57 -76 -102 -124 -298 -40 -164 -61 -209 -99 -214 -25 -4 -25
-9 -6 96 8 46 17 147 20 225 3 78 8 174 11 213 l5 72 38 5 c21 2 67 19 102 36
57 28 65 29 84 16 62 -46 65 -47 98 -41 45 8 135 64 161 99 18 25 21 45 24
164 2 80 -1 155 -8 181 -27 109 -158 270 -254 313 -63 27 -176 40 -277 29 -46
-4 -86 -7 -87 -5 -2 2 19 41 47 87 57 94 88 176 97 257 8 64 21 100 57 158 25
40 27 41 69 36 24 -4 67 -14 96 -24z m-763 -454 c75 -20 205 -84 205 -102 0
-7 -17 -24 -39 -37 -44 -28 -95 -89 -116 -138 -7 -19 -19 -97 -24 -173 -6 -76
-13 -140 -16 -143 -2 -3 -36 25 -74 61 -39 36 -105 92 -148 124 -95 69 -201
159 -228 192 -31 37 -105 163 -112 189 -3 13 -2 26 2 30 9 10 278 20 395 16
52 -2 122 -11 155 -19z m-820 -265 c161 -48 476 -195 589 -277 84 -61 154
-133 166 -169 20 -58 -10 -136 -76 -200 -54 -53 -70 -82 -36 -69 9 3 29 9 44
12 24 5 28 2 38 -35 15 -56 0 -112 -65 -252 -30 -63 -60 -136 -67 -162 -6 -26
-18 -50 -24 -52 -25 -9 -328 55 -342 73 -27 32 9 224 59 323 11 21 19 47 19
60 0 20 -3 19 -39 -16 -61 -60 -82 -41 -137 125 -59 178 -94 215 -226 239
l-67 12 -20 87 c-24 105 -36 218 -27 265 13 67 69 77 211 36z m-530 -340 c78
-45 164 -63 252 -55 63 6 73 5 73 -9 0 -37 -134 -49 -226 -21 -52 16 -155 81
-162 103 -6 18 5 15 63 -18z m1716 -60 c62 -57 61 -57 192 -64 107 -6 124 -11
107 -31 -27 -32 -197 -64 -344 -65 -115 0 -143 16 -180 101 -34 79 -34 99 2
99 15 -1 38 -7 52 -15 32 -18 50 -19 50 -1 0 8 6 17 13 19 33 14 58 4 108 -43z
m-274 -42 c15 -40 44 -93 63 -118 34 -44 35 -47 38 -151 5 -140 -6 -173 -78
-256 -32 -37 -79 -97 -102 -133 -35 -53 -54 -71 -103 -96 -33 -18 -70 -35 -82
-39 -39 -11 -28 29 44 175 l67 135 6 130 c4 104 9 135 23 157 12 17 21 52 23
90 3 35 7 77 10 94 5 32 38 84 54 84 4 0 21 -33 37 -72z m1269 -38 c28 -58 60
-204 80 -369 14 -120 28 -187 84 -416 11 -44 23 -119 26 -167 6 -77 5 -88 -9
-88 -28 0 -27 -15 3 -117 32 -107 64 -254 75 -345 9 -71 -8 -103 -57 -112
-139 -24 -538 -40 -678 -26 -116 12 -521 69 -531 76 -3 2 -62 15 -130 29 -141
29 -169 40 -169 68 0 16 2 17 15 7 20 -17 28 -8 41 48 l10 47 24 -47 c13 -27
28 -48 33 -48 6 0 7 26 3 62 l-8 63 25 -24 c14 -12 31 -36 37 -52 19 -45 40
-38 29 8 -6 21 -13 55 -16 77 -8 51 12 45 47 -15 29 -49 61 -62 235 -99 109
-24 135 -24 205 -5 120 33 353 84 432 95 46 6 88 16 93 21 14 14 -18 36 -64
44 -36 6 -39 9 -51 59 -14 60 -11 86 21 171 21 53 23 78 24 222 0 148 -5 187
-21 170 -3 -3 -10 -59 -15 -124 -15 -184 -54 -319 -99 -343 -28 -15 -45 -3
-27 18 55 61 60 220 12 355 l-27 78 27 60 c14 33 48 147 75 253 27 106 62 222
78 257 34 74 107 161 131 157 9 -2 26 -23 37 -48z m-2210 -9 c52 -24 63 -35
77 -70 10 -23 17 -49 17 -59 1 -35 38 -122 79 -185 l42 -65 -15 -76 c-9 -41
-16 -103 -16 -136 0 -89 -23 -78 -64 31 -37 100 -90 193 -176 308 l-60 81 0
100 0 100 28 0 c15 0 54 -13 88 -29z m1277 -379 c-1 -136 -4 -274 -8 -308 -6
-56 -9 -61 -42 -79 -73 -39 -161 -194 -182 -320 -7 -38 -15 -82 -18 -98 -6
-36 -50 -87 -73 -87 -23 0 -58 48 -71 95 -12 42 -20 43 -132 14 -102 -26 -208
-28 -261 -5 l-39 16 26 28 c15 16 27 36 27 46 0 17 -7 18 -92 11 -50 -4 -100
-8 -111 -11 -25 -4 -70 19 -126 65 -104 85 -191 131 -191 102 0 -5 20 -25 45
-46 142 -116 159 -141 201 -300 l19 -70 79 -41 c44 -23 86 -50 94 -60 7 -11
20 -28 27 -38 8 -11 23 -20 34 -21 11 -1 26 -7 35 -14 17 -14 14 -15 84 35 41
30 22 -4 -23 -42 -73 -60 -52 -76 29 -23 26 17 50 29 53 26 12 -13 -21 -70
-51 -88 -48 -29 -79 -25 -111 17 -22 29 -32 34 -51 30 -19 -5 -24 -2 -24 13 0
27 -48 81 -71 81 -26 0 -24 -21 7 -83 31 -61 33 -62 101 -83 28 -8 57 -22 65
-31 12 -15 6 -16 -71 -9 -46 4 -96 13 -112 22 -43 22 -114 86 -314 284 -223
221 -243 253 -252 405 -7 121 2 209 25 231 14 14 35 16 161 10 203 -10 407
-33 531 -60 l105 -22 3 -32 c4 -39 11 -39 65 -5 62 39 164 88 227 108 73 23
130 53 130 66 0 8 -19 9 -60 5 -33 -4 -60 -3 -60 2 0 4 14 21 31 38 99 95 243
334 201 334 -4 0 -14 -9 -22 -20 -8 -11 -18 -20 -22 -20 -14 0 -9 168 5 177
17 11 160 20 172 10 6 -5 9 -101 8 -255z m-1446 149 c46 -24 216 -299 248
-400 l7 -24 -135 7 c-89 5 -142 4 -155 -3 -38 -20 -55 -86 -60 -233 -4 -111
-1 -147 12 -189 10 -28 16 -53 14 -55 -10 -9 -456 141 -477 161 -18 18 -17
149 3 204 14 41 87 171 96 171 3 0 47 -34 99 -75 59 -47 103 -75 118 -75 16 0
23 5 21 14 -2 7 -46 59 -100 115 -94 100 -153 179 -216 292 -26 47 -30 58 -18
68 12 10 105 25 216 35 90 8 305 0 327 -13z m1850 -182 c18 -85 33 -161 33
-170 0 -13 -15 -17 -72 -22 -40 -3 -93 -13 -117 -21 -24 -9 -47 -14 -50 -10
-10 10 48 217 78 279 33 67 67 108 84 102 7 -2 26 -73 44 -158z m-2395 -129
c21 -6 40 -15 43 -20 3 -4 -13 -42 -35 -83 -49 -90 -58 -119 -69 -215 -5 -40
-12 -76 -15 -79 -3 -4 -38 16 -77 43 -72 49 -119 96 -119 117 0 26 61 138 97
177 58 65 102 80 175 60z m2490 -132 c30 -16 50 -37 66 -68 22 -41 23 -55 20
-170 -3 -96 -8 -133 -22 -160 -28 -53 -46 -70 -77 -70 -25 0 -30 6 -50 60 -12
34 -33 70 -47 80 -31 25 -101 46 -178 55 -104 12 -116 19 -142 83 -34 82 -33
94 8 114 37 19 194 91 220 102 34 13 160 -2 202 -26z m172 -519 c13 -69 8 -88
-28 -103 -42 -18 -144 -41 -151 -34 -3 2 5 32 16 66 21 62 34 76 88 93 53 15
68 11 75 -22z" fill="#7402D3"/>
<path d="M5502 813 c-16 -30 -35 -152 -29 -186 8 -50 109 -267 124 -267 24 0
14 50 -28 143 -40 89 -41 93 -39 191 3 127 2 136 -10 136 -5 0 -13 -8 -18 -17z" fill="#7402D3"/>
</g>
</svg>
