<?xml version="1.0" encoding="UTF-8"?>
<svg width="28px" height="28px" viewBox="0 0 28 28" version="1.1" xmlns="http://www.w3.org/2000/svg" xmlns:xlink="http://www.w3.org/1999/xlink">
    <!-- Generator: Sketch 59 (86127) - https://sketch.com -->
    <title>leaderboard-icon</title>
    <desc>Created with Sketch.</desc>
    <g id="leaderboard-icon" stroke="none" stroke-width="1" fill="none" fill-rule="evenodd">
        <g id="Group-7">
            <rect id="Rectangle" x="0" y="0" width="28" height="28"></rect>
            <path d="M17.2183908,2.33333333 C17.4366067,2.33333333 17.6142435,2.50412866 17.6205181,2.71715295 L17.6206897,2.72881356 L17.6206897,2.75214689 L18.9201149,2.75214689 C19.1459915,2.75226721 19.3616576,2.84466378 19.5155172,3.00723164 C19.6666086,3.16757119 19.742986,3.38250309 19.7263218,3.60045198 C19.6446552,4.64412429 19.25,7.06485876 17.3994253,7.44254237 C16.9739889,8.51086698 15.9940539,9.26819529 14.8396332,9.42372022 L14.8045977,9.42824859 L14.8045977,11.8644068 C15.276176,11.9601536 15.6965172,12.219786 15.9888378,12.5952261 L16.0046552,12.6158192 L20.0344828,12.6158192 C20.4738569,12.6158192 20.8309748,12.9620311 20.8389444,13.3920866 L20.8390805,13.4067797 L20.8390805,14.5932203 L22.045977,14.5932203 C22.2641929,14.5932203 22.4418298,14.7640157 22.4481043,14.97704 L22.4482759,14.9887006 L22.4482759,18.1525424 C22.4482759,18.3670597 22.2745358,18.5416857 22.0578387,18.547854 L22.045977,18.5480226 L20.8390805,18.5480226 L20.8390805,19.7344633 L23.2528736,19.7344633 C23.6922477,19.7344633 24.0493656,20.0806752 24.0573352,20.5107307 L24.0574713,20.5254237 L24.0574713,21.7118644 L25.2643678,21.7118644 C25.4825838,21.7118644 25.6602206,21.8826598 25.6666667,22.095684 L25.6666667,22.1073446 L25.6666667,25.2711864 C25.6666667,25.4857038 25.4929266,25.6603298 25.2762295,25.6666667 L25.2643678,25.6666667 L22.045977,25.6666667 C21.8277611,25.6666667 21.6501243,25.4958713 21.6438497,25.2828471 L21.6436782,25.2711864 L21.6436782,22.1073446 C21.6436782,21.8928273 21.8174183,21.7182013 22.0341154,21.712033 L22.045977,21.7118644 L23.2528736,21.7118644 L23.2528736,20.5254237 L17.6206897,20.5254237 L17.6206897,21.7118644 L18.8275862,21.7118644 C19.0458021,21.7118644 19.223439,21.8826598 19.2297135,22.095684 L19.2298851,22.1073446 L19.2298851,25.2711864 C19.2298851,25.4857038 19.056145,25.6603298 18.8394479,25.6666667 L18.8275862,25.6666667 L15.6091954,25.6666667 C15.3909795,25.6666667 15.2133427,25.4958713 15.2070681,25.2828471 L15.2068966,25.2711864 L15.2068966,22.1073446 C15.2068966,21.8928273 15.3806366,21.7182013 15.5973337,21.712033 L15.6091954,21.7118644 L16.816092,21.7118644 L16.816092,20.5254237 C16.816092,20.0934966 17.168273,19.7424316 17.6057432,19.734597 L17.6206897,19.7344633 L20.0344828,19.7344633 L20.0344828,18.5480226 L18.8275862,18.5480226 C18.6093703,18.5480226 18.4317335,18.3772273 18.4254589,18.164203 L18.4252874,18.1525424 L18.4252874,14.9887006 C18.4252874,14.7741832 18.5990275,14.5995572 18.8157245,14.593389 L18.8275862,14.5932203 L20.0344828,14.5932203 L20.0344828,13.4067797 L16.3699425,13.4067797 C16.3980757,13.5368174 16.4127672,13.6693175 16.4137931,13.8022599 C16.4137931,14.0167772 16.240053,14.1914033 16.0233559,14.1975715 L16.0114943,14.1977401 L11.9885057,14.1977401 C11.7663222,14.1977401 11.5862069,14.0206776 11.5862069,13.8022599 C11.586084,13.6815141 11.5972118,13.5610365 11.6194366,13.4423352 L11.6264368,13.4067797 L7.96551724,13.4067797 L7.96551724,14.5932203 L9.17241379,14.5932203 C9.39062973,14.5932203 9.56826654,14.7640157 9.57454113,14.97704 L9.57471264,14.9887006 L9.57471264,18.1525424 C9.57471264,18.3670597 9.40097255,18.5416857 9.18427545,18.547854 L9.17241379,18.5480226 L7.96551724,18.5480226 L7.96551724,19.7344633 L10.3793103,19.7344633 C10.8186845,19.7344633 11.1758024,20.0806752 11.183772,20.5107307 L11.183908,20.5254237 L11.183908,21.7118644 L12.3908046,21.7118644 C12.6090205,21.7118644 12.7866573,21.8826598 12.7929319,22.095684 L12.7931034,22.1073446 L12.7931034,25.2711864 C12.7931034,25.4857038 12.6193634,25.6603298 12.4026663,25.6666667 L12.3908046,25.6666667 L9.17241379,25.6666667 C8.95419786,25.6666667 8.77656105,25.4958713 8.77028646,25.2828471 L8.77011494,25.2711864 L8.77011494,22.1073446 C8.77011494,21.8928273 8.94385504,21.7182013 9.16055214,21.712033 L9.17241379,21.7118644 L10.3793103,21.7118644 L10.3793103,20.5254237 L4.74712644,20.5254237 L4.74712644,21.7118644 L5.95402299,21.7118644 C6.17223895,21.7118644 6.34987573,21.8826598 6.35615032,22.095684 L6.35632184,22.1073446 L6.35632184,25.2711864 C6.35632184,25.4857038 6.18258176,25.6603298 5.96588465,25.6666667 L5.95402299,25.6666667 L2.73563218,25.6666667 C2.51741623,25.6666667 2.33977944,25.4958713 2.33333333,25.2828471 L2.33333333,25.2711864 L2.33333333,22.1073446 C2.33333333,21.8928273 2.50707341,21.7182013 2.72377053,21.712033 L2.73563218,21.7118644 L3.94252874,21.7118644 L3.94252874,20.5254237 C3.94252874,20.0934966 4.2947098,19.7424316 4.73218003,19.734597 L4.74712644,19.7344633 L7.16091954,19.7344633 L7.16091954,18.5480226 L5.95402299,18.5480226 C5.73580703,18.5480226 5.55817024,18.3772273 5.55189566,18.164203 L5.55172414,18.1525424 L5.55172414,14.9887006 C5.55172414,14.7741832 5.72546421,14.5995572 5.94216133,14.593389 L5.95402299,14.5932203 L7.16091954,14.5932203 L7.16091954,13.4067797 C7.16091954,12.9748525 7.51310061,12.6237875 7.95057083,12.6159529 L7.96551724,12.6158192 L11.9957471,12.6158192 C12.2733652,12.2254997 12.6950265,11.9576575 13.1703369,11.8689119 L13.1954023,11.8644068 L13.1954023,9.42824859 C12.0257994,9.28346312 11.0303084,8.52165814 10.6005747,7.44254237 C8.7491954,7.06485876 8.35534483,4.64412429 8.27367816,3.60084746 C8.25706334,3.38290494 8.33343406,3.16799189 8.48448276,3.00762712 C8.63394637,2.84970406 8.84173513,2.75799978 9.06055041,2.75277815 L9.07988506,2.75254237 L10.3793103,2.75254237 L10.3793103,2.72881356 C10.3793103,2.51429618 10.5530504,2.33967018 10.7697475,2.33333333 L10.7816092,2.33333333 L17.2183908,2.33333333 Z M18.9241379,3.54033898 L17.6206897,3.54271186 L17.6206897,6.28813559 C17.6206897,6.37276836 17.6154598,6.45581921 17.6086207,6.53887006 C18.5950414,6.01564972 18.8535451,4.38069855 18.9202868,3.58781417 L18.9241379,3.54033898 Z M10.3793103,3.54350282 L9.07988506,3.54350282 L9.08352378,3.59081474 C9.1468728,4.38107837 9.40574713,6.01564972 10.3913793,6.53887006 C10.3856801,6.46966102 10.3810983,6.40045198 10.3797294,6.33032747 L10.3793103,6.28813559 L10.3793103,3.54350282 Z" id="Shape" fill="#7402D3" fill-rule="nonzero"></path>
        </g>
    </g>
</svg>