<svg width="24" height="24" viewBox="0 0 24 24" fill="none" xmlns="http://www.w3.org/2000/svg">
<path d="M12.5981 2.5H21.2596C21.3886 2.5 21.4941 2.60559 21.4941 2.73464V11.3987C21.4941 11.4691 21.4414 11.5219 21.371 11.5219C20.7963 11.5161 20.2333 11.4515 19.6938 11.3401C19.6352 11.3283 19.5941 11.2755 19.5941 11.2169V5.7439L15.8997 9.43949C15.8528 9.48642 15.7824 9.49228 15.7355 9.44535C15.3074 9.08753 14.9086 8.68864 14.5509 8.26042C14.5099 8.20763 14.5157 8.13723 14.5568 8.09617L18.2454 4.40059H12.7682C12.7096 4.40059 12.6568 4.35952 12.6451 4.30086C12.5336 3.75533 12.4691 3.19805 12.4691 2.62319C12.4691 2.55279 12.5278 2.5 12.5981 2.5ZM4.4 7.25147C4.4 5.67351 5.67253 4.40059 7.25 4.40059H11.5602C11.6364 4.40059 11.6951 4.33019 11.6775 4.2598C11.5836 3.726 11.5309 3.18046 11.5191 2.62319C11.5191 2.55279 11.4664 2.5 11.396 2.5H7.24414C4.6287 2.5 2.5 4.62936 2.5 7.25147V11.4046C2.5 11.475 2.55278 11.5278 2.62315 11.5278C3.18025 11.5337 3.72562 11.5864 4.25926 11.6803C4.33549 11.692 4.4 11.6392 4.4 11.563V7.25147ZM5.7429 19.5994L9.43735 15.9038C9.48426 15.8569 9.49012 15.7865 9.44321 15.7396C9.08549 15.3114 8.68673 14.9125 8.25864 14.5546C8.20586 14.5136 8.13549 14.5195 8.09444 14.5605L4.4 18.2561V12.7772C4.4 12.7186 4.35895 12.6658 4.30031 12.6541C3.75494 12.5426 3.19784 12.4781 2.62315 12.4722C2.55278 12.4722 2.5 12.525 2.5 12.5954V21.2595C2.5 21.3885 2.60556 21.4941 2.73457 21.4941H11.396C11.4664 21.4941 11.5191 21.4413 11.5191 21.3709C11.5133 20.7961 11.4488 20.2329 11.3432 19.6933C11.3315 19.6346 11.2787 19.5935 11.2201 19.5935H5.7429V19.5994ZM19.5941 12.4429V16.7485C19.5941 18.3265 18.3216 19.5994 16.7441 19.5994H12.434C12.3577 19.5994 12.2991 19.6698 12.3167 19.7402C12.4105 20.274 12.4633 20.8195 12.475 21.3768C12.475 21.4472 12.5278 21.5 12.5981 21.5H16.75C19.3713 21.5 21.5 19.3706 21.5 16.7485V12.5895C21.5 12.5191 21.4472 12.4663 21.3769 12.4663C20.8198 12.4605 20.2744 12.4077 19.7407 12.3138C19.6645 12.308 19.5941 12.3666 19.5941 12.4429ZM10.2818 15.0591L15.0494 10.2901C15.1022 10.2373 15.0963 10.1551 15.0435 10.1082C14.6272 9.75625 14.2401 9.3691 13.8883 8.95261C13.8414 8.89982 13.7593 8.89395 13.7065 8.94674L8.94475 13.7158C8.89197 13.7686 8.89784 13.8507 8.95062 13.8977C9.36698 14.2496 9.75401 14.6368 10.1059 15.0533C10.1528 15.1061 10.2349 15.1119 10.2818 15.0591Z" fill="white"/>
</svg>
