<svg width="14" height="14" viewBox="0 0 14 14" fill="none" xmlns="http://www.w3.org/2000/svg">
<path d="M7.1627 4.45137L12.5831 9.87181C12.7043 9.99297 12.7681 10.1588 12.7681 10.3246C12.7681 10.4904 12.7043 10.6498 12.5831 10.771L10.7721 12.582C10.5234 12.8307 10.1152 12.8307 9.86654 12.582L4.4461 7.16159C4.31856 7.03405 4.26117 6.87462 4.26117 6.70882C4.26117 6.54302 4.32494 6.3836 4.4461 6.25606L6.25079 4.45137C6.50587 4.20267 6.91399 4.20267 7.1627 4.45137ZM5.8044 6.70882L10.3257 11.2301L11.2312 10.3246L6.70993 5.80329L5.8044 6.70882ZM3.99588 4.89712L4.89759 3.99542L2.19184 1.28966L1.29013 2.19137L3.99588 4.89712Z" fill="#002058"/>
</svg>
