<?xml version="1.0" encoding="UTF-8"?>
<svg width="80px" height="80px" viewBox="0 0 80 80" version="1.1" xmlns="http://www.w3.org/2000/svg" xmlns:xlink="http://www.w3.org/1999/xlink">
    <!-- Generator: Sketch 59 (86127) - https://sketch.com -->
    <title>Group 5</title>
    <desc>Created with Sketch.</desc>
    <g id="V2" stroke="none" stroke-width="1" fill="none" fill-rule="evenodd">
        <g id="01_Log-in" transform="translate(-820.000000, -160.000000)">
            <g id="Group-7" transform="translate(447.000000, 140.000000)">
                <g id="Group-6">
                    <g id="Group-5" transform="translate(373.000000, 20.000000)">
                        <circle id="Oval" fill="#FFFFFF" cx="40" cy="40" r="40"></circle>
                        <path d="M52.111997,22.7235088 L52.111997,25.5280742 L50.8079678,25.5280742 L50.8079678,24.0459087 L19.081807,24.0459087 L19.081807,57.3442667 L50.8079678,57.3442667 L50.8079678,53.5682433 L52.111997,53.5682433 L52.111997,58.6666667 L17.7777778,58.6666667 L17.7777778,22.7235088 L52.111997,22.7235088 Z M49.0670019,26.5975432 L49.0670019,33.3839235 L43.679188,33.3840117 L43.679188,37.5257684 L46.0838178,37.5257684 L46.0838178,38.8481684 L43.679188,38.8481684 L43.679188,53.9173569 L48.4146396,53.9173569 L48.4146396,55.2398451 L20.8227729,55.2398451 L20.8227729,26.5975432 L49.0670019,26.5975432 Z M36.9869102,49.7758647 L32.9027777,49.7758647 L32.9027777,53.9174451 L36.9869102,53.9174451 L36.9869102,49.7758647 Z M42.3749849,49.7758647 L38.2909393,49.7758647 L38.2909393,53.9174451 L42.3749849,53.9174451 L42.3749849,49.7758647 Z M26.2108476,49.7758647 L22.1268021,49.7758647 L22.1268021,53.9174451 L26.2108476,53.9174451 L26.2108476,49.7758647 Z M31.5988354,49.7758647 L27.5147899,49.7758647 L27.5147899,53.9174451 L31.5988354,53.9174451 L31.5988354,49.7758647 Z M24.9103828,51.2255677 L24.9103828,52.5479677 L23.6063536,52.5479677 L23.6063536,51.2255677 L24.9103828,51.2255677 Z M56.942295,21.3333333 L62.1668444,23.6148259 L62.1252894,25.467332 L61.525349,26.880096 L62.2222222,27.1844243 L58.2251989,36.595416 L57.0274915,36.0723627 L60.508554,27.8763039 L55.0279801,25.4828481 L47.2153674,43.8820162 L52.6951588,46.2752075 L56.4728445,37.3805689 L57.6705518,37.9037103 L53.3770792,48.012841 L52.8416448,47.7789526 L51.8529298,50.10717 L50.964799,49.7193541 L49.8970599,52.2337654 L44.19228,51.6309274 L45.9365494,47.5234649 L45.0485055,47.1356491 L46.0372205,44.8072553 L45.50196,44.573455 L54.3461467,23.7451264 L55.0436285,24.0497192 L55.6436558,22.6366908 L56.942295,21.3333333 Z M47.1324311,48.0507498 L46.0913811,50.5020386 L49.0785643,50.8176514 L49.765353,49.2005325 L47.1324311,48.0507498 Z M36.9869971,44.3118843 L32.9028646,44.3118843 L32.9028646,48.4534647 L36.9869971,48.4534647 L36.9869971,44.3118843 Z M31.5988354,44.3118843 L27.5147899,44.3118843 L27.5147899,48.4534647 L31.5988354,48.4534647 L31.5988354,44.3118843 Z M42.3749849,44.3118843 L38.2909393,44.3118843 L38.2909393,48.4534647 L42.3749849,48.4534647 L42.3749849,44.3118843 Z M26.2108476,44.3118843 L22.1268021,44.3118843 L22.1268021,48.4534647 L26.2108476,48.4534647 L26.2108476,44.3118843 Z M47.2348409,45.3303968 L46.761913,46.444122 L51.1710095,48.3695364 L51.6439374,47.2558993 L47.2348409,45.3303968 Z M41.074607,45.6735155 L41.074607,46.9959155 L39.7705778,46.9959155 L39.7705778,45.6735155 L41.074607,45.6735155 Z M42.3749849,38.8479039 L38.2909393,38.8479039 L38.2909393,42.9894843 L42.3749849,42.9894843 L42.3749849,38.8479039 Z M31.5988354,38.8479039 L27.5147899,38.8479039 L27.5147899,42.9894843 L31.5988354,42.9894843 L31.5988354,38.8479039 Z M26.2108476,38.8479039 L22.1268021,38.8479039 L22.1268021,42.9894843 L26.2108476,42.9894843 L26.2108476,38.8479039 Z M36.9869971,38.8479039 L32.9028646,38.8479039 L32.9028646,42.9894843 L36.9869971,42.9894843 L36.9869971,38.8479039 Z M30.244123,40.2574941 L30.244123,41.5798941 L28.9400938,41.5798941 L28.9400938,40.2574941 L30.244123,40.2574941 Z M52.8593796,36.5680864 L54.0570869,37.0911396 L53.5565136,38.269927 L52.3588062,37.7468737 L52.8593796,36.5680864 Z M31.5988354,33.3839235 L27.5147899,33.3839235 L27.5147899,37.5255039 L31.5988354,37.5255039 L31.5988354,33.3839235 Z M42.3749849,33.3839235 L38.2909393,33.3839235 L38.2909393,37.5255039 L42.3749849,37.5255039 L42.3749849,33.3839235 Z M36.9869102,33.3839235 L32.9027777,33.3839235 L32.9027777,37.5255039 L36.9869102,37.5255039 L36.9869102,33.3839235 Z M26.2108476,33.3839235 L22.1268021,33.3839235 L22.1268021,37.5255039 L26.2108476,37.5255039 L26.2108476,33.3839235 Z M35.6321108,34.7935137 L35.6321108,36.1159137 L34.3280816,36.1159137 L34.3280816,34.7935137 L35.6321108,34.7935137 Z M54.4067406,32.9244336 L55.604448,33.4474869 L55.0886609,34.6620672 L53.8909536,34.1390139 L54.4067406,32.9244336 Z M36.9869971,27.9199431 L32.9028646,27.9199431 L32.9028646,32.0615236 L36.9869971,32.0615236 L36.9869971,27.9199431 Z M31.5988354,27.9199431 L27.5147899,27.9199431 L27.5147899,32.0615236 L31.5988354,32.0615236 L31.5988354,27.9199431 Z M26.2108476,27.9199431 L22.1268021,27.9199431 L22.1268021,32.0615236 L26.2108476,32.0615236 L26.2108476,27.9199431 Z M42.3749849,27.9199431 L38.2909393,27.9199431 L38.2909393,32.0615236 L42.3749849,32.0615236 L42.3749849,27.9199431 Z M47.7630596,27.9199431 L43.6790141,27.9199431 L43.6790141,32.0615236 L47.7630596,32.0615236 L47.7630596,27.9199431 Z M55.9541016,29.2806927 L57.151809,29.803746 L56.636022,31.0183263 L55.4383146,30.495273 L55.9541016,29.2806927 Z M24.8560482,29.3295334 L24.8560482,30.6519333 L23.552019,30.6519333 L23.552019,29.3295334 L24.8560482,29.3295334 Z M57.2343975,22.9006418 L56.7410398,23.3957483 L56.2412489,24.5726843 L60.3276417,26.3571308 L60.8274326,25.1803712 L60.8431679,24.4765899 L57.2343975,22.9006418 Z" id="Shape" fill="#7402D3" fill-rule="nonzero"></path>
                    </g>
                </g>
            </g>
        </g>
    </g>
</svg>