<?xml version="1.0" encoding="UTF-8"?>
<svg width="20px" height="20px" viewBox="0 0 20 20" version="1.1" xmlns="http://www.w3.org/2000/svg" xmlns:xlink="http://www.w3.org/1999/xlink">
    <!-- Generator: Sketch 59 (86127) - https://sketch.com -->
    <title>logout-icon</title>
    <desc>Created with Sketch.</desc>
    <g id="logout-icon" stroke="none" stroke-width="1" fill="none" fill-rule="evenodd">
        <g id="power_settings_new-24px">
            <polygon id="Path" points="0 0 20 0 20 20 0 20"></polygon>
            <path d="M14.835493,3.74191798 L15.1282818,3.99093937 C16.8870854,5.48682901 17.9166667,7.65596956 17.9166667,10 C17.9166667,14.3717853 14.3717853,17.9166667 10,17.9166667 C5.62821469,17.9166667 2.08333333,14.3717853 2.08333333,10 C2.08333333,7.74612457 3.0352391,5.65394469 4.6720326,4.16650146 L4.87171819,3.99093937 L5.16450697,3.74191798 L6.93742334,5.51483436 L6.57995529,5.80627328 C5.3259698,6.82863088 4.58333333,8.35320769 4.58333333,10 C4.58333333,12.9948814 7.00511865,15.4166667 10,15.4166667 C12.9948814,15.4166667 15.4166667,12.9948814 15.4166667,10 C15.4166667,8.42534572 14.7379408,6.96615325 13.5822767,5.95742908 L13.4139591,5.81642621 L13.0519593,5.5254517 L14.835493,3.74191798 Z M11.25,2.08333333 L11.25,11.25 L8.75,11.25 L8.75,2.08333333 L11.25,2.08333333 Z" id="Shape" fill="#EF1E1E" fill-rule="nonzero"></path>
        </g>
    </g>
</svg>