<svg width="24" height="24" viewBox="0 0 24 24" fill="none" xmlns="http://www.w3.org/2000/svg">
<path d="M5.32894 3.27158C6.56203 2.8332 7.99181 3.10749 8.97878 4.09446C10.0997 5.21537 10.3014 6.90741 9.58382 8.23385L20.2925 18.9437L18.8783 20.3579L8.16933 9.64875C6.84277 10.3669 5.1502 10.1654 4.02903 9.04421C3.04178 8.05696 2.76761 6.62665 3.20652 5.39332L5.44325 7.63C6.02903 8.21578 6.97878 8.21578 7.56457 7.63C8.15035 7.04421 8.15035 6.09446 7.56457 5.50868L5.32894 3.27158Z" fill="#042365"/>
<path d="M18.8781 3.38745L15.6961 5.15521L15.3425 6.92298L13.2212 9.0443L14.6354 10.4585L16.7568 8.33719L18.5245 7.98364L20.2923 4.80166L18.8781 3.38745Z" fill="#FD0000"/>
<path d="M10.3932 14.7012L8.97901 13.2869L3.67571 18.5903L3.598 18.6775C3.28718 19.07 3.31308 19.6418 3.67571 20.0045C4.06623 20.395 4.6994 20.395 5.08992 20.0045L10.3932 14.7012Z" fill="#FD0000"/>
</svg>
