<?xml version="1.0" encoding="UTF-8"?>
<svg width="24px" height="24px" viewBox="0 0 24 24" version="1.1" xmlns="http://www.w3.org/2000/svg" xmlns:xlink="http://www.w3.org/1999/xlink">
    <!-- Generator: Sketch 59 (86127) - https://sketch.com -->
    <title>medal-icon</title>
    <desc>Created with Sketch.</desc>
    <g id="medal-icon" stroke="none" stroke-width="1" fill="none" fill-rule="evenodd">
        <g id="Group-37">
            <rect id="Rectangle" x="0" y="0" width="24" height="24"></rect>
            <path d="M10.892723,2 C11.1180355,2 11.3202596,2.1287207 11.4178533,2.32586914 L11.4530355,2.414375 L11.7307698,3.32117188 L9.39229327,10.9561328 C9.22507973,11.0422786 9.06217175,11.1356467 8.90383552,11.2356583 L8.66979327,11.3905859 L6.02569171,2.75753906 C5.97127765,2.57988281 6.00436359,2.38691406 6.11483234,2.23753906 C6.20695473,2.11302734 6.34367348,2.03107747 6.49422235,2.00721951 L6.58596515,2 L10.892723,2 Z M18.1011214,2 C18.2869026,2 18.4617073,2.088125 18.5722151,2.2375 C18.6605901,2.35703125 18.6994401,2.5044125 18.6835851,2.64954375 L18.6613558,2.7575 L16.0172542,11.3905469 C14.9732698,10.6669531 13.7071761,10.2421875 12.3435433,10.2421875 C11.9116683,10.2421875 11.4896683,10.2850125 11.0813433,10.3662625 L10.777723,10.4343359 L13.2340901,2.41433594 C13.3000911,2.19890137 13.4824013,2.04325134 13.6994525,2.007705 L13.7943636,2 L18.1011214,2 Z" id="Shape" fill="#FB378E" fill-rule="nonzero"></path>
            <path d="M12.3435433,11.4140625 C15.262098,11.4140625 17.636512,13.7884766 17.636512,16.7070312 C17.636512,19.6255859 15.262098,22 12.3435433,22 C9.42498859,22 7.05057452,19.6255859 7.05057452,16.7070312 C7.05057452,13.7884766 9.42498859,11.4140625 12.3435433,11.4140625 Z M12.3435433,13.7675781 C10.722723,13.7675781 9.40409015,15.0862109 9.40409015,16.7070312 C9.40409015,18.3278516 10.722723,19.6464844 12.3435433,19.6464844 C13.9643636,19.6464844 15.2829964,18.3278516 15.2829964,16.7070312 C15.2829964,15.0862109 13.9643636,13.7675781 12.3435433,13.7675781 Z M12.3435433,14.9394531 C13.3197497,14.9394531 14.1111214,15.7308248 14.1111214,16.7070312 C14.1111214,17.6832377 13.3197497,18.4746094 12.3435433,18.4746094 C11.3673368,18.4746094 10.5759651,17.6832377 10.5759651,16.7070312 C10.5759651,15.7308248 11.3673368,14.9394531 12.3435433,14.9394531 Z" id="Shape" fill="#FBD916" fill-rule="nonzero"></path>
        </g>
    </g>
</svg>