<svg xmlns="http://www.w3.org/2000/svg" width="40" height="40" viewBox="0 0 40 40" fill="none">
  <mask id="mask0_2183_69000" style="mask-type:alpha" maskUnits="userSpaceOnUse" x="0" y="0" width="40" height="40">
    <circle cx="20" cy="20" r="20" fill="white"/>
  </mask>
  <g mask="url(#mask0_2183_69000)">
    <circle cx="20" cy="20" r="20" fill="white"/>
    <circle cx="20" cy="20" r="19.5" fill="#F5F8FF" stroke="#7FA7FA"/>
    <path d="M27.6946 17.5828C27.592 17.3607 27.2588 16.9295 27.2588 16.9295C27.2588 16.9295 27.3101 16.629 27.1947 16.5898C27.0922 16.5506 26.8487 16.7597 26.8487 16.7597C26.8487 16.7597 26.2463 15.7405 26.0284 15.1395C25.7977 14.5384 25.4133 14.3424 25.3107 14.1334C25.2082 13.9243 24.6699 12.879 24.6058 12.5262C24.5289 12.1735 23.9009 11.0498 23.6959 10.5663C23.4908 10.0959 23.1704 10.0437 22.6706 9.93914C22.1707 9.84768 22.0169 9.62556 22.0169 9.62556C22.0169 9.62556 22.1451 9.4949 22.2092 9.3773C22.2733 9.27277 22.2092 8.93305 22.2605 8.80239C22.3117 8.67173 22.3245 8.29281 22.3245 8.29281C22.3245 8.29281 22.4142 8.04455 22.4655 7.97922C22.5168 7.90083 22.3245 7.54804 22.3245 7.54804C22.3245 7.54804 22.4014 7.27365 22.4399 7.19525C22.4911 7.10379 22.4399 6.73794 22.4399 6.73794L22.6834 6.62034C22.6834 6.62034 22.8756 5.96704 22.7218 5.64038C22.5424 5.3268 21.5299 5.14387 21.2223 5.02628C20.9147 4.92175 19.5306 5.14387 19.2102 5.43133C18.8898 5.70571 18.9026 6.8294 18.9667 7.27365C19.0436 7.73097 19.4409 8.33201 19.4409 8.33201L19.505 9.02451C19.505 9.02451 18.8257 9.4165 18.5694 9.57329C18.313 9.73009 17.5953 9.82155 17.4159 9.80848C17.2365 9.79542 16.2881 10.2397 15.9292 10.5925C15.5704 10.9452 15.0962 11.4679 14.6091 11.8468C14.1478 12.2257 13.0199 13.2971 12.8918 13.4539C12.7636 13.6107 12.4304 16.2632 12.4047 16.7466C12.3791 17.2301 12.0971 18.406 12.0459 18.798C12.0074 19.19 12.1869 19.3729 12.1869 19.3729C12.1869 19.3729 11.9562 20.2091 12.0074 20.2614C12.0587 20.3137 12.3022 20.3529 12.3022 20.3529V20.7448C12.3022 20.7448 12.5329 20.6795 12.5842 20.6795C12.6482 20.6795 12.7636 19.6473 12.7636 19.6473L12.9558 19.4382V20.6664C12.9558 20.6664 13.1353 20.6664 13.2122 20.6534C13.2762 20.6403 13.4044 19.1116 13.4044 19.1116L13.7889 19.386L14.0068 19.2945C14.0068 19.2945 14.0452 19.1116 13.9555 19.0201C13.8658 18.9286 13.6735 18.6935 13.6479 18.3799C13.6223 18.0793 13.5069 18.1055 13.3916 17.5306C13.2762 16.9557 13.571 15.7013 13.7889 15.2179C14.0068 14.7475 14.2631 13.8851 14.2631 13.8851C14.2631 13.8851 14.6989 13.7283 15.25 13.5062C15.8011 13.2841 16.6213 12.67 16.6213 12.67L16.711 13.1926C16.711 13.1926 16.8904 14.068 16.9033 14.6691C16.9289 15.2832 16.4803 16.8642 16.4803 16.8903C16.4803 16.9295 16.1984 17.413 15.9036 17.8834C15.6216 18.3537 15.6216 20.0523 15.7882 20.9539C15.9548 21.8424 16.7751 22.7832 16.8007 22.9138C16.8392 23.0314 17.1339 24.73 17.1339 24.73C17.1339 24.73 17.2877 24.926 17.339 25.0044C17.3903 25.0828 17.7619 25.2004 17.7619 25.2004L17.7748 26.4809C17.7748 26.4809 17.1468 26.6507 16.5957 27.0558C16.0446 27.4608 15.6088 28.3232 15.3653 28.6107C15.109 28.885 14.4169 29.3946 14.4169 29.3946C14.4169 29.3946 13.6992 29.473 13.4172 29.7735C13.1353 30.0741 13.3531 30.3223 13.3531 30.3223L13.571 30.5575C13.571 30.5575 13.4685 30.6751 13.4685 30.7927C13.4685 30.8972 13.7376 31.041 13.7376 31.041L14.0196 31.5636C14.0196 31.5636 14.0452 32.831 14.0196 32.9617C13.994 33.0793 14.1734 33.1577 14.1734 33.1577C14.1734 33.1577 14.2759 33.3537 14.3656 33.5105C14.2631 33.7326 14.4938 33.7195 14.4938 33.7195L14.9167 33.9808C14.9167 33.9808 15.3268 33.9678 15.4166 33.7065C15.5063 33.4451 15.455 32.7134 15.3525 32.5174C15.2628 32.3214 15.2884 31.8641 15.25 31.7335C15.1987 31.6159 15.2884 31.1455 15.3268 30.7666C15.3653 30.3877 15.9805 29.9303 16.9161 29.4469C17.8517 28.9765 18.2874 28.4408 18.2874 28.4408C18.2874 28.4408 18.4797 29.1986 18.5309 29.5514C18.5822 29.9042 18.9667 31.0018 18.9923 31.4591C19.0308 31.9164 19.2358 32.3084 19.2486 32.6742C19.2614 33.0401 19.1717 33.5627 19.1333 33.7979C19.082 34.0331 19.2999 34.4382 19.3896 34.4512C19.4793 34.4643 19.5562 34.399 19.5562 34.399C19.5562 34.399 19.6716 34.5688 19.7613 34.5819C19.851 34.5949 19.9151 34.4251 19.9151 34.4251L20.2098 34.5296C20.2098 34.5296 20.3124 34.7125 20.3508 34.7387C20.3893 34.7648 20.5431 34.6472 20.5431 34.6472C20.5431 34.6472 20.6456 34.7517 20.7481 34.7387C20.8378 34.7125 20.9019 34.6603 20.9019 34.6603C20.9019 34.6603 21.0301 34.7125 21.2608 34.7387C21.4915 34.7648 22.1579 34.6211 22.1579 34.6211C22.1579 34.6211 22.222 34.5166 22.2605 34.3728C22.6193 34.7517 23.1191 35 23.6831 35C24.7596 35 25.6311 34.1115 25.6311 33.0139C25.6311 31.9164 24.7596 31.0279 23.6831 31.0279C22.6065 31.0279 21.735 31.9164 21.735 33.0139C21.735 33.2753 21.7863 33.5105 21.876 33.7457C21.8631 33.7457 21.8503 33.7457 21.8503 33.7457C21.8503 33.7457 21.6837 33.6542 21.5043 33.5758C21.3249 33.4843 20.8122 32.7788 20.6841 32.5566C20.5559 32.3345 20.3508 31.6551 20.2996 31.3807C20.2483 31.1063 20.3252 29.4077 20.3893 28.9634C20.4534 28.5192 20.2611 27.7483 20.2355 27.4739C20.2098 27.1995 20.338 26.7161 20.4662 26.3763C20.5815 26.0366 20.5815 24.9783 20.5815 24.9783C20.5815 24.9783 20.5687 24.6778 20.6841 24.5471C20.7994 24.4295 20.8763 23.5279 20.8891 23.2666C20.9019 22.9922 21.2095 21.9339 21.107 21.6987C21.0045 21.4635 21.1967 21.0192 21.2352 20.588C21.2736 20.1569 21.1711 19.5036 21.1198 19.1638C21.0557 18.8241 21.3249 18.001 21.2608 17.7658C21.1967 17.5306 21.453 17.1647 21.5299 16.7858C21.6068 16.4069 22.0682 14.643 22.2092 14.1987C22.3502 13.7414 22.7987 12.879 22.7987 12.879L23.0935 13.0228V13.2841L23.3242 13.4931C23.3242 13.4931 23.4139 13.8198 23.5677 14.1203C23.7215 14.4208 24.3367 15.3093 24.3367 15.3093C24.3367 15.3093 24.388 15.5837 24.7853 16.0541C25.1826 16.5245 26.2335 17.2301 26.2335 17.2301C26.2335 17.2301 26.3873 17.5044 26.5026 17.5436C26.618 17.5828 26.7205 17.8311 26.8359 18.014C26.9512 18.1839 27.3613 18.3015 27.3613 18.3015L27.1947 18.7719C27.1947 18.7719 27.3998 18.9156 27.4767 18.9156C27.5664 18.9156 27.7458 18.4191 27.8099 18.2753C27.874 18.1316 27.7971 17.805 27.6946 17.5828Z" fill="#145CF6"/>
  </g>
</svg>