<svg width="56" height="56" viewBox="0 0 56 56" fill="none" xmlns="http://www.w3.org/2000/svg">
<rect width="56" height="56" rx="28" fill="#D3D6DF"/>
<path d="M17.4904 38.5C16.8513 38.5 16.3333 37.9809 16.3333 37.341V18.659C16.3333 18.0189 16.8644 17.5 17.4904 17.5H38.5095C39.1486 17.5 39.6666 18.0191 39.6666 18.659V37.341C39.6666 37.9811 39.1354 38.5 38.5095 38.5H17.4904ZM37.3332 31.5V19.8333H18.6666V36.1667L30.3332 24.5L37.3332 31.5ZM37.3332 34.7998L30.3332 27.7998L21.9664 36.1667H37.3332V34.7998ZM23.3333 26.8333C22.0446 26.8333 20.9999 25.7887 20.9999 24.5C20.9999 23.2113 22.0446 22.1667 23.3333 22.1667C24.6219 22.1667 25.6666 23.2113 25.6666 24.5C25.6666 25.7887 24.6219 26.8333 23.3333 26.8333Z" fill="#7A839F"/>
</svg>
