<svg width="24" height="22" viewBox="0 0 24 22" fill="none" xmlns="http://www.w3.org/2000/svg">
<path d="M1.49035 21.5C0.85131 21.5 0.333252 20.9809 0.333252 20.341V1.65897C0.333252 1.01889 0.864447 0.5 1.49035 0.5H22.5095C23.1486 0.5 23.6666 1.01911 23.6666 1.65897V20.341C23.6666 20.9811 23.1354 21.5 22.5095 21.5H1.49035ZM21.3332 14.5V2.83333H2.66658V19.1667L14.3332 7.5L21.3332 14.5ZM21.3332 17.7998L14.3332 10.7998L5.96642 19.1667H21.3332V17.7998ZM7.33325 9.83333C6.04459 9.83333 4.99992 8.7887 4.99992 7.5C4.99992 6.21133 6.04459 5.16667 7.33325 5.16667C8.62191 5.16667 9.66658 6.21133 9.66658 7.5C9.66658 8.7887 8.62191 9.83333 7.33325 9.83333Z" fill="#7A839F"/>
</svg>
