<svg width="170" height="80" viewBox="0 0 170 80" fill="none" xmlns="http://www.w3.org/2000/svg">
<g clip-path="url(#clip0_1397_50793)">
<path d="M99.1094 0.951172L128.929 11.8958L141.573 39.239L126.197 81.8384L76.498 63.5973L99.1094 0.951172Z" fill="white"/>
<path fill-rule="evenodd" clip-rule="evenodd" d="M77.7086 63.0281L125.633 80.6177L140.552 39.284L128.238 12.6558L99.6738 2.17185L77.7086 63.0281ZM128.929 11.8958L99.1094 0.951172L76.498 63.5973L126.197 81.8384L141.573 39.239L128.929 11.8958Z" fill="#CEDDFD"/>
<path d="M141.574 39.2402L121.695 31.9438L128.93 11.897L141.574 39.2402Z" fill="#CEDDFD"/>
<path fill-rule="evenodd" clip-rule="evenodd" d="M131.177 52.4483L91.4178 37.8555L92.3223 35.3496L132.082 49.9425L131.177 52.4483Z" fill="#CEDDFD"/>
<path fill-rule="evenodd" clip-rule="evenodd" d="M111.3 29.5485L96.3905 24.0762L97.2949 21.5703L112.205 27.0426L111.3 29.5485Z" fill="#CEDDFD"/>
<path fill-rule="evenodd" clip-rule="evenodd" d="M114.919 19.525L100.01 14.0527L100.914 11.5469L115.824 17.0192L114.919 19.525Z" fill="#CEDDFD"/>
<path fill-rule="evenodd" clip-rule="evenodd" d="M127.558 62.4757L87.7987 47.8828L88.7031 45.377L128.463 59.9698L127.558 62.4757Z" fill="#CEDDFD"/>
<path fill-rule="evenodd" clip-rule="evenodd" d="M123.941 72.4971L84.1815 57.9043L85.0859 55.3984L124.845 69.9913L123.941 72.4971Z" fill="#CEDDFD"/>
<path d="M20.7773 39.0449L48.2592 23.0449L77.1582 30.8535L99.636 70.1133L53.8329 96.7799L20.7773 39.0449Z" fill="white"/>
<path fill-rule="evenodd" clip-rule="evenodd" d="M54.1786 95.479L98.3459 69.7647L76.5359 31.6713L48.3926 24.067L22.0675 39.3935L54.1786 95.479ZM48.2592 23.0449L20.7773 39.0449L53.8329 96.7799L99.636 70.1133L77.1582 30.8535L48.2592 23.0449Z" fill="#CEDDFD"/>
<path d="M77.1582 30.8535L58.837 41.5202L48.2592 23.045L77.1582 30.8535Z" fill="#CEDDFD"/>
<path fill-rule="evenodd" clip-rule="evenodd" d="M80.5096 47.3765L43.8671 68.7098L42.5449 66.4004L79.1874 45.0671L80.5096 47.3765Z" fill="#CEDDFD"/>
<path fill-rule="evenodd" clip-rule="evenodd" d="M50.3366 48.0086L36.5957 56.0086L35.2734 53.6992L49.0144 45.6992L50.3366 48.0086Z" fill="#CEDDFD"/>
<path fill-rule="evenodd" clip-rule="evenodd" d="M45.0475 38.7723L31.3066 46.7723L29.9844 44.4629L43.7253 36.4629L45.0475 38.7723Z" fill="#CEDDFD"/>
<path fill-rule="evenodd" clip-rule="evenodd" d="M85.8007 56.6147L49.1582 77.9481L47.8359 75.6387L84.4784 54.3053L85.8007 56.6147Z" fill="#CEDDFD"/>
<path fill-rule="evenodd" clip-rule="evenodd" d="M91.0878 65.853L54.4453 87.1864L53.123 84.877L89.7655 63.5436L91.0878 65.853Z" fill="#CEDDFD"/>
<path fill-rule="evenodd" clip-rule="evenodd" d="M131.498 40.1825C137.769 46.5052 137.769 56.7565 131.498 63.0793C125.228 69.402 115.063 69.402 108.792 63.0793C102.522 56.7565 102.522 46.5052 108.792 40.1825C115.063 33.8597 125.228 33.8597 131.498 40.1825ZM130.163 61.7324C135.695 56.1535 135.695 47.1083 130.163 41.5293C124.63 35.9504 115.661 35.9504 110.128 41.5293C104.596 47.1083 104.596 56.1535 110.128 61.7324C115.661 67.3113 124.63 67.3113 130.163 61.7324Z" fill="#AFB5C5"/>
<path opacity="0.5" d="M130.161 41.5293C135.694 47.1083 135.694 56.1535 130.161 61.7324C124.629 67.3113 115.659 67.3113 110.127 61.7324C104.594 56.1535 104.594 47.1083 110.127 41.5293C115.659 35.9504 124.629 35.9504 130.161 41.5293Z" fill="#F5F8FF"/>
<path d="M129.327 62.5742L131.831 60.0488L146.023 72.6757L141.849 76.8847L129.327 62.5742Z" fill="#AFB5C5"/>
</g>
<path fill-rule="evenodd" clip-rule="evenodd" d="M170 80H0V78H170V80Z" fill="#CEDDFD"/>
<path fill-rule="evenodd" clip-rule="evenodd" d="M42.5013 2.85593C41.984 2.85593 41.5569 3.28668 41.5569 3.80831C41.5569 4.32995 41.984 4.7607 42.5013 4.7607C43.0186 4.7607 43.4457 4.32995 43.4457 3.80831C43.4457 3.28668 43.0186 2.85593 42.5013 2.85593ZM39.668 3.80831C39.668 2.23471 40.9408 0.951172 42.5013 0.951172C44.0618 0.951172 45.3346 2.23471 45.3346 3.80831C45.3346 5.38192 44.0618 6.66546 42.5013 6.66546C40.9408 6.66546 39.668 5.38192 39.668 3.80831Z" fill="#CEDDFD"/>
<path fill-rule="evenodd" clip-rule="evenodd" d="M146.39 1.90476C145.873 1.90476 145.446 2.33551 145.446 2.85714C145.446 3.37878 145.873 3.80952 146.39 3.80952C146.907 3.80952 147.334 3.37878 147.334 2.85714C147.334 2.33551 146.907 1.90476 146.39 1.90476ZM143.557 2.85714C143.557 1.28354 144.829 0 146.39 0C147.95 0 149.223 1.28354 149.223 2.85714C149.223 4.43075 147.95 5.71429 146.39 5.71429C144.829 5.71429 143.557 4.43075 143.557 2.85714Z" fill="#CEDDFD"/>
<path fill-rule="evenodd" clip-rule="evenodd" d="M79.2402 15.0486V3.81055H81.1291V15.0486H79.2402Z" fill="#CEDDFD"/>
<path fill-rule="evenodd" clip-rule="evenodd" d="M74.6133 8.47852H85.7577V10.3833H74.6133V8.47852Z" fill="#CEDDFD"/>
<path fill-rule="evenodd" clip-rule="evenodd" d="M76.3164 11.8892L82.7386 5.60352L84.0542 6.97034L77.632 13.2561L76.3164 11.8892Z" fill="#CEDDFD"/>
<path fill-rule="evenodd" clip-rule="evenodd" d="M77.7461 5.52734L83.9794 12.0035L82.624 13.3302L76.3906 6.85396L77.7461 5.52734Z" fill="#CEDDFD"/>
<path fill-rule="evenodd" clip-rule="evenodd" d="M14.0723 72.1893V60.9512H15.9612V72.1893H14.0723Z" fill="#CEDDFD"/>
<path fill-rule="evenodd" clip-rule="evenodd" d="M9.44531 65.6191H20.5898V67.5239H9.44531V65.6191Z" fill="#CEDDFD"/>
<path fill-rule="evenodd" clip-rule="evenodd" d="M11.1484 69.0299L17.5707 62.7441L18.8862 64.111L12.464 70.3967L11.1484 69.0299Z" fill="#CEDDFD"/>
<path fill-rule="evenodd" clip-rule="evenodd" d="M12.5781 62.668L18.8114 69.1442L17.456 70.4708L11.2227 63.9946L12.5781 62.668Z" fill="#CEDDFD"/>
<path fill-rule="evenodd" clip-rule="evenodd" d="M157.627 62.6678V51.4297H159.516V62.6678H157.627Z" fill="#CEDDFD"/>
<path fill-rule="evenodd" clip-rule="evenodd" d="M153 56.0977H164.144V58.0024H153V56.0977Z" fill="#CEDDFD"/>
<path fill-rule="evenodd" clip-rule="evenodd" d="M14.0723 16.9529V5.71484H15.9612V16.9529H14.0723Z" fill="#CEDDFD"/>
<path fill-rule="evenodd" clip-rule="evenodd" d="M9.44531 10.3828H20.5898V12.2876H9.44531V10.3828Z" fill="#CEDDFD"/>
<defs>
<clipPath id="clip0_1397_50793">
<rect width="128.444" height="80" fill="white" transform="translate(20.7773)"/>
</clipPath>
</defs>
</svg>
