<?xml version="1.0" encoding="UTF-8"?>
<svg width="120px" height="120px" viewBox="0 0 120 120" version="1.1" xmlns="http://www.w3.org/2000/svg" xmlns:xlink="http://www.w3.org/1999/xlink">
    <title>ic_no_data_found</title>
    <g id="ic_no_data_found" stroke="none" stroke-width="1" fill="none" fill-rule="evenodd">
        <g id="empty-box" transform="translate(20.000000, 30.000000)" fill-rule="nonzero">
            <path d="M40,46.5322581 C30.0233115,46.5322581 21.9354839,38.4444305 21.9354839,28.4677419 L1.29032258,28.4677419 L1.29032258,59.4354839 L78.7096774,59.4354839 L78.7096774,28.4677419 L58.0645161,28.4677419 C58.0645161,38.4444305 49.9766885,46.5322581 40,46.5322581 Z" id="Path" fill="#B8C4CE"></path>
            <g id="Group" fill="#8895A7">
                <path d="M79.9162047,28.0084426 L69.593624,0.911668387 C69.4027218,0.41078629 68.922631,0.0806451613 68.3870968,0.0806451613 L11.6129032,0.0806451613 C11.077369,0.0806451613 10.5972782,0.41078629 10.406376,0.911668387 L0.0837953226,28.0084426 C0.0365422581,28.141381 0.0113407258,28.28062 0.00882056452,28.421119 C0.00882056452,28.43813 6.10622664e-16,28.4507308 6.10622664e-16,28.4677419 L6.10622664e-16,59.4354839 C6.10622664e-16,60.1480595 0.577746935,60.7258065 1.29032258,60.7258065 L78.7096774,60.7258065 C79.4222531,60.7258065 80,60.1480595 80,59.4354839 L80,28.4677419 C80,28.4507308 79.9911794,28.43813 79.9911794,28.421119 C79.9886594,28.28062 79.9634577,28.141381 79.9162047,28.0084426 Z M12.5018902,2.66129032 L67.4981098,2.66129032 L76.8371976,27.1774194 L58.0645161,27.1774194 C57.3519405,27.1774194 56.7741935,27.7551663 56.7741935,28.4677419 C56.7741935,37.7318548 49.2641129,45.2419355 40,45.2419355 C30.7358871,45.2419355 23.2258065,37.7318548 23.2258065,28.4677419 C23.2258065,27.7551663 22.6480595,27.1774194 21.9354839,27.1774194 L3.16280242,27.1774194 L12.5018902,2.66129032 Z M77.4193548,58.1451613 L2.58064516,58.1451613 L2.58064516,29.7580645 L20.688004,29.7580645 C21.3634073,39.9269153 29.8084677,47.8295111 40,47.8295111 C50.1915323,47.8295111 58.6365927,39.9269153 59.311996,29.7580645 L77.4193548,29.7580645 L77.4193548,58.1451613 Z" id="Shape"></path>
                <path d="M9.03225806,52.983871 L7.74193548,52.983871 L7.74193548,49.1129032 C7.74193548,48.4003276 7.16418855,47.8225806 6.4516129,47.8225806 C5.73903726,47.8225806 5.16129032,48.4003276 5.16129032,49.1129032 L5.16129032,54.2741935 C5.16129032,54.9867692 5.73903726,55.5645161 6.4516129,55.5645161 L9.03225806,55.5645161 C9.74483371,55.5645161 10.3225806,54.9867692 10.3225806,54.2741935 C10.3225806,53.5616179 9.74483371,52.983871 9.03225806,52.983871 Z" id="Path"></path>
                <path d="M16.7741935,52.983871 L14.1935484,52.983871 C13.4809727,52.983871 12.9032258,53.5616179 12.9032258,54.2741935 C12.9032258,54.9867692 13.4809727,55.5645161 14.1935484,55.5645161 L16.7741935,55.5645161 C17.4867692,55.5645161 18.0645161,54.9867692 18.0645161,54.2741935 C18.0645161,53.5616179 17.4867692,52.983871 16.7741935,52.983871 Z" id="Path"></path>
            </g>
        </g>
    </g>
</svg>