<?xml version="1.0" encoding="UTF-8"?>
<svg width="19px" height="24px" viewBox="0 0 19 24" version="1.1" xmlns="http://www.w3.org/2000/svg" xmlns:xlink="http://www.w3.org/1999/xlink">
    <!-- Generator: Sketch 59 (86127) - https://sketch.com -->
    <title>Shape</title>
    <desc>Created with Sketch.</desc>
    <g id="V2" stroke="none" stroke-width="1" fill="none" fill-rule="evenodd">
        <g id="02_Dashboard" transform="translate(-1123.000000, -20.000000)" fill="#FFFFFF" fill-rule="nonzero">
            <g id="Group-22">
                <g id="Group-16" transform="translate(1116.000000, 15.000000)">
                    <path d="M16.5,29 C17.80625,29 18.875,27.8923077 18.875,26.5384615 L14.125,26.5384615 C14.125,27.8923077 15.181875,29 16.5,29 Z M23.625,21.6153846 L23.625,15.4615385 C23.625,11.6830769 21.6775,8.52 18.28125,7.68307692 L18.28125,6.84615385 C18.28125,5.82461538 17.485625,5 16.5,5 C15.514375,5 14.71875,5.82461538 14.71875,6.84615385 L14.71875,7.68307692 C11.310625,8.52 9.375,11.6707692 9.375,15.4615385 L9.375,21.6153846 L7,24.0769231 L7,25.3076923 L26,25.3076923 L26,24.0769231 L23.625,21.6153846 Z" id="Shape"></path>
                </g>
            </g>
        </g>
    </g>
</svg>