<?xml version="1.0" encoding="UTF-8"?>
<svg width="20px" height="20px" viewBox="0 0 20 20" version="1.1" xmlns="http://www.w3.org/2000/svg" xmlns:xlink="http://www.w3.org/1999/xlink">
    <!-- Generator: Sketch 59 (86127) - https://sketch.com -->
    <title>password-icon</title>
    <desc>Created with Sketch.</desc>
    <g id="password-icon" stroke="none" stroke-width="1" fill="none" fill-rule="evenodd">
        <g id="Password">
            <polygon id="Path" points="0 0 20 0 20 20 0 20"></polygon>
            <path d="M10.5416667,8.33333333 C9.85833333,6.39166667 8.00833333,5 5.83333333,5 C3.075,5 0.833333333,7.24166667 0.833333333,10 C0.833333333,12.7583333 3.075,15 5.83333333,15 C8.00833333,15 9.85833333,13.6083333 10.5416667,11.6666667 L14.1666667,11.6666667 L14.1666667,15 L17.5,15 L17.5,11.6666667 L19.1666667,11.6666667 L19.1666667,8.33333333 L10.5416667,8.33333333 Z M5.83333333,11.6666667 C4.91666667,11.6666667 4.16666667,10.9166667 4.16666667,10 C4.16666667,9.08333333 4.91666667,8.33333333 5.83333333,8.33333333 C6.75,8.33333333 7.5,9.08333333 7.5,10 C7.5,10.9166667 6.75,11.6666667 5.83333333,11.6666667 Z" id="Shape" fill="#EF1E1E" fill-rule="nonzero"></path>
        </g>
    </g>
</svg>