<svg width="40" height="40" viewBox="0 0 40 40" fill="none" xmlns="http://www.w3.org/2000/svg">
<mask id="mask0_2183_69034" style="mask-type:alpha" maskUnits="userSpaceOnUse" x="0" y="0" width="40" height="40">
<circle cx="20" cy="20" r="20" fill="white"/>
</mask>
<g mask="url(#mask0_2183_69034)">
<circle cx="20" cy="20" r="20" fill="white"/>
<circle cx="20" cy="20" r="19.5" fill="#F5F8FF" stroke="#7FA7FA"/>
<path d="M20.0269 23.5848C20.0269 23.5848 20.2806 23.55 20.3498 23.5848C20.419 23.6195 20.4652 23.6311 20.4652 23.6311C20.4652 23.6311 20.5113 23.6543 20.6266 23.7122C20.7419 23.7702 20.7765 23.7818 20.7765 23.7818C20.7765 23.7818 21.1456 23.7006 21.2609 23.7818C21.3762 23.8629 21.7683 24.141 21.9529 24.4191C22.1374 24.6973 22.3334 24.8943 22.4718 25.2303C22.6102 25.578 22.6102 25.9488 22.7832 26.4703C22.9562 26.9918 23.1638 27.3858 23.3598 27.6987C23.5674 28.0116 23.9364 28.6026 24.0979 28.9271C24.2594 29.2516 24.4208 29.6456 24.4439 29.6804C24.4669 29.7152 24.3747 29.8079 24.4093 29.9122C24.4323 30.0165 24.4554 30.0512 24.4554 30.0512C24.4554 30.0512 24.5361 30.2598 24.5823 30.3409C24.6399 30.4221 24.6861 30.5959 24.6976 30.6422C24.7091 30.677 24.6861 30.7929 24.6976 30.8508C24.7091 30.9088 24.7322 31.0594 24.6515 31.1637C24.5707 31.2564 24.4323 31.5925 24.5477 31.8243C24.663 32.0561 24.7783 32.1604 24.836 32.2415C24.8936 32.3226 24.9513 32.4964 25.009 32.6934C25.0666 32.8789 25.1012 33.5046 25.4933 33.7364C25.8854 33.9682 25.9662 34.0725 26.2545 33.945C26.5428 33.8175 26.8657 33.6089 27.1771 33.551C27.4885 33.4931 28.1689 33.2961 27.9613 32.7977C27.7537 32.2994 27.7306 32.311 27.4769 32.114C27.2232 31.9054 27.0387 31.7895 26.981 31.6621C26.9234 31.5346 26.7388 31.3028 26.6697 31.2217C26.6005 31.1406 26.5082 30.9667 26.4967 30.9436C26.4851 30.9204 26.7273 30.9204 26.6235 30.7581C26.5082 30.5959 26.2891 30.5148 26.2891 30.5148C26.2891 30.5148 26.2084 30.0744 26.1392 29.8542C26.07 29.634 26.0123 29.5529 25.9316 29.495C25.8624 29.437 25.7817 29.3791 25.7817 29.3791C25.7817 29.3791 25.5279 28.5099 25.5049 28.3593C25.4818 28.2086 25.3088 26.9107 25.2281 26.5283C25.1474 26.1458 24.8936 25.3462 24.6399 24.8595C24.3862 24.3728 24.2478 24.2917 24.2017 24.1294C24.1556 23.9672 23.9364 23.3762 23.8442 23.1328C23.7519 22.8894 23.6251 22.704 23.5789 22.5534C23.5328 22.4143 23.1638 22.0203 23.1292 21.8928C23.0946 21.7653 23.0138 21.3018 22.9216 21.0932C22.8293 20.8846 22.5064 20.5369 22.4834 20.4095C22.4603 20.282 22.5525 20.1082 22.4603 19.7953C22.368 19.4824 22.2066 19.1347 22.195 19.0188C22.1835 18.9029 22.2642 18.845 22.2988 18.7291C22.3334 18.6132 22.2988 18.5785 22.3334 18.5321C22.368 18.4742 22.7717 18.3467 22.9101 18.1265C23.0484 17.9179 22.9562 17.6977 23.0254 17.605C23.0946 17.5123 23.5443 17.2458 23.6481 17.0487C23.7519 16.8633 23.7404 16.7938 23.7865 16.6779C23.8211 16.562 23.948 16.2955 23.948 16.2955C23.948 16.2955 23.971 16.8981 24.0287 17.1067C24.0979 17.3153 24.1671 17.5355 24.1671 17.5355C24.1671 17.5355 23.1984 18.0106 22.9562 18.787C22.714 19.5635 22.8755 20.0734 22.9447 20.3283C23.0254 20.5833 23.406 21.2786 24.0864 21.5799C24.7668 21.8812 25.4357 21.916 25.9431 21.8117C26.4505 21.7074 27.0502 21.325 27.327 20.9773C27.6038 20.6296 27.869 20.0734 27.8575 19.7373C27.846 19.3897 27.7306 18.8798 27.7306 18.8798C27.7306 18.8798 27.7883 18.8102 27.7883 18.6248C27.7883 18.4278 27.7768 18.2424 27.7306 18.1844C27.696 18.1265 27.5346 17.8252 27.5115 17.7788C27.4885 17.7209 27.4885 17.4544 27.3385 17.3848C27.1886 17.3153 27.1079 17.4312 27.0733 17.3269C27.0387 17.2226 27.0041 17.0372 26.958 17.0256C26.9118 17.014 26.7389 17.0024 26.6927 16.956C26.6466 16.9213 26.5659 16.7474 26.3813 16.759C26.1968 16.7706 26.1507 16.7938 26.093 16.8286C26.0354 16.8633 25.897 16.9676 25.8739 16.956C25.8393 16.9444 25.724 16.5157 25.6317 16.3071C25.5395 16.0985 25.2396 15.6813 25.2396 15.6349C25.2396 15.577 25.3895 14.534 25.3319 14.3022C25.2742 14.082 25.2512 13.8155 25.205 13.7112C25.1589 13.6069 24.7207 12.8884 24.663 12.8073C24.6053 12.7378 24.4323 12.6103 24.3977 12.6103C24.3632 12.6103 24.3055 12.6335 24.2363 12.6103C24.1671 12.5871 23.8442 12.4017 23.7865 12.3901C23.7289 12.3785 23.5097 12.309 23.4751 12.2858C23.4406 12.2626 23.1407 12.0772 23.0369 12.0193C22.9331 11.9613 22.4718 11.7527 22.4718 11.7527C22.4718 11.7527 22.7371 11.1733 22.8293 10.9531C22.9216 10.7445 23.0138 10.4548 23.1061 10.42C23.1984 10.3969 23.256 10.4548 23.4406 10.3041C23.6251 10.1535 23.6943 10.0028 23.8327 9.8406C23.971 9.67836 24.1325 9.44658 24.2248 8.97145C24.317 8.48473 24.2132 7.75464 23.775 7.4881C23.3252 7.23315 22.9101 7.16362 22.7025 7.11726C22.5064 7.07091 22.5179 7.0825 22.4718 7.05932C22.4257 7.04773 22.1028 6.93184 21.7914 7.05932C21.48 7.1868 21.48 7.1868 21.48 7.1868C21.48 7.1868 21.2032 7.3838 21.1917 7.41857C21.1802 7.45333 20.7304 7.998 20.6612 8.1023C20.5805 8.2066 20.4075 8.48473 20.4421 8.6122C20.4767 8.73968 20.4421 8.83239 20.4075 8.89033C20.3844 8.94827 20.2345 9.23799 20.223 9.42341C20.223 9.60883 20.1999 9.85219 20.1999 9.85219C20.1999 9.85219 19.9808 9.78266 19.8424 9.74789C19.704 9.71312 19.6579 9.74789 19.6233 9.74789C19.5887 9.75948 19.531 9.74789 19.335 9.59724C19.1389 9.435 18.8737 9.40023 18.5508 9.37705C18.2279 9.35388 17.6743 9.48135 17.2822 9.64359C16.8901 9.80583 16.4288 10.084 16.3827 10.084C16.3481 10.084 15.5062 10.0492 14.9987 10.1998C14.5028 10.3505 13.9378 10.6286 13.3842 10.7793C12.8537 10.9415 12.1502 11.2196 12.0464 11.5905C11.9426 11.9613 12.0234 12.0077 12.1848 12.1931C12.3347 12.3785 12.5193 12.5176 12.6461 12.6219C12.773 12.7262 12.8883 12.9116 13.4534 12.9579C14.03 13.0043 14.376 12.9232 14.5029 12.8768C14.6182 12.8305 15.0449 12.7725 15.3909 12.6798C15.7368 12.5871 16.1635 12.5639 16.1635 12.5755C16.1635 12.5871 16.0251 13.0275 16.0367 13.2593C16.0482 13.491 16.0713 14.0241 16.1981 14.4297C16.325 14.8353 16.2904 15.0439 16.2558 15.1946C16.2212 15.3452 16.0597 15.7624 15.9559 16.0058C15.8522 16.2491 15.633 16.7359 15.633 17.2342C15.633 17.7325 15.5754 18.4278 15.5408 18.5205C15.5062 18.6132 15.3563 18.7639 15.4024 18.845C15.4485 18.9377 15.4255 18.9609 15.3678 19.1115C15.3101 19.2622 15.0679 19.6446 15.0333 20.224C14.9987 20.8151 15.1833 21.1395 15.1602 21.464C15.1487 21.8001 15.0218 22.1478 15.1487 22.3679C15.2755 22.5881 15.7714 22.8894 15.8176 23.0401C15.8637 23.1907 15.7253 23.4341 15.783 23.5963C15.8406 23.7586 15.8406 23.7586 15.8406 23.7586C15.8406 23.7586 16.0021 23.8745 16.0136 24.0251C16.0136 24.1874 15.8752 24.4655 16.0828 24.7668C16.2904 25.0681 16.3711 25.2883 16.4634 25.5201C16.5556 25.7402 16.6018 26.1458 16.671 26.2038C16.7402 26.2617 16.9823 26.2617 17.0631 26.424C17.1553 26.5862 17.7204 27.9189 17.7896 28.0696C17.8588 28.2318 18.1356 28.9735 18.4124 29.2168C18.6892 29.4486 18.816 29.4602 19.2081 29.3907C19.6118 29.3211 19.8539 29.24 20.0269 29.1937C20.1999 29.1473 20.3614 29.0778 20.4306 29.101C20.4998 29.1241 20.6727 29.1241 20.6727 29.1241C20.6727 29.1241 20.6381 29.634 20.6266 29.7615C20.6151 29.889 20.6381 30.677 20.7996 31.0826C20.9611 31.4882 21.111 31.8591 21.5953 31.8591C22.0797 31.8591 22.2642 31.4419 22.368 31.1985C22.4718 30.9551 22.5987 30.2366 22.5641 29.9701C22.5295 29.7036 22.3104 29.6109 22.2296 29.3907C22.1604 29.1705 22.1143 28.7765 22.2412 28.5563C22.368 28.3361 22.345 27.9073 22.2527 27.5481C22.1604 27.1888 21.9183 27.015 21.6299 26.9571C21.3416 26.8991 21.0303 27.015 20.9265 27.1077C20.8227 27.2004 20.7419 27.3511 20.7419 27.4206C20.7419 27.5017 20.592 27.5481 20.5344 27.5713C20.4767 27.5944 20.3729 27.606 20.3268 27.5713C20.2806 27.5365 19.9577 27.3279 19.9577 27.2468C19.9577 27.1657 19.7155 26.0647 19.6925 25.9488C19.6694 25.8445 19.6579 25.8098 19.6579 25.8098L19.6002 25.5896C19.6002 25.5896 19.7963 25.5316 19.8078 25.2535C19.8078 24.9754 19.6002 24.7668 19.6233 24.5582C19.6348 24.4191 19.5541 23.6195 20.0269 23.5848Z" fill="#145CF6"/>
</g>
</svg>
