<svg width="40" height="40" viewBox="0 0 40 40" fill="none" xmlns="http://www.w3.org/2000/svg">
<mask id="mask0_2183_69095" style="mask-type:alpha" maskUnits="userSpaceOnUse" x="0" y="0" width="40" height="40">
<circle cx="20" cy="20" r="20" fill="white"/>
</mask>
<g mask="url(#mask0_2183_69095)">
<circle cx="20" cy="20" r="20" fill="white"/>
<circle cx="20" cy="20" r="19.5" fill="#F5F8FF" stroke="#7FA7FA"/>
<path d="M26.9874 12.7121C26.9443 12.5704 26.8991 12.5806 26.7801 12.2507C26.6611 11.9208 26.5687 11.3643 26.4681 11.1154C26.3676 10.8665 26.2629 10.735 26.1541 10.5468C26.0433 10.3586 25.8319 10.1602 25.5733 9.92347C25.3147 9.6867 25.3106 9.58147 25.2778 9.53695C25.2449 9.49243 25.0828 9.46005 25.0828 9.46005H25.0479C25.0479 9.46005 24.9658 8.94199 25.0253 8.76593C25.0828 8.58987 25.1443 8.54535 25.1649 8.37334C25.1833 8.20132 25.1095 8.10419 25.1095 8.10419C25.1095 8.10419 25.1998 8.06979 25.2285 7.93825C25.2572 7.80671 25.2121 7.25425 25.1546 7.09033C25.0971 6.92641 24.9042 6.57632 24.7708 6.43263C24.6374 6.28895 24.19 6.04004 23.7836 6.01373C23.3772 5.98743 22.8908 5.95707 22.5255 6.35574C22.1581 6.75642 22.0945 7.27043 22.0945 7.27043C22.0945 7.27043 21.0129 7.2927 20.5101 7.30686C20.0093 7.32103 19.5413 7.2927 19.2212 7.55173C18.8989 7.81076 18.55 8.41988 18.4659 8.64653C18.3838 8.87116 18.4125 8.9683 18.4125 8.9683C18.4125 8.9683 18.039 9.32851 18.039 9.60171C18.039 9.8749 18.039 9.9518 18.1047 10.0732C18.1703 10.1946 18.3325 10.2715 18.3345 10.3323C18.3386 10.393 17.7578 11.5201 17.7086 12.2446C17.6593 12.9691 17.6018 13.386 17.7578 13.5155C17.9138 13.645 18.2114 13.7077 18.5316 13.6652C18.8538 13.6227 19.6173 13.2423 19.6173 13.2423C19.6173 13.2423 19.6747 13.4001 19.802 13.3678C19.9292 13.3334 20.1673 13.1472 20.1776 13.1654C20.1878 13.1836 20.114 13.5539 20.1098 13.8028C20.1057 14.0518 20.0811 14.6953 20.0996 14.9442C20.1181 15.1931 20.1427 15.7699 20.1181 15.7699C20.0934 15.7699 20.1468 15.8043 19.7671 15.4582C19.3874 15.1122 18.9687 14.752 18.7101 14.5698C18.4515 14.3877 17.9076 14.1469 17.5464 14.1287C17.1873 14.1104 17.0641 14.0275 16.9533 14.1104C16.8404 14.1914 16.7296 14.4221 16.6229 14.4848C16.5161 14.5476 16.2042 14.6953 16.1652 14.7965C16.1262 14.8977 16.2329 15.0373 16.1652 15.0697C16.0974 15.1041 15.9312 15.2093 15.9312 15.2761C15.9312 15.3429 15.7506 15.4683 15.7362 15.5311C15.7219 15.5938 15.7609 15.6565 15.7609 15.6565C15.7609 15.6565 15.0548 16.7898 14.944 17.0427C14.8311 17.2977 14.6177 17.917 14.5397 18.0789C14.4617 18.2428 13.9014 19.2121 13.9014 19.2121C13.9014 19.2121 13.7967 19.1838 13.6654 19.2607C13.532 19.3376 13.4129 19.3538 13.259 19.3538C13.1071 19.3538 12.8054 19.4368 12.6063 19.37C12.4093 19.3032 12.0604 19.0017 11.9291 18.9025C11.7956 18.8033 11.4611 18.6779 11.2148 18.8539C10.9685 19.03 10.985 19.3882 11.0198 19.5703C11.0547 19.7524 11.4119 20.4243 11.6499 20.5822C11.886 20.738 12.4196 21.1893 12.5366 21.3248C12.6535 21.4604 12.9511 21.8146 13.1523 21.94C13.3534 22.0655 13.6674 22.2314 13.7146 22.2719C13.7598 22.3144 13.7639 22.3994 13.8275 22.3933C13.8932 22.3873 13.9178 22.3367 13.9609 22.2881C14.004 22.2395 14.1723 22.1465 14.2175 22.0776C14.2626 22.0068 14.3119 21.9178 14.318 21.7134C14.3242 21.509 14.3693 21.3451 14.4227 21.2722C14.474 21.1994 14.6731 20.9363 14.6731 20.8553C14.6731 20.7744 14.6731 20.7218 14.6731 20.7218C14.6731 20.7218 14.9317 20.1916 15.1575 19.8779C15.3812 19.5642 15.5412 19.2728 15.7054 19.1332C15.8717 18.9936 16.1241 18.8782 16.3088 18.6536C16.4936 18.429 17.1216 17.4495 17.1996 17.2755C17.2776 17.1035 17.4274 16.8829 17.4274 16.8829C17.4274 16.8829 18.0308 17.8522 18.4638 18.3561C18.8969 18.86 19.5003 19.5946 19.7343 19.7868C19.9682 19.9791 20.3582 20.2806 20.5121 20.3818C20.6681 20.483 20.7256 20.5093 20.7256 20.5093C20.7543 21.0091 20.9595 21.4038 20.9595 21.7781C20.9595 22.1525 21.0478 22.5552 21.0478 22.9397C21.0478 23.3242 21.0663 24.8885 21.136 25.4552C21.2038 26.0218 21.3331 26.3294 21.3474 26.5014C21.3598 26.6734 21.29 26.6997 21.3741 26.7827C21.4583 26.8657 21.5629 26.9162 21.5629 26.9162C21.5629 26.9162 21.6081 27.1206 21.6348 27.236C21.6615 27.3513 21.7394 27.3898 21.8174 27.5294C21.8954 27.6711 22.0576 28.9177 22.115 29.1989C22.1725 29.4802 22.3736 30.1966 22.349 30.996C22.3223 31.7953 22.3223 31.7953 22.3223 31.7953C22.3223 31.7953 22.0822 31.7832 22.0822 31.9491C22.0822 32.1151 22.1725 32.281 22.1725 32.281C22.1725 32.281 22.2135 32.3559 21.9652 32.5441C21.7169 32.7303 21.6676 32.88 21.4131 32.9954C21.1607 33.1107 20.6476 33.2362 20.4731 33.3212C20.2987 33.4082 20.2166 33.5519 20.2453 33.7461C20.274 33.9404 20.4567 33.9991 20.9205 33.9991C21.3844 33.9991 22.1356 34.0011 22.544 33.9991C22.9524 33.9971 23.7651 33.9546 23.917 33.9121C24.0689 33.8696 24.4178 33.6915 24.4178 33.5276C24.4178 33.3637 24.4219 33.3212 24.3213 33.2402C24.2187 33.1593 24.2187 33.1593 24.2187 33.1593C24.2187 33.1593 24.2187 33.0298 24.0874 32.6837C23.956 32.3377 23.9745 32.3134 23.8903 32.2284C23.8062 32.1414 23.7569 32.1333 23.7569 32.1333C23.7569 32.1333 23.8062 31.3076 23.839 30.8948C23.8739 30.482 24.0094 29.3649 24.0196 29.1767C24.0299 28.9905 24.073 28.1831 24.0012 27.8714C23.9273 27.5598 23.5579 26.9587 23.5579 26.9587C23.5579 26.9587 23.7569 26.9931 23.7569 26.8393C23.7569 26.6855 23.7036 26.6147 23.6892 26.4751C23.6748 26.3355 23.6851 26.3699 23.5681 26.2505C23.4511 26.1311 23.4265 26.1311 23.3834 25.9671C23.3403 25.8032 23.3793 25.6272 23.4265 25.526C23.4758 25.4248 23.4224 25.2953 23.484 24.9978C23.5476 24.7003 23.6502 24.245 23.7754 23.8403C23.9027 23.4376 24.0278 23.0247 24.073 22.9762C24.1161 22.9276 24.2146 22.875 24.2187 22.794C24.2228 22.7131 24.2926 22.3326 24.3706 22.1606C24.4486 21.9886 24.5615 21.7802 24.6271 21.6486C24.6928 21.5171 24.7216 21.5211 24.7216 21.3997C24.7216 21.2783 24.6928 21.2115 24.6928 21.2115C24.6928 21.2115 25.1998 21.1184 25.2552 21.0294C25.3106 20.9403 25.3373 20.655 25.3291 20.487C25.3209 20.3191 25.3024 20.315 25.3167 20.1248C25.3311 19.9346 25.3126 19.3012 25.3126 19.3012C25.3126 19.3012 25.4009 19.2364 25.4317 19.0988C25.4645 18.9612 25.4748 18.8802 25.4748 18.8802C25.4748 18.8802 25.6759 18.6617 25.7046 18.5666C25.7334 18.4715 25.7334 18.4573 25.7334 18.4573C25.7334 18.4573 26.0289 18.1598 26.0515 18.0566C26.0741 17.9534 26.0351 17.6782 26.0679 17.4839C26.1008 17.2896 26.2301 16.9294 26.3245 16.7088C26.4189 16.4883 26.4189 16.5328 26.4373 16.3851C26.4558 16.2373 26.5708 15.6363 26.6056 15.3611C26.6405 15.0859 26.8006 14.1975 26.8027 13.9526C26.8068 13.7098 26.8478 13.5843 26.9073 13.299C26.9607 13.0197 27.0284 12.8537 26.9874 12.7121ZM19.9744 10.4658C19.8554 10.565 19.7158 10.6985 19.5557 10.82C19.3977 10.9414 19.3484 10.9191 19.2335 10.9292C19.1206 10.9394 19.1945 10.9029 19.1945 10.8179C19.1945 10.7329 19.3669 10.4658 19.4244 10.4051C19.4818 10.3444 19.6091 10.2574 19.7158 10.1521C19.7158 10.1521 19.8615 10.2513 19.9682 10.2614C20.075 10.2715 20.2043 10.2877 20.2043 10.2877C20.2043 10.2877 20.0955 10.3667 19.9744 10.4658ZM22.2238 9.34875C22.2238 9.34875 22.2053 9.35077 22.1499 9.35684C22.0966 9.36089 21.8728 9.33863 21.7805 9.35684C21.6881 9.37505 21.5711 9.48231 21.4747 9.53492C21.3782 9.58754 21.3351 9.5329 21.2428 9.50457C21.1504 9.47624 21.1915 9.42969 21.3495 9.37505C21.3495 9.37505 21.567 9.31232 21.6615 9.26982C21.7559 9.22733 21.998 9.10388 22.0596 9.01484C22.1232 8.9258 22.1397 8.81854 22.152 8.76998C22.1643 8.72141 22.1951 8.88937 22.2094 9.01484C22.2259 9.13828 22.2238 9.34875 22.2238 9.34875Z" fill="#145CF6"/>
</g>
</svg>
