<?xml version="1.0" encoding="UTF-8"?>
<svg width="28px" height="28px" viewBox="0 0 28 28" version="1.1" xmlns="http://www.w3.org/2000/svg" xmlns:xlink="http://www.w3.org/1999/xlink">
    <!-- Generator: Sketch 59 (86127) - https://sketch.com -->
    <title>quiz-icon</title>
    <desc>Created with Sketch.</desc>
    <g id="quiz-icon" stroke="none" stroke-width="1" fill="none" fill-rule="evenodd">
        <g id="Group-8">
            <rect id="Rectangle" x="0" y="0" width="28" height="28"></rect>
            <path d="M7.31673511,21.7955731 L3.5,21.7955731 L3.5,25.6666667 L7.31673511,25.6666667 L7.31673511,21.7955731 Z M21.3283164,23.7158667 L21.3283164,24.8807271 L10.2912873,24.8807271 L10.2912873,23.7158667 L21.3283164,23.7158667 Z M25.6666667,21.6454499 L25.6666667,22.8095074 L10.2912873,22.8095074 L10.2912873,21.6454499 L25.6666667,21.6454499 Z M7.31673511,15.3145823 L3.5,15.3145823 L3.5,19.1856758 L7.31673511,19.1856758 L7.31673511,15.3145823 Z M21.3283164,17.37376 L21.3283164,18.5386203 L10.2912873,18.5386203 L10.2912873,17.37376 L21.3283164,17.37376 Z M25.6666667,15.3025403 L25.6666667,16.4674007 L10.2912873,16.4674007 L10.2912873,15.3025403 L25.6666667,15.3025403 Z M7.31673511,8.83760537 L3.5,8.83760537 L3.5,12.7078961 L7.31673511,12.7078961 L7.31673511,8.83760537 Z M20.9452181,10.7105339 L20.9452181,11.8745914 L9.90898054,11.8745914 L9.90898054,10.7105339 L20.9452181,10.7105339 Z M25.2827769,8.64011698 L25.2827769,9.80417455 L9.90898054,9.80417455 L9.90898054,8.64011698 L25.2827769,8.64011698 Z M7.31673511,2.33333333 L3.5,2.33333333 L3.5,6.20442686 L7.31673511,6.20442686 L7.31673511,2.33333333 Z M20.9452181,4.56270428 L20.9452181,5.72756465 L9.90898054,5.72756465 L9.90898054,4.56270428 L20.9452181,4.56270428 Z M25.2827769,2.4922874 L25.2827769,3.65634497 L9.90898054,3.65634497 L9.90898054,2.4922874 L25.2827769,2.4922874 Z" id="Shape" fill="#7402D3" fill-rule="nonzero"></path>
        </g>
    </g>
</svg>