<svg width="40" height="40" viewBox="0 0 40 40" fill="none" xmlns="http://www.w3.org/2000/svg">
<mask id="mask0_2183_69173" style="mask-type:alpha" maskUnits="userSpaceOnUse" x="0" y="0" width="40" height="40">
<circle cx="20" cy="20" r="20" fill="white"/>
</mask>
<g mask="url(#mask0_2183_69173)">
<circle cx="20" cy="20" r="20" fill="white"/>
<circle cx="20" cy="20" r="19.5" fill="#F5F8FF" stroke="#7FA7FA"/>
<path d="M34.9704 27.9747C34.635 28.3799 34.2601 28.2583 33.905 28.0456C33.392 27.7417 32.8987 27.4176 32.4055 27.0732C32.1687 26.9111 31.9714 26.8909 31.7445 27.0631C31.5176 27.2251 31.271 27.3669 31.0342 27.5189C30.245 28.0051 29.6629 27.9139 29.0908 27.1745C28.6074 26.5566 28.193 25.8678 27.6406 25.3208C27.2361 24.9257 26.6738 24.6928 26.1707 24.4193C26.0917 24.3788 25.9438 24.4193 25.8451 24.4699C25.342 24.7535 24.8586 25.0574 24.3555 25.3512C24.2765 25.4018 24.1384 25.4727 24.099 25.4423C23.6945 25.1385 23.4084 25.5335 23.073 25.6044C21.8201 25.8576 20.9914 26.587 20.2219 27.6404C19.3637 28.8154 18.1996 29.7474 17.1539 30.7704C16.8086 31.1148 16.6113 31.0642 16.3153 30.6691C16.0391 30.2943 15.7037 29.9601 15.4768 29.5448C15.2499 29.1396 15.0427 28.6736 15.0033 28.2178C14.9638 27.7822 15.2894 27.681 15.6149 27.9747C15.7629 28.1064 15.8911 28.2685 16.0391 28.4001C16.7395 29.0282 17.6175 28.937 18.1601 28.1874C18.4462 27.7924 18.7224 27.3973 19.0184 27.0124C19.3242 26.5971 19.6202 26.1919 19.6991 25.6449C19.7681 25.179 20.0542 24.8548 20.4784 24.6016C21.5439 23.9533 22.5896 23.2544 23.6649 22.6061C24.0496 22.3731 23.9806 22.13 23.7931 21.8261C23.2111 22.3731 22.5304 22.5757 21.6623 22.5757C22.0174 22.1098 22.264 21.735 22.777 21.6438C23.2506 21.5526 23.5564 20.8031 23.29 20.4181C22.7178 19.6179 22.412 18.6961 22.1457 17.7541C22.0569 17.4401 21.8596 17.2983 21.5439 17.278C21.0013 17.2476 20.4587 17.2071 19.926 17.1159C19.5018 17.0349 19.0973 16.8627 18.683 16.7411C18.4363 16.6702 18.1799 16.6196 17.9332 16.4474C18.1503 16.4271 18.3673 16.4069 18.7224 16.3765C18.4363 16.103 18.2193 15.8903 17.9332 15.6066C18.1207 15.6066 18.2489 15.5661 18.3377 15.6168C18.6435 15.7788 18.9691 15.9207 19.2256 16.1435C19.9852 16.7817 20.7053 16.2752 21.5242 16.1739C21.2677 15.5763 21.0901 15.0597 20.8336 14.5836C20.6067 14.1581 20.7349 13.8644 21.0112 13.5402C21.4551 13.0135 22.1654 12.8514 22.7474 13.1452C23.29 13.4187 23.586 14.0974 23.4676 14.7659C23.4577 14.8267 23.4676 14.8976 23.4676 15.009C24.5824 15.1204 25.0953 16.0118 25.5689 16.8728C26.4765 18.5341 27.2854 20.2459 28.1338 21.9274C28.1634 21.9882 28.1832 22.0591 28.2127 22.1098C28.9428 23.3759 29.6728 24.6522 30.4226 25.9589C32.2082 25.4322 33.7866 25.8678 35 27.4784C34.9704 27.6404 34.9704 27.8126 34.9704 27.9747Z" fill="#145CF6"/>
<path d="M22.953 14.5566C22.7839 14.5566 22.6148 14.5566 22.408 14.5566C22.4362 14.6641 22.4738 14.7627 22.502 14.8881C22.4362 14.8792 22.3799 14.8792 22.3517 14.8613C22.1168 14.6283 21.9006 14.4401 21.506 14.5745C21.3275 14.6372 21.0738 14.5387 20.8765 14.467C19.561 14.001 18.2455 13.526 16.9301 13.0511C16.8549 13.0242 16.7797 13.0063 16.7046 12.9884C16.1032 12.8629 15.9904 12.9436 15.9998 13.544C16.0092 14.6014 16.0562 15.6678 16.0186 16.7252C15.9998 17.3704 16.2817 17.8274 16.7985 18.15C17.6348 18.6787 18.3019 19.3598 18.9221 20.0856C19.2791 20.5068 19.2979 20.7756 19.0442 21.2685C18.5556 22.2094 18.0576 23.1414 17.2307 23.8583C17.1556 23.921 17.0992 24.0285 17.071 24.1271C17.0146 24.3063 16.977 24.4856 16.8737 24.6558C17.0804 25.3817 18.0764 25.2473 18.5086 25.7939C18.4804 25.8656 18.4616 25.9283 18.4334 26C17.4656 25.9104 16.4978 25.8297 15.53 25.7222C15.22 25.6864 15.2481 25.4175 15.3327 25.2204C15.4455 24.9605 15.6428 24.7365 15.7649 24.4856C16.1314 23.7418 16.4696 22.998 16.8267 22.2542C17.0052 21.8779 17.2119 21.5105 17.4562 21.0445C17.2025 20.9101 16.9301 20.7398 16.6294 20.6054C16.1878 20.4082 15.7461 20.229 15.2951 20.0677C14.7783 19.8885 14.2709 19.7451 13.8951 19.3239C13.8387 19.2612 13.538 19.3418 13.4065 19.4315C12.4857 20.1035 11.6024 20.8115 10.6722 21.4746C9.90171 22.0302 9.14062 22.6037 8.30436 23.0428C7.49628 23.4729 6.88553 24.0644 6.23719 24.6737C5.82376 25.077 5.09086 25.1935 4.48011 25.3727C4.35795 25.4086 4.04788 25.1935 4.0103 25.0591C3.96331 24.8888 4.08547 24.6469 4.20762 24.4856C4.29218 24.3691 4.4989 24.2974 4.65863 24.2705C5.77678 24.0913 6.51908 23.4192 7.11104 22.5589C7.58085 21.8868 8.18221 21.3581 8.9433 20.9997C9.09364 20.928 9.23458 20.8204 9.32854 20.695C10.0145 19.7899 10.738 18.9027 11.3581 17.9618C11.593 17.6034 11.6212 17.1105 11.687 16.6714C11.7809 16.1069 11.8279 15.5333 11.8843 14.9598C11.8937 14.915 11.9031 14.8702 11.9031 14.8254C11.9031 14.3415 11.7903 13.8218 11.3205 13.6425C11.0199 13.526 10.5782 13.7232 10.0708 13.7949C10.3057 14.0368 10.4185 14.1533 10.5406 14.2698C10.1554 14.3953 9.19699 13.9741 8.61443 13.4095C8.64262 13.3737 8.66141 13.311 8.6896 13.311C9.48828 13.2482 10.0239 12.6747 10.6816 12.3432C11.3017 12.0385 11.9031 11.7069 12.5608 11.3574C12.5138 11.223 12.4857 11.0617 12.4105 10.9273C12.0628 10.2642 12.1286 9.843 12.683 9.32325C13.0588 8.97376 13.8387 8.89311 14.3461 9.15299C14.9193 9.44871 15.0038 9.70858 14.8629 10.3C14.7971 10.5689 14.8911 10.8825 14.9475 11.1693C14.9569 11.2141 15.1354 11.2499 15.2293 11.2499C15.8777 11.2768 16.4227 11.4919 16.9395 11.8861C17.2589 12.1281 17.6818 12.2267 18.067 12.388C18.518 12.5851 18.9972 12.7375 19.42 12.9794C20.3409 13.5081 21.2147 14.1354 22.3611 14.1802C22.5772 14.1892 22.7839 14.3684 23 14.467C22.9812 14.4759 22.9624 14.5118 22.953 14.5566Z" fill="#145CF6"/>
</g>
</svg>
