<svg width="21" height="20" viewBox="0 0 21 20" fill="none" xmlns="http://www.w3.org/2000/svg">
<g clip-path="url(#clip0_1317_79362)">
<path d="M10.0289 19.3625C4.86709 19.3625 0.666992 15.1624 0.666992 10.0006C0.666992 4.83877 4.86709 0.638672 10.0289 0.638672C15.1907 0.638672 19.3908 4.83877 19.3908 10.0006C19.3908 10.2263 19.3012 10.4428 19.1415 10.6024C18.9819 10.762 18.7655 10.8517 18.5397 10.8517C18.314 10.8517 18.0975 10.762 17.9379 10.6024C17.7783 10.4428 17.6887 10.2263 17.6887 10.0006C17.6887 5.77666 14.2528 2.34084 10.0289 2.34084C5.80498 2.34084 2.36916 5.77666 2.36916 10.0006C2.36916 14.2245 5.80498 17.6603 10.0289 17.6603C12.0592 17.6541 14.0052 16.8481 15.4452 15.4169C15.6048 15.2573 15.8212 15.1676 16.0469 15.1676C16.2726 15.1676 16.489 15.2573 16.6486 15.4169C16.8082 15.5765 16.8979 15.7929 16.8979 16.0186C16.8979 16.2443 16.8082 16.4607 16.6486 16.6203C14.8889 18.3699 12.5104 19.3552 10.0289 19.3625Z" fill="#22262F"/>
<path d="M16.7618 8.15799H20.3168C20.3787 8.15777 20.4395 8.174 20.493 8.20501C20.5465 8.23603 20.5908 8.28071 20.6214 8.33449C20.652 8.38827 20.6677 8.44921 20.667 8.51107C20.6662 8.57293 20.6491 8.63348 20.6172 8.68651L18.8393 11.673C18.8085 11.7252 18.7645 11.7685 18.7118 11.7985C18.6592 11.8286 18.5995 11.8444 18.5389 11.8444C18.4782 11.8444 18.4186 11.8286 18.3659 11.7985C18.3132 11.7685 18.2693 11.7252 18.2385 11.673L16.4605 8.68651C16.4292 8.63332 16.4125 8.5728 16.4121 8.51108C16.4117 8.44935 16.4275 8.38861 16.4581 8.33499C16.4887 8.28136 16.5328 8.23675 16.5862 8.20568C16.6395 8.1746 16.7001 8.15815 16.7618 8.15799Z" fill="#22262F"/>
</g>
<defs>
<clipPath id="clip0_1317_79362">
<rect width="20" height="20" fill="white" transform="translate(0.666748)"/>
</clipPath>
</defs>
</svg>
