<svg width="16" height="16" viewBox="0 0 16 16" fill="none" xmlns="http://www.w3.org/2000/svg">
<g clip-path="url(#clip0_341_14098)">
<path d="M7.48965 15.4893C3.3602 15.4893 0.00012207 12.1292 0.00012207 7.99979C0.00012207 3.87033 3.3602 0.510254 7.48965 0.510254C11.6191 0.510254 14.9792 3.87033 14.9792 7.99979C14.9792 8.18036 14.9075 8.35354 14.7798 8.48123C14.6521 8.60892 14.4789 8.68065 14.2983 8.68065C14.1177 8.68065 13.9446 8.60892 13.8169 8.48123C13.6892 8.35354 13.6175 8.18036 13.6175 7.99979C13.6175 4.62065 10.8688 1.87199 7.48965 1.87199C4.11051 1.87199 1.36186 4.62065 1.36186 7.99979C1.36186 11.3789 4.11051 14.1276 7.48965 14.1276C9.11386 14.1226 10.6707 13.4778 11.8227 12.3328C11.9504 12.2052 12.1235 12.1334 12.3041 12.1334C12.4846 12.1334 12.6578 12.2052 12.7854 12.3328C12.9131 12.4605 12.9848 12.6336 12.9848 12.8142C12.9848 12.9947 12.9131 13.1679 12.7854 13.2956C11.3776 14.6952 9.47482 15.4835 7.48965 15.4893Z" fill="white"/>
<path d="M12.876 6.52571H15.72C15.7695 6.52553 15.8181 6.53852 15.8609 6.56333C15.9037 6.58814 15.9392 6.62389 15.9637 6.66691C15.9881 6.70993 16.0007 6.75869 16.0001 6.80817C15.9995 6.85766 15.9858 6.9061 15.9603 6.94853L14.538 9.33769C14.5133 9.37947 14.4782 9.4141 14.436 9.43815C14.3939 9.4622 14.3462 9.47485 14.2976 9.47485C14.2491 9.47485 14.2014 9.4622 14.1593 9.43815C14.1171 9.4141 14.082 9.37947 14.0573 9.33769L12.635 6.94853C12.6099 6.90597 12.5965 6.85756 12.5962 6.80818C12.5959 6.7588 12.6085 6.7102 12.633 6.6673C12.6575 6.6244 12.6928 6.58872 12.7355 6.56386C12.7781 6.539 12.8266 6.52584 12.876 6.52571Z" fill="white"/>
</g>
<defs>
<clipPath id="clip0_341_14098">
<rect width="16" height="16" fill="white"/>
</clipPath>
</defs>
</svg>
