<svg width="14" height="14" viewBox="0 0 14 14" fill="none" xmlns="http://www.w3.org/2000/svg">
<path d="M6.89541 4.45137L1.47497 9.87181C1.35381 9.99297 1.29004 10.1588 1.29004 10.3246C1.29004 10.4904 1.35381 10.6498 1.47497 10.771L3.28604 12.582C3.53474 12.8307 3.94287 12.8307 4.19157 12.582L9.61201 7.16159C9.73955 7.03405 9.79694 6.87462 9.79694 6.70882C9.79694 6.54302 9.73317 6.3836 9.61201 6.25606L7.80732 4.45137C7.55224 4.20267 7.14411 4.20267 6.89541 4.45137ZM8.25371 6.70882L3.73242 11.2301L2.82689 10.3246L7.34818 5.80329L8.25371 6.70882ZM10.0622 4.89712L9.16052 3.99542L11.8663 1.28966L12.768 2.19137L10.0622 4.89712Z" fill="#002058"/>
</svg>
