<svg width="14" height="14" viewBox="0 0 14 14" fill="none" xmlns="http://www.w3.org/2000/svg">
<g clip-path="url(#clip0_620_61822)">
<path d="M3.5 8.5C3.5 11.2614 5.73858 13.5 8.5 13.5C11.2614 13.5 13.5 11.2614 13.5 8.5C13.5 5.73858 11.2614 3.5 8.5 3.5C5.73858 3.5 3.5 5.73858 3.5 8.5Z" stroke="#002058"/>
<path d="M1.5 9.00001C1.5 9.27616 1.27614 9.50001 1 9.50001C0.723859 9.50001 0.500001 9.27616 0.500001 9.00001L1.5 9.00001ZM6 1.50004L6.19134 1.96198L6 1.50004ZM0.500001 9.00001C0.500001 7.81812 0.732793 6.64779 1.18509 5.55586L2.10896 5.93855C1.70693 6.90915 1.5 7.94944 1.5 9.00001L0.500001 9.00001ZM1.18509 5.55586C1.63738 4.46393 2.30031 3.47178 3.13604 2.63605L3.84315 3.34316C3.10028 4.08603 2.511 4.96794 2.10896 5.93855L1.18509 5.55586ZM3.13604 2.63605C4.00429 1.76781 4.81415 1.45004 5.80866 1.0381L6.19134 1.96198C5.18585 2.37847 4.55349 2.63281 3.84315 3.34316L3.13604 2.63605ZM5.80866 1.0381C6.91941 0.578013 7.95836 0.5 8.5 0.5V1.5C8.04164 1.5 7.14312 1.56774 6.19134 1.96198L5.80866 1.0381Z" fill="#002058"/>
<path d="M12 1.5H10H7V0L12 1.5Z" fill="#002058"/>
<mask id="mask0_620_61822" style="mask-type:alpha" maskUnits="userSpaceOnUse" x="3" y="3" width="11" height="11">
<ellipse cx="8.5" cy="8.5" rx="5.5" ry="5.5" fill="#D9D9D9"/>
</mask>
<g mask="url(#mask0_620_61822)">
<path fill-rule="evenodd" clip-rule="evenodd" d="M2 10.6666L13.547 3.99998L13.7137 4.28866L2.16667 10.9553L2 10.6666ZM2.6665 11.8216L14.2135 5.15494L14.3802 5.44361L2.83317 12.1103L2.6665 11.8216ZM14.8804 6.30957L3.33344 12.9762L3.5001 13.2649L15.0471 6.59824L14.8804 6.30957Z" fill="#002058"/>
</g>
</g>
<defs>
<clipPath id="clip0_620_61822">
<rect width="13.9999" height="14.0002" fill="white" transform="matrix(-1 0 0 1 14 0)"/>
</clipPath>
</defs>
</svg>
