<svg width="9" height="12" viewBox="0 0 9 12" fill="none" xmlns="http://www.w3.org/2000/svg">
<path d="M8.53755 3.11364L8.15119 4.43182H0.787553L1.17392 3.11364H8.53755ZM5.08301 12L0.923917 6.90909L0.90119 5.95455H2.96937C3.50725 5.95455 3.96558 5.87879 4.34437 5.72727C4.72316 5.57197 5.01293 5.34091 5.21369 5.03409C5.41445 4.72348 5.51483 4.33333 5.51483 3.86364C5.51483 3.17045 5.30649 2.62689 4.88983 2.23295C4.47316 1.83523 3.83301 1.63636 2.96937 1.63636H0.787553L1.17392 0.363636H2.96937C3.89361 0.363636 4.65119 0.517045 5.2421 0.823863C5.8368 1.12689 6.27619 1.54356 6.56028 2.07386C6.84816 2.60038 6.9921 3.19697 6.9921 3.86364C6.9921 4.46591 6.85952 5.02083 6.59437 5.52841C6.33301 6.0322 5.91255 6.4375 5.33301 6.74432C4.75725 7.05114 3.99589 7.20455 3.04892 7.20455H3.01483L6.85574 11.9091V12H5.08301ZM8.53755 0.363636L8.15119 1.68182L2.35574 1.63636L2.7421 0.363636H8.53755Z" fill="#7A839F"/>
</svg>
