<svg width="40" height="40" viewBox="0 0 40 40" fill="none" xmlns="http://www.w3.org/2000/svg">
<mask id="mask0_2183_69060" style="mask-type:alpha" maskUnits="userSpaceOnUse" x="0" y="0" width="40" height="40">
<circle cx="20" cy="20" r="20" fill="white"/>
</mask>
<g mask="url(#mask0_2183_69060)">
<circle cx="20" cy="20" r="20" fill="white"/>
<circle cx="20" cy="20" r="19.5" fill="#F5F8FF" stroke="#7FA7FA"/>
<path d="M12.7817 12.0959C12.7817 12.0959 13.4825 11.9456 13.8276 12.053C14.1726 12.1603 14.3343 12.1925 14.3882 12.1925C14.4421 12.1925 15.0244 11.892 15.4988 12.01C15.9732 12.1281 16.1349 12.2032 16.2643 12.2676C16.3937 12.332 16.5123 12.3427 16.5662 12.3749C16.6201 12.4071 16.8465 12.5788 16.8465 12.5788C16.8465 12.5788 16.9004 12.3105 16.8681 12.3105C16.8357 12.3105 16.1888 12.2247 16.1133 12.0315C16.0486 11.849 16.1672 11.6559 16.1996 11.6022C16.2319 11.5486 16.2319 11.5056 16.2104 11.4734C16.178 11.4412 16.1025 11.3125 16.2966 11.2266C16.4907 11.1407 16.4691 11.0871 16.4368 11.0656C16.4044 11.0442 16.2104 10.9154 16.2535 10.8402C16.2966 10.7651 16.4152 10.6578 16.4152 10.6578C16.4152 10.6578 16.178 10.5505 16.2751 10.4324C16.3613 10.3144 16.5554 10.25 16.6309 10.2178C16.7063 10.1856 16.9004 10.0783 16.8896 10.0783C16.8788 10.0676 16.8034 9.99243 16.8573 9.89584C16.9004 9.79925 16.9004 9.76706 16.9328 9.74559C16.9759 9.72413 16.9759 9.7134 16.9867 9.7134C16.9974 9.7134 17.0082 9.7134 17.0621 9.6812C17.116 9.64901 17.3748 9.4451 17.4072 9.40217C17.4395 9.35925 17.5473 9.28412 17.6659 9.26266C17.7845 9.24119 18.604 9.26266 19.0568 9.43437C19.5096 9.60608 19.9086 9.9817 19.9086 10.5612C19.9086 11.1407 19.6498 11.3768 19.5096 11.5378C19.3695 11.7095 19.1538 11.7417 19.1323 11.7632C19.1215 11.7739 19.0244 11.8598 19.0244 11.892C19.0244 11.9242 18.9598 12.45 19.0784 12.5252C19.1862 12.6003 19.3156 12.6003 19.5312 12.6325C19.7468 12.6647 19.8439 12.6647 20.038 12.8578C20.232 13.0403 20.4369 13.2979 20.4477 13.3086C20.4477 13.33 21.0838 13.3408 21.3857 13.5769C21.6876 13.813 21.8817 14.1457 21.9356 14.2423C21.9895 14.3388 21.9787 14.3925 22.0218 14.414C22.065 14.4354 22.7981 14.6823 23.2617 15.2296C23.7254 15.7769 23.8548 15.9272 23.9841 16.056C24.1135 16.1847 24.286 16.2384 24.3723 16.3994C24.4585 16.5604 24.6634 17.2257 24.8467 17.5691C25.03 17.9126 25.0192 18.3848 25.0408 18.5672C25.0623 18.7497 25.03 19.2326 25.0623 19.2863C25.0947 19.3399 25.1486 19.4365 25.1701 19.7155C25.1917 19.9946 25.127 20.0804 25.1701 20.177C25.2133 20.2736 25.4074 20.8209 25.4828 21.0141C25.5583 21.2073 25.4828 21.4541 25.5044 21.5614C25.526 21.658 25.5152 21.937 25.5152 21.937C25.5152 21.937 25.4181 22.1624 25.3858 22.2483C25.3534 22.3448 25.2887 22.4522 25.278 22.5058C25.2672 22.5488 25.1917 22.6561 25.1594 22.6883C25.127 22.7205 25.0408 22.86 24.9653 22.8814C24.8898 22.9029 24.879 22.9029 24.879 22.9029C24.879 22.9029 24.7928 22.86 24.7928 22.8707C24.782 22.8814 24.6634 23.0102 24.5556 23.0102C24.4585 23.0102 24.437 23.0102 24.437 23.0102C24.437 23.0102 24.3831 22.9136 24.3507 22.9029C24.3184 22.8922 24.1782 22.7097 24.1459 22.6024C24.1135 22.4951 24.1135 22.4736 24.1135 22.4736C24.1135 22.4736 24.1782 21.9585 24.1459 21.8404C24.1135 21.7224 24.1351 21.0141 24.0057 21.2073C23.8763 21.4112 23.8116 21.7761 23.6176 21.9048C23.4235 22.0336 23.251 22.0229 23.2186 21.8941C23.1863 21.7653 23.4558 21.4756 23.4774 21.336C23.4989 21.1858 23.5097 20.9282 23.5097 20.8531C23.5097 20.778 23.6607 20.3058 23.7793 20.1233C23.8979 19.9409 24.0057 20.016 23.9841 19.737C23.9626 19.4472 23.9302 19.3828 23.8979 19.3077C23.8655 19.2326 23.5097 18.417 23.4558 18.3311C23.4019 18.2453 23.1431 17.7087 23.0892 17.5262C23.0353 17.3438 23.0138 17.2687 23.0138 17.2687C23.0138 17.2687 23.003 17.1291 22.9599 17.054C22.9167 16.9789 22.259 16.3994 22.1404 16.3457C22.0326 16.2813 21.418 15.9057 21.2779 15.8413C21.1377 15.7769 20.7388 15.573 20.7388 15.573C20.7388 15.573 20.6741 15.7769 20.6417 15.8628C20.6094 15.9486 20.577 16.0881 20.5663 16.1847C20.5555 16.2813 20.3722 16.5282 20.3291 16.5818C20.2859 16.6355 20.2859 16.6355 20.2859 16.6355C20.2859 16.6355 20.2105 16.6891 20.232 16.7857C20.2536 16.8823 20.2644 16.9145 20.2644 16.9145C20.2644 16.9145 20.2752 16.9789 20.1566 17.0647C20.038 17.1399 19.8007 17.215 19.8115 17.2901C19.8331 17.3652 19.8439 17.3974 19.8439 17.3974C19.8439 17.3974 20.1889 17.8804 20.2212 18.1057C20.2536 18.3311 20.1673 18.4277 20.1026 18.5458C20.038 18.6638 20.0272 18.8892 20.0919 18.9858C20.1566 19.0823 20.1781 19.1038 20.1781 19.1038C20.1781 19.1038 20.3075 19.2433 20.3183 19.2863C20.3291 19.3292 20.3398 19.4043 20.3506 19.4043C20.3614 19.415 20.8682 19.6619 20.9221 19.9838C20.976 20.3058 20.9005 20.4131 20.9436 20.4775C20.9868 20.5419 21.4612 20.9068 21.5043 21.0677C21.5474 21.2287 21.5474 21.2073 21.5474 21.2287C21.5582 21.2502 21.5582 21.3253 21.5905 21.379C21.6229 21.4326 21.6229 21.4326 21.6229 21.4326C21.6229 21.4326 21.666 21.5614 21.6552 21.658C21.6337 21.7439 21.6229 21.8512 21.666 21.9156C21.7091 21.9692 21.9356 22.1624 22.0542 22.538C22.1728 22.9244 22.162 23.1175 22.1943 23.2463C22.2267 23.3751 22.2051 23.3858 22.2914 23.4932C22.3776 23.6005 22.7119 24.2229 22.7119 24.341C22.7119 24.459 22.7119 24.459 22.7119 24.4805C22.7119 24.502 22.7119 24.5234 22.7119 24.5234C22.7119 24.5234 22.6903 24.5771 22.7442 24.6844C22.7873 24.7917 22.8952 25.1029 23.003 25.4571C23.1108 25.8112 23.1431 26.1332 23.3264 26.2727C23.4989 26.4122 23.6391 26.4766 23.8332 26.5517C24.0273 26.6269 24.1243 26.6591 24.2752 26.8308C24.4154 27.0025 24.6526 27.2815 24.8251 27.5713C24.9976 27.861 25.7308 28.6874 25.8925 28.945C26.0543 29.2025 26.0543 29.2025 26.0543 29.2025C26.0543 29.2025 26.0866 29.3206 26.1729 29.3635C26.2591 29.4064 26.2591 29.4064 26.3562 29.5138C26.4532 29.6318 26.8737 29.9216 27.1217 30.0825C27.3697 30.2435 27.5206 30.426 27.6069 30.6191C27.6931 30.8123 28.0166 31.3918 28.2107 31.5635C28.4047 31.7353 28.7605 32.1967 28.8899 32.4328C29.0085 32.6689 29.0624 33.227 28.8899 33.5275C28.7174 33.828 28.3939 34.0533 28.0705 33.989C27.7578 33.9246 27.2834 33.5811 27.2403 33.5275C27.1972 33.4738 26.809 32.948 26.7767 32.8406C26.7443 32.7333 26.6581 32.4972 26.6041 32.4114C26.5502 32.3255 26.2699 31.7675 26.2699 31.7675H26.2376C26.2376 31.7675 26.0004 31.7353 26.0004 31.6387C26.0111 31.5421 26.0219 31.5206 26.0219 31.5206C26.0219 31.5206 26.0543 31.4992 25.9896 31.4348C25.9249 31.3704 25.9141 31.3382 25.9141 31.3382C25.9141 31.3382 25.8063 31.2738 25.72 31.145C25.6338 31.027 25.5367 30.9518 25.5044 30.8123C25.472 30.6728 25.472 30.6728 25.472 30.6728C25.472 30.6728 25.4936 30.6943 25.4397 30.5977C25.3858 30.5011 25.0731 30.1469 25.0084 29.9967C24.9437 29.8464 24.9545 29.8464 24.8575 29.7928C24.7604 29.7391 24.7281 29.7069 24.7281 29.7069C24.7281 29.7069 24.3184 29.4172 24.2645 29.385C24.2106 29.3528 23.5313 28.902 23.3696 28.7518C23.2078 28.5908 23.1863 28.5693 23.1863 28.5693C23.1863 28.5693 22.9491 28.344 22.9059 28.2796C22.8628 28.2045 22.8089 28.0113 22.7011 27.9254C22.5933 27.8396 22.2267 27.7215 21.8493 27.3888C21.4719 27.0561 21.0946 26.6269 21.073 26.5839C21.0407 26.5517 20.5231 25.9293 20.2644 25.5322C20.0056 25.1351 19.7361 24.6629 19.7361 24.6629C19.7361 24.6629 19.3263 24.7273 19.0999 24.5449C18.8735 24.3624 18.8412 24.2337 18.798 24.1263C18.7657 24.019 18.701 23.8473 18.6579 23.7829C18.6147 23.7185 18.3236 23.4073 18.3236 23.4073C18.3236 23.4073 17.7737 23.6649 17.5797 23.8902C17.3964 24.1156 17.2346 24.2766 17.0945 24.298C16.9543 24.3195 16.9004 24.3195 16.9004 24.3195L16.7926 24.2873C16.7926 24.2873 16.5123 24.6844 16.5662 24.8561C16.6201 25.0278 16.7926 25.4034 16.9112 25.5966C17.0298 25.7898 17.2778 26.2298 17.3101 26.541C17.3425 26.8522 17.2454 27.6357 17.3425 28.0542C17.4503 28.4835 17.6444 29.2562 17.7522 29.5996C17.86 29.943 18.2266 31.1987 18.2805 31.2309C18.3344 31.2631 18.4854 31.3918 18.5177 31.4562C18.5393 31.5206 18.5069 31.5635 18.5285 31.6279C18.55 31.6923 18.8735 32.1753 19.0784 32.4006C19.2832 32.6153 19.3803 32.8836 19.4018 32.9694C19.4234 33.0553 19.4234 33.0553 19.4234 33.0553C19.4234 33.0553 19.391 33.2055 19.3587 33.2485C19.3263 33.2806 18.7872 33.5597 18.6902 33.6026C18.5932 33.6455 18.5608 33.6563 18.5608 33.6563C18.5608 33.6563 18.2158 33.6563 18.1295 33.667C18.0325 33.6777 17.1268 33.7314 16.7818 33.7314C16.4368 33.7314 16.1133 33.6992 16.0163 33.4202C15.9193 33.1411 15.9947 32.6689 16.3074 32.4758C16.6201 32.2719 16.8249 32.1967 16.8249 32.1967C16.8249 32.1967 16.6848 32.1323 16.7171 32.025C16.7495 31.9177 16.7495 31.9177 16.7495 31.9177C16.7495 31.9177 16.7818 31.9177 16.771 31.8533C16.7495 31.7889 16.7495 31.7889 16.7495 31.7889C16.7495 31.7889 16.6956 31.7675 16.7387 31.6816C16.7818 31.5957 16.7818 31.5957 16.7818 31.5957C16.7818 31.5957 16.9435 31.5206 16.9543 31.4992C16.9651 31.4777 16.7171 30.8767 16.6524 30.7587C16.5877 30.6406 16.2858 29.7928 16.2751 29.6962C16.2643 29.5889 16.2427 29.503 16.2427 29.4601C16.2319 29.4172 16.0163 28.4942 15.833 28.2474C15.6497 28.0006 15.143 26.9703 15.0244 26.4981C14.9058 26.0259 14.9381 25.1566 14.8626 24.8668C14.7979 24.5771 14.6362 24.18 14.5715 23.9761C14.496 23.7829 14.5176 23.8366 14.4853 23.7507C14.4529 23.6649 14.4637 23.2034 14.4637 23.1819C14.4745 23.1605 14.3882 22.5595 14.3559 22.3556C14.3343 22.1517 14.2696 21.6258 14.4853 21.1858C14.7117 20.7565 14.8734 20.5633 14.9597 20.4668C15.0459 20.3702 15.24 20.2414 15.2184 20.1019C15.2076 19.9624 15.0675 19.8765 15.143 19.7477C15.2184 19.6297 15.1969 19.5975 15.1214 19.4472C15.0459 19.297 15.0136 19.2433 15.0136 19.2433C15.0136 19.2433 14.8087 18.9858 14.7332 18.8248C14.6686 18.6638 14.4853 17.6979 14.5176 17.2579C14.5499 16.8072 14.5176 16.2921 14.5607 16.0667C14.5931 15.8413 14.6039 15.8091 14.6039 15.8091C14.6039 15.8091 14.5823 15.6696 14.6254 15.5516C14.6686 15.4335 14.7764 15.2403 14.7548 15.1545C14.7332 15.0686 14.5607 14.693 14.5607 14.6071C14.5607 14.5213 14.5607 14.0062 14.5607 14.0062C14.5607 14.0062 13.709 14.0491 13.3747 13.931C13.0405 13.813 12.6739 13.6198 12.6523 13.6091C12.62 13.5983 11.8976 13.1261 11.7574 13.0296C11.6173 12.933 11.5957 12.9115 11.5957 12.9115C11.5957 12.9115 11.1752 12.611 11.1105 12.5574C11.0458 12.5037 11.0135 12.4715 11.0135 12.4715C11.0135 12.4715 10.9596 12.3964 11.0674 12.1495C11.1752 11.9027 11.3585 11.7095 11.5634 11.3768C11.7682 11.0442 12.1132 10.6041 12.3073 10.4002C12.5014 10.1963 13.1052 9.77779 13.2885 9.65974C13.4718 9.54169 13.5149 9.50949 13.5149 9.50949C13.5149 9.50949 13.9677 9.12314 14.0971 9.00509C14.2157 8.88704 14.2481 8.85485 14.2481 8.85485C14.2481 8.85485 14.4098 8.61874 14.4206 8.61874C14.4313 8.60801 14.4745 8.55435 14.4745 8.55435C14.4745 8.55435 13.9785 8.00703 14.151 7.26653C14.302 6.51529 15.089 5.98943 15.8869 6.00016C16.6848 6.01089 17.1807 6.50456 17.1807 6.50456C17.1807 6.50456 17.5905 6.82652 17.6228 7.43824C17.6551 8.04995 17.4719 8.24313 17.4611 8.26459C17.4503 8.29679 17.4503 8.29679 17.4503 8.29679L17.364 8.4363C17.364 8.4363 17.4179 8.48996 17.4072 8.57582C17.3964 8.66167 17.3101 8.76899 17.2886 8.80119C17.267 8.83338 17.1915 8.90851 17.1484 8.98363C17.1053 9.04802 16.8573 9.19827 16.4368 9.34851C16.0271 9.49876 15.5958 9.42364 15.5095 9.45583C15.4125 9.48803 15.2508 9.50949 15.1537 9.49876C15.0567 9.49876 14.6578 9.4773 14.647 9.50949C14.6362 9.54169 14.2049 10.2178 13.9354 10.4754C13.6766 10.7437 13.3855 11.0227 13.3639 11.0549C13.3424 11.0871 13.1375 11.452 13.0836 11.5378C13.0405 11.6344 12.7817 12.0959 12.7817 12.0959Z" fill="#145CF6"/>
</g>
</svg>
