<?xml version="1.0" encoding="UTF-8"?>
<svg width="24px" height="24px" viewBox="0 0 24 24" version="1.1" xmlns="http://www.w3.org/2000/svg" xmlns:xlink="http://www.w3.org/1999/xlink">
    <!-- Generator: Sketch 59 (86127) - https://sketch.com -->
    <title>sorting-icon</title>
    <desc>Created with Sketch.</desc>
    <g id="sorting-icon" stroke="none" stroke-width="1" fill="none" fill-rule="evenodd">
        <g id="descendant">
            <rect id="Rectangle" fill="#FFFFFF" opacity="0" x="0" y="0" width="24" height="24" rx="4"></rect>
            <path d="M9.01459035,6.3634323 C9.33741455,6.3634323 9.59738802,6.62340577 9.59738802,6.94622998 L9.59738802,6.94622998 L9.59738802,17.0252015 L12.0457096,14.5768799 C12.2714009,14.3511887 12.634221,14.3511887 12.8599123,14.5768799 C13.0856035,14.7997143 13.0856035,15.1653913 12.8627691,15.3910825 L12.8627691,15.3910825 L9.42312009,18.8307316 C9.19742883,19.0564228 8.83460871,19.0564228 8.60891746,18.8307316 L8.60891746,18.8307316 L5.16926844,15.3910825 C4.94357719,15.1653913 4.94357719,14.8025712 5.16926844,14.5768799 C5.3949597,14.3511887 5.75777982,14.3511887 5.98347107,14.5768799 L5.98347107,14.5768799 L8.43179267,17.0252015 L8.43179267,6.94622998 C8.43179267,6.62340577 8.69176615,6.3634323 9.01459035,6.3634323 Z M14.5768799,5.16926844 C14.8025712,4.94357719 15.1653913,4.94357719 15.3910825,5.16926844 L15.3910825,5.16926844 L18.8307316,8.60891746 C19.0564228,8.83460871 19.0564228,9.20028569 18.8307316,9.42312009 C18.6050403,9.64881135 18.2422202,9.64881135 18.0165289,9.42312009 L18.0165289,9.42312009 L15.5682073,6.97479849 L15.5682073,17.05377 C15.5682073,17.3765942 15.3082339,17.6365677 14.9854097,17.6365677 C14.6625855,17.6365677 14.402612,17.3765942 14.402612,17.05377 L14.402612,17.05377 L14.402612,6.97479849 L11.9542904,9.42312009 C11.7285991,9.64881135 11.365779,9.64881135 11.1400877,9.42312009 C10.9143965,9.19742883 10.9143965,8.83460871 11.1400877,8.60891746 L11.1400877,8.60891746 Z" id="Combined-Shape" fill="#7402D3" fill-rule="nonzero"></path>
        </g>
    </g>
</svg>