<svg width="16" height="16" viewBox="0 0 16 16" fill="none" xmlns="http://www.w3.org/2000/svg">
<path d="M8.18567 13.1691L9.58138 14.5648C9.70029 14.6837 9.86014 14.75 10.0278 14.75C10.1954 14.75 10.3553 14.6837 10.4742 14.5648L11.8699 13.1691C12.1174 12.9215 12.1174 12.5219 11.8699 12.2763C11.7471 12.1535 11.5853 12.0911 11.4235 12.0911C11.2617 12.0911 11.0999 12.1535 10.9771 12.2763L10.6516 12.6019V7.87378C10.6516 7.52875 10.3728 7.25 10.0278 7.25C9.68275 7.25 9.404 7.52875 9.404 7.87378V12.6019L9.07846 12.2763C8.8309 12.0288 8.43129 12.0288 8.18567 12.2763C7.93811 12.5239 7.93811 12.9235 8.18567 13.1691Z" fill="#8C94AB"/>
<path d="M7.87651 2.8309L6.47841 1.43519C6.3593 1.31628 6.19918 1.25 6.03125 1.25C5.86332 1.25 5.7032 1.31628 5.58409 1.43519L4.18599 2.8309C3.938 3.07846 3.938 3.47807 4.18599 3.72368C4.30901 3.84649 4.47108 3.90887 4.63315 3.90887C4.79522 3.90887 4.95729 3.84649 5.08031 3.72368L5.4064 3.39815V8.12622C5.4064 8.47125 5.68563 8.75 6.03125 8.75C6.37687 8.75 6.6561 8.47125 6.6561 8.12622V3.39815L6.98219 3.72368C7.23018 3.97125 7.63048 3.97125 7.87651 3.72368C8.1245 3.47612 8.1245 3.07651 7.87651 2.8309Z" fill="#8C94AB"/>
</svg>
