<?xml version="1.0" standalone="no"?>
<!DOCTYPE svg PUBLIC "-//W3C//DTD SVG 20010904//EN"
 "http://www.w3.org/TR/2001/REC-SVG-20010904/DTD/svg10.dtd">
<svg version="1.0" xmlns="http://www.w3.org/2000/svg"
 width="512.000000pt" height="512.000000pt" viewBox="0 0 512.000000 512.000000"
 preserveAspectRatio="xMidYMid meet">
<metadata>
Created by potrace 1.16, written by Peter Selinger 2001-2019
</metadata>
<g transform="translate(0.000000,512.000000) scale(0.100000,-0.100000)"
fill="#000000" stroke="none">
<path d="M3590 5106 c-88 -25 -163 -70 -235 -141 -110 -111 -155 -220 -155
-381 0 -154 48 -269 158 -380 163 -163 405 -200 620 -96 76 36 198 158 234
234 150 309 -6 667 -331 762 -65 19 -225 20 -291 2z" fill="#7402D3"/>
<path d="M2156 4473 c-11 -3 -233 -120 -495 -260 -305 -163 -489 -267 -513
-291 -107 -103 -86 -287 42 -373 43 -29 49 -30 135 -27 l90 3 423 219 423 218
232 -82 c128 -45 235 -84 239 -88 4 -4 -137 -227 -313 -496 -176 -268 -335
-518 -354 -555 -105 -209 -110 -363 -17 -506 35 -54 72 -85 358 -295 175 -129
371 -273 435 -320 l117 -86 -251 -555 -251 -554 -4 -82 c-3 -71 -1 -89 20
-135 31 -67 78 -114 147 -145 46 -22 63 -25 135 -21 95 5 144 25 201 83 35 35
79 130 349 750 300 689 310 712 310 775 0 74 -23 135 -72 191 -17 19 -173 139
-347 265 -211 153 -314 234 -312 244 2 8 114 193 249 411 l244 396 74 -230
c41 -126 87 -249 101 -273 15 -23 47 -54 71 -68 30 -17 193 -64 518 -147 424
-108 481 -121 542 -117 55 3 75 9 110 34 81 57 128 203 98 308 -14 51 -59 110
-101 132 -16 8 -215 60 -442 115 -226 55 -414 102 -415 104 -2 2 -57 167 -121
367 -65 200 -125 378 -135 395 -32 63 -82 107 -256 225 -96 65 -193 132 -215
148 -28 20 -174 75 -470 175 -345 118 -443 148 -495 151 -36 1 -74 0 -84 -3z" fill="#7402D3"/>
<path d="M1649 2053 l-135 -188 -540 -5 c-524 -5 -540 -6 -585 -26 -148 -69
-214 -221 -159 -366 28 -74 70 -122 142 -157 l61 -31 666 0 666 0 50 24 c28
13 64 39 81 57 31 34 311 439 320 463 3 8 -28 36 -80 71 -162 108 -316 258
-332 323 -4 12 -9 22 -13 22 -4 0 -68 -84 -142 -187z" fill="#7402D3"/>
</g>
</svg>
