<?xml version="1.0" encoding="UTF-8"?>
<svg width="40px" height="40px" viewBox="0 0 40 40" version="1.1" xmlns="http://www.w3.org/2000/svg" xmlns:xlink="http://www.w3.org/1999/xlink">
    <!-- Generator: Sketch 59 (86127) - https://sketch.com -->
    <title>transaction-icon</title>
    <desc>Created with Sketch.</desc>
    <g id="V2" stroke="none" stroke-width="1" fill="none" fill-rule="evenodd">
        <g id="02_Dashboard" transform="translate(-39.000000, -360.000000)">
            <g id="Group-28" transform="translate(14.000000, 340.000000)">
                <g id="Group-23" transform="translate(25.000000, 20.000000)">
                    <g id="transaction-icon">
                        <circle id="Oval" fill="#DBFBFF" cx="20" cy="20" r="20"></circle>
                        <path d="M25.525788,26.8829928 C25.8925125,26.5511248 26.4466319,26.6187416 26.7316797,26.9931654 L26.7611702,27.034452 L27.6767587,28.4074112 C27.9051217,28.7502772 27.8442392,29.2093545 27.5334176,29.4802292 C25.4867473,31.2674289 22.8725166,32.3192656 20.1567861,32.3583213 L20,32.3594489 L20,33.1786957 C20,33.7725413 19.3916068,34.1640612 18.8561396,33.9324337 L18.8128966,33.9122793 L14.7113337,31.3979288 C14.1231196,31.1036132 14.1072219,30.2790439 14.6636406,29.9562627 L14.7113337,29.9305479 L18.8128966,27.4704578 C19.3439242,27.2050474 19.9662918,27.5741578 19.9986802,28.1565731 L20,28.2042551 L20,29.0235019 C22.049927,29.0235019 24.0126958,28.2632152 25.525788,26.8829928 Z M8.60235472,14.7113576 C8.89646169,14.1229341 9.72102305,14.1070308 10.044,14.6636476 L10.0697316,14.7113576 L12.5296013,18.8129319 C12.795011,19.3439609 12.4261041,19.9659252 11.8435038,19.9982924 L11.795806,19.9996113 L10.9765615,19.9996113 C10.9765615,22.0495439 11.736846,24.0127453 13.1170647,25.5260553 C13.4415047,25.8793355 13.3913158,26.4380066 13.0101697,26.7299148 L12.9664604,26.7612273 L11.5926504,27.6768183 C11.249999,27.905182 10.7907094,27.8445129 10.5198354,27.5334768 C8.73330154,25.4875579 7.73418927,22.8744966 7.69642258,20.159838 L7.69531114,20.0000385 L6.82137914,20.0000385 C6.22774314,20.0000385 5.83602724,19.3916437 6.06744633,18.856175 L6.08758388,18.8129319 L8.60235472,14.7113576 Z M20,14.2578346 C20.4371186,14.2578346 20.7939879,14.5988948 20.818921,15.0299023 L20.8203126,15.0781494 L20.8203126,16.2925999 C21.7685854,16.6348251 22.4521792,17.5350351 22.4521792,18.5997354 C22.4521792,19.0530449 22.0851748,19.4200503 21.6318666,19.4200503 C21.1945421,19.4200503 20.837864,19.0787914 20.8129448,18.6479613 L20.8115541,18.5997354 C20.8115541,18.1470669 20.4436951,17.7794206 19.9912415,17.7794206 C19.5385742,17.7794206 19.1709289,18.1470669 19.1709289,18.5995218 C19.1709289,19.0360236 19.5127827,19.3934678 19.9430796,19.4184427 L19.9912415,19.4198367 C21.3481752,19.4198367 22.4521792,20.5238437 22.4521792,21.8807812 C22.4521792,22.9190723 21.8023379,23.8005887 20.8909302,24.1612102 L20.8203126,24.1879167 L20.8203126,24.9219276 C20.8203126,25.375237 20.4533081,25.7422425 20,25.7422425 C19.5628814,25.7422425 19.2060121,25.4009836 19.181079,24.9701535 L19.1796874,24.9219276 L19.1796874,24.193471 C18.2224424,23.8561592 17.5303037,22.9521039 17.5303037,21.8809948 C17.5303037,21.4274718 17.8970945,21.06068 18.3506163,21.06068 C18.7877348,21.06068 19.1446042,21.4017402 19.1695373,21.8327477 L19.1723228,21.9291355 C19.1972977,22.3592563 19.5547409,22.7013097 19.9912415,22.7013097 C20.4436951,22.7013097 20.8115541,22.3334498 20.8115541,21.8809948 C20.8115541,21.4283263 20.4436951,21.06068 19.9912415,21.06068 C18.6340941,21.06068 17.5303037,19.9566729 17.5303037,18.5997354 C17.5303037,17.5551959 18.1882681,16.6696648 19.1083978,16.3135985 L19.1796874,16.2872593 L19.1796874,15.0781494 C19.1796874,14.6246264 19.5466919,14.2578346 20,14.2578346 Z M28.4073496,12.3232587 C28.7510691,12.0933997 29.210145,12.1549233 29.4801646,12.4666002 C31.2666985,14.5125192 32.2658107,17.1255805 32.3035774,19.8402391 L32.3046889,20.0000385 L33.1786209,20.0000385 C33.7722569,20.0000385 34.1639728,20.6084334 33.9325537,21.1439021 L33.9124161,21.1871452 L31.3976453,25.2887194 C31.1035383,25.8769351 30.278977,25.8928328 29.956,25.3364126 L29.9302684,25.2887194 L27.4703987,21.1871452 C27.204989,20.6561161 27.5738959,20.0337468 28.1564962,20.0013583 L28.204194,20.0000385 L29.0234385,20.0000385 C29.0234385,17.9501059 28.263154,15.9873317 26.8829353,14.4742353 C26.5572559,14.1157601 26.6121415,13.5585382 26.9924086,13.2688435 L27.0343941,13.2388498 L28.4073496,12.3232587 Z M20,6.8213814 C20,6.22774377 20.6083932,5.83602678 21.1438604,6.06744651 L21.1871034,6.08758412 L25.2886663,8.60214822 C25.8768804,8.89646388 25.8927781,9.72103313 25.3363594,10.0438143 L25.2886663,10.0695291 L21.1871034,12.5294056 C20.6560758,12.7950241 20.0337082,12.4259191 20.0013198,11.8435039 L20,11.7958219 L20,10.9765752 C17.950073,10.9765752 15.9873042,11.7368618 14.474212,13.1170843 C14.1149128,13.4440021 13.5576639,13.3867692 13.2687382,13.0074915 L13.2388298,12.9656251 L12.3232413,11.5926658 C12.0948783,11.2497999 12.1557608,10.7907226 12.4665824,10.5200615 C14.5124958,8.73331317 17.1255499,7.73419412 19.840201,7.69642725 L20,7.6953158 L20,6.8213814 Z" id="Shape" fill="#00A8C0" fill-rule="nonzero"></path>
                    </g>
                </g>
            </g>
        </g>
    </g>
</svg>