<svg width="456" height="256" viewBox="0 0 456 256" fill="none" xmlns="http://www.w3.org/2000/svg">
<rect width="456" height="256" fill="#F5F8FF"/>
<rect x="222.842" y="102.112" width="55" height="55" transform="rotate(15 222.842 102.112)" fill="white" stroke="#CEDDFD"/>
<path d="M228.048 136.648L235.638 149.794L253.801 135.497L259.887 166.276L212.406 153.554L228.048 136.648Z" fill="#CEDDFD"/>
<rect x="161.636" y="111.227" width="63" height="63" transform="rotate(-15 161.636 111.227)" fill="white" stroke="#CEDDFD"/>
<path d="M186.61 142.483L201.634 151.157L211.441 126.627L235.053 153.614L180.789 168.154L186.61 142.483Z" fill="#CEDDFD"/>
<path fill-rule="evenodd" clip-rule="evenodd" d="M150.666 87.6791C149.936 87.6791 149.333 88.2581 149.333 88.9591C149.333 89.6602 149.936 90.2391 150.666 90.2391C151.396 90.2391 151.999 89.6602 151.999 88.9591C151.999 88.2581 151.396 87.6791 150.666 87.6791ZM146.666 88.9591C146.666 86.8442 148.463 85.1191 150.666 85.1191C152.869 85.1191 154.666 86.8442 154.666 88.9591C154.666 91.0741 152.869 92.7991 150.666 92.7991C148.463 92.7991 146.666 91.0741 146.666 88.9591Z" fill="#CEDDFD"/>
<path fill-rule="evenodd" clip-rule="evenodd" d="M233.334 72.3198C232.604 72.3198 232.001 72.8987 232.001 73.5998C232.001 74.3008 232.604 74.8798 233.334 74.8798C234.064 74.8798 234.667 74.3008 234.667 73.5998C234.667 72.8987 234.064 72.3198 233.334 72.3198ZM229.334 73.5998C229.334 71.4848 231.131 69.7598 233.334 69.7598C235.537 69.7598 237.334 71.4848 237.334 73.5998C237.334 75.7147 235.537 77.4398 233.334 77.4398C231.131 77.4398 229.334 75.7147 229.334 73.5998Z" fill="#CEDDFD"/>
<path fill-rule="evenodd" clip-rule="evenodd" d="M284 187.521C283.27 187.521 282.667 188.1 282.667 188.801C282.667 189.502 283.27 190.081 284 190.081C284.73 190.081 285.333 189.502 285.333 188.801C285.333 188.1 284.73 187.521 284 187.521ZM280 188.801C280 186.686 281.797 184.961 284 184.961C286.203 184.961 288 186.686 288 188.801C288 190.916 286.203 192.641 284 192.641C281.797 192.641 280 190.916 280 188.801Z" fill="#CEDDFD"/>
<path fill-rule="evenodd" clip-rule="evenodd" d="M177.537 205.467V192.641H179.797V205.467H177.537Z" fill="#CEDDFD"/>
<path fill-rule="evenodd" clip-rule="evenodd" d="M172 197.967H185.333V200.141H172V197.967Z" fill="#CEDDFD"/>
<path fill-rule="evenodd" clip-rule="evenodd" d="M174.037 201.86L181.721 194.686L183.295 196.246L175.611 203.42L174.037 201.86Z" fill="#CEDDFD"/>
<path fill-rule="evenodd" clip-rule="evenodd" d="M175.749 194.602L183.206 201.993L181.585 203.507L174.127 196.116L175.749 194.602Z" fill="#CEDDFD"/>
<path fill-rule="evenodd" clip-rule="evenodd" d="M288.627 90.0471L296.49 79.2676L298.364 80.5263L290.5 91.3059L288.627 90.0471Z" fill="#CEDDFD"/>
<path fill-rule="evenodd" clip-rule="evenodd" d="M288.582 80.6191L299.755 88.1112L298.408 89.9545L287.235 82.4625L288.582 80.6191Z" fill="#CEDDFD"/>
<path fill-rule="evenodd" clip-rule="evenodd" d="M132.336 153.295V140.16H134.65V153.295H132.336Z" fill="#CEDDFD"/>
<path fill-rule="evenodd" clip-rule="evenodd" d="M126.666 145.615H140.32V147.842H126.666V145.615Z" fill="#CEDDFD"/>
</svg>
