<svg width="73" height="65" viewBox="0 0 73 65" fill="none" xmlns="http://www.w3.org/2000/svg">
<path fill-rule="evenodd" clip-rule="evenodd" d="M32.1515 0.569301C44.3529 -1.81352 56.2153 5.94639 58.6471 17.9019C66.5188 18.846 72.4502 25.3717 72.4997 33.1424C72.5535 41.6757 65.5377 48.6358 56.8294 48.6891H45.5658C44.3216 48.6891 43.313 47.7009 43.313 46.4818C43.313 45.2626 44.3216 44.2744 45.5658 44.2744H56.8289C63.0499 44.2744 68.0925 39.3333 68.0925 33.2382C68.0925 27.1425 63.0499 22.2014 56.8289 22.2014C55.6523 22.209 54.6459 21.3752 54.4569 20.2374C53.4956 12.0921 46.9385 5.66757 38.6263 4.7251C28.7392 3.60447 19.7969 10.5495 18.6533 20.2374C18.5269 21.3553 17.5623 22.202 16.4143 22.2014C10.1933 22.1659 5.12093 27.078 5.08413 33.1731C5.04788 39.2682 10.0604 44.2383 16.2813 44.2744H27.5444C28.7886 44.2744 29.7972 45.2626 29.7972 46.4818C29.7972 47.7009 28.7886 48.6891 27.5444 48.6891H16.2813C8.2663 48.6945 1.52238 42.8082 0.605031 35.0063C-0.391423 26.5289 5.81417 18.8654 14.4653 17.8885C16.2495 9.14519 23.2274 2.31214 32.1515 0.569301ZM47.7046 39.8027C46.8097 40.6499 45.3837 40.6257 44.5191 39.7484L38.8084 34.1506V61.9317C38.8084 63.1508 37.7999 64.139 36.5563 64.139C35.3121 64.139 34.3035 63.1508 34.3035 61.9317V34.1506L28.5929 39.7484C28.5802 39.7612 28.5672 39.774 28.5542 39.7866C28.5486 39.792 28.543 39.7974 28.5374 39.8027C27.6426 40.6494 26.2165 40.6252 25.3519 39.7484C24.4878 38.8715 24.5126 37.4743 25.4074 36.6276L34.9611 27.2643C34.9622 27.2626 34.9638 27.2616 34.9649 27.26C35.846 26.3993 37.2726 26.4009 38.1509 27.2643L47.7046 36.6276L47.7047 36.6277C47.7233 36.6454 47.742 36.6632 47.7601 36.682C48.6241 37.5588 48.5994 38.9561 47.7046 39.8027Z" fill="#3B77F7"/>
</svg>
