<?xml version="1.0" encoding="UTF-8"?>
<svg width="40px" height="40px" viewBox="0 0 40 40" version="1.1" xmlns="http://www.w3.org/2000/svg" xmlns:xlink="http://www.w3.org/1999/xlink">
    <!-- Generator: Sketch 59 (86127) - https://sketch.com -->
    <title>user-dashboard-icon</title>
    <desc>Created with Sketch.</desc>
    <g id="V2" stroke="none" stroke-width="1" fill="none" fill-rule="evenodd">
        <g id="02_Dashboard" transform="translate(-39.000000, -548.000000)">
            <g id="Group-25" transform="translate(15.000000, 528.000000)">
                <g id="Group-23" transform="translate(24.000000, 20.000000)">
                    <g id="user-dashboard-icon">
                        <circle id="Oval" fill="#F6EBFF" cx="20" cy="20" r="20"></circle>
                        <path d="M24.3097643,18.2010582 C26.0983165,18.2010582 27.5313131,16.7830688 27.5313131,15.026455 C27.5313131,13.2698413 26.0983165,11.8518519 24.3097643,11.8518519 C22.5212121,11.8518519 21.0774411,13.2698413 21.0774411,15.026455 C21.0774411,16.7830688 22.5212121,18.2010582 24.3097643,18.2010582 Z M15.6902357,18.2010582 C17.4787879,18.2010582 18.9117845,16.7830688 18.9117845,15.026455 C18.9117845,13.2698413 17.4787879,11.8518519 15.6902357,11.8518519 C13.9016835,11.8518519 12.4579125,13.2698413 12.4579125,15.026455 C12.4579125,16.7830688 13.9016835,18.2010582 15.6902357,18.2010582 Z M15.6902357,20.3174603 C13.179798,20.3174603 8.14814815,21.5555556 8.14814815,24.021164 L8.14814815,26.6666667 L23.2323232,26.6666667 L23.2323232,24.021164 C23.2323232,21.5555556 18.2006734,20.3174603 15.6902357,20.3174603 Z M24.3097643,20.3174603 C23.9973064,20.3174603 23.6417508,20.3386243 23.2646465,20.3703704 C24.5144781,21.2592593 25.3872054,22.4550265 25.3872054,24.021164 L25.3872054,26.6666667 L31.8518519,26.6666667 L31.8518519,24.021164 C31.8518519,21.5555556 26.820202,20.3174603 24.3097643,20.3174603 Z" id="Shape" fill="#7402D3" fill-rule="nonzero"></path>
                    </g>
                </g>
            </g>
        </g>
    </g>
</svg>