<svg width="21" height="20" viewBox="0 0 21 20" fill="none" xmlns="http://www.w3.org/2000/svg">
<path d="M6.66765 19.5255L5.25104 17.1319L2.56437 16.5457C2.32012 16.4969 2.12473 16.3707 1.97818 16.1671C1.83164 15.9636 1.77465 15.7397 1.80721 15.4955L2.07588 12.7355L0.24406 10.635C0.0812312 10.4559 -0.000183105 10.2442 -0.000183105 10C-0.000183105 9.75576 0.0812312 9.54408 0.24406 9.36497L2.07588 7.26448L1.80721 4.50454C1.77465 4.26029 1.83164 4.0364 1.97818 3.83287C2.12473 3.62933 2.32012 3.50314 2.56437 3.45429L5.25104 2.86811L6.66765 0.474529C6.79791 0.262852 6.97702 0.120377 7.20498 0.047104C7.43294 -0.0261689 7.6609 -0.0139567 7.88886 0.0837404L10.429 1.15841L12.9691 0.0837404C13.1971 -0.0139567 13.425 -0.0261689 13.653 0.047104C13.881 0.120377 14.0601 0.262852 14.1903 0.474529L15.6069 2.86811L18.2936 3.45429C18.5378 3.50314 18.7332 3.62933 18.8798 3.83287C19.0263 4.0364 19.0833 4.26029 19.0508 4.50454L18.7821 7.26448L20.6139 9.36497C20.7767 9.54408 20.8582 9.75576 20.8582 10C20.8582 10.2442 20.7767 10.4559 20.6139 10.635L18.7821 12.7355L19.0508 15.4955C19.0833 15.7397 19.0263 15.9636 18.8798 16.1671C18.7332 16.3707 18.5378 16.4969 18.2936 16.5457L15.6069 17.1319L14.1903 19.5255C14.0601 19.7371 13.881 19.8796 13.653 19.9529C13.425 20.0262 13.1971 20.014 12.9691 19.9163L10.429 18.8416L7.88886 19.9163C7.6609 20.014 7.43294 20.0262 7.20498 19.9529C6.97702 19.8796 6.79791 19.7371 6.66765 19.5255ZM9.40317 10.6839L7.98656 9.2917C7.80745 9.11258 7.58356 9.02303 7.31489 9.02303C7.04622 9.02303 6.81419 9.12072 6.6188 9.31612C6.43969 9.49523 6.35013 9.72319 6.35013 10C6.35013 10.2768 6.43969 10.5048 6.6188 10.6839L8.71929 12.7844C8.91468 12.9798 9.14264 13.0775 9.40317 13.0775C9.66369 13.0775 9.89165 12.9798 10.087 12.7844L14.2392 8.63224C14.4346 8.43685 14.5282 8.20889 14.5201 7.94836C14.5119 7.68783 14.4183 7.45987 14.2392 7.26448C14.0438 7.06909 13.8117 6.96732 13.5431 6.95918C13.2744 6.95103 13.0424 7.04466 12.847 7.24006L9.40317 10.6839Z" fill="#3B77F7"/>
</svg>
