<svg width="24" height="24" viewBox="0 0 24 24" fill="none" xmlns="http://www.w3.org/2000/svg">
<rect x="0.5" y="0.5" width="23" height="23" rx="3.5" fill="#E6FAEF"/>
<g clip-path="url(#clip0_321_11924)">
<path d="M11.8797 6.66675C15.4743 6.66675 18.465 8.96601 19.0923 12.0001C18.4657 15.0342 15.4743 17.3334 11.8797 17.3334C8.28499 17.3334 5.29433 15.0342 4.66699 12.0001C5.29366 8.96601 8.28499 6.66675 11.8797 6.66675ZM11.8797 16.1482C13.2393 16.148 14.5586 15.7375 15.6216 14.9839C16.6845 14.2303 17.4283 13.1783 17.731 12.0001C17.4271 10.8228 16.683 9.77193 15.6201 9.01936C14.5572 8.26678 13.2385 7.85699 11.8797 7.85699C10.5208 7.85699 9.20212 8.26678 8.13924 9.01936C7.07637 9.77193 6.33217 10.8228 6.02833 12.0001C6.33106 13.1783 7.07477 14.2303 8.13775 14.9839C9.20073 15.7375 10.52 16.148 11.8797 16.1482V16.1482ZM11.8797 14.6667C11.084 14.6667 10.3209 14.3858 9.75834 13.8857C9.19573 13.3856 8.87966 12.7073 8.87966 12.0001C8.87966 11.2928 9.19573 10.6146 9.75834 10.1145C10.3209 9.61437 11.084 9.33341 11.8797 9.33341C12.6753 9.33341 13.4384 9.61437 14.001 10.1145C14.5636 10.6146 14.8797 11.2928 14.8797 12.0001C14.8797 12.7073 14.5636 13.3856 14.001 13.8857C13.4384 14.3858 12.6753 14.6667 11.8797 14.6667ZM11.8797 13.4816C12.3217 13.4816 12.7456 13.3255 13.0582 13.0476C13.3707 12.7698 13.5463 12.393 13.5463 12.0001C13.5463 11.6072 13.3707 11.2303 13.0582 10.9525C12.7456 10.6747 12.3217 10.5186 11.8797 10.5186C11.4376 10.5186 11.0137 10.6747 10.7011 10.9525C10.3886 11.2303 10.213 11.6072 10.213 12.0001C10.213 12.393 10.3886 12.7698 10.7011 13.0476C11.0137 13.3255 11.4376 13.4816 11.8797 13.4816Z" fill="#39C679"/>
</g>
<rect x="0.5" y="0.5" width="23" height="23" rx="3.5" stroke="#39C679"/>
<defs>
<clipPath id="clip0_321_11924">
<rect width="16" height="16" fill="white" transform="translate(4 4)"/>
</clipPath>
</defs>
</svg>
