<svg width="16" height="12" viewBox="0 0 16 12" fill="none" xmlns="http://www.w3.org/2000/svg">
<path d="M7.87966 0.666748C11.4743 0.666748 14.465 2.96601 15.0923 6.00008C14.4657 9.03415 11.4743 11.3334 7.87966 11.3334C4.28499 11.3334 1.29433 9.03415 0.666992 6.00008C1.29366 2.96601 4.28499 0.666748 7.87966 0.666748ZM7.87966 10.1482C9.2393 10.148 10.5586 9.73745 11.6216 8.98388C12.6845 8.23031 13.4283 7.17832 13.731 6.00008C13.4271 4.82278 12.683 3.77193 11.6201 3.01936C10.5572 2.26678 9.23853 1.85699 7.87966 1.85699C6.52079 1.85699 5.20212 2.26678 4.13924 3.01936C3.07637 3.77193 2.33217 4.82278 2.02833 6.00008C2.33106 7.17832 3.07477 8.23031 4.13775 8.98388C5.20074 9.73745 6.52001 10.148 7.87966 10.1482ZM7.87966 8.66675C7.08401 8.66675 6.32095 8.38579 5.75834 7.8857C5.19573 7.3856 4.87966 6.70732 4.87966 6.00008C4.87966 5.29284 5.19573 4.61456 5.75834 4.11446C6.32095 3.61437 7.08401 3.33341 7.87966 3.33341C8.67531 3.33341 9.43837 3.61437 10.001 4.11446C10.5636 4.61456 10.8797 5.29284 10.8797 6.00008C10.8797 6.70732 10.5636 7.3856 10.001 7.8857C9.43837 8.38579 8.67531 8.66675 7.87966 8.66675ZM7.87966 7.48156C8.32169 7.48156 8.74561 7.32548 9.05817 7.04765C9.37073 6.76981 9.54632 6.39299 9.54632 6.00008C9.54632 5.60717 9.37073 5.23035 9.05817 4.95251C8.74561 4.67468 8.32169 4.5186 7.87966 4.5186C7.43763 4.5186 7.01371 4.67468 6.70115 4.95251C6.38859 5.23035 6.21299 5.60717 6.21299 6.00008C6.21299 6.39299 6.38859 6.76981 6.70115 7.04765C7.01371 7.32548 7.43763 7.48156 7.87966 7.48156Z" fill="#39C679"/>
</svg>
