<?xml version="1.0" encoding="UTF-8"?>
<svg width="60px" height="60px" viewBox="0 0 60 60" version="1.1" xmlns="http://www.w3.org/2000/svg" xmlns:xlink="http://www.w3.org/1999/xlink">
    <!-- Generator: Sketch 59 (86127) - https://sketch.com -->
    <title>warning-icon</title>
    <desc>Created with Sketch.</desc>
    <g id="09/07/2020" stroke="none" stroke-width="1" fill="none" fill-rule="evenodd">
        <g id="Confirmation_pop-up" transform="translate(-653.000000, -282.000000)">
            <g id="Group-5" transform="translate(431.000000, 242.000000)">
                <g id="Group-2" transform="translate(40.000000, 40.000000)">
                    <g id="warning-icon" transform="translate(182.000000, 0.000000)">
                        <circle id="Oval" fill="#FF1E1E" cx="30" cy="30" r="30"></circle>
                        <path d="M33.3269883,32.9840601 L34.0012524,17.0835379 C34.0929182,14.9218707 32.4148505,13.0951834 30.2531834,13.0035175 C30.1978892,13.0011728 30.1425516,13 30.0872077,13 C27.9235979,13 26.1696455,14.7539523 26.1696455,16.9175622 C26.1696455,16.972906 26.1708183,17.0282437 26.1731631,17.0835379 L26.8474272,32.9840601 C26.921038,34.7199544 28.3497534,36.0893689 30.0872077,36.0893689 C31.824662,36.0893689 33.2533774,34.7199544 33.3269883,32.9840601 Z M29.7848732,47 C30.864338,47 31.7650164,46.6325812 32.4869084,45.8977437 C33.2088005,45.1629062 33.5697465,44.2230876 33.5697465,43.0782881 C33.5697465,41.9334886 33.2088005,40.99367 32.4869084,40.2588325 C31.7650164,39.523995 30.864338,39.1565762 29.7848732,39.1565762 C28.7054085,39.1565762 27.8047301,39.523995 27.0828381,40.2588325 C26.360946,40.99367 26,41.9334886 26,43.0782881 C26,44.2230876 26.360946,45.1629062 27.0828381,45.8977437 C27.8047301,46.6325812 28.7054085,47 29.7848732,47 Z" id="!" fill="#FFFFFF" fill-rule="nonzero"></path>
                    </g>
                </g>
            </g>
        </g>
    </g>
</svg>