<?xml version="1.0" encoding="UTF-8"?>
<svg width="40px" height="40px" viewBox="0 0 40 40" version="1.1" xmlns="http://www.w3.org/2000/svg" xmlns:xlink="http://www.w3.org/1999/xlink">
    <!-- Generator: Sketch 59 (86127) - https://sketch.com -->
    <title>withdrawals-icon</title>
    <desc>Created with Sketch.</desc>
    <g id="Design_30/06/2020" stroke="none" stroke-width="1" fill="none" fill-rule="evenodd">
        <g id="02_Dashboard" transform="translate(-722.000000, -172.000000)">
            <g id="Group-30" transform="translate(698.000000, 152.000000)">
                <g id="Group-23-Copy" transform="translate(24.000000, 20.000000)">
                    <g id="withdrawals-icon">
                        <circle id="Oval" fill="#FECDE3" cx="20" cy="20" r="20"></circle>
                        <path d="M26.8577118,13.0962982 L26.8577118,28.974762 C26.8577118,29.5160675 26.6468964,30.0246429 26.2642059,30.4069977 C25.9249319,30.7467194 25.4853973,30.9510364 25.0117354,30.9922461 L24.8326416,31 L15.1673584,31 C14.6260529,31 14.1174774,30.7891846 13.7351227,30.4063263 C13.395401,30.0670522 13.191084,29.6275177 13.1498743,29.1538558 L13.1421204,28.974762 L13.1421204,13.0962982 L26.8577118,13.0962982 Z M23.451767,26.2591705 L16.548233,26.2591705 C16.1922302,26.2591705 15.9037018,26.547699 15.9037018,26.9037018 C15.9037018,27.2298838 16.1461458,27.4996508 16.460766,27.5423468 L16.548233,27.548233 L23.451767,27.548233 C23.8077698,27.548233 24.0962982,27.2595368 24.0962982,26.9037018 C24.0962982,26.5773659 23.8538542,26.3077272 23.539234,26.2650536 L23.451767,26.2591705 Z M20,15.2133484 C17.7412872,15.2133484 15.9037018,17.0509339 15.9037018,19.3096466 C15.9037018,21.5683594 17.7412872,23.4059448 20,23.4059448 C22.2587128,23.4059448 24.0962982,21.5683594 24.0962982,19.3096466 C24.0962982,17.0509339 22.2587128,15.2133484 20,15.2133484 Z M20,16.5024109 C21.5503998,16.5024109 22.8072357,17.7592468 22.8072357,19.3096466 C22.8072357,20.8600464 21.5503998,22.1168823 20,22.1168823 C18.4496002,22.1168823 17.1927643,20.8600464 17.1927643,19.3096466 C17.1927643,17.7592468 18.4496002,16.5024109 20,16.5024109 Z M28.2844086,9 C29.0095062,9 29.6914673,9.28231809 30.2045746,9.79508971 C30.6710358,10.2620087 30.9467621,10.8679213 30.9930391,11.519005 L31,11.7155914 L31,14.4771729 C31,15.2021027 30.7176819,15.8840637 30.2049103,16.397171 C29.7379913,16.8636322 29.1320787,17.1393585 28.480995,17.1856355 L28.2844086,17.1925964 L28.1469421,17.1925964 L28.1469421,12.451767 C28.1469421,12.1255849 27.904357,11.855818 27.5898427,11.813122 L27.5024109,11.8072357 L12.497757,11.8072357 C12.1714211,11.8072357 11.9017824,12.0498208 11.8591088,12.3643352 L11.8532257,12.451767 L11.8532257,17.1925964 L11.7155914,17.1925964 C10.9904938,17.1925964 10.3087006,16.9104462 9.79542543,16.3976745 C9.32896421,15.9307556 9.05323791,15.324843 9.00696091,14.6737593 L9,14.4771729 L9,11.7155914 C9,10.9904938 9.28231809,10.3087006 9.79508971,9.79542543 C10.2618561,9.32896421 10.8678936,9.05323791 11.5190012,9.00696091 L11.7155914,9 L28.2844086,9 Z" id="Shape" fill="#F1046D" fill-rule="nonzero"></path>
                    </g>
                </g>
            </g>
        </g>
    </g>
</svg>