<svg width="40" height="40" viewBox="0 0 40 40" fill="none" xmlns="http://www.w3.org/2000/svg">
<mask id="mask0_2182_68846" style="mask-type:alpha" maskUnits="userSpaceOnUse" x="0" y="0" width="40" height="40">
<circle cx="20" cy="20" r="20" fill="white"/>
</mask>
<g mask="url(#mask0_2182_68846)">
<circle cx="20" cy="20" r="20" fill="white"/>
<circle cx="20" cy="20" r="19.5" fill="#F5F8FF" stroke="#7FA7FA"/>
<path d="M28.8853 17.9141C28.8713 17.4026 28.6 17.034 28.4937 16.7768C28.3873 16.5196 28.1719 16.4596 28.1719 16.4596C28.1719 16.4596 28.1943 16.4511 28.1719 16.3482C28.1104 16.0739 27.7859 15.8767 27.6572 15.8624C27.5313 15.8481 27.3355 16.0796 27.2152 16.1224C27.0949 16.1625 26.7536 16.3139 26.6193 16.3968C26.485 16.4796 26.3396 16.4596 26.3396 16.4596C26.306 16.2139 25.9983 16.0367 25.878 15.9939C25.7577 15.9538 25.3688 15.9624 25.229 15.9538C25.0891 15.9424 24.8681 15.9824 24.7422 15.9481C24.6135 15.9138 24.4233 16.131 24.4233 16.131C24.4205 16.1253 24.4177 16.1196 24.4149 16.111C24.3757 16.0224 24.2806 15.831 24.1184 15.7224C23.9365 15.5995 23.8498 15.5109 23.8498 15.5109C23.8638 15.4909 23.8358 15.4023 23.7491 15.2852C23.6624 15.168 23.6484 15.0394 23.5617 14.9766C23.4749 14.9137 23.3742 14.7251 23.3071 14.5794C23.2399 14.4365 23.2148 14.3336 23.1476 14.1279C23.0805 13.9221 22.907 13.6221 22.8539 13.5078C22.8007 13.3906 22.7392 13.2192 22.6664 13.1306C22.5937 13.042 22.5853 12.5848 22.5853 12.4819C22.5853 12.379 22.5126 12.1533 22.4594 12.0047C22.4063 11.8561 22.2664 11.5618 22.0986 11.3275C21.9307 11.096 21.7852 10.8645 21.6957 10.7617C21.609 10.6588 21.2817 10.3587 21.2817 10.3587C21.4943 10.2702 21.4747 10.1673 21.4943 10.0873C21.5139 10.0044 21.3153 9.84724 21.3153 9.84724C21.3153 9.84724 21.4076 9.75008 21.3964 9.72436C21.3824 9.69578 21.2957 9.59291 21.2621 9.60148C21.2285 9.6072 21.2145 9.40431 21.2034 9.35573C21.1894 9.30716 21.3181 9.32144 21.3824 9.27286C21.4495 9.22429 21.5167 9.22429 21.4887 9.0614C21.4607 8.89852 21.1334 8.67278 21.1334 8.67278C21.1334 8.67278 21.1726 8.54133 21.195 8.46703C21.2145 8.39274 21.181 8.29558 21.167 8.1727C21.153 8.04983 20.9124 8.06412 20.9124 8.06412C20.8844 7.46974 20.5236 7.07826 20.3165 6.79536C20.0536 6.42102 19.2955 6.15241 19.1136 6.11811C18.9318 6.08382 18.6716 5.98952 18.5261 6.00095C18.3779 6.01524 18.059 6.08382 17.3428 6.44388C16.6266 6.80679 16.4728 7.67263 16.4056 7.85837C16.3385 8.04411 16.3049 8.70421 16.3049 8.70421C16.3049 8.70421 16.165 8.68992 16.0503 8.70421C15.9357 8.7185 15.9832 8.79279 15.9776 9.01854C15.972 9.24429 16.0727 9.20428 16.0783 9.23857C16.0839 9.27286 16.179 9.82437 16.193 9.90724C16.207 9.99011 16.1734 10.0101 16.1734 10.0644C16.1734 10.1187 16.2406 10.153 16.2406 10.153C16.2406 10.153 15.6783 10.3845 15.4992 10.4673C15.3202 10.5502 15.1915 10.5416 14.618 11.0903C14.0417 11.6361 13.7284 12.3676 13.5074 12.9077C13.2864 13.4478 13.2053 14.4851 13.1857 14.7022C13.1661 14.9223 12.9983 15.4824 12.9787 15.8367C12.9591 16.191 13.0318 16.4854 13.0318 16.5539C13.0318 16.6225 13.0179 16.6968 13.0179 16.7654C13.0179 16.834 12.9171 16.9283 12.8976 17.0197C12.878 17.1083 12.864 17.2598 12.7829 17.4026C12.7017 17.5455 12.7241 17.9913 12.7297 18.2028C12.7353 18.4142 12.8976 18.7285 12.8976 18.8571C12.8976 18.9857 12.9311 19.3286 12.8976 19.5744C12.864 19.8201 12.9703 20.0173 13.0234 20.1145C13.0766 20.2116 13.1102 20.6831 13.085 21.0432C13.057 21.4032 13.2584 22.0948 13.2584 22.0948C13.2584 22.0948 13.057 22.3748 12.9591 22.512C12.8584 22.6491 12.6905 23.5092 12.6654 23.7064C12.6402 23.9036 12.5926 24.3265 12.5507 24.4494C12.5115 24.5723 12.3716 25.9039 12.3381 26.1096C12.3045 26.3154 12.2513 27.1212 12.2457 27.5584C12.2373 27.9956 12.3465 29.0415 12.38 29.2444C12.4136 29.4501 12.38 29.8102 12.38 29.9559C12.38 30.0988 12.2457 31.6162 12.2457 31.6762C12.2457 31.739 12.1982 31.9562 12.1982 31.9562C12.1059 32.0734 12.0387 32.3706 12.0108 32.5163C11.9576 32.7878 12.1171 32.9392 12.1506 32.9335C12.1842 32.9249 12.3185 32.9535 12.4164 32.8935C12.5143 32.8306 12.5367 32.8592 12.4639 33.0849C12.3912 33.3107 12.4108 33.4879 12.4639 33.7479C12.5171 34.0079 12.9115 34.0537 13.9494 33.9451C14.9845 33.8365 14.8586 33.7393 14.853 33.5221C14.8474 33.3107 14.7523 33.0364 14.7467 33.0192C14.7523 33.0221 14.7831 33.0306 14.867 33.0249C14.9593 33.0192 15.0069 32.9506 15.0544 32.7163C15.102 32.4849 14.9677 32.1905 14.9593 31.8562C14.9537 31.5219 15.1132 30.7989 15.1132 30.476C15.1132 30.1559 15.295 29.3215 15.3062 29.0215C15.3202 28.7214 15.3789 28.3728 15.4461 28.1614C15.5132 27.9499 15.7342 26.6583 15.7594 26.3668C15.7846 26.0725 16.0531 25.0066 16.0587 24.6694C16.0671 24.3294 16.3189 23.3292 16.3469 23.0692C16.3721 22.8091 16.1595 22.472 16.2126 22.2576C16.2434 22.1348 16.3021 22.0205 16.3189 21.9347C16.3301 21.8719 16.3637 21.8147 16.4112 21.7718C16.4672 21.7233 16.5119 21.6775 16.5119 21.6775C16.7469 21.3146 16.7581 20.9546 16.7581 20.9546C16.8728 21.0575 17.1582 21.1117 17.1582 21.1117C17.1861 21.3175 17.4379 21.7604 17.5722 21.8147C17.7065 21.869 17.961 22.2262 18.0813 22.2919C18.2016 22.3605 18.5821 22.9006 18.6828 23.1378C18.7891 23.3921 18.8562 23.8493 18.8171 24.0665C18.7779 24.2865 19.1864 25.1123 19.2703 25.4067C19.357 25.6981 19.7878 25.9125 19.8466 25.9439C19.9081 25.9753 20.297 27.4241 20.3585 27.5898C20.4201 27.7527 21.0047 28.7986 21.0495 28.8843C21.0943 28.9729 21.4244 30.3045 21.4859 30.4731C21.5447 30.6417 21.4719 30.8217 21.4467 31.0789C21.4216 31.3361 21.5558 31.6047 21.6733 31.7333C21.788 31.8619 22.314 32.1077 22.3811 32.3391C22.4454 32.5706 22.3252 33.0878 22.4874 33.245C22.7644 33.5193 23.184 33.485 24.012 33.445C24.8401 33.405 24.7198 33.265 24.7086 33.225C24.6974 33.185 24.7981 33.0564 24.8289 32.9335C24.8597 32.8106 24.3338 31.9848 24.2526 31.7647C24.1715 31.5447 24.1212 31.1647 24.1212 31.1647H24.2414C24.6359 31.1132 24.6331 30.7789 24.6359 30.616C24.6415 30.4531 24.4149 30.2217 24.2694 30.0216C24.124 29.8216 24.0344 29.2587 23.9533 28.9615C23.8722 28.6643 23.7239 27.8813 23.6568 27.6556C23.5896 27.4298 23.5477 26.8297 23.5253 26.7126C23.5057 26.5954 23.3686 25.7239 23.2903 25.3809C23.2092 25.038 23.1308 24.5151 23.0189 24.0493C22.9098 23.5835 22.5881 23.052 22.4231 22.8606C22.258 22.6691 22.2021 22.8091 22.0482 22.8006C21.8915 22.7891 21.7321 22.892 21.7377 22.852C21.7433 22.812 21.7013 22.1862 21.6733 22.0262C21.6426 21.8661 21.4887 21.186 21.4635 21.0432C21.4383 20.9003 21.4188 20.6088 21.2985 20.2945C21.1782 19.983 20.9963 19.2801 20.9516 19.0972C20.9068 18.9114 20.8705 18.5428 20.8705 18.4371C20.8705 18.3285 20.7949 18.2028 20.8313 18.217C20.8677 18.2313 21.9587 18.3913 22.009 18.4056C22.0594 18.4199 22.1629 18.5971 22.2888 18.5799C22.4147 18.5657 22.5294 18.6314 22.6748 18.6971C22.8203 18.7628 23.212 18.8971 23.2679 19.0343C23.3239 19.1715 23.5393 19.4858 23.6232 19.5915C23.7071 19.7001 24.1184 20.1545 24.2163 20.5745C24.2946 20.9203 24.6471 20.8546 24.7702 20.8174C24.7981 20.8088 24.8289 20.8146 24.8513 20.8317C24.9212 20.8831 25.0667 20.9803 25.159 20.9917C25.2849 21.006 25.408 20.9432 25.45 20.8803C25.4863 20.8203 25.5339 20.7746 25.7101 20.6974C25.8388 20.6403 25.9479 20.5488 25.9479 20.4745C25.9479 20.4459 25.9759 20.4259 26.0011 20.4345C26.0598 20.4545 26.1633 20.4717 26.2864 20.4402C26.4906 20.3888 26.5382 20.3688 26.6165 20.5488C26.6977 20.7288 26.9438 20.7174 27.0138 20.686C27.0837 20.6545 27.2991 20.646 27.3607 20.5374C27.4194 20.4288 27.2991 20.1173 27.2991 20.1173C27.2991 20.1173 27.4082 20.2088 27.4754 20.3831C27.4949 20.4374 27.5257 20.4802 27.5565 20.5145C27.6208 20.5831 27.7243 20.6002 27.8055 20.5545C27.8614 20.5231 27.9286 20.4859 27.9677 20.4659C28.0516 20.4259 28.1831 20.3031 28.2279 20.2631C28.2726 20.223 28.2279 20.0516 28.158 19.9602C28.0908 19.8716 27.6964 19.2 27.674 19.1572C27.6964 19.1772 27.9649 19.4401 28.0181 19.5087C28.074 19.5801 28.4181 19.7601 28.4489 19.7658C28.4797 19.7716 28.6839 19.6544 28.7286 19.5344C28.7734 19.4144 29 19.2486 29 19.2115C29 19.1686 28.8993 18.4256 28.8853 17.9141ZM16.3609 10.1673C16.3637 10.1587 16.3861 10.1844 16.3833 10.213C16.3805 10.2416 16.3553 10.1873 16.3609 10.1673ZM16.4 10.0587C16.3777 10.0501 16.3385 10.0358 16.3133 10.0301C16.2993 10.0273 16.2881 10.0158 16.2881 10.0015C16.2825 9.95868 16.2714 9.87295 16.2574 9.83295C16.2462 9.79294 16.2042 9.59577 16.1902 9.48718C16.1874 9.46718 16.1958 9.46432 16.2098 9.47861C16.263 9.53862 16.3553 9.63292 16.4196 9.67578C16.442 9.69007 16.4532 9.71864 16.4476 9.74436C16.4308 9.82152 16.4 9.97297 16.414 10.0444C16.4168 10.053 16.4084 10.0616 16.4 10.0587ZM16.4476 9.49861C16.4504 9.50718 16.4392 9.51576 16.4336 9.51004C16.3721 9.46146 16.2294 9.3443 16.2126 9.32716C16.193 9.30716 16.1371 9.26143 16.179 9.22714C16.179 9.22714 16.4644 9.19285 16.4616 9.21571C16.456 9.23286 16.4168 9.39574 16.4476 9.49861ZM20.5879 9.47289C20.6187 9.44718 20.7306 9.54719 20.7194 9.59291C20.7082 9.63863 20.6467 9.58148 20.6103 9.59291C20.5767 9.60434 20.5375 9.5129 20.5879 9.47289ZM21.9615 16.854C21.788 16.6768 20.7725 16.3282 20.5907 16.2596C20.4117 16.191 20.2438 16.1625 20.2438 16.1625C20.1907 15.9024 20.3641 15.1652 20.3585 15.0966C20.3529 15.028 20.3865 14.1964 20.3865 14.1964C20.5347 14.045 20.5459 13.6849 20.5459 13.6849C20.6662 13.7935 20.7278 13.8964 20.7334 13.9307C20.739 13.965 20.9208 14.4851 20.9404 14.5451C20.96 14.6079 21.1474 14.9137 21.2425 15.0909C21.3348 15.268 21.4104 15.4595 21.5363 15.5767C21.6621 15.6938 21.6705 15.8367 21.6705 15.8367C21.609 15.8367 21.5307 15.9681 21.5307 16.2139C21.5307 16.4596 21.8971 16.6368 21.9391 16.6368C21.9811 16.6368 22.1741 16.6425 22.1741 16.6425C22.0958 16.6511 21.9615 16.854 21.9615 16.854ZM27.4838 17.7941C27.4726 17.8284 27.411 17.6998 27.383 17.6998C27.3551 17.6998 27.2907 17.677 27.2739 17.697C27.26 17.717 27.2628 17.5141 27.2404 17.4884C27.2152 17.4626 27.3047 17.2969 27.383 17.314C27.4614 17.3283 27.5537 17.3912 27.5565 17.5312C27.5593 17.6712 27.4977 17.7627 27.4838 17.7941Z" fill="#145CF6"/>
</g>
</svg>
